M48
; DRILL file {KiCad 5.1.10} date Thu Aug 19 15:46:31 2021
; FORMAT={-:-/ absolute / inch / decimal}
; #@! TF.CreationDate,2021-08-19T15:46:31+12:00
; #@! TF.GenerationSoftware,Kicad,Pcbnew,5.1.10
FMAT,2
INCH
T1C0.0315
T2C0.0394
%
G90
G05
T1
X5.0Y-3.5
X5.0Y-3.6
X5.0Y-3.7
X5.0Y-3.8
X5.0Y-3.9
X5.0Y-4.0
X5.0Y-4.1
X5.0Y-4.2
X5.3Y-3.5
X5.3Y-3.6
X5.3Y-3.7
X5.3Y-3.8
X5.3Y-3.9
X5.3Y-4.0
X5.3Y-4.1
X5.3Y-4.2
X5.4Y-3.5
X5.4Y-3.5984
T2
X5.0Y-3.4
X5.0Y-4.3
X5.1Y-3.4
X5.1Y-4.3
X5.2Y-3.4
X5.2Y-4.3
X5.3Y-3.4
X5.3Y-4.3
X5.4Y-3.4
X5.4Y-3.7
X5.4Y-3.8
X5.4Y-3.9
X5.4Y-4.0
X5.4Y-4.1
X5.4Y-4.2
X5.4Y-4.3
T0
M30
