%TF.GenerationSoftware,KiCad,Pcbnew,5.1.8*%
%TF.CreationDate,2021-03-10T22:21:39+13:00*%
%TF.ProjectId,segment_TEST,7365676d-656e-4745-9f54-4553542e6b69,rev?*%
%TF.SameCoordinates,Original*%
%TF.FileFunction,Soldermask,Top*%
%TF.FilePolarity,Negative*%
%FSLAX46Y46*%
G04 Gerber Fmt 4.6, Leading zero omitted, Abs format (unit mm)*
G04 Created by KiCad (PCBNEW 5.1.8) date 2021-03-10 22:21:39*
%MOMM*%
%LPD*%
G01*
G04 APERTURE LIST*
%ADD10C,1.700000*%
%ADD11C,4.000000*%
%ADD12C,2.200000*%
%ADD13C,5.600000*%
%ADD14C,3.600000*%
%ADD15O,3.440000X1.700000*%
%ADD16O,2.335000X1.700000*%
%ADD17C,3.050000*%
%ADD18C,3.049999*%
%ADD19O,3.446250X1.700000*%
%ADD20O,1.700000X1.950000*%
G04 APERTURE END LIST*
D10*
%TO.C,SW30*%
X91757500Y-127000000D03*
D11*
X96837500Y-127000000D03*
D10*
X101917500Y-127000000D03*
D12*
X99377500Y-121920000D03*
X93027500Y-124460000D03*
%TD*%
D11*
%TO.C,SW29*%
X70643750Y-127000000D03*
D10*
X65563750Y-127000000D03*
X75723750Y-127000000D03*
D12*
X74453750Y-129540000D03*
X68103750Y-132080000D03*
D10*
X60801250Y-127000000D03*
D12*
X68421250Y-121920000D03*
D10*
X70961250Y-127000000D03*
D11*
X65881250Y-127000000D03*
D12*
X62071250Y-124460000D03*
%TD*%
%TO.C,SW15*%
X70802500Y-102870000D03*
X64452500Y-105410000D03*
D11*
X68262500Y-107950000D03*
D10*
X63182500Y-107950000D03*
X73342500Y-107950000D03*
%TD*%
%TO.C,SW2*%
X77470000Y-88900000D03*
D11*
X82550000Y-88900000D03*
D10*
X87630000Y-88900000D03*
D12*
X85090000Y-83820000D03*
X78740000Y-86360000D03*
%TD*%
D10*
%TO.C,SW58*%
X86995000Y-165100000D03*
D11*
X92075000Y-165100000D03*
D10*
X97155000Y-165100000D03*
D12*
X94615000Y-160020000D03*
X88265000Y-162560000D03*
%TD*%
%TO.C,SW57*%
X70802500Y-160020000D03*
X64452500Y-162560000D03*
D11*
X68262500Y-165100000D03*
D10*
X63182500Y-165100000D03*
X73342500Y-165100000D03*
%TD*%
D13*
%TO.C,H10*%
X215900000Y-156210000D03*
D14*
X215900000Y-156210000D03*
%TD*%
D13*
%TO.C,H9*%
X177800000Y-156210000D03*
D14*
X177800000Y-156210000D03*
%TD*%
D13*
%TO.C,H8*%
X101600000Y-156210000D03*
D14*
X101600000Y-156210000D03*
%TD*%
D13*
%TO.C,H7*%
X50800000Y-171450000D03*
D14*
X50800000Y-171450000D03*
%TD*%
D13*
%TO.C,H6*%
X342900000Y-68580000D03*
D14*
X342900000Y-68580000D03*
%TD*%
D13*
%TO.C,H5*%
X292100000Y-99060000D03*
D14*
X292100000Y-99060000D03*
%TD*%
D13*
%TO.C,H4*%
X215900000Y-99060000D03*
D14*
X215900000Y-99060000D03*
%TD*%
D13*
%TO.C,H3*%
X177800000Y-99060000D03*
D14*
X177800000Y-99060000D03*
%TD*%
D13*
%TO.C,H2*%
X101600000Y-99060000D03*
D14*
X101600000Y-99060000D03*
%TD*%
D13*
%TO.C,H1*%
X50800000Y-68580000D03*
D14*
X50800000Y-68580000D03*
%TD*%
D15*
%TO.C,SW43*%
X81356250Y-146050000D03*
D16*
X70643750Y-146050000D03*
D11*
X87306250Y-137810000D03*
D17*
X87306250Y-153050000D03*
D12*
X71596250Y-143510000D03*
D17*
X63506250Y-153050000D03*
D12*
X77946250Y-140970000D03*
D11*
X75406250Y-146050000D03*
X63506250Y-137810000D03*
D12*
X68421250Y-140970000D03*
X62071250Y-143510000D03*
D11*
X65881250Y-146050000D03*
D10*
X60801250Y-146050000D03*
%TD*%
%TO.C,SW42*%
G36*
G01*
X317342828Y-125240528D02*
X317342828Y-125240528D01*
G75*
G02*
X320053373Y-126048577I951248J-1759297D01*
G01*
X321337721Y-128423927D01*
G75*
G02*
X320529672Y-131134472I-1759297J-951248D01*
G01*
X320529672Y-131134472D01*
G75*
G02*
X317819127Y-130326423I-951248J1759297D01*
G01*
X316534779Y-127951073D01*
G75*
G02*
X317342828Y-125240528I1759297J951248D01*
G01*
G37*
G36*
G01*
X326059278Y-116524078D02*
X326059278Y-116524078D01*
G75*
G02*
X328769823Y-115716029I1759297J-951248D01*
G01*
X331145173Y-117000377D01*
G75*
G02*
X331953222Y-119710922I-951248J-1759297D01*
G01*
X331953222Y-119710922D01*
G75*
G02*
X329242677Y-120518971I-1759297J951248D01*
G01*
X326867327Y-119234623D01*
G75*
G02*
X326059278Y-116524078I951248J1759297D01*
G01*
G37*
X325437500Y-113030000D03*
X325437500Y-102870000D03*
D11*
X325437500Y-107950000D03*
D12*
X327977500Y-104140000D03*
X330517500Y-110490000D03*
D17*
X334818750Y-129375000D03*
D11*
X319578750Y-105575000D03*
D10*
X327818750Y-112395000D03*
D12*
X325278750Y-121285000D03*
D10*
X327818750Y-122555000D03*
D17*
X334818750Y-105575000D03*
D12*
X322738750Y-114935000D03*
%TD*%
D16*
%TO.C,SW14*%
X325437500Y-88900000D03*
X315912500Y-88900000D03*
D12*
X307340000Y-86360000D03*
X313690000Y-83820000D03*
D11*
X311150000Y-88900000D03*
D10*
X306070000Y-88900000D03*
D11*
X332575000Y-80660000D03*
D17*
X332575000Y-95900000D03*
X308775000Y-95900000D03*
D11*
X308775000Y-80660000D03*
D12*
X323215000Y-83820000D03*
D11*
X320675000Y-88900000D03*
D12*
X316865000Y-86360000D03*
%TD*%
D10*
%TO.C,SW1*%
X58420000Y-88900000D03*
D11*
X63500000Y-88900000D03*
D10*
X68580000Y-88900000D03*
D12*
X66040000Y-83820000D03*
X59690000Y-86360000D03*
%TD*%
D10*
%TO.C,SW3*%
X96520000Y-88900000D03*
D11*
X101600000Y-88900000D03*
D10*
X106680000Y-88900000D03*
D12*
X104140000Y-83820000D03*
X97790000Y-86360000D03*
%TD*%
D10*
%TO.C,SW4*%
X115570000Y-88900000D03*
D11*
X120650000Y-88900000D03*
D10*
X125730000Y-88900000D03*
D12*
X123190000Y-83820000D03*
X116840000Y-86360000D03*
%TD*%
D10*
%TO.C,SW5*%
X134620000Y-88900000D03*
D11*
X139700000Y-88900000D03*
D10*
X144780000Y-88900000D03*
D12*
X142240000Y-83820000D03*
X135890000Y-86360000D03*
%TD*%
D10*
%TO.C,SW6*%
X153670000Y-88900000D03*
D11*
X158750000Y-88900000D03*
D10*
X163830000Y-88900000D03*
D12*
X161290000Y-83820000D03*
X154940000Y-86360000D03*
%TD*%
D10*
%TO.C,SW7*%
X172720000Y-88900000D03*
D11*
X177800000Y-88900000D03*
D10*
X182880000Y-88900000D03*
D12*
X180340000Y-83820000D03*
X173990000Y-86360000D03*
%TD*%
D10*
%TO.C,SW8*%
X191770000Y-88900000D03*
D11*
X196850000Y-88900000D03*
D10*
X201930000Y-88900000D03*
D12*
X199390000Y-83820000D03*
X193040000Y-86360000D03*
%TD*%
D10*
%TO.C,SW9*%
X210820000Y-88900000D03*
D11*
X215900000Y-88900000D03*
D10*
X220980000Y-88900000D03*
D12*
X218440000Y-83820000D03*
X212090000Y-86360000D03*
%TD*%
D10*
%TO.C,SW10*%
X229870000Y-88900000D03*
D11*
X234950000Y-88900000D03*
D10*
X240030000Y-88900000D03*
D12*
X237490000Y-83820000D03*
X231140000Y-86360000D03*
%TD*%
D10*
%TO.C,SW11*%
X248920000Y-88900000D03*
D11*
X254000000Y-88900000D03*
D10*
X259080000Y-88900000D03*
D12*
X256540000Y-83820000D03*
X250190000Y-86360000D03*
%TD*%
D10*
%TO.C,SW12*%
X267970000Y-88900000D03*
D11*
X273050000Y-88900000D03*
D10*
X278130000Y-88900000D03*
D12*
X275590000Y-83820000D03*
X269240000Y-86360000D03*
%TD*%
D10*
%TO.C,SW13*%
X287020000Y-88900000D03*
D11*
X292100000Y-88900000D03*
D10*
X297180000Y-88900000D03*
D12*
X294640000Y-83820000D03*
X288290000Y-86360000D03*
%TD*%
D10*
%TO.C,SW16*%
X86995000Y-107950000D03*
D11*
X92075000Y-107950000D03*
D10*
X97155000Y-107950000D03*
D12*
X94615000Y-102870000D03*
X88265000Y-105410000D03*
%TD*%
D10*
%TO.C,SW17*%
X106045000Y-107950000D03*
D11*
X111125000Y-107950000D03*
D10*
X116205000Y-107950000D03*
D12*
X113665000Y-102870000D03*
X107315000Y-105410000D03*
%TD*%
D10*
%TO.C,SW18*%
X125095000Y-107950000D03*
D11*
X130175000Y-107950000D03*
D10*
X135255000Y-107950000D03*
D12*
X132715000Y-102870000D03*
X126365000Y-105410000D03*
%TD*%
D10*
%TO.C,SW19*%
X144145000Y-107950000D03*
D11*
X149225000Y-107950000D03*
D10*
X154305000Y-107950000D03*
D12*
X151765000Y-102870000D03*
X145415000Y-105410000D03*
%TD*%
D10*
%TO.C,SW20*%
X163195000Y-107950000D03*
D11*
X168275000Y-107950000D03*
D10*
X173355000Y-107950000D03*
D12*
X170815000Y-102870000D03*
X164465000Y-105410000D03*
%TD*%
D10*
%TO.C,SW21*%
X182245000Y-107950000D03*
D11*
X187325000Y-107950000D03*
D10*
X192405000Y-107950000D03*
D12*
X189865000Y-102870000D03*
X183515000Y-105410000D03*
%TD*%
D10*
%TO.C,SW22*%
X201295000Y-107950000D03*
D11*
X206375000Y-107950000D03*
D10*
X211455000Y-107950000D03*
D12*
X208915000Y-102870000D03*
X202565000Y-105410000D03*
%TD*%
D10*
%TO.C,SW23*%
X220345000Y-107950000D03*
D11*
X225425000Y-107950000D03*
D10*
X230505000Y-107950000D03*
D12*
X227965000Y-102870000D03*
X221615000Y-105410000D03*
%TD*%
D10*
%TO.C,SW24*%
X239395000Y-107950000D03*
D11*
X244475000Y-107950000D03*
D10*
X249555000Y-107950000D03*
D12*
X247015000Y-102870000D03*
X240665000Y-105410000D03*
%TD*%
D10*
%TO.C,SW25*%
X258445000Y-107950000D03*
D11*
X263525000Y-107950000D03*
D10*
X268605000Y-107950000D03*
D12*
X266065000Y-102870000D03*
X259715000Y-105410000D03*
%TD*%
D10*
%TO.C,SW26*%
X277495000Y-107950000D03*
D11*
X282575000Y-107950000D03*
D10*
X287655000Y-107950000D03*
D12*
X285115000Y-102870000D03*
X278765000Y-105410000D03*
%TD*%
D10*
%TO.C,SW27*%
X296545000Y-107950000D03*
D11*
X301625000Y-107950000D03*
D10*
X306705000Y-107950000D03*
D12*
X304165000Y-102870000D03*
X297815000Y-105410000D03*
%TD*%
D10*
%TO.C,SW28*%
X325120000Y-88900000D03*
D11*
X330200000Y-88900000D03*
D10*
X335280000Y-88900000D03*
D12*
X332740000Y-83820000D03*
X326390000Y-86360000D03*
%TD*%
D10*
%TO.C,SW31*%
X110807500Y-127000000D03*
D11*
X115887500Y-127000000D03*
D10*
X120967500Y-127000000D03*
D12*
X118427500Y-121920000D03*
X112077500Y-124460000D03*
%TD*%
D10*
%TO.C,SW32*%
X129857500Y-127000000D03*
D11*
X134937500Y-127000000D03*
D10*
X140017500Y-127000000D03*
D12*
X137477500Y-121920000D03*
X131127500Y-124460000D03*
%TD*%
D10*
%TO.C,SW33*%
X148907500Y-127000000D03*
D11*
X153987500Y-127000000D03*
D10*
X159067500Y-127000000D03*
D12*
X156527500Y-121920000D03*
X150177500Y-124460000D03*
%TD*%
D10*
%TO.C,SW34*%
X167957500Y-127000000D03*
D11*
X173037500Y-127000000D03*
D10*
X178117500Y-127000000D03*
D12*
X175577500Y-121920000D03*
X169227500Y-124460000D03*
%TD*%
D10*
%TO.C,SW35*%
X187007500Y-127000000D03*
D11*
X192087500Y-127000000D03*
D10*
X197167500Y-127000000D03*
D12*
X194627500Y-121920000D03*
X188277500Y-124460000D03*
%TD*%
D10*
%TO.C,SW36*%
X206057500Y-127000000D03*
D11*
X211137500Y-127000000D03*
D10*
X216217500Y-127000000D03*
D12*
X213677500Y-121920000D03*
X207327500Y-124460000D03*
%TD*%
D10*
%TO.C,SW37*%
X225107500Y-127000000D03*
D11*
X230187500Y-127000000D03*
D10*
X235267500Y-127000000D03*
D12*
X232727500Y-121920000D03*
X226377500Y-124460000D03*
%TD*%
D10*
%TO.C,SW38*%
X244157500Y-127000000D03*
D11*
X249237500Y-127000000D03*
D10*
X254317500Y-127000000D03*
D12*
X251777500Y-121920000D03*
X245427500Y-124460000D03*
%TD*%
D10*
%TO.C,SW39*%
X263207500Y-127000000D03*
D11*
X268287500Y-127000000D03*
D10*
X273367500Y-127000000D03*
D12*
X270827500Y-121920000D03*
X264477500Y-124460000D03*
%TD*%
D10*
%TO.C,SW40*%
X282257500Y-127000000D03*
D11*
X287337500Y-127000000D03*
D10*
X292417500Y-127000000D03*
D12*
X289877500Y-121920000D03*
X283527500Y-124460000D03*
%TD*%
D10*
%TO.C,SW44*%
X82232500Y-146050000D03*
D11*
X87312500Y-146050000D03*
D10*
X92392500Y-146050000D03*
D12*
X89852500Y-140970000D03*
X83502500Y-143510000D03*
%TD*%
D10*
%TO.C,SW45*%
X101282500Y-146050000D03*
D11*
X106362500Y-146050000D03*
D10*
X111442500Y-146050000D03*
D12*
X108902500Y-140970000D03*
X102552500Y-143510000D03*
%TD*%
D10*
%TO.C,SW46*%
X120332500Y-146050000D03*
D11*
X125412500Y-146050000D03*
D10*
X130492500Y-146050000D03*
D12*
X127952500Y-140970000D03*
X121602500Y-143510000D03*
%TD*%
D10*
%TO.C,SW47*%
X139382500Y-146050000D03*
D11*
X144462500Y-146050000D03*
D10*
X149542500Y-146050000D03*
D12*
X147002500Y-140970000D03*
X140652500Y-143510000D03*
%TD*%
D10*
%TO.C,SW48*%
X158432500Y-146050000D03*
D11*
X163512500Y-146050000D03*
D10*
X168592500Y-146050000D03*
D12*
X166052500Y-140970000D03*
X159702500Y-143510000D03*
%TD*%
D10*
%TO.C,SW49*%
X177482500Y-146050000D03*
D11*
X182562500Y-146050000D03*
D10*
X187642500Y-146050000D03*
D12*
X185102500Y-140970000D03*
X178752500Y-143510000D03*
%TD*%
D10*
%TO.C,SW50*%
X196532500Y-146050000D03*
D11*
X201612500Y-146050000D03*
D10*
X206692500Y-146050000D03*
D12*
X204152500Y-140970000D03*
X197802500Y-143510000D03*
%TD*%
D10*
%TO.C,SW51*%
X215582500Y-146050000D03*
D11*
X220662500Y-146050000D03*
D10*
X225742500Y-146050000D03*
D12*
X223202500Y-140970000D03*
X216852500Y-143510000D03*
%TD*%
D10*
%TO.C,SW52*%
X234632500Y-146050000D03*
D11*
X239712500Y-146050000D03*
D10*
X244792500Y-146050000D03*
D12*
X242252500Y-140970000D03*
X235902500Y-143510000D03*
%TD*%
D10*
%TO.C,SW53*%
X253682500Y-146050000D03*
D11*
X258762500Y-146050000D03*
D10*
X263842500Y-146050000D03*
D12*
X261302500Y-140970000D03*
X254952500Y-143510000D03*
%TD*%
D10*
%TO.C,SW54*%
X272732500Y-146050000D03*
D11*
X277812500Y-146050000D03*
D10*
X282892500Y-146050000D03*
D12*
X280352500Y-140970000D03*
X274002500Y-143510000D03*
%TD*%
%TO.C,SW59*%
X118427500Y-160020000D03*
X112077500Y-162560000D03*
D11*
X115887500Y-165100000D03*
D10*
X110807500Y-165100000D03*
X120967500Y-165100000D03*
%TD*%
D12*
%TO.C,SW60*%
X152558750Y-162560000D03*
D10*
X151288750Y-165100000D03*
D17*
X144468750Y-172100000D03*
D11*
X156368750Y-165100000D03*
X144468750Y-156860000D03*
D12*
X158908750Y-160020000D03*
D17*
X168268750Y-172100000D03*
D10*
X161448750Y-165100000D03*
D11*
X168268750Y-156860000D03*
%TD*%
D12*
%TO.C,SW62*%
X233521250Y-162560000D03*
D10*
X232251250Y-165100000D03*
D17*
X225431250Y-172100000D03*
D11*
X237331250Y-165100000D03*
X225431250Y-156860000D03*
D12*
X239871250Y-160020000D03*
D17*
X249231250Y-172100000D03*
D10*
X242411250Y-165100000D03*
D11*
X249231250Y-156860000D03*
%TD*%
D12*
%TO.C,SW63*%
X280352500Y-160020000D03*
X274002500Y-162560000D03*
D11*
X277812500Y-165100000D03*
D10*
X272732500Y-165100000D03*
X282892500Y-165100000D03*
%TD*%
%TO.C,SW64*%
X296545000Y-165100000D03*
D11*
X301625000Y-165100000D03*
D10*
X306705000Y-165100000D03*
D12*
X304165000Y-160020000D03*
X297815000Y-162560000D03*
%TD*%
%TO.C,SW65*%
X327977500Y-160020000D03*
X321627500Y-162560000D03*
D11*
X325437500Y-165100000D03*
D10*
X320357500Y-165100000D03*
X330517500Y-165100000D03*
%TD*%
D18*
%TO.C,SW61*%
X254000000Y-172100000D03*
X139700000Y-172100000D03*
D11*
X254000000Y-156860000D03*
X139700000Y-156860000D03*
D12*
X193040000Y-162560000D03*
D10*
X201930000Y-165100000D03*
D11*
X196850000Y-165100000D03*
D12*
X199390000Y-160020000D03*
D10*
X191770000Y-165100000D03*
%TD*%
D19*
%TO.C,SW41*%
X312340625Y-127000000D03*
D12*
X308927500Y-121920000D03*
X302577500Y-124460000D03*
D11*
X306387500Y-127000000D03*
D10*
X301307500Y-127000000D03*
D11*
X306393750Y-118760000D03*
D17*
X306393750Y-134000000D03*
D12*
X320833750Y-121920000D03*
D11*
X318293750Y-127000000D03*
D10*
X323373750Y-127000000D03*
D17*
X330193750Y-134000000D03*
D11*
X330193750Y-118760000D03*
D12*
X314483750Y-124460000D03*
%TD*%
D20*
%TO.C,COL0*%
X57250000Y-75565000D03*
X59750000Y-75565000D03*
X62250000Y-75565000D03*
X64750000Y-75565000D03*
X67250000Y-75565000D03*
G36*
G01*
X70600000Y-74840000D02*
X70600000Y-76290000D01*
G75*
G02*
X70350000Y-76540000I-250000J0D01*
G01*
X69150000Y-76540000D01*
G75*
G02*
X68900000Y-76290000I0J250000D01*
G01*
X68900000Y-74840000D01*
G75*
G02*
X69150000Y-74590000I250000J0D01*
G01*
X70350000Y-74590000D01*
G75*
G02*
X70600000Y-74840000I0J-250000D01*
G01*
G37*
%TD*%
%TO.C,COL1*%
X76300000Y-75565000D03*
X78800000Y-75565000D03*
X81300000Y-75565000D03*
X83800000Y-75565000D03*
X86300000Y-75565000D03*
G36*
G01*
X89650000Y-74840000D02*
X89650000Y-76290000D01*
G75*
G02*
X89400000Y-76540000I-250000J0D01*
G01*
X88200000Y-76540000D01*
G75*
G02*
X87950000Y-76290000I0J250000D01*
G01*
X87950000Y-74840000D01*
G75*
G02*
X88200000Y-74590000I250000J0D01*
G01*
X89400000Y-74590000D01*
G75*
G02*
X89650000Y-74840000I0J-250000D01*
G01*
G37*
%TD*%
%TO.C,COL2*%
X95350000Y-75565000D03*
X97850000Y-75565000D03*
X100350000Y-75565000D03*
X102850000Y-75565000D03*
X105350000Y-75565000D03*
G36*
G01*
X108700000Y-74840000D02*
X108700000Y-76290000D01*
G75*
G02*
X108450000Y-76540000I-250000J0D01*
G01*
X107250000Y-76540000D01*
G75*
G02*
X107000000Y-76290000I0J250000D01*
G01*
X107000000Y-74840000D01*
G75*
G02*
X107250000Y-74590000I250000J0D01*
G01*
X108450000Y-74590000D01*
G75*
G02*
X108700000Y-74840000I0J-250000D01*
G01*
G37*
%TD*%
%TO.C,COL3*%
X114400000Y-75565000D03*
X116900000Y-75565000D03*
X119400000Y-75565000D03*
X121900000Y-75565000D03*
X124400000Y-75565000D03*
G36*
G01*
X127750000Y-74840000D02*
X127750000Y-76290000D01*
G75*
G02*
X127500000Y-76540000I-250000J0D01*
G01*
X126300000Y-76540000D01*
G75*
G02*
X126050000Y-76290000I0J250000D01*
G01*
X126050000Y-74840000D01*
G75*
G02*
X126300000Y-74590000I250000J0D01*
G01*
X127500000Y-74590000D01*
G75*
G02*
X127750000Y-74840000I0J-250000D01*
G01*
G37*
%TD*%
%TO.C,COL4*%
X133450000Y-75565000D03*
X135950000Y-75565000D03*
X138450000Y-75565000D03*
X140950000Y-75565000D03*
X143450000Y-75565000D03*
G36*
G01*
X146800000Y-74840000D02*
X146800000Y-76290000D01*
G75*
G02*
X146550000Y-76540000I-250000J0D01*
G01*
X145350000Y-76540000D01*
G75*
G02*
X145100000Y-76290000I0J250000D01*
G01*
X145100000Y-74840000D01*
G75*
G02*
X145350000Y-74590000I250000J0D01*
G01*
X146550000Y-74590000D01*
G75*
G02*
X146800000Y-74840000I0J-250000D01*
G01*
G37*
%TD*%
%TO.C,COL5*%
X152500000Y-75565000D03*
X155000000Y-75565000D03*
X157500000Y-75565000D03*
X160000000Y-75565000D03*
X162500000Y-75565000D03*
G36*
G01*
X165850000Y-74840000D02*
X165850000Y-76290000D01*
G75*
G02*
X165600000Y-76540000I-250000J0D01*
G01*
X164400000Y-76540000D01*
G75*
G02*
X164150000Y-76290000I0J250000D01*
G01*
X164150000Y-74840000D01*
G75*
G02*
X164400000Y-74590000I250000J0D01*
G01*
X165600000Y-74590000D01*
G75*
G02*
X165850000Y-74840000I0J-250000D01*
G01*
G37*
%TD*%
%TO.C,COL6*%
X171550000Y-75565000D03*
X174050000Y-75565000D03*
X176550000Y-75565000D03*
X179050000Y-75565000D03*
X181550000Y-75565000D03*
G36*
G01*
X184900000Y-74840000D02*
X184900000Y-76290000D01*
G75*
G02*
X184650000Y-76540000I-250000J0D01*
G01*
X183450000Y-76540000D01*
G75*
G02*
X183200000Y-76290000I0J250000D01*
G01*
X183200000Y-74840000D01*
G75*
G02*
X183450000Y-74590000I250000J0D01*
G01*
X184650000Y-74590000D01*
G75*
G02*
X184900000Y-74840000I0J-250000D01*
G01*
G37*
%TD*%
%TO.C,COL7*%
X190600000Y-75565000D03*
X193100000Y-75565000D03*
X195600000Y-75565000D03*
X198100000Y-75565000D03*
X200600000Y-75565000D03*
G36*
G01*
X203950000Y-74840000D02*
X203950000Y-76290000D01*
G75*
G02*
X203700000Y-76540000I-250000J0D01*
G01*
X202500000Y-76540000D01*
G75*
G02*
X202250000Y-76290000I0J250000D01*
G01*
X202250000Y-74840000D01*
G75*
G02*
X202500000Y-74590000I250000J0D01*
G01*
X203700000Y-74590000D01*
G75*
G02*
X203950000Y-74840000I0J-250000D01*
G01*
G37*
%TD*%
%TO.C,COL8*%
X209650000Y-75565000D03*
X212150000Y-75565000D03*
X214650000Y-75565000D03*
X217150000Y-75565000D03*
X219650000Y-75565000D03*
G36*
G01*
X223000000Y-74840000D02*
X223000000Y-76290000D01*
G75*
G02*
X222750000Y-76540000I-250000J0D01*
G01*
X221550000Y-76540000D01*
G75*
G02*
X221300000Y-76290000I0J250000D01*
G01*
X221300000Y-74840000D01*
G75*
G02*
X221550000Y-74590000I250000J0D01*
G01*
X222750000Y-74590000D01*
G75*
G02*
X223000000Y-74840000I0J-250000D01*
G01*
G37*
%TD*%
%TO.C,COL9*%
X228700000Y-75565000D03*
X231200000Y-75565000D03*
X233700000Y-75565000D03*
X236200000Y-75565000D03*
X238700000Y-75565000D03*
G36*
G01*
X242050000Y-74840000D02*
X242050000Y-76290000D01*
G75*
G02*
X241800000Y-76540000I-250000J0D01*
G01*
X240600000Y-76540000D01*
G75*
G02*
X240350000Y-76290000I0J250000D01*
G01*
X240350000Y-74840000D01*
G75*
G02*
X240600000Y-74590000I250000J0D01*
G01*
X241800000Y-74590000D01*
G75*
G02*
X242050000Y-74840000I0J-250000D01*
G01*
G37*
%TD*%
%TO.C,COL10*%
X247750000Y-75565000D03*
X250250000Y-75565000D03*
X252750000Y-75565000D03*
X255250000Y-75565000D03*
X257750000Y-75565000D03*
G36*
G01*
X261100000Y-74840000D02*
X261100000Y-76290000D01*
G75*
G02*
X260850000Y-76540000I-250000J0D01*
G01*
X259650000Y-76540000D01*
G75*
G02*
X259400000Y-76290000I0J250000D01*
G01*
X259400000Y-74840000D01*
G75*
G02*
X259650000Y-74590000I250000J0D01*
G01*
X260850000Y-74590000D01*
G75*
G02*
X261100000Y-74840000I0J-250000D01*
G01*
G37*
%TD*%
%TO.C,COL11*%
X266800000Y-75565000D03*
X269300000Y-75565000D03*
X271800000Y-75565000D03*
X274300000Y-75565000D03*
X276800000Y-75565000D03*
G36*
G01*
X280150000Y-74840000D02*
X280150000Y-76290000D01*
G75*
G02*
X279900000Y-76540000I-250000J0D01*
G01*
X278700000Y-76540000D01*
G75*
G02*
X278450000Y-76290000I0J250000D01*
G01*
X278450000Y-74840000D01*
G75*
G02*
X278700000Y-74590000I250000J0D01*
G01*
X279900000Y-74590000D01*
G75*
G02*
X280150000Y-74840000I0J-250000D01*
G01*
G37*
%TD*%
%TO.C,COL12*%
X285850000Y-75565000D03*
X288350000Y-75565000D03*
X290850000Y-75565000D03*
X293350000Y-75565000D03*
X295850000Y-75565000D03*
G36*
G01*
X299200000Y-74840000D02*
X299200000Y-76290000D01*
G75*
G02*
X298950000Y-76540000I-250000J0D01*
G01*
X297750000Y-76540000D01*
G75*
G02*
X297500000Y-76290000I0J250000D01*
G01*
X297500000Y-74840000D01*
G75*
G02*
X297750000Y-74590000I250000J0D01*
G01*
X298950000Y-74590000D01*
G75*
G02*
X299200000Y-74840000I0J-250000D01*
G01*
G37*
%TD*%
%TO.C,COL13*%
X304900000Y-75565000D03*
X307400000Y-75565000D03*
X309900000Y-75565000D03*
X312400000Y-75565000D03*
X314900000Y-75565000D03*
G36*
G01*
X318250000Y-74840000D02*
X318250000Y-76290000D01*
G75*
G02*
X318000000Y-76540000I-250000J0D01*
G01*
X316800000Y-76540000D01*
G75*
G02*
X316550000Y-76290000I0J250000D01*
G01*
X316550000Y-74840000D01*
G75*
G02*
X316800000Y-74590000I250000J0D01*
G01*
X318000000Y-74590000D01*
G75*
G02*
X318250000Y-74840000I0J-250000D01*
G01*
G37*
%TD*%
%TO.C,ROWS*%
X323950000Y-75565000D03*
X326450000Y-75565000D03*
X328950000Y-75565000D03*
X331450000Y-75565000D03*
X333950000Y-75565000D03*
G36*
G01*
X337300000Y-74840000D02*
X337300000Y-76290000D01*
G75*
G02*
X337050000Y-76540000I-250000J0D01*
G01*
X335850000Y-76540000D01*
G75*
G02*
X335600000Y-76290000I0J250000D01*
G01*
X335600000Y-74840000D01*
G75*
G02*
X335850000Y-74590000I250000J0D01*
G01*
X337050000Y-74590000D01*
G75*
G02*
X337300000Y-74840000I0J-250000D01*
G01*
G37*
%TD*%
D13*
%TO.C,H11*%
X292100000Y-156210000D03*
D14*
X292100000Y-156210000D03*
%TD*%
D13*
%TO.C,H12*%
X342900000Y-171450000D03*
D14*
X342900000Y-171450000D03*
%TD*%
D12*
%TO.C,SW55*%
X306546250Y-140970000D03*
D11*
X304006250Y-146050000D03*
D12*
X300196250Y-143510000D03*
D10*
X298926250Y-146050000D03*
D11*
X325431250Y-137810000D03*
D12*
X316071250Y-140970000D03*
D17*
X301631250Y-153050000D03*
X325431250Y-153050000D03*
D11*
X313531250Y-146050000D03*
D12*
X309721250Y-143510000D03*
D10*
X318611250Y-146050000D03*
D11*
X301631250Y-137810000D03*
D16*
X308768750Y-146050000D03*
%TD*%
D12*
%TO.C,SW56*%
X326390000Y-143510000D03*
X332740000Y-140970000D03*
D10*
X335280000Y-146050000D03*
D11*
X330200000Y-146050000D03*
D10*
X325120000Y-146050000D03*
%TD*%
M02*
