M48
; DRILL file {KiCad 5.1.8} date Wed Mar 10 22:21:09 2021
; FORMAT={-:-/ absolute / inch / decimal}
; #@! TF.CreationDate,2021-03-10T22:21:09+13:00
; #@! TF.GenerationSoftware,Kicad,Pcbnew,5.1.8
FMAT,2
INCH
T1C0.0374
T2C0.0591
T3C0.1260
T4C0.0669
T5C0.1201
T6C0.1201
T7C0.1575
%
G90
G05
T1
X9.0039Y-2.975
X9.1024Y-2.975
X9.2008Y-2.975
X9.2992Y-2.975
X9.3976Y-2.975
X9.4961Y-2.975
X11.2539Y-2.975
X11.3524Y-2.975
X11.4508Y-2.975
X11.5492Y-2.975
X11.6476Y-2.975
X11.7461Y-2.975
X4.5039Y-2.975
X4.6024Y-2.975
X4.7008Y-2.975
X4.7992Y-2.975
X4.8976Y-2.975
X4.9961Y-2.975
X8.2539Y-2.975
X8.3524Y-2.975
X8.4508Y-2.975
X8.5492Y-2.975
X8.6476Y-2.975
X8.7461Y-2.975
X3.0039Y-2.975
X3.1024Y-2.975
X3.2008Y-2.975
X3.2992Y-2.975
X3.3976Y-2.975
X3.4961Y-2.975
X5.2539Y-2.975
X5.3524Y-2.975
X5.4508Y-2.975
X5.5492Y-2.975
X5.6476Y-2.975
X5.7461Y-2.975
X12.7539Y-2.975
X12.8524Y-2.975
X12.9508Y-2.975
X13.0492Y-2.975
X13.1476Y-2.975
X13.2461Y-2.975
X6.7539Y-2.975
X6.8524Y-2.975
X6.9508Y-2.975
X7.0492Y-2.975
X7.1476Y-2.975
X7.2461Y-2.975
X10.5039Y-2.975
X10.6024Y-2.975
X10.7008Y-2.975
X10.7992Y-2.975
X10.8976Y-2.975
X10.9961Y-2.975
X12.0039Y-2.975
X12.1024Y-2.975
X12.2008Y-2.975
X12.2992Y-2.975
X12.3976Y-2.975
X12.4961Y-2.975
X6.0039Y-2.975
X6.1024Y-2.975
X6.2008Y-2.975
X6.2992Y-2.975
X6.3976Y-2.975
X6.4961Y-2.975
X9.7539Y-2.975
X9.8524Y-2.975
X9.9508Y-2.975
X10.0492Y-2.975
X10.1476Y-2.975
X10.2461Y-2.975
X7.5039Y-2.975
X7.6024Y-2.975
X7.7008Y-2.975
X7.7992Y-2.975
X7.8976Y-2.975
X7.9961Y-2.975
X2.2539Y-2.975
X2.3524Y-2.975
X2.4508Y-2.975
X2.5492Y-2.975
X2.6476Y-2.975
X2.7461Y-2.975
X3.7539Y-2.975
X3.8524Y-2.975
X3.9508Y-2.975
X4.0492Y-2.975
X4.1476Y-2.975
X4.2461Y-2.975
T2
X5.9125Y-4.9
X6.1625Y-4.8
X6.2875Y-5.65
X6.5375Y-5.55
X12.6625Y-6.4
X12.9125Y-6.3
X3.85Y-3.4
X4.1Y-3.3
X11.1625Y-4.9
X11.4125Y-4.8
X7.0375Y-5.65
X7.2875Y-5.55
X8.1625Y-4.9
X8.4125Y-4.8
X10.975Y-4.15
X11.225Y-4.05
X2.5375Y-4.15
X2.7875Y-4.05
X9.1Y-3.4
X9.35Y-3.3
X6.85Y-3.4
X7.1Y-3.3
X2.4438Y-5.65
X2.6938Y-5.55
X2.8188Y-5.65
X3.0688Y-5.55
X10.225Y-4.15
X10.475Y-4.05
X8.725Y-4.15
X8.975Y-4.05
X7.4125Y-4.9
X7.6625Y-4.8
X5.725Y-4.15
X5.975Y-4.05
X9.6625Y-4.9
X9.9125Y-4.8
X9.2875Y-5.65
X9.5375Y-5.55
X2.35Y-3.4
X2.6Y-3.3
X4.6Y-3.4
X4.85Y-3.3
X5.1625Y-4.9
X5.4125Y-4.8
X3.2875Y-5.65
X3.5375Y-5.55
X5.35Y-3.4
X5.6Y-3.3
X3.1Y-3.4
X3.35Y-3.3
X9.475Y-4.15
X9.725Y-4.05
X6.475Y-4.15
X6.725Y-4.05
X11.725Y-6.4
X11.975Y-6.3
X4.975Y-4.15
X5.225Y-4.05
X11.8187Y-5.65
X12.0687Y-5.55
X12.1937Y-5.65
X12.4437Y-5.55
X12.1Y-3.4
X12.35Y-3.3
X12.475Y-3.4
X12.725Y-3.3
X4.0375Y-5.65
X4.2875Y-5.55
X7.225Y-4.15
X7.475Y-4.05
X8.5375Y-5.65
X8.7875Y-5.55
X4.7875Y-5.65
X5.0375Y-5.55
X9.85Y-3.4
X10.1Y-3.3
X10.7875Y-5.65
X11.0375Y-5.55
X12.7062Y-4.525
X12.8063Y-4.775
X12.9125Y-4.1
X13.0125Y-4.35
X3.475Y-4.15
X3.725Y-4.05
X10.0375Y-5.65
X10.2875Y-5.55
X12.85Y-5.65
X13.1Y-5.55
X7.975Y-4.15
X8.225Y-4.05
X5.5375Y-5.65
X5.7875Y-5.55
X10.6Y-3.4
X10.85Y-3.3
X6.1Y-3.4
X6.35Y-3.3
X2.5375Y-6.4
X2.7875Y-6.3
X3.6625Y-4.9
X3.9125Y-4.8
X9.1937Y-6.4
X9.4437Y-6.3
X6.0062Y-6.4
X6.2562Y-6.3
X4.4125Y-6.4
X4.6625Y-6.3
X7.6Y-3.4
X7.85Y-3.3
X11.725Y-4.15
X11.975Y-4.05
X2.4438Y-4.9
X2.6812Y-5.2
X2.6938Y-4.8
X2.9312Y-5.1
X11.35Y-3.4
X11.6Y-3.3
X7.6Y-6.4
X7.85Y-6.3
X8.9125Y-4.9
X9.1625Y-4.8
X8.35Y-3.4
X8.6Y-3.3
X10.7875Y-6.4
X11.0375Y-6.3
X3.475Y-6.4
X3.725Y-6.3
X10.4125Y-4.9
X10.6625Y-4.8
X4.225Y-4.15
X4.475Y-4.05
X7.7875Y-5.65
X8.0375Y-5.55
X6.6625Y-4.9
X6.9125Y-4.8
X11.9125Y-4.9
X12.1625Y-4.8
X12.3812Y-4.9
X12.6312Y-4.8
X12.85Y-3.4
X13.1Y-3.3
X4.4125Y-4.9
X4.6625Y-4.8
T3
X7.0Y-3.9
X11.5Y-6.15
X2.0Y-2.7
X13.5Y-6.75
X8.5Y-3.9
X2.0Y-6.75
X4.0Y-6.15
X4.0Y-3.9
X11.5Y-3.9
X13.5Y-2.7
X8.5Y-6.15
X7.0Y-6.15
T4
X9.425Y-4.25
X9.825Y-4.25
X6.425Y-4.25
X6.825Y-4.25
X11.675Y-6.5
X12.075Y-6.5
X4.925Y-4.25
X5.325Y-4.25
X11.7687Y-5.75
X12.5437Y-5.75
X12.05Y-3.5
X3.9875Y-5.75
X4.3875Y-5.75
X7.175Y-4.25
X7.575Y-4.25
X8.4875Y-5.75
X8.8875Y-5.75
X4.7375Y-5.75
X5.1375Y-5.75
X9.8Y-3.5
X10.2Y-3.5
X10.7375Y-5.75
X11.1375Y-5.75
X12.8125Y-4.05
X12.8125Y-4.45
X12.9062Y-4.425
X12.9062Y-4.825
X3.425Y-4.25
X3.825Y-4.25
X9.9875Y-5.75
X10.3875Y-5.75
X12.8Y-5.75
X13.2Y-5.75
X7.925Y-4.25
X8.325Y-4.25
X5.4875Y-5.75
X5.8875Y-5.75
X10.55Y-3.5
X10.95Y-3.5
X6.05Y-3.5
X6.45Y-3.5
X2.4875Y-6.5
X2.8875Y-6.5
X3.6125Y-5.0
X4.0125Y-5.0
X9.1437Y-6.5
X9.5437Y-6.5
X5.9562Y-6.5
X6.3563Y-6.5
X4.3625Y-6.5
X4.7625Y-6.5
X7.55Y-3.5
X7.95Y-3.5
X11.675Y-4.25
X12.075Y-4.25
X2.3937Y-5.0
X2.5812Y-5.0
X2.7937Y-5.0
X2.9812Y-5.0
X11.3Y-3.5
X11.7Y-3.5
X7.55Y-6.5
X7.95Y-6.5
X8.8625Y-5.0
X9.2625Y-5.0
X8.3Y-3.5
X8.7Y-3.5
X10.7375Y-6.5
X11.1375Y-6.5
X3.425Y-6.5
X3.825Y-6.5
X10.3625Y-5.0
X10.7625Y-5.0
X4.175Y-4.25
X4.575Y-4.25
X7.7375Y-5.75
X8.1375Y-5.75
X6.6125Y-5.0
X7.0125Y-5.0
X11.8625Y-5.0
X12.7312Y-5.0
X12.8Y-3.5
X13.2Y-3.5
X4.3625Y-5.0
X4.7625Y-5.0
X5.8625Y-5.0
X6.2625Y-5.0
X6.2375Y-5.75
X6.6375Y-5.75
X12.6125Y-6.5
X13.0125Y-6.5
X3.8Y-3.5
X4.2Y-3.5
X11.1125Y-5.0
X11.5125Y-5.0
X6.9875Y-5.75
X7.3875Y-5.75
X8.1125Y-5.0
X8.5125Y-5.0
X10.925Y-4.25
X11.325Y-4.25
X2.4875Y-4.25
X2.8875Y-4.25
X9.05Y-3.5
X9.45Y-3.5
X6.8Y-3.5
X7.2Y-3.5
X2.3937Y-5.75
X10.175Y-4.25
X10.575Y-4.25
X8.675Y-4.25
X9.075Y-4.25
X7.3625Y-5.0
X7.7625Y-5.0
X5.675Y-4.25
X6.075Y-4.25
X9.6125Y-5.0
X10.0125Y-5.0
X9.2375Y-5.75
X9.6375Y-5.75
X2.3Y-3.5
X2.7Y-3.5
X4.55Y-3.5
X4.95Y-3.5
X5.1125Y-5.0
X5.5125Y-5.0
X3.2375Y-5.75
X3.6375Y-5.75
X5.3Y-3.5
X5.7Y-3.5
X3.05Y-3.5
X3.45Y-3.5
T5
X5.5Y-6.7756
X10.0Y-6.7756
T6
X11.8752Y-6.0256
X12.8123Y-6.0256
X12.1565Y-3.7756
X13.0935Y-3.7756
X13.1818Y-4.1565
X13.1818Y-5.0935
X8.8752Y-6.7756
X9.8123Y-6.7756
X5.6877Y-6.7756
X6.6248Y-6.7756
X12.0627Y-5.2756
X12.9998Y-5.2756
X2.5002Y-6.0256
X3.4373Y-6.0256
T7
X4.75Y-3.5
X5.3125Y-5.0
X3.4375Y-5.75
X5.5Y-3.5
X3.25Y-3.5
X9.625Y-4.25
X6.625Y-4.25
X11.875Y-6.5
X5.125Y-4.25
X11.8752Y-5.4256
X11.9688Y-5.75
X12.3438Y-5.75
X12.8123Y-5.4256
X12.1565Y-3.1756
X12.25Y-3.5
X12.625Y-3.5
X13.0935Y-3.1756
X4.1875Y-5.75
X7.375Y-4.25
X8.6875Y-5.75
X4.9375Y-5.75
X10.0Y-3.5
X10.9375Y-5.75
X12.5818Y-4.1565
X12.8125Y-4.25
X3.625Y-4.25
X10.1875Y-5.75
X13.0Y-5.75
X8.125Y-4.25
X5.6875Y-5.75
X10.75Y-3.5
X6.25Y-3.5
X2.6875Y-6.5
X3.8125Y-5.0
X8.8752Y-6.1756
X9.3438Y-6.5
X9.8123Y-6.1756
X5.6877Y-6.1756
X6.1562Y-6.5
X6.6248Y-6.1756
X4.5625Y-6.5
X7.75Y-3.5
X11.875Y-4.25
X2.5938Y-5.0
X2.7812Y-5.0
X11.5Y-3.5
X5.5Y-6.1756
X7.75Y-6.5
X10.0Y-6.1756
X9.0625Y-5.0
X8.5Y-3.5
X10.9375Y-6.5
X3.625Y-6.5
X10.5625Y-5.0
X4.375Y-4.25
X7.9375Y-5.75
X6.8125Y-5.0
X12.0625Y-5.0
X12.0627Y-4.6756
X12.5312Y-5.0
X12.9998Y-4.6756
X13.0Y-3.5
X4.5625Y-5.0
X6.0625Y-5.0
X6.4375Y-5.75
X12.8125Y-6.5
X4.0Y-3.5
X11.3125Y-5.0
X7.1875Y-5.75
X8.3125Y-5.0
X11.125Y-4.25
X2.6875Y-4.25
X9.25Y-3.5
X7.0Y-3.5
X2.5002Y-5.4256
X2.5938Y-5.75
X2.9688Y-5.75
X3.4373Y-5.4256
X10.375Y-4.25
X8.875Y-4.25
X7.5625Y-5.0
X5.875Y-4.25
X9.8125Y-5.0
X9.4375Y-5.75
X2.5Y-3.5
T4
G00X12.1437Y-5.75
M15
G01X12.1687Y-5.75
M16
G05
G00X12.425Y-3.5
M15
G01X12.45Y-3.5
M16
G05
G00X12.8Y-3.5
M15
G01X12.825Y-3.5
M16
G05
G00X12.2625Y-5.0
M15
G01X12.3312Y-5.0
M16
G05
G00X2.7687Y-5.75
M15
G01X2.7937Y-5.75
M16
G05
G00X3.1687Y-5.75
M15
G01X3.2373Y-5.75
M16
G05
T7
G00X12.5313Y-5.0
M15
G01X12.5818Y-5.0935
M16
G05
G00X12.9062Y-4.625
M15
G01X12.9998Y-4.6756
M16
G05
T0
M30
