M48
; DRILL file {KiCad 6.0.0} date Wed 19 Jan 2022 14:58:03
; FORMAT={-:-/ absolute / metric / decimal}
; #@! TF.CreationDate,2022-01-19T14:58:03+13:00
; #@! TF.GenerationSoftware,Kicad,Pcbnew,6.0.0
; #@! TF.FileFunction,NonPlated,1,2,NPTH
FMAT,2
METRIC
; #@! TA.AperFunction,NonPlated,NPTH,ComponentDrill
T1C1.700
; #@! TA.AperFunction,NonPlated,NPTH,ComponentDrill
T2C3.050
; #@! TA.AperFunction,NonPlated,NPTH,ComponentDrill
T3C3.050
; #@! TA.AperFunction,NonPlated,NPTH,ComponentDrill
T4C3.200
; #@! TA.AperFunction,NonPlated,NPTH,ComponentDrill
T5C4.000
%
G90
G05
T1
X80.645Y-136.525
X83.026Y-174.625
X83.026Y-193.675
X85.407Y-155.575
X85.407Y-212.725
X87.789Y-174.625
X90.805Y-136.525
X93.186Y-174.625
X95.567Y-155.575
X95.567Y-212.725
X97.949Y-174.625
X99.695Y-136.525
X104.457Y-193.675
X109.22Y-155.575
X109.22Y-212.725
X109.855Y-136.525
X113.983Y-174.625
X114.617Y-193.675
X118.745Y-136.525
X119.38Y-155.575
X119.38Y-212.725
X123.507Y-193.675
X124.142Y-174.625
X128.27Y-155.575
X128.905Y-136.525
X133.032Y-174.625
X133.032Y-212.725
X133.667Y-193.675
X137.795Y-136.525
X138.43Y-155.575
X142.558Y-193.675
X143.192Y-174.625
X143.192Y-212.725
X147.32Y-155.575
X147.955Y-136.525
X152.082Y-174.625
X152.718Y-193.675
X156.845Y-136.525
X157.48Y-155.575
X161.607Y-193.675
X162.243Y-174.625
X166.37Y-155.575
X167.005Y-136.525
X171.132Y-174.625
X171.767Y-193.675
X173.514Y-212.725
X175.895Y-136.525
X176.53Y-155.575
X180.657Y-193.675
X181.292Y-174.625
X183.674Y-212.725
X185.42Y-155.575
X186.055Y-136.525
X190.183Y-174.625
X190.817Y-193.675
X194.945Y-136.525
X195.58Y-155.575
X199.707Y-193.675
X200.343Y-174.625
X204.47Y-155.575
X205.105Y-136.525
X209.232Y-174.625
X209.867Y-193.675
X213.995Y-136.525
X213.995Y-212.725
X214.63Y-155.575
X218.757Y-193.675
X219.392Y-174.625
X223.52Y-155.575
X224.155Y-136.525
X224.155Y-212.725
X228.282Y-174.625
X228.917Y-193.675
X233.045Y-136.525
X233.68Y-155.575
X237.807Y-193.675
X238.442Y-174.625
X242.57Y-155.575
X243.205Y-136.525
X247.332Y-174.625
X247.968Y-193.675
X252.095Y-136.525
X252.73Y-155.575
X254.476Y-212.725
X256.858Y-193.675
X257.493Y-174.625
X261.62Y-155.575
X262.255Y-136.525
X264.636Y-212.725
X266.382Y-174.625
X267.017Y-193.675
X271.145Y-136.525
X271.78Y-155.575
X275.907Y-193.675
X276.542Y-174.625
X280.67Y-155.575
X281.305Y-136.525
X285.433Y-174.625
X286.067Y-193.675
X290.195Y-136.525
X290.83Y-155.575
X294.957Y-193.675
X294.957Y-212.725
X295.592Y-174.625
X299.72Y-155.575
X300.355Y-136.525
X304.482Y-174.625
X305.118Y-193.675
X305.118Y-212.725
X309.245Y-136.525
X309.88Y-155.575
X314.642Y-174.625
X318.77Y-155.575
X318.77Y-212.725
X319.405Y-136.525
X321.151Y-193.675
X323.532Y-174.625
X328.295Y-136.525
X328.93Y-155.575
X328.93Y-212.725
X340.836Y-193.675
X342.582Y-212.725
X345.599Y-174.625
X347.345Y-136.525
X347.345Y-193.675
X347.662Y-150.495
X347.662Y-160.655
X350.044Y-160.02
X350.044Y-170.18
X352.743Y-212.725
X357.505Y-136.525
X357.505Y-193.675
T2
X161.925Y-219.725
X276.225Y-219.725
T3
X85.731Y-200.675
X109.531Y-200.675
X166.694Y-219.725
X190.494Y-219.725
X247.656Y-219.725
X271.456Y-219.725
X323.856Y-200.675
X328.619Y-181.625
X331.0Y-129.525
X347.656Y-200.675
X352.419Y-181.625
X354.8Y-129.525
X357.044Y-153.2
X357.044Y-177.0
T4
X80.01Y-92.71
X80.01Y-118.364
X358.14Y-92.71
X358.14Y-118.364
T5
X85.725Y-136.525
X85.731Y-185.435
X88.106Y-174.625
X88.106Y-193.675
X90.487Y-155.575
X90.487Y-212.725
X92.869Y-174.625
X97.631Y-193.675
X104.775Y-136.525
X109.531Y-185.435
X109.537Y-193.675
X114.3Y-155.575
X114.3Y-212.725
X119.062Y-174.625
X123.825Y-136.525
X128.588Y-193.675
X133.35Y-155.575
X138.112Y-174.625
X138.112Y-212.725
X142.875Y-136.525
X147.637Y-193.675
X152.4Y-155.575
X157.162Y-174.625
X161.925Y-136.525
X161.925Y-204.485
X166.688Y-193.675
X166.694Y-204.485
X171.45Y-155.575
X176.213Y-174.625
X178.594Y-212.725
X180.975Y-136.525
X185.737Y-193.675
X190.494Y-204.485
X190.5Y-155.575
X195.262Y-174.625
X200.025Y-136.525
X204.787Y-193.675
X209.55Y-155.575
X214.312Y-174.625
X219.075Y-136.525
X219.075Y-212.725
X223.837Y-193.675
X228.6Y-155.575
X233.362Y-174.625
X238.125Y-136.525
X242.887Y-193.675
X247.65Y-155.575
X247.656Y-204.485
X252.412Y-174.625
X257.175Y-136.525
X259.556Y-212.725
X261.938Y-193.675
X266.7Y-155.575
X271.456Y-204.485
X271.462Y-174.625
X276.225Y-136.525
X276.225Y-204.485
X280.988Y-193.675
X285.75Y-155.575
X290.512Y-174.625
X295.275Y-136.525
X300.037Y-193.675
X300.037Y-212.725
X304.8Y-155.575
X309.562Y-174.625
X314.325Y-136.525
X323.85Y-155.575
X323.85Y-212.725
X323.856Y-185.435
X326.231Y-193.675
X328.613Y-174.625
X328.619Y-166.385
X331.0Y-144.765
X333.375Y-136.525
X335.756Y-193.675
X340.519Y-174.625
X341.804Y-153.2
X342.9Y-136.525
X347.656Y-185.435
X347.662Y-155.575
X347.662Y-212.725
X352.419Y-166.385
X352.425Y-136.525
X352.425Y-193.675
X354.8Y-144.765
T1
X92.551Y-193.675G85X93.186Y-193.675
G05
X102.711Y-193.675G85X104.451Y-193.675
G05
X330.676Y-193.675G85X331.311Y-193.675
G05
X333.692Y-174.625G85X335.439Y-174.625
G05
X337.82Y-136.525G85X338.455Y-136.525
G05
X347.345Y-136.525G85X347.98Y-136.525
G05
T5
X340.519Y-174.625G85X341.803Y-177.0
G05
X350.044Y-165.1G85X352.419Y-166.385
G05
T0
M30
