M48
; DRILL file {KiCad 6.0.0} date Sun 16 Jan 2022 18:24:35
; FORMAT={-:-/ absolute / metric / decimal}
; #@! TF.CreationDate,2022-01-16T18:24:35+13:00
; #@! TF.GenerationSoftware,Kicad,Pcbnew,6.0.0
; #@! TF.FileFunction,Plated,1,2,PTH
FMAT,2
METRIC
; #@! TA.AperFunction,Plated,PTH,ViaDrill
T1C0.400
; #@! TA.AperFunction,Plated,PTH,ComponentDrill
T2C0.800
; #@! TA.AperFunction,Plated,PTH,ComponentDrill
T3C0.900
; #@! TA.AperFunction,Plated,PTH,ComponentDrill
T4C1.000
; #@! TA.AperFunction,Plated,PTH,ComponentDrill
T5C1.100
; #@! TA.AperFunction,Plated,PTH,ComponentDrill
T6C1.200
; #@! TA.AperFunction,Plated,PTH,ComponentDrill
T7C1.500
; #@! TA.AperFunction,Plated,PTH,ComponentDrill
T8C3.200
%
G90
G05
T1
X158.75Y-121.285
X171.45Y-121.285
X219.476Y-107.696
X219.476Y-108.995
X224.155Y-108.995
X226.695Y-113.665
X226.695Y-122.872
X227.965Y-122.872
X229.235Y-113.665
X229.235Y-122.872
X230.505Y-113.665
X230.505Y-116.205
X230.505Y-122.872
X231.775Y-122.872
T2
X85.09Y-95.885
X85.09Y-100.965
X85.09Y-103.505
X85.09Y-106.045
X85.09Y-108.585
X85.09Y-111.125
X85.09Y-113.665
X85.09Y-116.205
X85.09Y-118.745
X92.71Y-95.885
X92.71Y-100.965
X92.71Y-103.505
X92.71Y-106.045
X92.71Y-108.585
X92.71Y-111.125
X92.71Y-113.665
X92.71Y-116.205
X92.71Y-118.745
X97.79Y-95.885
X97.79Y-100.965
X97.79Y-103.505
X97.79Y-106.045
X97.79Y-108.585
X97.79Y-111.125
X97.79Y-113.665
X97.79Y-116.205
X97.79Y-118.745
X105.41Y-95.885
X105.41Y-100.965
X105.41Y-103.505
X105.41Y-106.045
X105.41Y-108.585
X105.41Y-111.125
X105.41Y-113.665
X105.41Y-116.205
X105.41Y-118.745
X110.49Y-95.885
X110.49Y-100.965
X110.49Y-103.505
X110.49Y-106.045
X110.49Y-108.585
X110.49Y-111.125
X110.49Y-113.665
X110.49Y-116.205
X110.49Y-118.745
X118.11Y-95.885
X118.11Y-100.965
X118.11Y-103.505
X118.11Y-106.045
X118.11Y-108.585
X118.11Y-111.125
X118.11Y-113.665
X118.11Y-116.205
X118.11Y-118.745
X123.19Y-95.885
X123.19Y-100.965
X123.19Y-103.505
X123.19Y-106.045
X123.19Y-108.585
X123.19Y-111.125
X123.19Y-113.665
X123.19Y-116.205
X123.19Y-118.745
X130.81Y-95.885
X130.81Y-100.965
X130.81Y-103.505
X130.81Y-106.045
X130.81Y-108.585
X130.81Y-111.125
X130.81Y-113.665
X130.81Y-116.205
X130.81Y-118.745
X135.89Y-95.885
X135.89Y-100.965
X135.89Y-103.505
X135.89Y-106.045
X135.89Y-108.585
X135.89Y-111.125
X135.89Y-113.665
X135.89Y-116.205
X135.89Y-118.745
X143.51Y-95.885
X143.51Y-100.965
X143.51Y-103.505
X143.51Y-106.045
X143.51Y-108.585
X143.51Y-111.125
X143.51Y-113.665
X143.51Y-116.205
X143.51Y-118.745
X148.59Y-95.885
X148.59Y-100.965
X148.59Y-103.505
X148.59Y-106.045
X148.59Y-108.585
X148.59Y-111.125
X148.59Y-113.665
X148.59Y-116.205
X148.59Y-118.745
X156.21Y-95.885
X156.21Y-100.965
X156.21Y-103.505
X156.21Y-106.045
X156.21Y-108.585
X156.21Y-111.125
X156.21Y-113.665
X156.21Y-116.205
X156.21Y-118.745
X161.29Y-95.885
X161.29Y-100.965
X161.29Y-103.505
X161.29Y-106.045
X161.29Y-108.585
X161.29Y-111.125
X161.29Y-113.665
X161.29Y-116.205
X161.29Y-118.745
X168.91Y-95.885
X168.91Y-100.965
X168.91Y-103.505
X168.91Y-106.045
X168.91Y-108.585
X168.91Y-111.125
X168.91Y-113.665
X168.91Y-116.205
X168.91Y-118.745
X173.99Y-95.885
X173.99Y-100.965
X173.99Y-103.505
X173.99Y-106.045
X173.99Y-108.585
X173.99Y-111.125
X173.99Y-113.665
X173.99Y-116.205
X173.99Y-118.745
X181.61Y-95.885
X181.61Y-100.965
X181.61Y-103.505
X181.61Y-106.045
X181.61Y-108.585
X181.61Y-111.125
X181.61Y-113.665
X181.61Y-116.205
X181.61Y-118.745
X192.722Y-107.95
X192.722Y-118.11
X195.897Y-107.95
X195.897Y-118.11
X199.072Y-107.95
X199.072Y-118.11
X202.248Y-107.95
X202.248Y-118.11
X205.422Y-107.95
X205.422Y-118.11
X208.597Y-107.95
X208.597Y-118.11
X211.772Y-107.95
X211.772Y-118.11
X214.947Y-107.95
X214.947Y-118.11
X219.075Y-100.965
X219.075Y-104.14
X219.075Y-111.76
X221.615Y-100.965
X221.615Y-104.14
X221.615Y-111.76
X224.155Y-100.965
X224.155Y-104.14
X224.155Y-111.76
X224.155Y-114.935
X224.155Y-118.11
X226.695Y-100.965
X226.695Y-104.14
X226.695Y-111.76
X229.235Y-100.965
X229.235Y-104.14
X229.235Y-111.76
X231.775Y-100.965
X231.775Y-104.14
X231.775Y-111.76
X234.315Y-100.965
X234.315Y-104.14
X234.315Y-111.76
X234.315Y-114.935
X234.315Y-118.11
X236.855Y-104.14
X236.855Y-111.76
X236.855Y-115.61
X236.855Y-118.11
X239.395Y-104.14
X239.395Y-111.76
X241.935Y-100.965
X241.935Y-104.14
X241.935Y-111.76
X242.025Y-116.205
X244.475Y-104.14
X244.475Y-111.76
X246.905Y-116.205
X247.015Y-104.14
X247.015Y-111.76
X249.555Y-104.14
X249.555Y-111.76
X252.095Y-100.965
X252.095Y-104.14
X252.095Y-111.76
X252.095Y-115.61
X252.095Y-118.11
X256.54Y-95.885
X256.54Y-100.965
X256.54Y-103.505
X256.54Y-106.045
X256.54Y-108.585
X256.54Y-111.125
X256.54Y-113.665
X256.54Y-116.205
X256.54Y-118.745
X264.16Y-95.885
X264.16Y-100.965
X264.16Y-103.505
X264.16Y-106.045
X264.16Y-108.585
X264.16Y-111.125
X264.16Y-113.665
X264.16Y-116.205
X264.16Y-118.745
X269.24Y-95.885
X269.24Y-100.965
X269.24Y-103.505
X269.24Y-106.045
X269.24Y-108.585
X269.24Y-111.125
X269.24Y-113.665
X269.24Y-116.205
X269.24Y-118.745
X276.86Y-95.885
X276.86Y-100.965
X276.86Y-103.505
X276.86Y-106.045
X276.86Y-108.585
X276.86Y-111.125
X276.86Y-113.665
X276.86Y-116.205
X276.86Y-118.745
X281.94Y-95.885
X281.94Y-100.965
X281.94Y-103.505
X281.94Y-106.045
X281.94Y-108.585
X281.94Y-111.125
X281.94Y-113.665
X281.94Y-116.205
X281.94Y-118.745
X289.56Y-95.885
X289.56Y-100.965
X289.56Y-103.505
X289.56Y-106.045
X289.56Y-108.585
X289.56Y-111.125
X289.56Y-113.665
X289.56Y-116.205
X289.56Y-118.745
X294.64Y-95.885
X294.64Y-100.965
X294.64Y-103.505
X294.64Y-106.045
X294.64Y-108.585
X294.64Y-111.125
X294.64Y-113.665
X294.64Y-116.205
X294.64Y-118.745
X302.26Y-95.885
X302.26Y-100.965
X302.26Y-103.505
X302.26Y-106.045
X302.26Y-108.585
X302.26Y-111.125
X302.26Y-113.665
X302.26Y-116.205
X302.26Y-118.745
X307.34Y-95.885
X307.34Y-100.965
X307.34Y-103.505
X307.34Y-106.045
X307.34Y-108.585
X307.34Y-111.125
X307.34Y-113.665
X307.34Y-116.205
X307.34Y-118.745
X314.96Y-95.885
X314.96Y-100.965
X314.96Y-103.505
X314.96Y-106.045
X314.96Y-108.585
X314.96Y-111.125
X314.96Y-113.665
X314.96Y-116.205
X314.96Y-118.745
X320.04Y-95.885
X320.04Y-100.965
X320.04Y-103.505
X320.04Y-106.045
X320.04Y-108.585
X320.04Y-111.125
X320.04Y-113.665
X320.04Y-116.205
X320.04Y-118.745
X327.66Y-95.885
X327.66Y-100.965
X327.66Y-103.505
X327.66Y-106.045
X327.66Y-108.585
X327.66Y-111.125
X327.66Y-113.665
X327.66Y-116.205
X327.66Y-118.745
X332.74Y-95.885
X332.74Y-100.965
X332.74Y-103.505
X332.74Y-106.045
X332.74Y-108.585
X332.74Y-111.125
X332.74Y-113.665
X332.74Y-116.205
X332.74Y-118.745
X340.36Y-95.885
X340.36Y-100.965
X340.36Y-103.505
X340.36Y-106.045
X340.36Y-108.585
X340.36Y-111.125
X340.36Y-113.665
X340.36Y-116.205
X340.36Y-118.745
X345.44Y-95.885
X345.44Y-100.965
X345.44Y-103.505
X345.44Y-106.045
X345.44Y-108.585
X345.44Y-111.125
X345.44Y-113.665
X345.44Y-116.205
X345.44Y-118.745
X353.06Y-95.885
X353.06Y-100.965
X353.06Y-103.505
X353.06Y-106.045
X353.06Y-108.585
X353.06Y-111.125
X353.06Y-113.665
X353.06Y-116.205
X353.06Y-118.745
T3
X187.96Y-93.98
X187.96Y-96.52
X250.19Y-93.98
X250.19Y-96.52
T4
X197.485Y-97.79
X197.485Y-100.33
X200.025Y-97.79
X200.025Y-100.33
X202.565Y-97.79
X202.565Y-100.33
X205.105Y-97.79
X205.105Y-100.33
X207.645Y-97.79
X207.645Y-100.33
X210.185Y-97.79
X210.185Y-100.33
T5
X219.075Y-93.29
X219.075Y-97.79
X225.575Y-93.29
X225.575Y-97.79
X234.315Y-93.29
X234.315Y-97.79
X240.815Y-93.29
X240.815Y-97.79
T6
X187.325Y-100.84
X187.325Y-118.84
T7
X81.915Y-133.985
X84.296Y-172.085
X84.296Y-191.135
X86.677Y-153.035
X86.677Y-210.185
X88.265Y-131.445
X90.329Y-179.705
X90.646Y-169.545
X90.646Y-188.595
X93.027Y-150.495
X93.027Y-207.645
X93.821Y-191.135
X96.679Y-177.165
X100.171Y-188.595
X100.965Y-133.985
X105.727Y-191.135
X107.315Y-131.445
X110.49Y-153.035
X110.49Y-210.185
X112.078Y-188.595
X115.252Y-172.085
X116.84Y-150.495
X116.84Y-207.645
X120.015Y-133.985
X121.602Y-169.545
X124.777Y-191.135
X126.365Y-131.445
X129.54Y-153.035
X131.127Y-188.595
X134.302Y-172.085
X134.302Y-210.185
X135.89Y-150.495
X139.065Y-133.985
X140.653Y-169.545
X140.653Y-207.645
X143.827Y-191.135
X145.415Y-131.445
X148.59Y-153.035
X150.177Y-188.595
X153.352Y-172.085
X154.94Y-150.495
X158.115Y-133.985
X159.702Y-169.545
X162.877Y-191.135
X164.465Y-131.445
X167.64Y-153.035
X169.227Y-188.595
X172.403Y-172.085
X173.99Y-150.495
X174.784Y-210.185
X177.165Y-133.985
X178.752Y-169.545
X181.134Y-207.645
X181.927Y-191.135
X183.515Y-131.445
X186.69Y-153.035
X188.278Y-188.595
X191.452Y-172.085
X193.04Y-150.495
X196.215Y-133.985
X197.802Y-169.545
X200.977Y-191.135
X202.565Y-131.445
X205.74Y-153.035
X207.327Y-188.595
X210.502Y-172.085
X212.09Y-150.495
X215.265Y-133.985
X215.265Y-210.185
X216.852Y-169.545
X220.028Y-191.135
X221.615Y-131.445
X221.615Y-207.645
X224.79Y-153.035
X226.377Y-188.595
X229.552Y-172.085
X231.14Y-150.495
X234.315Y-133.985
X235.903Y-169.545
X239.077Y-191.135
X240.665Y-131.445
X243.84Y-153.035
X245.427Y-188.595
X248.602Y-172.085
X250.19Y-150.495
X253.365Y-133.985
X254.952Y-169.545
X255.746Y-210.185
X258.127Y-191.135
X259.715Y-131.445
X262.096Y-207.645
X262.89Y-153.035
X264.477Y-188.595
X267.652Y-172.085
X269.24Y-150.495
X272.415Y-133.985
X274.002Y-169.545
X277.178Y-191.135
X278.765Y-131.445
X281.94Y-153.035
X283.527Y-188.595
X286.702Y-172.085
X288.29Y-150.495
X291.465Y-133.985
X293.053Y-169.545
X296.227Y-191.135
X296.227Y-210.185
X297.815Y-131.445
X300.99Y-153.035
X302.577Y-188.595
X302.577Y-207.645
X305.752Y-172.085
X307.34Y-150.495
X310.515Y-133.985
X312.102Y-169.545
X316.865Y-131.445
X320.04Y-153.035
X320.04Y-210.185
X322.421Y-191.135
X324.803Y-172.085
X326.39Y-150.495
X326.39Y-207.645
X328.771Y-188.595
X329.565Y-133.985
X331.152Y-169.545
X331.946Y-191.135
X335.915Y-131.445
X336.709Y-172.085
X338.296Y-188.595
X339.09Y-133.985
X343.059Y-169.545
X343.852Y-210.185
X344.964Y-162.56
X345.44Y-131.445
X347.504Y-168.91
X348.615Y-191.135
X349.885Y-141.605
X350.202Y-151.765
X350.202Y-207.645
X352.743Y-158.115
X354.965Y-188.595
X356.235Y-139.065
T8
X102.394Y-212.725
X198.834Y-212.725
X239.316Y-212.725
X335.756Y-212.725
T0
M30
