%FSLAX45Y45*%
G04 Gerber Fmt 4.5, Leading zero omitted, Abs format (unit mm)*
G04 Created by KiCad (PCBNEW 6.0.0) date 2022-01-16 18:24:36*
%MOMM*%
%LPD*%
G01*
G04 APERTURE LIST*
%TA.AperFunction,Profile*%
%ADD10C,0.050000*%
%TD*%
%ADD11C,0.200000*%
%ADD12C,0.040000*%
%ADD13C,0.080000*%
%ADD14C,0.090000*%
%ADD15C,0.100000*%
%ADD16C,0.110000*%
%ADD17C,0.120000*%
%ADD18C,0.150000*%
%ADD19C,0.320000*%
G04 APERTURE END LIST*
D10*
X7747000Y-22225000D02*
X36068000Y-22225000D01*
X21272500Y-8890000D02*
X36068000Y-8890000D01*
X19558000Y-8953500D02*
G75*
G03*
X19494500Y-8890000I-63500J0D01*
G01*
X19558000Y-9017000D02*
X19558000Y-8953500D01*
X21145500Y-9080500D02*
G75*
G03*
X21209000Y-9017000I0J63500D01*
G01*
X19558000Y-9017000D02*
G75*
G03*
X19621500Y-9080500I63500J0D01*
G01*
X36195000Y-9017000D02*
G75*
G03*
X36068000Y-8890000I-127000J0D01*
G01*
X21209000Y-9017000D02*
X21209000Y-8953500D01*
X19494500Y-8890000D02*
X7747000Y-8890000D01*
X36195000Y-9017000D02*
X36195000Y-22098000D01*
X19621500Y-9080500D02*
X21145500Y-9080500D01*
X7620000Y-9017000D02*
X7620000Y-22098000D01*
X21272500Y-8890000D02*
G75*
G03*
X21209000Y-8953500I0J-63500D01*
G01*
X7747000Y-8890000D02*
G75*
G03*
X7620000Y-9017000I0J-127000D01*
G01*
X36068000Y-22225000D02*
G75*
G03*
X36195000Y-22098000I0J127000D01*
G01*
X7620000Y-22098000D02*
G75*
G03*
X7747000Y-22225000I127000J0D01*
G01*
D11*
D12*
X15855000Y-12108500D02*
X15895000Y-12148500D01*
X15895000Y-12108500D02*
X15855000Y-12148500D01*
X17125000Y-12108500D02*
X17165000Y-12148500D01*
X17165000Y-12108500D02*
X17125000Y-12148500D01*
X21927600Y-10749600D02*
X21967600Y-10789600D01*
X21967600Y-10749600D02*
X21927600Y-10789600D01*
X21927600Y-10879499D02*
X21967600Y-10919499D01*
X21967600Y-10879499D02*
X21927600Y-10919499D01*
X22395500Y-10879499D02*
X22435500Y-10919499D01*
X22435500Y-10879499D02*
X22395500Y-10919499D01*
X22649500Y-11346500D02*
X22689500Y-11386500D01*
X22689500Y-11346500D02*
X22649500Y-11386500D01*
X22649500Y-12267250D02*
X22689500Y-12307250D01*
X22689500Y-12267250D02*
X22649500Y-12307250D01*
X22776500Y-12267250D02*
X22816500Y-12307250D01*
X22816500Y-12267250D02*
X22776500Y-12307250D01*
X22903500Y-11346500D02*
X22943500Y-11386500D01*
X22943500Y-11346500D02*
X22903500Y-11386500D01*
X22903500Y-12267250D02*
X22943500Y-12307250D01*
X22943500Y-12267250D02*
X22903500Y-12307250D01*
X23030500Y-11346500D02*
X23070500Y-11386500D01*
X23070500Y-11346500D02*
X23030500Y-11386500D01*
X23030500Y-11600500D02*
X23070500Y-11640500D01*
X23070500Y-11600500D02*
X23030500Y-11640500D01*
X23030500Y-12267250D02*
X23070500Y-12307250D01*
X23070500Y-12267250D02*
X23030500Y-12307250D01*
X23157500Y-12267250D02*
X23197500Y-12307250D01*
X23197500Y-12267250D02*
X23157500Y-12307250D01*
D13*
X8549000Y-9588500D02*
G75*
G03*
X8549000Y-9588500I-40000J0D01*
G01*
X8549000Y-10096500D02*
G75*
G03*
X8549000Y-10096500I-40000J0D01*
G01*
X8549000Y-10350500D02*
G75*
G03*
X8549000Y-10350500I-40000J0D01*
G01*
X8549000Y-10604500D02*
G75*
G03*
X8549000Y-10604500I-40000J0D01*
G01*
X8549000Y-10858500D02*
G75*
G03*
X8549000Y-10858500I-40000J0D01*
G01*
X8549000Y-11112500D02*
G75*
G03*
X8549000Y-11112500I-40000J0D01*
G01*
X8549000Y-11366500D02*
G75*
G03*
X8549000Y-11366500I-40000J0D01*
G01*
X8549000Y-11620500D02*
G75*
G03*
X8549000Y-11620500I-40000J0D01*
G01*
X8549000Y-11874500D02*
G75*
G03*
X8549000Y-11874500I-40000J0D01*
G01*
X9311000Y-9588500D02*
G75*
G03*
X9311000Y-9588500I-40000J0D01*
G01*
X9311000Y-10096500D02*
G75*
G03*
X9311000Y-10096500I-40000J0D01*
G01*
X9311000Y-10350500D02*
G75*
G03*
X9311000Y-10350500I-40000J0D01*
G01*
X9311000Y-10604500D02*
G75*
G03*
X9311000Y-10604500I-40000J0D01*
G01*
X9311000Y-10858500D02*
G75*
G03*
X9311000Y-10858500I-40000J0D01*
G01*
X9311000Y-11112500D02*
G75*
G03*
X9311000Y-11112500I-40000J0D01*
G01*
X9311000Y-11366500D02*
G75*
G03*
X9311000Y-11366500I-40000J0D01*
G01*
X9311000Y-11620500D02*
G75*
G03*
X9311000Y-11620500I-40000J0D01*
G01*
X9311000Y-11874500D02*
G75*
G03*
X9311000Y-11874500I-40000J0D01*
G01*
X9819000Y-9588500D02*
G75*
G03*
X9819000Y-9588500I-40000J0D01*
G01*
X9819000Y-10096500D02*
G75*
G03*
X9819000Y-10096500I-40000J0D01*
G01*
X9819000Y-10350500D02*
G75*
G03*
X9819000Y-10350500I-40000J0D01*
G01*
X9819000Y-10604500D02*
G75*
G03*
X9819000Y-10604500I-40000J0D01*
G01*
X9819000Y-10858500D02*
G75*
G03*
X9819000Y-10858500I-40000J0D01*
G01*
X9819000Y-11112500D02*
G75*
G03*
X9819000Y-11112500I-40000J0D01*
G01*
X9819000Y-11366500D02*
G75*
G03*
X9819000Y-11366500I-40000J0D01*
G01*
X9819000Y-11620500D02*
G75*
G03*
X9819000Y-11620500I-40000J0D01*
G01*
X9819000Y-11874500D02*
G75*
G03*
X9819000Y-11874500I-40000J0D01*
G01*
X10581000Y-9588500D02*
G75*
G03*
X10581000Y-9588500I-40000J0D01*
G01*
X10581000Y-10096500D02*
G75*
G03*
X10581000Y-10096500I-40000J0D01*
G01*
X10581000Y-10350500D02*
G75*
G03*
X10581000Y-10350500I-40000J0D01*
G01*
X10581000Y-10604500D02*
G75*
G03*
X10581000Y-10604500I-40000J0D01*
G01*
X10581000Y-10858500D02*
G75*
G03*
X10581000Y-10858500I-40000J0D01*
G01*
X10581000Y-11112500D02*
G75*
G03*
X10581000Y-11112500I-40000J0D01*
G01*
X10581000Y-11366500D02*
G75*
G03*
X10581000Y-11366500I-40000J0D01*
G01*
X10581000Y-11620500D02*
G75*
G03*
X10581000Y-11620500I-40000J0D01*
G01*
X10581000Y-11874500D02*
G75*
G03*
X10581000Y-11874500I-40000J0D01*
G01*
X11089000Y-9588500D02*
G75*
G03*
X11089000Y-9588500I-40000J0D01*
G01*
X11089000Y-10096500D02*
G75*
G03*
X11089000Y-10096500I-40000J0D01*
G01*
X11089000Y-10350500D02*
G75*
G03*
X11089000Y-10350500I-40000J0D01*
G01*
X11089000Y-10604500D02*
G75*
G03*
X11089000Y-10604500I-40000J0D01*
G01*
X11089000Y-10858500D02*
G75*
G03*
X11089000Y-10858500I-40000J0D01*
G01*
X11089000Y-11112500D02*
G75*
G03*
X11089000Y-11112500I-40000J0D01*
G01*
X11089000Y-11366500D02*
G75*
G03*
X11089000Y-11366500I-40000J0D01*
G01*
X11089000Y-11620500D02*
G75*
G03*
X11089000Y-11620500I-40000J0D01*
G01*
X11089000Y-11874500D02*
G75*
G03*
X11089000Y-11874500I-40000J0D01*
G01*
X11851000Y-9588500D02*
G75*
G03*
X11851000Y-9588500I-40000J0D01*
G01*
X11851000Y-10096500D02*
G75*
G03*
X11851000Y-10096500I-40000J0D01*
G01*
X11851000Y-10350500D02*
G75*
G03*
X11851000Y-10350500I-40000J0D01*
G01*
X11851000Y-10604500D02*
G75*
G03*
X11851000Y-10604500I-40000J0D01*
G01*
X11851000Y-10858500D02*
G75*
G03*
X11851000Y-10858500I-40000J0D01*
G01*
X11851000Y-11112500D02*
G75*
G03*
X11851000Y-11112500I-40000J0D01*
G01*
X11851000Y-11366500D02*
G75*
G03*
X11851000Y-11366500I-40000J0D01*
G01*
X11851000Y-11620500D02*
G75*
G03*
X11851000Y-11620500I-40000J0D01*
G01*
X11851000Y-11874500D02*
G75*
G03*
X11851000Y-11874500I-40000J0D01*
G01*
X12359000Y-9588500D02*
G75*
G03*
X12359000Y-9588500I-40000J0D01*
G01*
X12359000Y-10096500D02*
G75*
G03*
X12359000Y-10096500I-40000J0D01*
G01*
X12359000Y-10350500D02*
G75*
G03*
X12359000Y-10350500I-40000J0D01*
G01*
X12359000Y-10604500D02*
G75*
G03*
X12359000Y-10604500I-40000J0D01*
G01*
X12359000Y-10858500D02*
G75*
G03*
X12359000Y-10858500I-40000J0D01*
G01*
X12359000Y-11112500D02*
G75*
G03*
X12359000Y-11112500I-40000J0D01*
G01*
X12359000Y-11366500D02*
G75*
G03*
X12359000Y-11366500I-40000J0D01*
G01*
X12359000Y-11620500D02*
G75*
G03*
X12359000Y-11620500I-40000J0D01*
G01*
X12359000Y-11874500D02*
G75*
G03*
X12359000Y-11874500I-40000J0D01*
G01*
X13121000Y-9588500D02*
G75*
G03*
X13121000Y-9588500I-40000J0D01*
G01*
X13121000Y-10096500D02*
G75*
G03*
X13121000Y-10096500I-40000J0D01*
G01*
X13121000Y-10350500D02*
G75*
G03*
X13121000Y-10350500I-40000J0D01*
G01*
X13121000Y-10604500D02*
G75*
G03*
X13121000Y-10604500I-40000J0D01*
G01*
X13121000Y-10858500D02*
G75*
G03*
X13121000Y-10858500I-40000J0D01*
G01*
X13121000Y-11112500D02*
G75*
G03*
X13121000Y-11112500I-40000J0D01*
G01*
X13121000Y-11366500D02*
G75*
G03*
X13121000Y-11366500I-40000J0D01*
G01*
X13121000Y-11620500D02*
G75*
G03*
X13121000Y-11620500I-40000J0D01*
G01*
X13121000Y-11874500D02*
G75*
G03*
X13121000Y-11874500I-40000J0D01*
G01*
X13629000Y-9588500D02*
G75*
G03*
X13629000Y-9588500I-40000J0D01*
G01*
X13629000Y-10096500D02*
G75*
G03*
X13629000Y-10096500I-40000J0D01*
G01*
X13629000Y-10350500D02*
G75*
G03*
X13629000Y-10350500I-40000J0D01*
G01*
X13629000Y-10604500D02*
G75*
G03*
X13629000Y-10604500I-40000J0D01*
G01*
X13629000Y-10858500D02*
G75*
G03*
X13629000Y-10858500I-40000J0D01*
G01*
X13629000Y-11112500D02*
G75*
G03*
X13629000Y-11112500I-40000J0D01*
G01*
X13629000Y-11366500D02*
G75*
G03*
X13629000Y-11366500I-40000J0D01*
G01*
X13629000Y-11620500D02*
G75*
G03*
X13629000Y-11620500I-40000J0D01*
G01*
X13629000Y-11874500D02*
G75*
G03*
X13629000Y-11874500I-40000J0D01*
G01*
X14391000Y-9588500D02*
G75*
G03*
X14391000Y-9588500I-40000J0D01*
G01*
X14391000Y-10096500D02*
G75*
G03*
X14391000Y-10096500I-40000J0D01*
G01*
X14391000Y-10350500D02*
G75*
G03*
X14391000Y-10350500I-40000J0D01*
G01*
X14391000Y-10604500D02*
G75*
G03*
X14391000Y-10604500I-40000J0D01*
G01*
X14391000Y-10858500D02*
G75*
G03*
X14391000Y-10858500I-40000J0D01*
G01*
X14391000Y-11112500D02*
G75*
G03*
X14391000Y-11112500I-40000J0D01*
G01*
X14391000Y-11366500D02*
G75*
G03*
X14391000Y-11366500I-40000J0D01*
G01*
X14391000Y-11620500D02*
G75*
G03*
X14391000Y-11620500I-40000J0D01*
G01*
X14391000Y-11874500D02*
G75*
G03*
X14391000Y-11874500I-40000J0D01*
G01*
X14899000Y-9588500D02*
G75*
G03*
X14899000Y-9588500I-40000J0D01*
G01*
X14899000Y-10096500D02*
G75*
G03*
X14899000Y-10096500I-40000J0D01*
G01*
X14899000Y-10350500D02*
G75*
G03*
X14899000Y-10350500I-40000J0D01*
G01*
X14899000Y-10604500D02*
G75*
G03*
X14899000Y-10604500I-40000J0D01*
G01*
X14899000Y-10858500D02*
G75*
G03*
X14899000Y-10858500I-40000J0D01*
G01*
X14899000Y-11112500D02*
G75*
G03*
X14899000Y-11112500I-40000J0D01*
G01*
X14899000Y-11366500D02*
G75*
G03*
X14899000Y-11366500I-40000J0D01*
G01*
X14899000Y-11620500D02*
G75*
G03*
X14899000Y-11620500I-40000J0D01*
G01*
X14899000Y-11874500D02*
G75*
G03*
X14899000Y-11874500I-40000J0D01*
G01*
X15661000Y-9588500D02*
G75*
G03*
X15661000Y-9588500I-40000J0D01*
G01*
X15661000Y-10096500D02*
G75*
G03*
X15661000Y-10096500I-40000J0D01*
G01*
X15661000Y-10350500D02*
G75*
G03*
X15661000Y-10350500I-40000J0D01*
G01*
X15661000Y-10604500D02*
G75*
G03*
X15661000Y-10604500I-40000J0D01*
G01*
X15661000Y-10858500D02*
G75*
G03*
X15661000Y-10858500I-40000J0D01*
G01*
X15661000Y-11112500D02*
G75*
G03*
X15661000Y-11112500I-40000J0D01*
G01*
X15661000Y-11366500D02*
G75*
G03*
X15661000Y-11366500I-40000J0D01*
G01*
X15661000Y-11620500D02*
G75*
G03*
X15661000Y-11620500I-40000J0D01*
G01*
X15661000Y-11874500D02*
G75*
G03*
X15661000Y-11874500I-40000J0D01*
G01*
X16169000Y-9588500D02*
G75*
G03*
X16169000Y-9588500I-40000J0D01*
G01*
X16169000Y-10096500D02*
G75*
G03*
X16169000Y-10096500I-40000J0D01*
G01*
X16169000Y-10350500D02*
G75*
G03*
X16169000Y-10350500I-40000J0D01*
G01*
X16169000Y-10604500D02*
G75*
G03*
X16169000Y-10604500I-40000J0D01*
G01*
X16169000Y-10858500D02*
G75*
G03*
X16169000Y-10858500I-40000J0D01*
G01*
X16169000Y-11112500D02*
G75*
G03*
X16169000Y-11112500I-40000J0D01*
G01*
X16169000Y-11366500D02*
G75*
G03*
X16169000Y-11366500I-40000J0D01*
G01*
X16169000Y-11620500D02*
G75*
G03*
X16169000Y-11620500I-40000J0D01*
G01*
X16169000Y-11874500D02*
G75*
G03*
X16169000Y-11874500I-40000J0D01*
G01*
X16931000Y-9588500D02*
G75*
G03*
X16931000Y-9588500I-40000J0D01*
G01*
X16931000Y-10096500D02*
G75*
G03*
X16931000Y-10096500I-40000J0D01*
G01*
X16931000Y-10350500D02*
G75*
G03*
X16931000Y-10350500I-40000J0D01*
G01*
X16931000Y-10604500D02*
G75*
G03*
X16931000Y-10604500I-40000J0D01*
G01*
X16931000Y-10858500D02*
G75*
G03*
X16931000Y-10858500I-40000J0D01*
G01*
X16931000Y-11112500D02*
G75*
G03*
X16931000Y-11112500I-40000J0D01*
G01*
X16931000Y-11366500D02*
G75*
G03*
X16931000Y-11366500I-40000J0D01*
G01*
X16931000Y-11620500D02*
G75*
G03*
X16931000Y-11620500I-40000J0D01*
G01*
X16931000Y-11874500D02*
G75*
G03*
X16931000Y-11874500I-40000J0D01*
G01*
X17439000Y-9588500D02*
G75*
G03*
X17439000Y-9588500I-40000J0D01*
G01*
X17439000Y-10096500D02*
G75*
G03*
X17439000Y-10096500I-40000J0D01*
G01*
X17439000Y-10350500D02*
G75*
G03*
X17439000Y-10350500I-40000J0D01*
G01*
X17439000Y-10604500D02*
G75*
G03*
X17439000Y-10604500I-40000J0D01*
G01*
X17439000Y-10858500D02*
G75*
G03*
X17439000Y-10858500I-40000J0D01*
G01*
X17439000Y-11112500D02*
G75*
G03*
X17439000Y-11112500I-40000J0D01*
G01*
X17439000Y-11366500D02*
G75*
G03*
X17439000Y-11366500I-40000J0D01*
G01*
X17439000Y-11620500D02*
G75*
G03*
X17439000Y-11620500I-40000J0D01*
G01*
X17439000Y-11874500D02*
G75*
G03*
X17439000Y-11874500I-40000J0D01*
G01*
X18201000Y-9588500D02*
G75*
G03*
X18201000Y-9588500I-40000J0D01*
G01*
X18201000Y-10096500D02*
G75*
G03*
X18201000Y-10096500I-40000J0D01*
G01*
X18201000Y-10350500D02*
G75*
G03*
X18201000Y-10350500I-40000J0D01*
G01*
X18201000Y-10604500D02*
G75*
G03*
X18201000Y-10604500I-40000J0D01*
G01*
X18201000Y-10858500D02*
G75*
G03*
X18201000Y-10858500I-40000J0D01*
G01*
X18201000Y-11112500D02*
G75*
G03*
X18201000Y-11112500I-40000J0D01*
G01*
X18201000Y-11366500D02*
G75*
G03*
X18201000Y-11366500I-40000J0D01*
G01*
X18201000Y-11620500D02*
G75*
G03*
X18201000Y-11620500I-40000J0D01*
G01*
X18201000Y-11874500D02*
G75*
G03*
X18201000Y-11874500I-40000J0D01*
G01*
X19312250Y-10795000D02*
G75*
G03*
X19312250Y-10795000I-40000J0D01*
G01*
X19312250Y-11811000D02*
G75*
G03*
X19312250Y-11811000I-40000J0D01*
G01*
X19629750Y-10795000D02*
G75*
G03*
X19629750Y-10795000I-40000J0D01*
G01*
X19629750Y-11811000D02*
G75*
G03*
X19629750Y-11811000I-40000J0D01*
G01*
X19947250Y-10795000D02*
G75*
G03*
X19947250Y-10795000I-40000J0D01*
G01*
X19947250Y-11811000D02*
G75*
G03*
X19947250Y-11811000I-40000J0D01*
G01*
X20264750Y-10795000D02*
G75*
G03*
X20264750Y-10795000I-40000J0D01*
G01*
X20264750Y-11811000D02*
G75*
G03*
X20264750Y-11811000I-40000J0D01*
G01*
X20582250Y-10795000D02*
G75*
G03*
X20582250Y-10795000I-40000J0D01*
G01*
X20582250Y-11811000D02*
G75*
G03*
X20582250Y-11811000I-40000J0D01*
G01*
X20899750Y-10795000D02*
G75*
G03*
X20899750Y-10795000I-40000J0D01*
G01*
X20899750Y-11811000D02*
G75*
G03*
X20899750Y-11811000I-40000J0D01*
G01*
X21217250Y-10795000D02*
G75*
G03*
X21217250Y-10795000I-40000J0D01*
G01*
X21217250Y-11811000D02*
G75*
G03*
X21217250Y-11811000I-40000J0D01*
G01*
X21534750Y-10795000D02*
G75*
G03*
X21534750Y-10795000I-40000J0D01*
G01*
X21534750Y-11811000D02*
G75*
G03*
X21534750Y-11811000I-40000J0D01*
G01*
X21947500Y-10096500D02*
G75*
G03*
X21947500Y-10096500I-40000J0D01*
G01*
X21947500Y-10414000D02*
G75*
G03*
X21947500Y-10414000I-40000J0D01*
G01*
X21947500Y-11176000D02*
G75*
G03*
X21947500Y-11176000I-40000J0D01*
G01*
X22201500Y-10096500D02*
G75*
G03*
X22201500Y-10096500I-40000J0D01*
G01*
X22201500Y-10414000D02*
G75*
G03*
X22201500Y-10414000I-40000J0D01*
G01*
X22201500Y-11176000D02*
G75*
G03*
X22201500Y-11176000I-40000J0D01*
G01*
X22455500Y-10096500D02*
G75*
G03*
X22455500Y-10096500I-40000J0D01*
G01*
X22455500Y-10414000D02*
G75*
G03*
X22455500Y-10414000I-40000J0D01*
G01*
X22455500Y-11176000D02*
G75*
G03*
X22455500Y-11176000I-40000J0D01*
G01*
X22455500Y-11493500D02*
G75*
G03*
X22455500Y-11493500I-40000J0D01*
G01*
X22455500Y-11811000D02*
G75*
G03*
X22455500Y-11811000I-40000J0D01*
G01*
X22709500Y-10096500D02*
G75*
G03*
X22709500Y-10096500I-40000J0D01*
G01*
X22709500Y-10414000D02*
G75*
G03*
X22709500Y-10414000I-40000J0D01*
G01*
X22709500Y-11176000D02*
G75*
G03*
X22709500Y-11176000I-40000J0D01*
G01*
X22963500Y-10096500D02*
G75*
G03*
X22963500Y-10096500I-40000J0D01*
G01*
X22963500Y-10414000D02*
G75*
G03*
X22963500Y-10414000I-40000J0D01*
G01*
X22963500Y-11176000D02*
G75*
G03*
X22963500Y-11176000I-40000J0D01*
G01*
X23217500Y-10096500D02*
G75*
G03*
X23217500Y-10096500I-40000J0D01*
G01*
X23217500Y-10414000D02*
G75*
G03*
X23217500Y-10414000I-40000J0D01*
G01*
X23217500Y-11176000D02*
G75*
G03*
X23217500Y-11176000I-40000J0D01*
G01*
X23471500Y-10096500D02*
G75*
G03*
X23471500Y-10096500I-40000J0D01*
G01*
X23471500Y-10414000D02*
G75*
G03*
X23471500Y-10414000I-40000J0D01*
G01*
X23471500Y-11176000D02*
G75*
G03*
X23471500Y-11176000I-40000J0D01*
G01*
X23471500Y-11493500D02*
G75*
G03*
X23471500Y-11493500I-40000J0D01*
G01*
X23471500Y-11811000D02*
G75*
G03*
X23471500Y-11811000I-40000J0D01*
G01*
X23725500Y-10414000D02*
G75*
G03*
X23725500Y-10414000I-40000J0D01*
G01*
X23725500Y-11176000D02*
G75*
G03*
X23725500Y-11176000I-40000J0D01*
G01*
X23725500Y-11561000D02*
G75*
G03*
X23725500Y-11561000I-40000J0D01*
G01*
X23725500Y-11811000D02*
G75*
G03*
X23725500Y-11811000I-40000J0D01*
G01*
X23979500Y-10414000D02*
G75*
G03*
X23979500Y-10414000I-40000J0D01*
G01*
X23979500Y-11176000D02*
G75*
G03*
X23979500Y-11176000I-40000J0D01*
G01*
X24233500Y-10096500D02*
G75*
G03*
X24233500Y-10096500I-40000J0D01*
G01*
X24233500Y-10414000D02*
G75*
G03*
X24233500Y-10414000I-40000J0D01*
G01*
X24233500Y-11176000D02*
G75*
G03*
X24233500Y-11176000I-40000J0D01*
G01*
X24242500Y-11620500D02*
G75*
G03*
X24242500Y-11620500I-40000J0D01*
G01*
X24487500Y-10414000D02*
G75*
G03*
X24487500Y-10414000I-40000J0D01*
G01*
X24487500Y-11176000D02*
G75*
G03*
X24487500Y-11176000I-40000J0D01*
G01*
X24730500Y-11620500D02*
G75*
G03*
X24730500Y-11620500I-40000J0D01*
G01*
X24741500Y-10414000D02*
G75*
G03*
X24741500Y-10414000I-40000J0D01*
G01*
X24741500Y-11176000D02*
G75*
G03*
X24741500Y-11176000I-40000J0D01*
G01*
X24995500Y-10414000D02*
G75*
G03*
X24995500Y-10414000I-40000J0D01*
G01*
X24995500Y-11176000D02*
G75*
G03*
X24995500Y-11176000I-40000J0D01*
G01*
X25249500Y-10096500D02*
G75*
G03*
X25249500Y-10096500I-40000J0D01*
G01*
X25249500Y-10414000D02*
G75*
G03*
X25249500Y-10414000I-40000J0D01*
G01*
X25249500Y-11176000D02*
G75*
G03*
X25249500Y-11176000I-40000J0D01*
G01*
X25249500Y-11561000D02*
G75*
G03*
X25249500Y-11561000I-40000J0D01*
G01*
X25249500Y-11811000D02*
G75*
G03*
X25249500Y-11811000I-40000J0D01*
G01*
X25694000Y-9588500D02*
G75*
G03*
X25694000Y-9588500I-40000J0D01*
G01*
X25694000Y-10096500D02*
G75*
G03*
X25694000Y-10096500I-40000J0D01*
G01*
X25694000Y-10350500D02*
G75*
G03*
X25694000Y-10350500I-40000J0D01*
G01*
X25694000Y-10604500D02*
G75*
G03*
X25694000Y-10604500I-40000J0D01*
G01*
X25694000Y-10858500D02*
G75*
G03*
X25694000Y-10858500I-40000J0D01*
G01*
X25694000Y-11112500D02*
G75*
G03*
X25694000Y-11112500I-40000J0D01*
G01*
X25694000Y-11366500D02*
G75*
G03*
X25694000Y-11366500I-40000J0D01*
G01*
X25694000Y-11620500D02*
G75*
G03*
X25694000Y-11620500I-40000J0D01*
G01*
X25694000Y-11874500D02*
G75*
G03*
X25694000Y-11874500I-40000J0D01*
G01*
X26456000Y-9588500D02*
G75*
G03*
X26456000Y-9588500I-40000J0D01*
G01*
X26456000Y-10096500D02*
G75*
G03*
X26456000Y-10096500I-40000J0D01*
G01*
X26456000Y-10350500D02*
G75*
G03*
X26456000Y-10350500I-40000J0D01*
G01*
X26456000Y-10604500D02*
G75*
G03*
X26456000Y-10604500I-40000J0D01*
G01*
X26456000Y-10858500D02*
G75*
G03*
X26456000Y-10858500I-40000J0D01*
G01*
X26456000Y-11112500D02*
G75*
G03*
X26456000Y-11112500I-40000J0D01*
G01*
X26456000Y-11366500D02*
G75*
G03*
X26456000Y-11366500I-40000J0D01*
G01*
X26456000Y-11620500D02*
G75*
G03*
X26456000Y-11620500I-40000J0D01*
G01*
X26456000Y-11874500D02*
G75*
G03*
X26456000Y-11874500I-40000J0D01*
G01*
X26964000Y-9588500D02*
G75*
G03*
X26964000Y-9588500I-40000J0D01*
G01*
X26964000Y-10096500D02*
G75*
G03*
X26964000Y-10096500I-40000J0D01*
G01*
X26964000Y-10350500D02*
G75*
G03*
X26964000Y-10350500I-40000J0D01*
G01*
X26964000Y-10604500D02*
G75*
G03*
X26964000Y-10604500I-40000J0D01*
G01*
X26964000Y-10858500D02*
G75*
G03*
X26964000Y-10858500I-40000J0D01*
G01*
X26964000Y-11112500D02*
G75*
G03*
X26964000Y-11112500I-40000J0D01*
G01*
X26964000Y-11366500D02*
G75*
G03*
X26964000Y-11366500I-40000J0D01*
G01*
X26964000Y-11620500D02*
G75*
G03*
X26964000Y-11620500I-40000J0D01*
G01*
X26964000Y-11874500D02*
G75*
G03*
X26964000Y-11874500I-40000J0D01*
G01*
X27726000Y-9588500D02*
G75*
G03*
X27726000Y-9588500I-40000J0D01*
G01*
X27726000Y-10096500D02*
G75*
G03*
X27726000Y-10096500I-40000J0D01*
G01*
X27726000Y-10350500D02*
G75*
G03*
X27726000Y-10350500I-40000J0D01*
G01*
X27726000Y-10604500D02*
G75*
G03*
X27726000Y-10604500I-40000J0D01*
G01*
X27726000Y-10858500D02*
G75*
G03*
X27726000Y-10858500I-40000J0D01*
G01*
X27726000Y-11112500D02*
G75*
G03*
X27726000Y-11112500I-40000J0D01*
G01*
X27726000Y-11366500D02*
G75*
G03*
X27726000Y-11366500I-40000J0D01*
G01*
X27726000Y-11620500D02*
G75*
G03*
X27726000Y-11620500I-40000J0D01*
G01*
X27726000Y-11874500D02*
G75*
G03*
X27726000Y-11874500I-40000J0D01*
G01*
X28234000Y-9588500D02*
G75*
G03*
X28234000Y-9588500I-40000J0D01*
G01*
X28234000Y-10096500D02*
G75*
G03*
X28234000Y-10096500I-40000J0D01*
G01*
X28234000Y-10350500D02*
G75*
G03*
X28234000Y-10350500I-40000J0D01*
G01*
X28234000Y-10604500D02*
G75*
G03*
X28234000Y-10604500I-40000J0D01*
G01*
X28234000Y-10858500D02*
G75*
G03*
X28234000Y-10858500I-40000J0D01*
G01*
X28234000Y-11112500D02*
G75*
G03*
X28234000Y-11112500I-40000J0D01*
G01*
X28234000Y-11366500D02*
G75*
G03*
X28234000Y-11366500I-40000J0D01*
G01*
X28234000Y-11620500D02*
G75*
G03*
X28234000Y-11620500I-40000J0D01*
G01*
X28234000Y-11874500D02*
G75*
G03*
X28234000Y-11874500I-40000J0D01*
G01*
X28996000Y-9588500D02*
G75*
G03*
X28996000Y-9588500I-40000J0D01*
G01*
X28996000Y-10096500D02*
G75*
G03*
X28996000Y-10096500I-40000J0D01*
G01*
X28996000Y-10350500D02*
G75*
G03*
X28996000Y-10350500I-40000J0D01*
G01*
X28996000Y-10604500D02*
G75*
G03*
X28996000Y-10604500I-40000J0D01*
G01*
X28996000Y-10858500D02*
G75*
G03*
X28996000Y-10858500I-40000J0D01*
G01*
X28996000Y-11112500D02*
G75*
G03*
X28996000Y-11112500I-40000J0D01*
G01*
X28996000Y-11366500D02*
G75*
G03*
X28996000Y-11366500I-40000J0D01*
G01*
X28996000Y-11620500D02*
G75*
G03*
X28996000Y-11620500I-40000J0D01*
G01*
X28996000Y-11874500D02*
G75*
G03*
X28996000Y-11874500I-40000J0D01*
G01*
X29504000Y-9588500D02*
G75*
G03*
X29504000Y-9588500I-40000J0D01*
G01*
X29504000Y-10096500D02*
G75*
G03*
X29504000Y-10096500I-40000J0D01*
G01*
X29504000Y-10350500D02*
G75*
G03*
X29504000Y-10350500I-40000J0D01*
G01*
X29504000Y-10604500D02*
G75*
G03*
X29504000Y-10604500I-40000J0D01*
G01*
X29504000Y-10858500D02*
G75*
G03*
X29504000Y-10858500I-40000J0D01*
G01*
X29504000Y-11112500D02*
G75*
G03*
X29504000Y-11112500I-40000J0D01*
G01*
X29504000Y-11366500D02*
G75*
G03*
X29504000Y-11366500I-40000J0D01*
G01*
X29504000Y-11620500D02*
G75*
G03*
X29504000Y-11620500I-40000J0D01*
G01*
X29504000Y-11874500D02*
G75*
G03*
X29504000Y-11874500I-40000J0D01*
G01*
X30266000Y-9588500D02*
G75*
G03*
X30266000Y-9588500I-40000J0D01*
G01*
X30266000Y-10096500D02*
G75*
G03*
X30266000Y-10096500I-40000J0D01*
G01*
X30266000Y-10350500D02*
G75*
G03*
X30266000Y-10350500I-40000J0D01*
G01*
X30266000Y-10604500D02*
G75*
G03*
X30266000Y-10604500I-40000J0D01*
G01*
X30266000Y-10858500D02*
G75*
G03*
X30266000Y-10858500I-40000J0D01*
G01*
X30266000Y-11112500D02*
G75*
G03*
X30266000Y-11112500I-40000J0D01*
G01*
X30266000Y-11366500D02*
G75*
G03*
X30266000Y-11366500I-40000J0D01*
G01*
X30266000Y-11620500D02*
G75*
G03*
X30266000Y-11620500I-40000J0D01*
G01*
X30266000Y-11874500D02*
G75*
G03*
X30266000Y-11874500I-40000J0D01*
G01*
X30774000Y-9588500D02*
G75*
G03*
X30774000Y-9588500I-40000J0D01*
G01*
X30774000Y-10096500D02*
G75*
G03*
X30774000Y-10096500I-40000J0D01*
G01*
X30774000Y-10350500D02*
G75*
G03*
X30774000Y-10350500I-40000J0D01*
G01*
X30774000Y-10604500D02*
G75*
G03*
X30774000Y-10604500I-40000J0D01*
G01*
X30774000Y-10858500D02*
G75*
G03*
X30774000Y-10858500I-40000J0D01*
G01*
X30774000Y-11112500D02*
G75*
G03*
X30774000Y-11112500I-40000J0D01*
G01*
X30774000Y-11366500D02*
G75*
G03*
X30774000Y-11366500I-40000J0D01*
G01*
X30774000Y-11620500D02*
G75*
G03*
X30774000Y-11620500I-40000J0D01*
G01*
X30774000Y-11874500D02*
G75*
G03*
X30774000Y-11874500I-40000J0D01*
G01*
X31536000Y-9588500D02*
G75*
G03*
X31536000Y-9588500I-40000J0D01*
G01*
X31536000Y-10096500D02*
G75*
G03*
X31536000Y-10096500I-40000J0D01*
G01*
X31536000Y-10350500D02*
G75*
G03*
X31536000Y-10350500I-40000J0D01*
G01*
X31536000Y-10604500D02*
G75*
G03*
X31536000Y-10604500I-40000J0D01*
G01*
X31536000Y-10858500D02*
G75*
G03*
X31536000Y-10858500I-40000J0D01*
G01*
X31536000Y-11112500D02*
G75*
G03*
X31536000Y-11112500I-40000J0D01*
G01*
X31536000Y-11366500D02*
G75*
G03*
X31536000Y-11366500I-40000J0D01*
G01*
X31536000Y-11620500D02*
G75*
G03*
X31536000Y-11620500I-40000J0D01*
G01*
X31536000Y-11874500D02*
G75*
G03*
X31536000Y-11874500I-40000J0D01*
G01*
X32044000Y-9588500D02*
G75*
G03*
X32044000Y-9588500I-40000J0D01*
G01*
X32044000Y-10096500D02*
G75*
G03*
X32044000Y-10096500I-40000J0D01*
G01*
X32044000Y-10350500D02*
G75*
G03*
X32044000Y-10350500I-40000J0D01*
G01*
X32044000Y-10604500D02*
G75*
G03*
X32044000Y-10604500I-40000J0D01*
G01*
X32044000Y-10858500D02*
G75*
G03*
X32044000Y-10858500I-40000J0D01*
G01*
X32044000Y-11112500D02*
G75*
G03*
X32044000Y-11112500I-40000J0D01*
G01*
X32044000Y-11366500D02*
G75*
G03*
X32044000Y-11366500I-40000J0D01*
G01*
X32044000Y-11620500D02*
G75*
G03*
X32044000Y-11620500I-40000J0D01*
G01*
X32044000Y-11874500D02*
G75*
G03*
X32044000Y-11874500I-40000J0D01*
G01*
X32806000Y-9588500D02*
G75*
G03*
X32806000Y-9588500I-40000J0D01*
G01*
X32806000Y-10096500D02*
G75*
G03*
X32806000Y-10096500I-40000J0D01*
G01*
X32806000Y-10350500D02*
G75*
G03*
X32806000Y-10350500I-40000J0D01*
G01*
X32806000Y-10604500D02*
G75*
G03*
X32806000Y-10604500I-40000J0D01*
G01*
X32806000Y-10858500D02*
G75*
G03*
X32806000Y-10858500I-40000J0D01*
G01*
X32806000Y-11112500D02*
G75*
G03*
X32806000Y-11112500I-40000J0D01*
G01*
X32806000Y-11366500D02*
G75*
G03*
X32806000Y-11366500I-40000J0D01*
G01*
X32806000Y-11620500D02*
G75*
G03*
X32806000Y-11620500I-40000J0D01*
G01*
X32806000Y-11874500D02*
G75*
G03*
X32806000Y-11874500I-40000J0D01*
G01*
X33314000Y-9588500D02*
G75*
G03*
X33314000Y-9588500I-40000J0D01*
G01*
X33314000Y-10096500D02*
G75*
G03*
X33314000Y-10096500I-40000J0D01*
G01*
X33314000Y-10350500D02*
G75*
G03*
X33314000Y-10350500I-40000J0D01*
G01*
X33314000Y-10604500D02*
G75*
G03*
X33314000Y-10604500I-40000J0D01*
G01*
X33314000Y-10858500D02*
G75*
G03*
X33314000Y-10858500I-40000J0D01*
G01*
X33314000Y-11112500D02*
G75*
G03*
X33314000Y-11112500I-40000J0D01*
G01*
X33314000Y-11366500D02*
G75*
G03*
X33314000Y-11366500I-40000J0D01*
G01*
X33314000Y-11620500D02*
G75*
G03*
X33314000Y-11620500I-40000J0D01*
G01*
X33314000Y-11874500D02*
G75*
G03*
X33314000Y-11874500I-40000J0D01*
G01*
X34076000Y-9588500D02*
G75*
G03*
X34076000Y-9588500I-40000J0D01*
G01*
X34076000Y-10096500D02*
G75*
G03*
X34076000Y-10096500I-40000J0D01*
G01*
X34076000Y-10350500D02*
G75*
G03*
X34076000Y-10350500I-40000J0D01*
G01*
X34076000Y-10604500D02*
G75*
G03*
X34076000Y-10604500I-40000J0D01*
G01*
X34076000Y-10858500D02*
G75*
G03*
X34076000Y-10858500I-40000J0D01*
G01*
X34076000Y-11112500D02*
G75*
G03*
X34076000Y-11112500I-40000J0D01*
G01*
X34076000Y-11366500D02*
G75*
G03*
X34076000Y-11366500I-40000J0D01*
G01*
X34076000Y-11620500D02*
G75*
G03*
X34076000Y-11620500I-40000J0D01*
G01*
X34076000Y-11874500D02*
G75*
G03*
X34076000Y-11874500I-40000J0D01*
G01*
X34584000Y-9588500D02*
G75*
G03*
X34584000Y-9588500I-40000J0D01*
G01*
X34584000Y-10096500D02*
G75*
G03*
X34584000Y-10096500I-40000J0D01*
G01*
X34584000Y-10350500D02*
G75*
G03*
X34584000Y-10350500I-40000J0D01*
G01*
X34584000Y-10604500D02*
G75*
G03*
X34584000Y-10604500I-40000J0D01*
G01*
X34584000Y-10858500D02*
G75*
G03*
X34584000Y-10858500I-40000J0D01*
G01*
X34584000Y-11112500D02*
G75*
G03*
X34584000Y-11112500I-40000J0D01*
G01*
X34584000Y-11366500D02*
G75*
G03*
X34584000Y-11366500I-40000J0D01*
G01*
X34584000Y-11620500D02*
G75*
G03*
X34584000Y-11620500I-40000J0D01*
G01*
X34584000Y-11874500D02*
G75*
G03*
X34584000Y-11874500I-40000J0D01*
G01*
X35346000Y-9588500D02*
G75*
G03*
X35346000Y-9588500I-40000J0D01*
G01*
X35346000Y-10096500D02*
G75*
G03*
X35346000Y-10096500I-40000J0D01*
G01*
X35346000Y-10350500D02*
G75*
G03*
X35346000Y-10350500I-40000J0D01*
G01*
X35346000Y-10604500D02*
G75*
G03*
X35346000Y-10604500I-40000J0D01*
G01*
X35346000Y-10858500D02*
G75*
G03*
X35346000Y-10858500I-40000J0D01*
G01*
X35346000Y-11112500D02*
G75*
G03*
X35346000Y-11112500I-40000J0D01*
G01*
X35346000Y-11366500D02*
G75*
G03*
X35346000Y-11366500I-40000J0D01*
G01*
X35346000Y-11620500D02*
G75*
G03*
X35346000Y-11620500I-40000J0D01*
G01*
X35346000Y-11874500D02*
G75*
G03*
X35346000Y-11874500I-40000J0D01*
G01*
D14*
X18796000Y-9353000D02*
X18796000Y-9443000D01*
X18751000Y-9398000D02*
X18841000Y-9398000D01*
X18796000Y-9607000D02*
X18796000Y-9697000D01*
X18751000Y-9652000D02*
X18841000Y-9652000D01*
X25019000Y-9353000D02*
X25019000Y-9443000D01*
X24974000Y-9398000D02*
X25064000Y-9398000D01*
X25019000Y-9607000D02*
X25019000Y-9697000D01*
X24974000Y-9652000D02*
X25064000Y-9652000D01*
D15*
X19783856Y-9814356D02*
X19783856Y-9743644D01*
X19713144Y-9743644D01*
X19713144Y-9814356D01*
X19783856Y-9814356D01*
X19783856Y-10068356D02*
X19783856Y-9997644D01*
X19713144Y-9997644D01*
X19713144Y-10068356D01*
X19783856Y-10068356D01*
X20037856Y-9814356D02*
X20037856Y-9743644D01*
X19967144Y-9743644D01*
X19967144Y-9814356D01*
X20037856Y-9814356D01*
X20037856Y-10068356D02*
X20037856Y-9997644D01*
X19967144Y-9997644D01*
X19967144Y-10068356D01*
X20037856Y-10068356D01*
X20291856Y-9814356D02*
X20291856Y-9743644D01*
X20221144Y-9743644D01*
X20221144Y-9814356D01*
X20291856Y-9814356D01*
X20291856Y-10068356D02*
X20291856Y-9997644D01*
X20221144Y-9997644D01*
X20221144Y-10068356D01*
X20291856Y-10068356D01*
X20545856Y-9814356D02*
X20545856Y-9743644D01*
X20475144Y-9743644D01*
X20475144Y-9814356D01*
X20545856Y-9814356D01*
X20545856Y-10068356D02*
X20545856Y-9997644D01*
X20475144Y-9997644D01*
X20475144Y-10068356D01*
X20545856Y-10068356D01*
X20799856Y-9814356D02*
X20799856Y-9743644D01*
X20729144Y-9743644D01*
X20729144Y-9814356D01*
X20799856Y-9814356D01*
X20799856Y-10068356D02*
X20799856Y-9997644D01*
X20729144Y-9997644D01*
X20729144Y-10068356D01*
X20799856Y-10068356D01*
X21053856Y-9814356D02*
X21053856Y-9743644D01*
X20983144Y-9743644D01*
X20983144Y-9814356D01*
X21053856Y-9814356D01*
X21053856Y-10068356D02*
X21053856Y-9997644D01*
X20983144Y-9997644D01*
X20983144Y-10068356D01*
X21053856Y-10068356D01*
D16*
X21907500Y-9384000D02*
X21962500Y-9329000D01*
X21907500Y-9274000D01*
X21852500Y-9329000D01*
X21907500Y-9384000D01*
X21907500Y-9834000D02*
X21962500Y-9779000D01*
X21907500Y-9724000D01*
X21852500Y-9779000D01*
X21907500Y-9834000D01*
X22557500Y-9384000D02*
X22612500Y-9329000D01*
X22557500Y-9274000D01*
X22502500Y-9329000D01*
X22557500Y-9384000D01*
X22557500Y-9834000D02*
X22612500Y-9779000D01*
X22557500Y-9724000D01*
X22502500Y-9779000D01*
X22557500Y-9834000D01*
X23431500Y-9384000D02*
X23486500Y-9329000D01*
X23431500Y-9274000D01*
X23376500Y-9329000D01*
X23431500Y-9384000D01*
X23431500Y-9834000D02*
X23486500Y-9779000D01*
X23431500Y-9724000D01*
X23376500Y-9779000D01*
X23431500Y-9834000D01*
X24081500Y-9384000D02*
X24136500Y-9329000D01*
X24081500Y-9274000D01*
X24026500Y-9329000D01*
X24081500Y-9384000D01*
X24081500Y-9834000D02*
X24136500Y-9779000D01*
X24081500Y-9724000D01*
X24026500Y-9779000D01*
X24081500Y-9834000D01*
D17*
X18672500Y-10024000D02*
X18792500Y-10144000D01*
X18792500Y-10024000D02*
X18672500Y-10144000D01*
X18792500Y-10084000D02*
G75*
G03*
X18792500Y-10084000I-60000J0D01*
G01*
X18672500Y-11824000D02*
X18792500Y-11944000D01*
X18792500Y-11824000D02*
X18672500Y-11944000D01*
X18792500Y-11884000D02*
G75*
G03*
X18792500Y-11884000I-60000J0D01*
G01*
D18*
X8116500Y-13323500D02*
X8266500Y-13473500D01*
X8266500Y-13323500D02*
X8116500Y-13473500D01*
X8191500Y-13323500D02*
X8191500Y-13473500D01*
X8116500Y-13398500D02*
X8266500Y-13398500D01*
X8354625Y-17133500D02*
X8504625Y-17283500D01*
X8504625Y-17133500D02*
X8354625Y-17283500D01*
X8429625Y-17133500D02*
X8429625Y-17283500D01*
X8354625Y-17208500D02*
X8504625Y-17208500D01*
X8354625Y-19038500D02*
X8504625Y-19188500D01*
X8504625Y-19038500D02*
X8354625Y-19188500D01*
X8429625Y-19038500D02*
X8429625Y-19188500D01*
X8354625Y-19113500D02*
X8504625Y-19113500D01*
X8592750Y-15228500D02*
X8742750Y-15378500D01*
X8742750Y-15228500D02*
X8592750Y-15378500D01*
X8667750Y-15228500D02*
X8667750Y-15378500D01*
X8592750Y-15303500D02*
X8742750Y-15303500D01*
X8592750Y-20943500D02*
X8742750Y-21093500D01*
X8742750Y-20943500D02*
X8592750Y-21093500D01*
X8667750Y-20943500D02*
X8667750Y-21093500D01*
X8592750Y-21018500D02*
X8742750Y-21018500D01*
X8751500Y-13069500D02*
X8901500Y-13219500D01*
X8901500Y-13069500D02*
X8751500Y-13219500D01*
X8826500Y-13069500D02*
X8826500Y-13219500D01*
X8751500Y-13144500D02*
X8901500Y-13144500D01*
X8957875Y-17895500D02*
X9107875Y-18045500D01*
X9107875Y-17895500D02*
X8957875Y-18045500D01*
X9032875Y-17895500D02*
X9032875Y-18045500D01*
X8957875Y-17970500D02*
X9107875Y-17970500D01*
X8989625Y-16879500D02*
X9139625Y-17029500D01*
X9139625Y-16879500D02*
X8989625Y-17029500D01*
X9064625Y-16879500D02*
X9064625Y-17029500D01*
X8989625Y-16954500D02*
X9139625Y-16954500D01*
X8989625Y-18784500D02*
X9139625Y-18934500D01*
X9139625Y-18784500D02*
X8989625Y-18934500D01*
X9064625Y-18784500D02*
X9064625Y-18934500D01*
X8989625Y-18859500D02*
X9139625Y-18859500D01*
X9227750Y-14974500D02*
X9377750Y-15124500D01*
X9377750Y-14974500D02*
X9227750Y-15124500D01*
X9302750Y-14974500D02*
X9302750Y-15124500D01*
X9227750Y-15049500D02*
X9377750Y-15049500D01*
X9227750Y-20689500D02*
X9377750Y-20839500D01*
X9377750Y-20689500D02*
X9227750Y-20839500D01*
X9302750Y-20689500D02*
X9302750Y-20839500D01*
X9227750Y-20764500D02*
X9377750Y-20764500D01*
X9307125Y-19038500D02*
X9457125Y-19188500D01*
X9457125Y-19038500D02*
X9307125Y-19188500D01*
X9382125Y-19038500D02*
X9382125Y-19188500D01*
X9307125Y-19113500D02*
X9457125Y-19113500D01*
X9592875Y-17641500D02*
X9742875Y-17791500D01*
X9742875Y-17641500D02*
X9592875Y-17791500D01*
X9667875Y-17641500D02*
X9667875Y-17791500D01*
X9592875Y-17716500D02*
X9742875Y-17716500D01*
X9942125Y-18784500D02*
X10092125Y-18934500D01*
X10092125Y-18784500D02*
X9942125Y-18934500D01*
X10017125Y-18784500D02*
X10017125Y-18934500D01*
X9942125Y-18859500D02*
X10092125Y-18859500D01*
X10021500Y-13323500D02*
X10171500Y-13473500D01*
X10171500Y-13323500D02*
X10021500Y-13473500D01*
X10096500Y-13323500D02*
X10096500Y-13473500D01*
X10021500Y-13398500D02*
X10171500Y-13398500D01*
X10497750Y-19038500D02*
X10647750Y-19188500D01*
X10647750Y-19038500D02*
X10497750Y-19188500D01*
X10572750Y-19038500D02*
X10572750Y-19188500D01*
X10497750Y-19113500D02*
X10647750Y-19113500D01*
X10656500Y-13069500D02*
X10806500Y-13219500D01*
X10806500Y-13069500D02*
X10656500Y-13219500D01*
X10731500Y-13069500D02*
X10731500Y-13219500D01*
X10656500Y-13144500D02*
X10806500Y-13144500D01*
X10974000Y-15228500D02*
X11124000Y-15378500D01*
X11124000Y-15228500D02*
X10974000Y-15378500D01*
X11049000Y-15228500D02*
X11049000Y-15378500D01*
X10974000Y-15303500D02*
X11124000Y-15303500D01*
X10974000Y-20943500D02*
X11124000Y-21093500D01*
X11124000Y-20943500D02*
X10974000Y-21093500D01*
X11049000Y-20943500D02*
X11049000Y-21093500D01*
X10974000Y-21018500D02*
X11124000Y-21018500D01*
X11132750Y-18784500D02*
X11282750Y-18934500D01*
X11282750Y-18784500D02*
X11132750Y-18934500D01*
X11207750Y-18784500D02*
X11207750Y-18934500D01*
X11132750Y-18859500D02*
X11282750Y-18859500D01*
X11450250Y-17133500D02*
X11600250Y-17283500D01*
X11600250Y-17133500D02*
X11450250Y-17283500D01*
X11525250Y-17133500D02*
X11525250Y-17283500D01*
X11450250Y-17208500D02*
X11600250Y-17208500D01*
X11609000Y-14974500D02*
X11759000Y-15124500D01*
X11759000Y-14974500D02*
X11609000Y-15124500D01*
X11684000Y-14974500D02*
X11684000Y-15124500D01*
X11609000Y-15049500D02*
X11759000Y-15049500D01*
X11609000Y-20689500D02*
X11759000Y-20839500D01*
X11759000Y-20689500D02*
X11609000Y-20839500D01*
X11684000Y-20689500D02*
X11684000Y-20839500D01*
X11609000Y-20764500D02*
X11759000Y-20764500D01*
X11926500Y-13323500D02*
X12076500Y-13473500D01*
X12076500Y-13323500D02*
X11926500Y-13473500D01*
X12001500Y-13323500D02*
X12001500Y-13473500D01*
X11926500Y-13398500D02*
X12076500Y-13398500D01*
X12085250Y-16879500D02*
X12235250Y-17029500D01*
X12235250Y-16879500D02*
X12085250Y-17029500D01*
X12160250Y-16879500D02*
X12160250Y-17029500D01*
X12085250Y-16954500D02*
X12235250Y-16954500D01*
X12402750Y-19038500D02*
X12552750Y-19188500D01*
X12552750Y-19038500D02*
X12402750Y-19188500D01*
X12477750Y-19038500D02*
X12477750Y-19188500D01*
X12402750Y-19113500D02*
X12552750Y-19113500D01*
X12561500Y-13069500D02*
X12711500Y-13219500D01*
X12711500Y-13069500D02*
X12561500Y-13219500D01*
X12636500Y-13069500D02*
X12636500Y-13219500D01*
X12561500Y-13144500D02*
X12711500Y-13144500D01*
X12879000Y-15228500D02*
X13029000Y-15378500D01*
X13029000Y-15228500D02*
X12879000Y-15378500D01*
X12954000Y-15228500D02*
X12954000Y-15378500D01*
X12879000Y-15303500D02*
X13029000Y-15303500D01*
X13037750Y-18784500D02*
X13187750Y-18934500D01*
X13187750Y-18784500D02*
X13037750Y-18934500D01*
X13112750Y-18784500D02*
X13112750Y-18934500D01*
X13037750Y-18859500D02*
X13187750Y-18859500D01*
X13355250Y-17133500D02*
X13505250Y-17283500D01*
X13505250Y-17133500D02*
X13355250Y-17283500D01*
X13430250Y-17133500D02*
X13430250Y-17283500D01*
X13355250Y-17208500D02*
X13505250Y-17208500D01*
X13355250Y-20943500D02*
X13505250Y-21093500D01*
X13505250Y-20943500D02*
X13355250Y-21093500D01*
X13430250Y-20943500D02*
X13430250Y-21093500D01*
X13355250Y-21018500D02*
X13505250Y-21018500D01*
X13514000Y-14974500D02*
X13664000Y-15124500D01*
X13664000Y-14974500D02*
X13514000Y-15124500D01*
X13589000Y-14974500D02*
X13589000Y-15124500D01*
X13514000Y-15049500D02*
X13664000Y-15049500D01*
X13831500Y-13323500D02*
X13981500Y-13473500D01*
X13981500Y-13323500D02*
X13831500Y-13473500D01*
X13906500Y-13323500D02*
X13906500Y-13473500D01*
X13831500Y-13398500D02*
X13981500Y-13398500D01*
X13990250Y-16879500D02*
X14140250Y-17029500D01*
X14140250Y-16879500D02*
X13990250Y-17029500D01*
X14065250Y-16879500D02*
X14065250Y-17029500D01*
X13990250Y-16954500D02*
X14140250Y-16954500D01*
X13990250Y-20689500D02*
X14140250Y-20839500D01*
X14140250Y-20689500D02*
X13990250Y-20839500D01*
X14065250Y-20689500D02*
X14065250Y-20839500D01*
X13990250Y-20764500D02*
X14140250Y-20764500D01*
X14307750Y-19038500D02*
X14457750Y-19188500D01*
X14457750Y-19038500D02*
X14307750Y-19188500D01*
X14382750Y-19038500D02*
X14382750Y-19188500D01*
X14307750Y-19113500D02*
X14457750Y-19113500D01*
X14466500Y-13069500D02*
X14616500Y-13219500D01*
X14616500Y-13069500D02*
X14466500Y-13219500D01*
X14541500Y-13069500D02*
X14541500Y-13219500D01*
X14466500Y-13144500D02*
X14616500Y-13144500D01*
X14784000Y-15228500D02*
X14934000Y-15378500D01*
X14934000Y-15228500D02*
X14784000Y-15378500D01*
X14859000Y-15228500D02*
X14859000Y-15378500D01*
X14784000Y-15303500D02*
X14934000Y-15303500D01*
X14942750Y-18784500D02*
X15092750Y-18934500D01*
X15092750Y-18784500D02*
X14942750Y-18934500D01*
X15017750Y-18784500D02*
X15017750Y-18934500D01*
X14942750Y-18859500D02*
X15092750Y-18859500D01*
X15260250Y-17133500D02*
X15410250Y-17283500D01*
X15410250Y-17133500D02*
X15260250Y-17283500D01*
X15335250Y-17133500D02*
X15335250Y-17283500D01*
X15260250Y-17208500D02*
X15410250Y-17208500D01*
X15419000Y-14974500D02*
X15569000Y-15124500D01*
X15569000Y-14974500D02*
X15419000Y-15124500D01*
X15494000Y-14974500D02*
X15494000Y-15124500D01*
X15419000Y-15049500D02*
X15569000Y-15049500D01*
X15736500Y-13323500D02*
X15886500Y-13473500D01*
X15886500Y-13323500D02*
X15736500Y-13473500D01*
X15811500Y-13323500D02*
X15811500Y-13473500D01*
X15736500Y-13398500D02*
X15886500Y-13398500D01*
X15895250Y-16879500D02*
X16045250Y-17029500D01*
X16045250Y-16879500D02*
X15895250Y-17029500D01*
X15970250Y-16879500D02*
X15970250Y-17029500D01*
X15895250Y-16954500D02*
X16045250Y-16954500D01*
X16212750Y-19038500D02*
X16362750Y-19188500D01*
X16362750Y-19038500D02*
X16212750Y-19188500D01*
X16287750Y-19038500D02*
X16287750Y-19188500D01*
X16212750Y-19113500D02*
X16362750Y-19113500D01*
X16371500Y-13069500D02*
X16521500Y-13219500D01*
X16521500Y-13069500D02*
X16371500Y-13219500D01*
X16446500Y-13069500D02*
X16446500Y-13219500D01*
X16371500Y-13144500D02*
X16521500Y-13144500D01*
X16689000Y-15228500D02*
X16839000Y-15378500D01*
X16839000Y-15228500D02*
X16689000Y-15378500D01*
X16764000Y-15228500D02*
X16764000Y-15378500D01*
X16689000Y-15303500D02*
X16839000Y-15303500D01*
X16847750Y-18784500D02*
X16997750Y-18934500D01*
X16997750Y-18784500D02*
X16847750Y-18934500D01*
X16922750Y-18784500D02*
X16922750Y-18934500D01*
X16847750Y-18859500D02*
X16997750Y-18859500D01*
X17165250Y-17133500D02*
X17315250Y-17283500D01*
X17315250Y-17133500D02*
X17165250Y-17283500D01*
X17240250Y-17133500D02*
X17240250Y-17283500D01*
X17165250Y-17208500D02*
X17315250Y-17208500D01*
X17324000Y-14974500D02*
X17474000Y-15124500D01*
X17474000Y-14974500D02*
X17324000Y-15124500D01*
X17399000Y-14974500D02*
X17399000Y-15124500D01*
X17324000Y-15049500D02*
X17474000Y-15049500D01*
X17403375Y-20943500D02*
X17553375Y-21093500D01*
X17553375Y-20943500D02*
X17403375Y-21093500D01*
X17478375Y-20943500D02*
X17478375Y-21093500D01*
X17403375Y-21018500D02*
X17553375Y-21018500D01*
X17641500Y-13323500D02*
X17791500Y-13473500D01*
X17791500Y-13323500D02*
X17641500Y-13473500D01*
X17716500Y-13323500D02*
X17716500Y-13473500D01*
X17641500Y-13398500D02*
X17791500Y-13398500D01*
X17800250Y-16879500D02*
X17950250Y-17029500D01*
X17950250Y-16879500D02*
X17800250Y-17029500D01*
X17875250Y-16879500D02*
X17875250Y-17029500D01*
X17800250Y-16954500D02*
X17950250Y-16954500D01*
X18038375Y-20689500D02*
X18188375Y-20839500D01*
X18188375Y-20689500D02*
X18038375Y-20839500D01*
X18113375Y-20689500D02*
X18113375Y-20839500D01*
X18038375Y-20764500D02*
X18188375Y-20764500D01*
X18117750Y-19038500D02*
X18267750Y-19188500D01*
X18267750Y-19038500D02*
X18117750Y-19188500D01*
X18192750Y-19038500D02*
X18192750Y-19188500D01*
X18117750Y-19113500D02*
X18267750Y-19113500D01*
X18276500Y-13069500D02*
X18426500Y-13219500D01*
X18426500Y-13069500D02*
X18276500Y-13219500D01*
X18351500Y-13069500D02*
X18351500Y-13219500D01*
X18276500Y-13144500D02*
X18426500Y-13144500D01*
X18594000Y-15228500D02*
X18744000Y-15378500D01*
X18744000Y-15228500D02*
X18594000Y-15378500D01*
X18669000Y-15228500D02*
X18669000Y-15378500D01*
X18594000Y-15303500D02*
X18744000Y-15303500D01*
X18752750Y-18784500D02*
X18902750Y-18934500D01*
X18902750Y-18784500D02*
X18752750Y-18934500D01*
X18827750Y-18784500D02*
X18827750Y-18934500D01*
X18752750Y-18859500D02*
X18902750Y-18859500D01*
X19070250Y-17133500D02*
X19220250Y-17283500D01*
X19220250Y-17133500D02*
X19070250Y-17283500D01*
X19145250Y-17133500D02*
X19145250Y-17283500D01*
X19070250Y-17208500D02*
X19220250Y-17208500D01*
X19229000Y-14974500D02*
X19379000Y-15124500D01*
X19379000Y-14974500D02*
X19229000Y-15124500D01*
X19304000Y-14974500D02*
X19304000Y-15124500D01*
X19229000Y-15049500D02*
X19379000Y-15049500D01*
X19546500Y-13323500D02*
X19696500Y-13473500D01*
X19696500Y-13323500D02*
X19546500Y-13473500D01*
X19621500Y-13323500D02*
X19621500Y-13473500D01*
X19546500Y-13398500D02*
X19696500Y-13398500D01*
X19705250Y-16879500D02*
X19855250Y-17029500D01*
X19855250Y-16879500D02*
X19705250Y-17029500D01*
X19780250Y-16879500D02*
X19780250Y-17029500D01*
X19705250Y-16954500D02*
X19855250Y-16954500D01*
X20022750Y-19038500D02*
X20172750Y-19188500D01*
X20172750Y-19038500D02*
X20022750Y-19188500D01*
X20097750Y-19038500D02*
X20097750Y-19188500D01*
X20022750Y-19113500D02*
X20172750Y-19113500D01*
X20181500Y-13069500D02*
X20331500Y-13219500D01*
X20331500Y-13069500D02*
X20181500Y-13219500D01*
X20256500Y-13069500D02*
X20256500Y-13219500D01*
X20181500Y-13144500D02*
X20331500Y-13144500D01*
X20499000Y-15228500D02*
X20649000Y-15378500D01*
X20649000Y-15228500D02*
X20499000Y-15378500D01*
X20574000Y-15228500D02*
X20574000Y-15378500D01*
X20499000Y-15303500D02*
X20649000Y-15303500D01*
X20657750Y-18784500D02*
X20807750Y-18934500D01*
X20807750Y-18784500D02*
X20657750Y-18934500D01*
X20732750Y-18784500D02*
X20732750Y-18934500D01*
X20657750Y-18859500D02*
X20807750Y-18859500D01*
X20975250Y-17133500D02*
X21125250Y-17283500D01*
X21125250Y-17133500D02*
X20975250Y-17283500D01*
X21050250Y-17133500D02*
X21050250Y-17283500D01*
X20975250Y-17208500D02*
X21125250Y-17208500D01*
X21134000Y-14974500D02*
X21284000Y-15124500D01*
X21284000Y-14974500D02*
X21134000Y-15124500D01*
X21209000Y-14974500D02*
X21209000Y-15124500D01*
X21134000Y-15049500D02*
X21284000Y-15049500D01*
X21451500Y-13323500D02*
X21601500Y-13473500D01*
X21601500Y-13323500D02*
X21451500Y-13473500D01*
X21526500Y-13323500D02*
X21526500Y-13473500D01*
X21451500Y-13398500D02*
X21601500Y-13398500D01*
X21451500Y-20943500D02*
X21601500Y-21093500D01*
X21601500Y-20943500D02*
X21451500Y-21093500D01*
X21526500Y-20943500D02*
X21526500Y-21093500D01*
X21451500Y-21018500D02*
X21601500Y-21018500D01*
X21610250Y-16879500D02*
X21760250Y-17029500D01*
X21760250Y-16879500D02*
X21610250Y-17029500D01*
X21685250Y-16879500D02*
X21685250Y-17029500D01*
X21610250Y-16954500D02*
X21760250Y-16954500D01*
X21927750Y-19038500D02*
X22077750Y-19188500D01*
X22077750Y-19038500D02*
X21927750Y-19188500D01*
X22002750Y-19038500D02*
X22002750Y-19188500D01*
X21927750Y-19113500D02*
X22077750Y-19113500D01*
X22086500Y-13069500D02*
X22236500Y-13219500D01*
X22236500Y-13069500D02*
X22086500Y-13219500D01*
X22161500Y-13069500D02*
X22161500Y-13219500D01*
X22086500Y-13144500D02*
X22236500Y-13144500D01*
X22086500Y-20689500D02*
X22236500Y-20839500D01*
X22236500Y-20689500D02*
X22086500Y-20839500D01*
X22161500Y-20689500D02*
X22161500Y-20839500D01*
X22086500Y-20764500D02*
X22236500Y-20764500D01*
X22404000Y-15228500D02*
X22554000Y-15378500D01*
X22554000Y-15228500D02*
X22404000Y-15378500D01*
X22479000Y-15228500D02*
X22479000Y-15378500D01*
X22404000Y-15303500D02*
X22554000Y-15303500D01*
X22562750Y-18784500D02*
X22712750Y-18934500D01*
X22712750Y-18784500D02*
X22562750Y-18934500D01*
X22637750Y-18784500D02*
X22637750Y-18934500D01*
X22562750Y-18859500D02*
X22712750Y-18859500D01*
X22880250Y-17133500D02*
X23030250Y-17283500D01*
X23030250Y-17133500D02*
X22880250Y-17283500D01*
X22955250Y-17133500D02*
X22955250Y-17283500D01*
X22880250Y-17208500D02*
X23030250Y-17208500D01*
X23039000Y-14974500D02*
X23189000Y-15124500D01*
X23189000Y-14974500D02*
X23039000Y-15124500D01*
X23114000Y-14974500D02*
X23114000Y-15124500D01*
X23039000Y-15049500D02*
X23189000Y-15049500D01*
X23356500Y-13323500D02*
X23506500Y-13473500D01*
X23506500Y-13323500D02*
X23356500Y-13473500D01*
X23431500Y-13323500D02*
X23431500Y-13473500D01*
X23356500Y-13398500D02*
X23506500Y-13398500D01*
X23515250Y-16879500D02*
X23665250Y-17029500D01*
X23665250Y-16879500D02*
X23515250Y-17029500D01*
X23590250Y-16879500D02*
X23590250Y-17029500D01*
X23515250Y-16954500D02*
X23665250Y-16954500D01*
X23832750Y-19038500D02*
X23982750Y-19188500D01*
X23982750Y-19038500D02*
X23832750Y-19188500D01*
X23907750Y-19038500D02*
X23907750Y-19188500D01*
X23832750Y-19113500D02*
X23982750Y-19113500D01*
X23991500Y-13069500D02*
X24141500Y-13219500D01*
X24141500Y-13069500D02*
X23991500Y-13219500D01*
X24066500Y-13069500D02*
X24066500Y-13219500D01*
X23991500Y-13144500D02*
X24141500Y-13144500D01*
X24309000Y-15228500D02*
X24459000Y-15378500D01*
X24459000Y-15228500D02*
X24309000Y-15378500D01*
X24384000Y-15228500D02*
X24384000Y-15378500D01*
X24309000Y-15303500D02*
X24459000Y-15303500D01*
X24467750Y-18784500D02*
X24617750Y-18934500D01*
X24617750Y-18784500D02*
X24467750Y-18934500D01*
X24542750Y-18784500D02*
X24542750Y-18934500D01*
X24467750Y-18859500D02*
X24617750Y-18859500D01*
X24785250Y-17133500D02*
X24935250Y-17283500D01*
X24935250Y-17133500D02*
X24785250Y-17283500D01*
X24860250Y-17133500D02*
X24860250Y-17283500D01*
X24785250Y-17208500D02*
X24935250Y-17208500D01*
X24944000Y-14974500D02*
X25094000Y-15124500D01*
X25094000Y-14974500D02*
X24944000Y-15124500D01*
X25019000Y-14974500D02*
X25019000Y-15124500D01*
X24944000Y-15049500D02*
X25094000Y-15049500D01*
X25261500Y-13323500D02*
X25411500Y-13473500D01*
X25411500Y-13323500D02*
X25261500Y-13473500D01*
X25336500Y-13323500D02*
X25336500Y-13473500D01*
X25261500Y-13398500D02*
X25411500Y-13398500D01*
X25420250Y-16879500D02*
X25570250Y-17029500D01*
X25570250Y-16879500D02*
X25420250Y-17029500D01*
X25495250Y-16879500D02*
X25495250Y-17029500D01*
X25420250Y-16954500D02*
X25570250Y-16954500D01*
X25499625Y-20943500D02*
X25649625Y-21093500D01*
X25649625Y-20943500D02*
X25499625Y-21093500D01*
X25574625Y-20943500D02*
X25574625Y-21093500D01*
X25499625Y-21018500D02*
X25649625Y-21018500D01*
X25737750Y-19038500D02*
X25887750Y-19188500D01*
X25887750Y-19038500D02*
X25737750Y-19188500D01*
X25812750Y-19038500D02*
X25812750Y-19188500D01*
X25737750Y-19113500D02*
X25887750Y-19113500D01*
X25896500Y-13069500D02*
X26046500Y-13219500D01*
X26046500Y-13069500D02*
X25896500Y-13219500D01*
X25971500Y-13069500D02*
X25971500Y-13219500D01*
X25896500Y-13144500D02*
X26046500Y-13144500D01*
X26134625Y-20689500D02*
X26284625Y-20839500D01*
X26284625Y-20689500D02*
X26134625Y-20839500D01*
X26209625Y-20689500D02*
X26209625Y-20839500D01*
X26134625Y-20764500D02*
X26284625Y-20764500D01*
X26214000Y-15228500D02*
X26364000Y-15378500D01*
X26364000Y-15228500D02*
X26214000Y-15378500D01*
X26289000Y-15228500D02*
X26289000Y-15378500D01*
X26214000Y-15303500D02*
X26364000Y-15303500D01*
X26372750Y-18784500D02*
X26522750Y-18934500D01*
X26522750Y-18784500D02*
X26372750Y-18934500D01*
X26447750Y-18784500D02*
X26447750Y-18934500D01*
X26372750Y-18859500D02*
X26522750Y-18859500D01*
X26690250Y-17133500D02*
X26840250Y-17283500D01*
X26840250Y-17133500D02*
X26690250Y-17283500D01*
X26765250Y-17133500D02*
X26765250Y-17283500D01*
X26690250Y-17208500D02*
X26840250Y-17208500D01*
X26849000Y-14974500D02*
X26999000Y-15124500D01*
X26999000Y-14974500D02*
X26849000Y-15124500D01*
X26924000Y-14974500D02*
X26924000Y-15124500D01*
X26849000Y-15049500D02*
X26999000Y-15049500D01*
X27166500Y-13323500D02*
X27316500Y-13473500D01*
X27316500Y-13323500D02*
X27166500Y-13473500D01*
X27241500Y-13323500D02*
X27241500Y-13473500D01*
X27166500Y-13398500D02*
X27316500Y-13398500D01*
X27325250Y-16879500D02*
X27475250Y-17029500D01*
X27475250Y-16879500D02*
X27325250Y-17029500D01*
X27400250Y-16879500D02*
X27400250Y-17029500D01*
X27325250Y-16954500D02*
X27475250Y-16954500D01*
X27642750Y-19038500D02*
X27792750Y-19188500D01*
X27792750Y-19038500D02*
X27642750Y-19188500D01*
X27717750Y-19038500D02*
X27717750Y-19188500D01*
X27642750Y-19113500D02*
X27792750Y-19113500D01*
X27801500Y-13069500D02*
X27951500Y-13219500D01*
X27951500Y-13069500D02*
X27801500Y-13219500D01*
X27876500Y-13069500D02*
X27876500Y-13219500D01*
X27801500Y-13144500D02*
X27951500Y-13144500D01*
X28119000Y-15228500D02*
X28269000Y-15378500D01*
X28269000Y-15228500D02*
X28119000Y-15378500D01*
X28194000Y-15228500D02*
X28194000Y-15378500D01*
X28119000Y-15303500D02*
X28269000Y-15303500D01*
X28277750Y-18784500D02*
X28427750Y-18934500D01*
X28427750Y-18784500D02*
X28277750Y-18934500D01*
X28352750Y-18784500D02*
X28352750Y-18934500D01*
X28277750Y-18859500D02*
X28427750Y-18859500D01*
X28595250Y-17133500D02*
X28745250Y-17283500D01*
X28745250Y-17133500D02*
X28595250Y-17283500D01*
X28670250Y-17133500D02*
X28670250Y-17283500D01*
X28595250Y-17208500D02*
X28745250Y-17208500D01*
X28754000Y-14974500D02*
X28904000Y-15124500D01*
X28904000Y-14974500D02*
X28754000Y-15124500D01*
X28829000Y-14974500D02*
X28829000Y-15124500D01*
X28754000Y-15049500D02*
X28904000Y-15049500D01*
X29071500Y-13323500D02*
X29221500Y-13473500D01*
X29221500Y-13323500D02*
X29071500Y-13473500D01*
X29146500Y-13323500D02*
X29146500Y-13473500D01*
X29071500Y-13398500D02*
X29221500Y-13398500D01*
X29230250Y-16879500D02*
X29380250Y-17029500D01*
X29380250Y-16879500D02*
X29230250Y-17029500D01*
X29305250Y-16879500D02*
X29305250Y-17029500D01*
X29230250Y-16954500D02*
X29380250Y-16954500D01*
X29547750Y-19038500D02*
X29697750Y-19188500D01*
X29697750Y-19038500D02*
X29547750Y-19188500D01*
X29622750Y-19038500D02*
X29622750Y-19188500D01*
X29547750Y-19113500D02*
X29697750Y-19113500D01*
X29547750Y-20943500D02*
X29697750Y-21093500D01*
X29697750Y-20943500D02*
X29547750Y-21093500D01*
X29622750Y-20943500D02*
X29622750Y-21093500D01*
X29547750Y-21018500D02*
X29697750Y-21018500D01*
X29706500Y-13069500D02*
X29856500Y-13219500D01*
X29856500Y-13069500D02*
X29706500Y-13219500D01*
X29781500Y-13069500D02*
X29781500Y-13219500D01*
X29706500Y-13144500D02*
X29856500Y-13144500D01*
X30024000Y-15228500D02*
X30174000Y-15378500D01*
X30174000Y-15228500D02*
X30024000Y-15378500D01*
X30099000Y-15228500D02*
X30099000Y-15378500D01*
X30024000Y-15303500D02*
X30174000Y-15303500D01*
X30182750Y-18784500D02*
X30332750Y-18934500D01*
X30332750Y-18784500D02*
X30182750Y-18934500D01*
X30257750Y-18784500D02*
X30257750Y-18934500D01*
X30182750Y-18859500D02*
X30332750Y-18859500D01*
X30182750Y-20689500D02*
X30332750Y-20839500D01*
X30332750Y-20689500D02*
X30182750Y-20839500D01*
X30257750Y-20689500D02*
X30257750Y-20839500D01*
X30182750Y-20764500D02*
X30332750Y-20764500D01*
X30500250Y-17133500D02*
X30650250Y-17283500D01*
X30650250Y-17133500D02*
X30500250Y-17283500D01*
X30575250Y-17133500D02*
X30575250Y-17283500D01*
X30500250Y-17208500D02*
X30650250Y-17208500D01*
X30659000Y-14974500D02*
X30809000Y-15124500D01*
X30809000Y-14974500D02*
X30659000Y-15124500D01*
X30734000Y-14974500D02*
X30734000Y-15124500D01*
X30659000Y-15049500D02*
X30809000Y-15049500D01*
X30976500Y-13323500D02*
X31126500Y-13473500D01*
X31126500Y-13323500D02*
X30976500Y-13473500D01*
X31051500Y-13323500D02*
X31051500Y-13473500D01*
X30976500Y-13398500D02*
X31126500Y-13398500D01*
X31135250Y-16879500D02*
X31285250Y-17029500D01*
X31285250Y-16879500D02*
X31135250Y-17029500D01*
X31210250Y-16879500D02*
X31210250Y-17029500D01*
X31135250Y-16954500D02*
X31285250Y-16954500D01*
X31611500Y-13069500D02*
X31761500Y-13219500D01*
X31761500Y-13069500D02*
X31611500Y-13219500D01*
X31686500Y-13069500D02*
X31686500Y-13219500D01*
X31611500Y-13144500D02*
X31761500Y-13144500D01*
X31929000Y-15228500D02*
X32079000Y-15378500D01*
X32079000Y-15228500D02*
X31929000Y-15378500D01*
X32004000Y-15228500D02*
X32004000Y-15378500D01*
X31929000Y-15303500D02*
X32079000Y-15303500D01*
X31929000Y-20943500D02*
X32079000Y-21093500D01*
X32079000Y-20943500D02*
X31929000Y-21093500D01*
X32004000Y-20943500D02*
X32004000Y-21093500D01*
X31929000Y-21018500D02*
X32079000Y-21018500D01*
X32167125Y-19038500D02*
X32317125Y-19188500D01*
X32317125Y-19038500D02*
X32167125Y-19188500D01*
X32242125Y-19038500D02*
X32242125Y-19188500D01*
X32167125Y-19113500D02*
X32317125Y-19113500D01*
X32405250Y-17133500D02*
X32555250Y-17283500D01*
X32555250Y-17133500D02*
X32405250Y-17283500D01*
X32480250Y-17133500D02*
X32480250Y-17283500D01*
X32405250Y-17208500D02*
X32555250Y-17208500D01*
X32564000Y-14974500D02*
X32714000Y-15124500D01*
X32714000Y-14974500D02*
X32564000Y-15124500D01*
X32639000Y-14974500D02*
X32639000Y-15124500D01*
X32564000Y-15049500D02*
X32714000Y-15049500D01*
X32564000Y-20689500D02*
X32714000Y-20839500D01*
X32714000Y-20689500D02*
X32564000Y-20839500D01*
X32639000Y-20689500D02*
X32639000Y-20839500D01*
X32564000Y-20764500D02*
X32714000Y-20764500D01*
X32802125Y-18784500D02*
X32952125Y-18934500D01*
X32952125Y-18784500D02*
X32802125Y-18934500D01*
X32877125Y-18784500D02*
X32877125Y-18934500D01*
X32802125Y-18859500D02*
X32952125Y-18859500D01*
X32881500Y-13323500D02*
X33031500Y-13473500D01*
X33031500Y-13323500D02*
X32881500Y-13473500D01*
X32956500Y-13323500D02*
X32956500Y-13473500D01*
X32881500Y-13398500D02*
X33031500Y-13398500D01*
X33040250Y-16879500D02*
X33190250Y-17029500D01*
X33190250Y-16879500D02*
X33040250Y-17029500D01*
X33115250Y-16879500D02*
X33115250Y-17029500D01*
X33040250Y-16954500D02*
X33190250Y-16954500D01*
X33119625Y-19038500D02*
X33269625Y-19188500D01*
X33269625Y-19038500D02*
X33119625Y-19188500D01*
X33194625Y-19038500D02*
X33194625Y-19188500D01*
X33119625Y-19113500D02*
X33269625Y-19113500D01*
X33516500Y-13069500D02*
X33666500Y-13219500D01*
X33666500Y-13069500D02*
X33516500Y-13219500D01*
X33591500Y-13069500D02*
X33591500Y-13219500D01*
X33516500Y-13144500D02*
X33666500Y-13144500D01*
X33595875Y-17133500D02*
X33745875Y-17283500D01*
X33745875Y-17133500D02*
X33595875Y-17283500D01*
X33670875Y-17133500D02*
X33670875Y-17283500D01*
X33595875Y-17208500D02*
X33745875Y-17208500D01*
X33754625Y-18784500D02*
X33904625Y-18934500D01*
X33904625Y-18784500D02*
X33754625Y-18934500D01*
X33829625Y-18784500D02*
X33829625Y-18934500D01*
X33754625Y-18859500D02*
X33904625Y-18859500D01*
X33834000Y-13323500D02*
X33984000Y-13473500D01*
X33984000Y-13323500D02*
X33834000Y-13473500D01*
X33909000Y-13323500D02*
X33909000Y-13473500D01*
X33834000Y-13398500D02*
X33984000Y-13398500D01*
X34230875Y-16879500D02*
X34380875Y-17029500D01*
X34380875Y-16879500D02*
X34230875Y-17029500D01*
X34305875Y-16879500D02*
X34305875Y-17029500D01*
X34230875Y-16954500D02*
X34380875Y-16954500D01*
X34310250Y-20943500D02*
X34460250Y-21093500D01*
X34460250Y-20943500D02*
X34310250Y-21093500D01*
X34385250Y-20943500D02*
X34385250Y-21093500D01*
X34310250Y-21018500D02*
X34460250Y-21018500D01*
X34421375Y-16181000D02*
X34571375Y-16331000D01*
X34571375Y-16181000D02*
X34421375Y-16331000D01*
X34496375Y-16181000D02*
X34496375Y-16331000D01*
X34421375Y-16256000D02*
X34571375Y-16256000D01*
X34469000Y-13069500D02*
X34619000Y-13219500D01*
X34619000Y-13069500D02*
X34469000Y-13219500D01*
X34544000Y-13069500D02*
X34544000Y-13219500D01*
X34469000Y-13144500D02*
X34619000Y-13144500D01*
X34675375Y-16816000D02*
X34825375Y-16966000D01*
X34825375Y-16816000D02*
X34675375Y-16966000D01*
X34750375Y-16816000D02*
X34750375Y-16966000D01*
X34675375Y-16891000D02*
X34825375Y-16891000D01*
X34786500Y-19038500D02*
X34936500Y-19188500D01*
X34936500Y-19038500D02*
X34786500Y-19188500D01*
X34861500Y-19038500D02*
X34861500Y-19188500D01*
X34786500Y-19113500D02*
X34936500Y-19113500D01*
X34913500Y-14085500D02*
X35063500Y-14235500D01*
X35063500Y-14085500D02*
X34913500Y-14235500D01*
X34988500Y-14085500D02*
X34988500Y-14235500D01*
X34913500Y-14160500D02*
X35063500Y-14160500D01*
X34945250Y-15101500D02*
X35095250Y-15251500D01*
X35095250Y-15101500D02*
X34945250Y-15251500D01*
X35020250Y-15101500D02*
X35020250Y-15251500D01*
X34945250Y-15176500D02*
X35095250Y-15176500D01*
X34945250Y-20689500D02*
X35095250Y-20839500D01*
X35095250Y-20689500D02*
X34945250Y-20839500D01*
X35020250Y-20689500D02*
X35020250Y-20839500D01*
X34945250Y-20764500D02*
X35095250Y-20764500D01*
X35199250Y-15736500D02*
X35349250Y-15886500D01*
X35349250Y-15736500D02*
X35199250Y-15886500D01*
X35274250Y-15736500D02*
X35274250Y-15886500D01*
X35199250Y-15811500D02*
X35349250Y-15811500D01*
X35421500Y-18784500D02*
X35571500Y-18934500D01*
X35571500Y-18784500D02*
X35421500Y-18934500D01*
X35496500Y-18784500D02*
X35496500Y-18934500D01*
X35421500Y-18859500D02*
X35571500Y-18859500D01*
X35548500Y-13831500D02*
X35698500Y-13981500D01*
X35698500Y-13831500D02*
X35548500Y-13981500D01*
X35623500Y-13831500D02*
X35623500Y-13981500D01*
X35548500Y-13906500D02*
X35698500Y-13906500D01*
D19*
X10079375Y-21112500D02*
X10399375Y-21432500D01*
X10399375Y-21112500D02*
X10079375Y-21432500D01*
X10352513Y-21385638D02*
X10352513Y-21159362D01*
X10126237Y-21159362D01*
X10126237Y-21385638D01*
X10352513Y-21385638D01*
X19723438Y-21112500D02*
X20043438Y-21432500D01*
X20043438Y-21112500D02*
X19723438Y-21432500D01*
X19996576Y-21385638D02*
X19996576Y-21159362D01*
X19770299Y-21159362D01*
X19770299Y-21385638D01*
X19996576Y-21385638D01*
X23771562Y-21112500D02*
X24091562Y-21432500D01*
X24091562Y-21112500D02*
X23771562Y-21432500D01*
X24044701Y-21385638D02*
X24044701Y-21159362D01*
X23818424Y-21159362D01*
X23818424Y-21385638D01*
X24044701Y-21385638D01*
X33415625Y-21112500D02*
X33735625Y-21432500D01*
X33735625Y-21112500D02*
X33415625Y-21432500D01*
X33688763Y-21385638D02*
X33688763Y-21159362D01*
X33462487Y-21159362D01*
X33462487Y-21385638D01*
X33688763Y-21385638D01*
D11*
X7875119Y-22537976D02*
X7875119Y-22337976D01*
X7922738Y-22337976D01*
X7951309Y-22347500D01*
X7970357Y-22366548D01*
X7979881Y-22385595D01*
X7989405Y-22423690D01*
X7989405Y-22452262D01*
X7979881Y-22490357D01*
X7970357Y-22509405D01*
X7951309Y-22528452D01*
X7922738Y-22537976D01*
X7875119Y-22537976D01*
X8075119Y-22537976D02*
X8075119Y-22404643D01*
X8075119Y-22442738D02*
X8084643Y-22423690D01*
X8094167Y-22414167D01*
X8113214Y-22404643D01*
X8132262Y-22404643D01*
X8198928Y-22537976D02*
X8198928Y-22404643D01*
X8198928Y-22337976D02*
X8189405Y-22347500D01*
X8198928Y-22357024D01*
X8208452Y-22347500D01*
X8198928Y-22337976D01*
X8198928Y-22357024D01*
X8322738Y-22537976D02*
X8303690Y-22528452D01*
X8294167Y-22509405D01*
X8294167Y-22337976D01*
X8427500Y-22537976D02*
X8408452Y-22528452D01*
X8398929Y-22509405D01*
X8398929Y-22337976D01*
X8656071Y-22537976D02*
X8656071Y-22337976D01*
X8722738Y-22480833D01*
X8789405Y-22337976D01*
X8789405Y-22537976D01*
X8970357Y-22537976D02*
X8970357Y-22433214D01*
X8960833Y-22414167D01*
X8941786Y-22404643D01*
X8903690Y-22404643D01*
X8884643Y-22414167D01*
X8970357Y-22528452D02*
X8951310Y-22537976D01*
X8903690Y-22537976D01*
X8884643Y-22528452D01*
X8875119Y-22509405D01*
X8875119Y-22490357D01*
X8884643Y-22471309D01*
X8903690Y-22461786D01*
X8951310Y-22461786D01*
X8970357Y-22452262D01*
X9065595Y-22404643D02*
X9065595Y-22604643D01*
X9065595Y-22414167D02*
X9084643Y-22404643D01*
X9122738Y-22404643D01*
X9141786Y-22414167D01*
X9151310Y-22423690D01*
X9160833Y-22442738D01*
X9160833Y-22499881D01*
X9151310Y-22518928D01*
X9141786Y-22528452D01*
X9122738Y-22537976D01*
X9084643Y-22537976D01*
X9065595Y-22528452D01*
X9246548Y-22518928D02*
X9256071Y-22528452D01*
X9246548Y-22537976D01*
X9237024Y-22528452D01*
X9246548Y-22518928D01*
X9246548Y-22537976D01*
X9246548Y-22414167D02*
X9256071Y-22423690D01*
X9246548Y-22433214D01*
X9237024Y-22423690D01*
X9246548Y-22414167D01*
X9246548Y-22433214D01*
D12*
X7577500Y-22847500D02*
X7617500Y-22887500D01*
X7617500Y-22847500D02*
X7577500Y-22887500D01*
D11*
X7913214Y-22757976D02*
X7932262Y-22757976D01*
X7951309Y-22767500D01*
X7960833Y-22777024D01*
X7970357Y-22796071D01*
X7979881Y-22834167D01*
X7979881Y-22881786D01*
X7970357Y-22919881D01*
X7960833Y-22938928D01*
X7951309Y-22948452D01*
X7932262Y-22957976D01*
X7913214Y-22957976D01*
X7894167Y-22948452D01*
X7884643Y-22938928D01*
X7875119Y-22919881D01*
X7865595Y-22881786D01*
X7865595Y-22834167D01*
X7875119Y-22796071D01*
X7884643Y-22777024D01*
X7894167Y-22767500D01*
X7913214Y-22757976D01*
X8065595Y-22938928D02*
X8075119Y-22948452D01*
X8065595Y-22957976D01*
X8056071Y-22948452D01*
X8065595Y-22938928D01*
X8065595Y-22957976D01*
X8246548Y-22824643D02*
X8246548Y-22957976D01*
X8198928Y-22748452D02*
X8151309Y-22891309D01*
X8275119Y-22891309D01*
X8389405Y-22757976D02*
X8408452Y-22757976D01*
X8427500Y-22767500D01*
X8437024Y-22777024D01*
X8446548Y-22796071D01*
X8456071Y-22834167D01*
X8456071Y-22881786D01*
X8446548Y-22919881D01*
X8437024Y-22938928D01*
X8427500Y-22948452D01*
X8408452Y-22957976D01*
X8389405Y-22957976D01*
X8370357Y-22948452D01*
X8360833Y-22938928D01*
X8351309Y-22919881D01*
X8341786Y-22881786D01*
X8341786Y-22834167D01*
X8351309Y-22796071D01*
X8360833Y-22777024D01*
X8370357Y-22767500D01*
X8389405Y-22757976D01*
X8579881Y-22757976D02*
X8598929Y-22757976D01*
X8617976Y-22767500D01*
X8627500Y-22777024D01*
X8637024Y-22796071D01*
X8646548Y-22834167D01*
X8646548Y-22881786D01*
X8637024Y-22919881D01*
X8627500Y-22938928D01*
X8617976Y-22948452D01*
X8598929Y-22957976D01*
X8579881Y-22957976D01*
X8560833Y-22948452D01*
X8551310Y-22938928D01*
X8541786Y-22919881D01*
X8532262Y-22881786D01*
X8532262Y-22834167D01*
X8541786Y-22796071D01*
X8551310Y-22777024D01*
X8560833Y-22767500D01*
X8579881Y-22757976D01*
X8732262Y-22957976D02*
X8732262Y-22824643D01*
X8732262Y-22843690D02*
X8741786Y-22834167D01*
X8760833Y-22824643D01*
X8789405Y-22824643D01*
X8808452Y-22834167D01*
X8817976Y-22853214D01*
X8817976Y-22957976D01*
X8817976Y-22853214D02*
X8827500Y-22834167D01*
X8846548Y-22824643D01*
X8875119Y-22824643D01*
X8894167Y-22834167D01*
X8903690Y-22853214D01*
X8903690Y-22957976D01*
X8998929Y-22957976D02*
X8998929Y-22824643D01*
X8998929Y-22843690D02*
X9008452Y-22834167D01*
X9027500Y-22824643D01*
X9056071Y-22824643D01*
X9075119Y-22834167D01*
X9084643Y-22853214D01*
X9084643Y-22957976D01*
X9084643Y-22853214D02*
X9094167Y-22834167D01*
X9113214Y-22824643D01*
X9141786Y-22824643D01*
X9160833Y-22834167D01*
X9170357Y-22853214D01*
X9170357Y-22957976D01*
X9560833Y-22748452D02*
X9389405Y-23005595D01*
X9817976Y-22757976D02*
X9837024Y-22757976D01*
X9856071Y-22767500D01*
X9865595Y-22777024D01*
X9875119Y-22796071D01*
X9884643Y-22834167D01*
X9884643Y-22881786D01*
X9875119Y-22919881D01*
X9865595Y-22938928D01*
X9856071Y-22948452D01*
X9837024Y-22957976D01*
X9817976Y-22957976D01*
X9798929Y-22948452D01*
X9789405Y-22938928D01*
X9779881Y-22919881D01*
X9770357Y-22881786D01*
X9770357Y-22834167D01*
X9779881Y-22796071D01*
X9789405Y-22777024D01*
X9798929Y-22767500D01*
X9817976Y-22757976D01*
X9970357Y-22938928D02*
X9979881Y-22948452D01*
X9970357Y-22957976D01*
X9960833Y-22948452D01*
X9970357Y-22938928D01*
X9970357Y-22957976D01*
X10103690Y-22757976D02*
X10122738Y-22757976D01*
X10141786Y-22767500D01*
X10151310Y-22777024D01*
X10160833Y-22796071D01*
X10170357Y-22834167D01*
X10170357Y-22881786D01*
X10160833Y-22919881D01*
X10151310Y-22938928D01*
X10141786Y-22948452D01*
X10122738Y-22957976D01*
X10103690Y-22957976D01*
X10084643Y-22948452D01*
X10075119Y-22938928D01*
X10065595Y-22919881D01*
X10056071Y-22881786D01*
X10056071Y-22834167D01*
X10065595Y-22796071D01*
X10075119Y-22777024D01*
X10084643Y-22767500D01*
X10103690Y-22757976D01*
X10360833Y-22957976D02*
X10246548Y-22957976D01*
X10303690Y-22957976D02*
X10303690Y-22757976D01*
X10284643Y-22786548D01*
X10265595Y-22805595D01*
X10246548Y-22815119D01*
X10541786Y-22757976D02*
X10446548Y-22757976D01*
X10437024Y-22853214D01*
X10446548Y-22843690D01*
X10465595Y-22834167D01*
X10513214Y-22834167D01*
X10532262Y-22843690D01*
X10541786Y-22853214D01*
X10551310Y-22872262D01*
X10551310Y-22919881D01*
X10541786Y-22938928D01*
X10532262Y-22948452D01*
X10513214Y-22957976D01*
X10465595Y-22957976D01*
X10446548Y-22948452D01*
X10437024Y-22938928D01*
X10617976Y-22757976D02*
X10751310Y-22757976D01*
X10665595Y-22957976D01*
X10817976Y-22757976D02*
X10817976Y-22796071D01*
X10894167Y-22757976D02*
X10894167Y-22796071D01*
X11189405Y-23034167D02*
X11179881Y-23024643D01*
X11160833Y-22996071D01*
X11151310Y-22977024D01*
X11141786Y-22948452D01*
X11132262Y-22900833D01*
X11132262Y-22862738D01*
X11141786Y-22815119D01*
X11151310Y-22786548D01*
X11160833Y-22767500D01*
X11179881Y-22738928D01*
X11189405Y-22729405D01*
X11370357Y-22957976D02*
X11256071Y-22957976D01*
X11313214Y-22957976D02*
X11313214Y-22757976D01*
X11294167Y-22786548D01*
X11275119Y-22805595D01*
X11256071Y-22815119D01*
X11541786Y-22824643D02*
X11541786Y-22957976D01*
X11494167Y-22748452D02*
X11446548Y-22891309D01*
X11570357Y-22891309D01*
X11798928Y-22957976D02*
X11798928Y-22757976D01*
X11884643Y-22957976D02*
X11884643Y-22853214D01*
X11875119Y-22834167D01*
X11856071Y-22824643D01*
X11827500Y-22824643D01*
X11808452Y-22834167D01*
X11798928Y-22843690D01*
X12008452Y-22957976D02*
X11989405Y-22948452D01*
X11979881Y-22938928D01*
X11970357Y-22919881D01*
X11970357Y-22862738D01*
X11979881Y-22843690D01*
X11989405Y-22834167D01*
X12008452Y-22824643D01*
X12037024Y-22824643D01*
X12056071Y-22834167D01*
X12065595Y-22843690D01*
X12075119Y-22862738D01*
X12075119Y-22919881D01*
X12065595Y-22938928D01*
X12056071Y-22948452D01*
X12037024Y-22957976D01*
X12008452Y-22957976D01*
X12189405Y-22957976D02*
X12170357Y-22948452D01*
X12160833Y-22929405D01*
X12160833Y-22757976D01*
X12341786Y-22948452D02*
X12322738Y-22957976D01*
X12284643Y-22957976D01*
X12265595Y-22948452D01*
X12256071Y-22929405D01*
X12256071Y-22853214D01*
X12265595Y-22834167D01*
X12284643Y-22824643D01*
X12322738Y-22824643D01*
X12341786Y-22834167D01*
X12351309Y-22853214D01*
X12351309Y-22872262D01*
X12256071Y-22891309D01*
X12427500Y-22948452D02*
X12446548Y-22957976D01*
X12484643Y-22957976D01*
X12503690Y-22948452D01*
X12513214Y-22929405D01*
X12513214Y-22919881D01*
X12503690Y-22900833D01*
X12484643Y-22891309D01*
X12456071Y-22891309D01*
X12437024Y-22881786D01*
X12427500Y-22862738D01*
X12427500Y-22853214D01*
X12437024Y-22834167D01*
X12456071Y-22824643D01*
X12484643Y-22824643D01*
X12503690Y-22834167D01*
X12579881Y-23034167D02*
X12589405Y-23024643D01*
X12608452Y-22996071D01*
X12617976Y-22977024D01*
X12627500Y-22948452D01*
X12637024Y-22900833D01*
X12637024Y-22862738D01*
X12627500Y-22815119D01*
X12617976Y-22786548D01*
X12608452Y-22767500D01*
X12589405Y-22738928D01*
X12579881Y-22729405D01*
D13*
X7617500Y-23131500D02*
G75*
G03*
X7617500Y-23131500I-40000J0D01*
G01*
D11*
X7913214Y-23021976D02*
X7932262Y-23021976D01*
X7951309Y-23031500D01*
X7960833Y-23041024D01*
X7970357Y-23060071D01*
X7979881Y-23098167D01*
X7979881Y-23145786D01*
X7970357Y-23183881D01*
X7960833Y-23202928D01*
X7951309Y-23212452D01*
X7932262Y-23221976D01*
X7913214Y-23221976D01*
X7894167Y-23212452D01*
X7884643Y-23202928D01*
X7875119Y-23183881D01*
X7865595Y-23145786D01*
X7865595Y-23098167D01*
X7875119Y-23060071D01*
X7884643Y-23041024D01*
X7894167Y-23031500D01*
X7913214Y-23021976D01*
X8065595Y-23202928D02*
X8075119Y-23212452D01*
X8065595Y-23221976D01*
X8056071Y-23212452D01*
X8065595Y-23202928D01*
X8065595Y-23221976D01*
X8189405Y-23107690D02*
X8170357Y-23098167D01*
X8160833Y-23088643D01*
X8151309Y-23069595D01*
X8151309Y-23060071D01*
X8160833Y-23041024D01*
X8170357Y-23031500D01*
X8189405Y-23021976D01*
X8227500Y-23021976D01*
X8246548Y-23031500D01*
X8256071Y-23041024D01*
X8265595Y-23060071D01*
X8265595Y-23069595D01*
X8256071Y-23088643D01*
X8246548Y-23098167D01*
X8227500Y-23107690D01*
X8189405Y-23107690D01*
X8170357Y-23117214D01*
X8160833Y-23126738D01*
X8151309Y-23145786D01*
X8151309Y-23183881D01*
X8160833Y-23202928D01*
X8170357Y-23212452D01*
X8189405Y-23221976D01*
X8227500Y-23221976D01*
X8246548Y-23212452D01*
X8256071Y-23202928D01*
X8265595Y-23183881D01*
X8265595Y-23145786D01*
X8256071Y-23126738D01*
X8246548Y-23117214D01*
X8227500Y-23107690D01*
X8389405Y-23021976D02*
X8408452Y-23021976D01*
X8427500Y-23031500D01*
X8437024Y-23041024D01*
X8446548Y-23060071D01*
X8456071Y-23098167D01*
X8456071Y-23145786D01*
X8446548Y-23183881D01*
X8437024Y-23202928D01*
X8427500Y-23212452D01*
X8408452Y-23221976D01*
X8389405Y-23221976D01*
X8370357Y-23212452D01*
X8360833Y-23202928D01*
X8351309Y-23183881D01*
X8341786Y-23145786D01*
X8341786Y-23098167D01*
X8351309Y-23060071D01*
X8360833Y-23041024D01*
X8370357Y-23031500D01*
X8389405Y-23021976D01*
X8579881Y-23021976D02*
X8598929Y-23021976D01*
X8617976Y-23031500D01*
X8627500Y-23041024D01*
X8637024Y-23060071D01*
X8646548Y-23098167D01*
X8646548Y-23145786D01*
X8637024Y-23183881D01*
X8627500Y-23202928D01*
X8617976Y-23212452D01*
X8598929Y-23221976D01*
X8579881Y-23221976D01*
X8560833Y-23212452D01*
X8551310Y-23202928D01*
X8541786Y-23183881D01*
X8532262Y-23145786D01*
X8532262Y-23098167D01*
X8541786Y-23060071D01*
X8551310Y-23041024D01*
X8560833Y-23031500D01*
X8579881Y-23021976D01*
X8732262Y-23221976D02*
X8732262Y-23088643D01*
X8732262Y-23107690D02*
X8741786Y-23098167D01*
X8760833Y-23088643D01*
X8789405Y-23088643D01*
X8808452Y-23098167D01*
X8817976Y-23117214D01*
X8817976Y-23221976D01*
X8817976Y-23117214D02*
X8827500Y-23098167D01*
X8846548Y-23088643D01*
X8875119Y-23088643D01*
X8894167Y-23098167D01*
X8903690Y-23117214D01*
X8903690Y-23221976D01*
X8998929Y-23221976D02*
X8998929Y-23088643D01*
X8998929Y-23107690D02*
X9008452Y-23098167D01*
X9027500Y-23088643D01*
X9056071Y-23088643D01*
X9075119Y-23098167D01*
X9084643Y-23117214D01*
X9084643Y-23221976D01*
X9084643Y-23117214D02*
X9094167Y-23098167D01*
X9113214Y-23088643D01*
X9141786Y-23088643D01*
X9160833Y-23098167D01*
X9170357Y-23117214D01*
X9170357Y-23221976D01*
X9560833Y-23012452D02*
X9389405Y-23269595D01*
X9817976Y-23021976D02*
X9837024Y-23021976D01*
X9856071Y-23031500D01*
X9865595Y-23041024D01*
X9875119Y-23060071D01*
X9884643Y-23098167D01*
X9884643Y-23145786D01*
X9875119Y-23183881D01*
X9865595Y-23202928D01*
X9856071Y-23212452D01*
X9837024Y-23221976D01*
X9817976Y-23221976D01*
X9798929Y-23212452D01*
X9789405Y-23202928D01*
X9779881Y-23183881D01*
X9770357Y-23145786D01*
X9770357Y-23098167D01*
X9779881Y-23060071D01*
X9789405Y-23041024D01*
X9798929Y-23031500D01*
X9817976Y-23021976D01*
X9970357Y-23202928D02*
X9979881Y-23212452D01*
X9970357Y-23221976D01*
X9960833Y-23212452D01*
X9970357Y-23202928D01*
X9970357Y-23221976D01*
X10103690Y-23021976D02*
X10122738Y-23021976D01*
X10141786Y-23031500D01*
X10151310Y-23041024D01*
X10160833Y-23060071D01*
X10170357Y-23098167D01*
X10170357Y-23145786D01*
X10160833Y-23183881D01*
X10151310Y-23202928D01*
X10141786Y-23212452D01*
X10122738Y-23221976D01*
X10103690Y-23221976D01*
X10084643Y-23212452D01*
X10075119Y-23202928D01*
X10065595Y-23183881D01*
X10056071Y-23145786D01*
X10056071Y-23098167D01*
X10065595Y-23060071D01*
X10075119Y-23041024D01*
X10084643Y-23031500D01*
X10103690Y-23021976D01*
X10237024Y-23021976D02*
X10360833Y-23021976D01*
X10294167Y-23098167D01*
X10322738Y-23098167D01*
X10341786Y-23107690D01*
X10351310Y-23117214D01*
X10360833Y-23136262D01*
X10360833Y-23183881D01*
X10351310Y-23202928D01*
X10341786Y-23212452D01*
X10322738Y-23221976D01*
X10265595Y-23221976D01*
X10246548Y-23212452D01*
X10237024Y-23202928D01*
X10551310Y-23221976D02*
X10437024Y-23221976D01*
X10494167Y-23221976D02*
X10494167Y-23021976D01*
X10475119Y-23050548D01*
X10456071Y-23069595D01*
X10437024Y-23079119D01*
X10732262Y-23021976D02*
X10637024Y-23021976D01*
X10627500Y-23117214D01*
X10637024Y-23107690D01*
X10656071Y-23098167D01*
X10703690Y-23098167D01*
X10722738Y-23107690D01*
X10732262Y-23117214D01*
X10741786Y-23136262D01*
X10741786Y-23183881D01*
X10732262Y-23202928D01*
X10722738Y-23212452D01*
X10703690Y-23221976D01*
X10656071Y-23221976D01*
X10637024Y-23212452D01*
X10627500Y-23202928D01*
X10817976Y-23021976D02*
X10817976Y-23060071D01*
X10894167Y-23021976D02*
X10894167Y-23060071D01*
X11189405Y-23298167D02*
X11179881Y-23288643D01*
X11160833Y-23260071D01*
X11151310Y-23241024D01*
X11141786Y-23212452D01*
X11132262Y-23164833D01*
X11132262Y-23126738D01*
X11141786Y-23079119D01*
X11151310Y-23050548D01*
X11160833Y-23031500D01*
X11179881Y-23002928D01*
X11189405Y-22993405D01*
X11246548Y-23021976D02*
X11370357Y-23021976D01*
X11303690Y-23098167D01*
X11332262Y-23098167D01*
X11351309Y-23107690D01*
X11360833Y-23117214D01*
X11370357Y-23136262D01*
X11370357Y-23183881D01*
X11360833Y-23202928D01*
X11351309Y-23212452D01*
X11332262Y-23221976D01*
X11275119Y-23221976D01*
X11256071Y-23212452D01*
X11246548Y-23202928D01*
X11551309Y-23021976D02*
X11456071Y-23021976D01*
X11446548Y-23117214D01*
X11456071Y-23107690D01*
X11475119Y-23098167D01*
X11522738Y-23098167D01*
X11541786Y-23107690D01*
X11551309Y-23117214D01*
X11560833Y-23136262D01*
X11560833Y-23183881D01*
X11551309Y-23202928D01*
X11541786Y-23212452D01*
X11522738Y-23221976D01*
X11475119Y-23221976D01*
X11456071Y-23212452D01*
X11446548Y-23202928D01*
X11751309Y-23221976D02*
X11637024Y-23221976D01*
X11694167Y-23221976D02*
X11694167Y-23021976D01*
X11675119Y-23050548D01*
X11656071Y-23069595D01*
X11637024Y-23079119D01*
X11989405Y-23221976D02*
X11989405Y-23021976D01*
X12075119Y-23221976D02*
X12075119Y-23117214D01*
X12065595Y-23098167D01*
X12046548Y-23088643D01*
X12017976Y-23088643D01*
X11998928Y-23098167D01*
X11989405Y-23107690D01*
X12198928Y-23221976D02*
X12179881Y-23212452D01*
X12170357Y-23202928D01*
X12160833Y-23183881D01*
X12160833Y-23126738D01*
X12170357Y-23107690D01*
X12179881Y-23098167D01*
X12198928Y-23088643D01*
X12227500Y-23088643D01*
X12246548Y-23098167D01*
X12256071Y-23107690D01*
X12265595Y-23126738D01*
X12265595Y-23183881D01*
X12256071Y-23202928D01*
X12246548Y-23212452D01*
X12227500Y-23221976D01*
X12198928Y-23221976D01*
X12379881Y-23221976D02*
X12360833Y-23212452D01*
X12351309Y-23193405D01*
X12351309Y-23021976D01*
X12532262Y-23212452D02*
X12513214Y-23221976D01*
X12475119Y-23221976D01*
X12456071Y-23212452D01*
X12446548Y-23193405D01*
X12446548Y-23117214D01*
X12456071Y-23098167D01*
X12475119Y-23088643D01*
X12513214Y-23088643D01*
X12532262Y-23098167D01*
X12541786Y-23117214D01*
X12541786Y-23136262D01*
X12446548Y-23155309D01*
X12617976Y-23212452D02*
X12637024Y-23221976D01*
X12675119Y-23221976D01*
X12694167Y-23212452D01*
X12703690Y-23193405D01*
X12703690Y-23183881D01*
X12694167Y-23164833D01*
X12675119Y-23155309D01*
X12646548Y-23155309D01*
X12627500Y-23145786D01*
X12617976Y-23126738D01*
X12617976Y-23117214D01*
X12627500Y-23098167D01*
X12646548Y-23088643D01*
X12675119Y-23088643D01*
X12694167Y-23098167D01*
X12770357Y-23298167D02*
X12779881Y-23288643D01*
X12798928Y-23260071D01*
X12808452Y-23241024D01*
X12817976Y-23212452D01*
X12827500Y-23164833D01*
X12827500Y-23126738D01*
X12817976Y-23079119D01*
X12808452Y-23050548D01*
X12798928Y-23031500D01*
X12779881Y-23002928D01*
X12770357Y-22993405D01*
D14*
X7572500Y-23350500D02*
X7572500Y-23440500D01*
X7527500Y-23395500D02*
X7617500Y-23395500D01*
D11*
X7913214Y-23285976D02*
X7932262Y-23285976D01*
X7951309Y-23295500D01*
X7960833Y-23305024D01*
X7970357Y-23324071D01*
X7979881Y-23362167D01*
X7979881Y-23409786D01*
X7970357Y-23447881D01*
X7960833Y-23466928D01*
X7951309Y-23476452D01*
X7932262Y-23485976D01*
X7913214Y-23485976D01*
X7894167Y-23476452D01*
X7884643Y-23466928D01*
X7875119Y-23447881D01*
X7865595Y-23409786D01*
X7865595Y-23362167D01*
X7875119Y-23324071D01*
X7884643Y-23305024D01*
X7894167Y-23295500D01*
X7913214Y-23285976D01*
X8065595Y-23466928D02*
X8075119Y-23476452D01*
X8065595Y-23485976D01*
X8056071Y-23476452D01*
X8065595Y-23466928D01*
X8065595Y-23485976D01*
X8170357Y-23485976D02*
X8208452Y-23485976D01*
X8227500Y-23476452D01*
X8237024Y-23466928D01*
X8256071Y-23438357D01*
X8265595Y-23400262D01*
X8265595Y-23324071D01*
X8256071Y-23305024D01*
X8246548Y-23295500D01*
X8227500Y-23285976D01*
X8189405Y-23285976D01*
X8170357Y-23295500D01*
X8160833Y-23305024D01*
X8151309Y-23324071D01*
X8151309Y-23371690D01*
X8160833Y-23390738D01*
X8170357Y-23400262D01*
X8189405Y-23409786D01*
X8227500Y-23409786D01*
X8246548Y-23400262D01*
X8256071Y-23390738D01*
X8265595Y-23371690D01*
X8389405Y-23285976D02*
X8408452Y-23285976D01*
X8427500Y-23295500D01*
X8437024Y-23305024D01*
X8446548Y-23324071D01*
X8456071Y-23362167D01*
X8456071Y-23409786D01*
X8446548Y-23447881D01*
X8437024Y-23466928D01*
X8427500Y-23476452D01*
X8408452Y-23485976D01*
X8389405Y-23485976D01*
X8370357Y-23476452D01*
X8360833Y-23466928D01*
X8351309Y-23447881D01*
X8341786Y-23409786D01*
X8341786Y-23362167D01*
X8351309Y-23324071D01*
X8360833Y-23305024D01*
X8370357Y-23295500D01*
X8389405Y-23285976D01*
X8579881Y-23285976D02*
X8598929Y-23285976D01*
X8617976Y-23295500D01*
X8627500Y-23305024D01*
X8637024Y-23324071D01*
X8646548Y-23362167D01*
X8646548Y-23409786D01*
X8637024Y-23447881D01*
X8627500Y-23466928D01*
X8617976Y-23476452D01*
X8598929Y-23485976D01*
X8579881Y-23485976D01*
X8560833Y-23476452D01*
X8551310Y-23466928D01*
X8541786Y-23447881D01*
X8532262Y-23409786D01*
X8532262Y-23362167D01*
X8541786Y-23324071D01*
X8551310Y-23305024D01*
X8560833Y-23295500D01*
X8579881Y-23285976D01*
X8732262Y-23485976D02*
X8732262Y-23352643D01*
X8732262Y-23371690D02*
X8741786Y-23362167D01*
X8760833Y-23352643D01*
X8789405Y-23352643D01*
X8808452Y-23362167D01*
X8817976Y-23381214D01*
X8817976Y-23485976D01*
X8817976Y-23381214D02*
X8827500Y-23362167D01*
X8846548Y-23352643D01*
X8875119Y-23352643D01*
X8894167Y-23362167D01*
X8903690Y-23381214D01*
X8903690Y-23485976D01*
X8998929Y-23485976D02*
X8998929Y-23352643D01*
X8998929Y-23371690D02*
X9008452Y-23362167D01*
X9027500Y-23352643D01*
X9056071Y-23352643D01*
X9075119Y-23362167D01*
X9084643Y-23381214D01*
X9084643Y-23485976D01*
X9084643Y-23381214D02*
X9094167Y-23362167D01*
X9113214Y-23352643D01*
X9141786Y-23352643D01*
X9160833Y-23362167D01*
X9170357Y-23381214D01*
X9170357Y-23485976D01*
X9560833Y-23276452D02*
X9389405Y-23533595D01*
X9817976Y-23285976D02*
X9837024Y-23285976D01*
X9856071Y-23295500D01*
X9865595Y-23305024D01*
X9875119Y-23324071D01*
X9884643Y-23362167D01*
X9884643Y-23409786D01*
X9875119Y-23447881D01*
X9865595Y-23466928D01*
X9856071Y-23476452D01*
X9837024Y-23485976D01*
X9817976Y-23485976D01*
X9798929Y-23476452D01*
X9789405Y-23466928D01*
X9779881Y-23447881D01*
X9770357Y-23409786D01*
X9770357Y-23362167D01*
X9779881Y-23324071D01*
X9789405Y-23305024D01*
X9798929Y-23295500D01*
X9817976Y-23285976D01*
X9970357Y-23466928D02*
X9979881Y-23476452D01*
X9970357Y-23485976D01*
X9960833Y-23476452D01*
X9970357Y-23466928D01*
X9970357Y-23485976D01*
X10103690Y-23285976D02*
X10122738Y-23285976D01*
X10141786Y-23295500D01*
X10151310Y-23305024D01*
X10160833Y-23324071D01*
X10170357Y-23362167D01*
X10170357Y-23409786D01*
X10160833Y-23447881D01*
X10151310Y-23466928D01*
X10141786Y-23476452D01*
X10122738Y-23485976D01*
X10103690Y-23485976D01*
X10084643Y-23476452D01*
X10075119Y-23466928D01*
X10065595Y-23447881D01*
X10056071Y-23409786D01*
X10056071Y-23362167D01*
X10065595Y-23324071D01*
X10075119Y-23305024D01*
X10084643Y-23295500D01*
X10103690Y-23285976D01*
X10237024Y-23285976D02*
X10360833Y-23285976D01*
X10294167Y-23362167D01*
X10322738Y-23362167D01*
X10341786Y-23371690D01*
X10351310Y-23381214D01*
X10360833Y-23400262D01*
X10360833Y-23447881D01*
X10351310Y-23466928D01*
X10341786Y-23476452D01*
X10322738Y-23485976D01*
X10265595Y-23485976D01*
X10246548Y-23476452D01*
X10237024Y-23466928D01*
X10541786Y-23285976D02*
X10446548Y-23285976D01*
X10437024Y-23381214D01*
X10446548Y-23371690D01*
X10465595Y-23362167D01*
X10513214Y-23362167D01*
X10532262Y-23371690D01*
X10541786Y-23381214D01*
X10551310Y-23400262D01*
X10551310Y-23447881D01*
X10541786Y-23466928D01*
X10532262Y-23476452D01*
X10513214Y-23485976D01*
X10465595Y-23485976D01*
X10446548Y-23476452D01*
X10437024Y-23466928D01*
X10722738Y-23352643D02*
X10722738Y-23485976D01*
X10675119Y-23276452D02*
X10627500Y-23419309D01*
X10751310Y-23419309D01*
X10817976Y-23285976D02*
X10817976Y-23324071D01*
X10894167Y-23285976D02*
X10894167Y-23324071D01*
X11189405Y-23562167D02*
X11179881Y-23552643D01*
X11160833Y-23524071D01*
X11151310Y-23505024D01*
X11141786Y-23476452D01*
X11132262Y-23428833D01*
X11132262Y-23390738D01*
X11141786Y-23343119D01*
X11151310Y-23314548D01*
X11160833Y-23295500D01*
X11179881Y-23266928D01*
X11189405Y-23257405D01*
X11351309Y-23352643D02*
X11351309Y-23485976D01*
X11303690Y-23276452D02*
X11256071Y-23419309D01*
X11379881Y-23419309D01*
X11608452Y-23485976D02*
X11608452Y-23285976D01*
X11694167Y-23485976D02*
X11694167Y-23381214D01*
X11684643Y-23362167D01*
X11665595Y-23352643D01*
X11637024Y-23352643D01*
X11617976Y-23362167D01*
X11608452Y-23371690D01*
X11817976Y-23485976D02*
X11798928Y-23476452D01*
X11789405Y-23466928D01*
X11779881Y-23447881D01*
X11779881Y-23390738D01*
X11789405Y-23371690D01*
X11798928Y-23362167D01*
X11817976Y-23352643D01*
X11846548Y-23352643D01*
X11865595Y-23362167D01*
X11875119Y-23371690D01*
X11884643Y-23390738D01*
X11884643Y-23447881D01*
X11875119Y-23466928D01*
X11865595Y-23476452D01*
X11846548Y-23485976D01*
X11817976Y-23485976D01*
X11998928Y-23485976D02*
X11979881Y-23476452D01*
X11970357Y-23457405D01*
X11970357Y-23285976D01*
X12151309Y-23476452D02*
X12132262Y-23485976D01*
X12094167Y-23485976D01*
X12075119Y-23476452D01*
X12065595Y-23457405D01*
X12065595Y-23381214D01*
X12075119Y-23362167D01*
X12094167Y-23352643D01*
X12132262Y-23352643D01*
X12151309Y-23362167D01*
X12160833Y-23381214D01*
X12160833Y-23400262D01*
X12065595Y-23419309D01*
X12237024Y-23476452D02*
X12256071Y-23485976D01*
X12294167Y-23485976D01*
X12313214Y-23476452D01*
X12322738Y-23457405D01*
X12322738Y-23447881D01*
X12313214Y-23428833D01*
X12294167Y-23419309D01*
X12265595Y-23419309D01*
X12246548Y-23409786D01*
X12237024Y-23390738D01*
X12237024Y-23381214D01*
X12246548Y-23362167D01*
X12265595Y-23352643D01*
X12294167Y-23352643D01*
X12313214Y-23362167D01*
X12389405Y-23562167D02*
X12398928Y-23552643D01*
X12417976Y-23524071D01*
X12427500Y-23505024D01*
X12437024Y-23476452D01*
X12446548Y-23428833D01*
X12446548Y-23390738D01*
X12437024Y-23343119D01*
X12427500Y-23314548D01*
X12417976Y-23295500D01*
X12398928Y-23266928D01*
X12389405Y-23257405D01*
D15*
X7602856Y-23694856D02*
X7602856Y-23624144D01*
X7532144Y-23624144D01*
X7532144Y-23694856D01*
X7602856Y-23694856D01*
D11*
X7979881Y-23749976D02*
X7865595Y-23749976D01*
X7922738Y-23749976D02*
X7922738Y-23549976D01*
X7903690Y-23578548D01*
X7884643Y-23597595D01*
X7865595Y-23607119D01*
X8065595Y-23730928D02*
X8075119Y-23740452D01*
X8065595Y-23749976D01*
X8056071Y-23740452D01*
X8065595Y-23730928D01*
X8065595Y-23749976D01*
X8198928Y-23549976D02*
X8217976Y-23549976D01*
X8237024Y-23559500D01*
X8246548Y-23569024D01*
X8256071Y-23588071D01*
X8265595Y-23626167D01*
X8265595Y-23673786D01*
X8256071Y-23711881D01*
X8246548Y-23730928D01*
X8237024Y-23740452D01*
X8217976Y-23749976D01*
X8198928Y-23749976D01*
X8179881Y-23740452D01*
X8170357Y-23730928D01*
X8160833Y-23711881D01*
X8151309Y-23673786D01*
X8151309Y-23626167D01*
X8160833Y-23588071D01*
X8170357Y-23569024D01*
X8179881Y-23559500D01*
X8198928Y-23549976D01*
X8389405Y-23549976D02*
X8408452Y-23549976D01*
X8427500Y-23559500D01*
X8437024Y-23569024D01*
X8446548Y-23588071D01*
X8456071Y-23626167D01*
X8456071Y-23673786D01*
X8446548Y-23711881D01*
X8437024Y-23730928D01*
X8427500Y-23740452D01*
X8408452Y-23749976D01*
X8389405Y-23749976D01*
X8370357Y-23740452D01*
X8360833Y-23730928D01*
X8351309Y-23711881D01*
X8341786Y-23673786D01*
X8341786Y-23626167D01*
X8351309Y-23588071D01*
X8360833Y-23569024D01*
X8370357Y-23559500D01*
X8389405Y-23549976D01*
X8579881Y-23549976D02*
X8598929Y-23549976D01*
X8617976Y-23559500D01*
X8627500Y-23569024D01*
X8637024Y-23588071D01*
X8646548Y-23626167D01*
X8646548Y-23673786D01*
X8637024Y-23711881D01*
X8627500Y-23730928D01*
X8617976Y-23740452D01*
X8598929Y-23749976D01*
X8579881Y-23749976D01*
X8560833Y-23740452D01*
X8551310Y-23730928D01*
X8541786Y-23711881D01*
X8532262Y-23673786D01*
X8532262Y-23626167D01*
X8541786Y-23588071D01*
X8551310Y-23569024D01*
X8560833Y-23559500D01*
X8579881Y-23549976D01*
X8732262Y-23749976D02*
X8732262Y-23616643D01*
X8732262Y-23635690D02*
X8741786Y-23626167D01*
X8760833Y-23616643D01*
X8789405Y-23616643D01*
X8808452Y-23626167D01*
X8817976Y-23645214D01*
X8817976Y-23749976D01*
X8817976Y-23645214D02*
X8827500Y-23626167D01*
X8846548Y-23616643D01*
X8875119Y-23616643D01*
X8894167Y-23626167D01*
X8903690Y-23645214D01*
X8903690Y-23749976D01*
X8998929Y-23749976D02*
X8998929Y-23616643D01*
X8998929Y-23635690D02*
X9008452Y-23626167D01*
X9027500Y-23616643D01*
X9056071Y-23616643D01*
X9075119Y-23626167D01*
X9084643Y-23645214D01*
X9084643Y-23749976D01*
X9084643Y-23645214D02*
X9094167Y-23626167D01*
X9113214Y-23616643D01*
X9141786Y-23616643D01*
X9160833Y-23626167D01*
X9170357Y-23645214D01*
X9170357Y-23749976D01*
X9560833Y-23540452D02*
X9389405Y-23797595D01*
X9817976Y-23549976D02*
X9837024Y-23549976D01*
X9856071Y-23559500D01*
X9865595Y-23569024D01*
X9875119Y-23588071D01*
X9884643Y-23626167D01*
X9884643Y-23673786D01*
X9875119Y-23711881D01*
X9865595Y-23730928D01*
X9856071Y-23740452D01*
X9837024Y-23749976D01*
X9817976Y-23749976D01*
X9798929Y-23740452D01*
X9789405Y-23730928D01*
X9779881Y-23711881D01*
X9770357Y-23673786D01*
X9770357Y-23626167D01*
X9779881Y-23588071D01*
X9789405Y-23569024D01*
X9798929Y-23559500D01*
X9817976Y-23549976D01*
X9970357Y-23730928D02*
X9979881Y-23740452D01*
X9970357Y-23749976D01*
X9960833Y-23740452D01*
X9970357Y-23730928D01*
X9970357Y-23749976D01*
X10103690Y-23549976D02*
X10122738Y-23549976D01*
X10141786Y-23559500D01*
X10151310Y-23569024D01*
X10160833Y-23588071D01*
X10170357Y-23626167D01*
X10170357Y-23673786D01*
X10160833Y-23711881D01*
X10151310Y-23730928D01*
X10141786Y-23740452D01*
X10122738Y-23749976D01*
X10103690Y-23749976D01*
X10084643Y-23740452D01*
X10075119Y-23730928D01*
X10065595Y-23711881D01*
X10056071Y-23673786D01*
X10056071Y-23626167D01*
X10065595Y-23588071D01*
X10075119Y-23569024D01*
X10084643Y-23559500D01*
X10103690Y-23549976D01*
X10237024Y-23549976D02*
X10360833Y-23549976D01*
X10294167Y-23626167D01*
X10322738Y-23626167D01*
X10341786Y-23635690D01*
X10351310Y-23645214D01*
X10360833Y-23664262D01*
X10360833Y-23711881D01*
X10351310Y-23730928D01*
X10341786Y-23740452D01*
X10322738Y-23749976D01*
X10265595Y-23749976D01*
X10246548Y-23740452D01*
X10237024Y-23730928D01*
X10456071Y-23749976D02*
X10494167Y-23749976D01*
X10513214Y-23740452D01*
X10522738Y-23730928D01*
X10541786Y-23702357D01*
X10551310Y-23664262D01*
X10551310Y-23588071D01*
X10541786Y-23569024D01*
X10532262Y-23559500D01*
X10513214Y-23549976D01*
X10475119Y-23549976D01*
X10456071Y-23559500D01*
X10446548Y-23569024D01*
X10437024Y-23588071D01*
X10437024Y-23635690D01*
X10446548Y-23654738D01*
X10456071Y-23664262D01*
X10475119Y-23673786D01*
X10513214Y-23673786D01*
X10532262Y-23664262D01*
X10541786Y-23654738D01*
X10551310Y-23635690D01*
X10722738Y-23616643D02*
X10722738Y-23749976D01*
X10675119Y-23540452D02*
X10627500Y-23683309D01*
X10751310Y-23683309D01*
X10817976Y-23549976D02*
X10817976Y-23588071D01*
X10894167Y-23549976D02*
X10894167Y-23588071D01*
X11189405Y-23826167D02*
X11179881Y-23816643D01*
X11160833Y-23788071D01*
X11151310Y-23769024D01*
X11141786Y-23740452D01*
X11132262Y-23692833D01*
X11132262Y-23654738D01*
X11141786Y-23607119D01*
X11151310Y-23578548D01*
X11160833Y-23559500D01*
X11179881Y-23530928D01*
X11189405Y-23521405D01*
X11370357Y-23749976D02*
X11256071Y-23749976D01*
X11313214Y-23749976D02*
X11313214Y-23549976D01*
X11294167Y-23578548D01*
X11275119Y-23597595D01*
X11256071Y-23607119D01*
X11446548Y-23569024D02*
X11456071Y-23559500D01*
X11475119Y-23549976D01*
X11522738Y-23549976D01*
X11541786Y-23559500D01*
X11551309Y-23569024D01*
X11560833Y-23588071D01*
X11560833Y-23607119D01*
X11551309Y-23635690D01*
X11437024Y-23749976D01*
X11560833Y-23749976D01*
X11798928Y-23749976D02*
X11798928Y-23549976D01*
X11884643Y-23749976D02*
X11884643Y-23645214D01*
X11875119Y-23626167D01*
X11856071Y-23616643D01*
X11827500Y-23616643D01*
X11808452Y-23626167D01*
X11798928Y-23635690D01*
X12008452Y-23749976D02*
X11989405Y-23740452D01*
X11979881Y-23730928D01*
X11970357Y-23711881D01*
X11970357Y-23654738D01*
X11979881Y-23635690D01*
X11989405Y-23626167D01*
X12008452Y-23616643D01*
X12037024Y-23616643D01*
X12056071Y-23626167D01*
X12065595Y-23635690D01*
X12075119Y-23654738D01*
X12075119Y-23711881D01*
X12065595Y-23730928D01*
X12056071Y-23740452D01*
X12037024Y-23749976D01*
X12008452Y-23749976D01*
X12189405Y-23749976D02*
X12170357Y-23740452D01*
X12160833Y-23721405D01*
X12160833Y-23549976D01*
X12341786Y-23740452D02*
X12322738Y-23749976D01*
X12284643Y-23749976D01*
X12265595Y-23740452D01*
X12256071Y-23721405D01*
X12256071Y-23645214D01*
X12265595Y-23626167D01*
X12284643Y-23616643D01*
X12322738Y-23616643D01*
X12341786Y-23626167D01*
X12351309Y-23645214D01*
X12351309Y-23664262D01*
X12256071Y-23683309D01*
X12427500Y-23740452D02*
X12446548Y-23749976D01*
X12484643Y-23749976D01*
X12503690Y-23740452D01*
X12513214Y-23721405D01*
X12513214Y-23711881D01*
X12503690Y-23692833D01*
X12484643Y-23683309D01*
X12456071Y-23683309D01*
X12437024Y-23673786D01*
X12427500Y-23654738D01*
X12427500Y-23645214D01*
X12437024Y-23626167D01*
X12456071Y-23616643D01*
X12484643Y-23616643D01*
X12503690Y-23626167D01*
X12579881Y-23826167D02*
X12589405Y-23816643D01*
X12608452Y-23788071D01*
X12617976Y-23769024D01*
X12627500Y-23740452D01*
X12637024Y-23692833D01*
X12637024Y-23654738D01*
X12627500Y-23607119D01*
X12617976Y-23578548D01*
X12608452Y-23559500D01*
X12589405Y-23530928D01*
X12579881Y-23521405D01*
D16*
X7562500Y-23978500D02*
X7617500Y-23923500D01*
X7562500Y-23868500D01*
X7507500Y-23923500D01*
X7562500Y-23978500D01*
D11*
X7979881Y-24013976D02*
X7865595Y-24013976D01*
X7922738Y-24013976D02*
X7922738Y-23813976D01*
X7903690Y-23842548D01*
X7884643Y-23861595D01*
X7865595Y-23871119D01*
X8065595Y-23994928D02*
X8075119Y-24004452D01*
X8065595Y-24013976D01*
X8056071Y-24004452D01*
X8065595Y-23994928D01*
X8065595Y-24013976D01*
X8265595Y-24013976D02*
X8151309Y-24013976D01*
X8208452Y-24013976D02*
X8208452Y-23813976D01*
X8189405Y-23842548D01*
X8170357Y-23861595D01*
X8151309Y-23871119D01*
X8389405Y-23813976D02*
X8408452Y-23813976D01*
X8427500Y-23823500D01*
X8437024Y-23833024D01*
X8446548Y-23852071D01*
X8456071Y-23890167D01*
X8456071Y-23937786D01*
X8446548Y-23975881D01*
X8437024Y-23994928D01*
X8427500Y-24004452D01*
X8408452Y-24013976D01*
X8389405Y-24013976D01*
X8370357Y-24004452D01*
X8360833Y-23994928D01*
X8351309Y-23975881D01*
X8341786Y-23937786D01*
X8341786Y-23890167D01*
X8351309Y-23852071D01*
X8360833Y-23833024D01*
X8370357Y-23823500D01*
X8389405Y-23813976D01*
X8579881Y-23813976D02*
X8598929Y-23813976D01*
X8617976Y-23823500D01*
X8627500Y-23833024D01*
X8637024Y-23852071D01*
X8646548Y-23890167D01*
X8646548Y-23937786D01*
X8637024Y-23975881D01*
X8627500Y-23994928D01*
X8617976Y-24004452D01*
X8598929Y-24013976D01*
X8579881Y-24013976D01*
X8560833Y-24004452D01*
X8551310Y-23994928D01*
X8541786Y-23975881D01*
X8532262Y-23937786D01*
X8532262Y-23890167D01*
X8541786Y-23852071D01*
X8551310Y-23833024D01*
X8560833Y-23823500D01*
X8579881Y-23813976D01*
X8732262Y-24013976D02*
X8732262Y-23880643D01*
X8732262Y-23899690D02*
X8741786Y-23890167D01*
X8760833Y-23880643D01*
X8789405Y-23880643D01*
X8808452Y-23890167D01*
X8817976Y-23909214D01*
X8817976Y-24013976D01*
X8817976Y-23909214D02*
X8827500Y-23890167D01*
X8846548Y-23880643D01*
X8875119Y-23880643D01*
X8894167Y-23890167D01*
X8903690Y-23909214D01*
X8903690Y-24013976D01*
X8998929Y-24013976D02*
X8998929Y-23880643D01*
X8998929Y-23899690D02*
X9008452Y-23890167D01*
X9027500Y-23880643D01*
X9056071Y-23880643D01*
X9075119Y-23890167D01*
X9084643Y-23909214D01*
X9084643Y-24013976D01*
X9084643Y-23909214D02*
X9094167Y-23890167D01*
X9113214Y-23880643D01*
X9141786Y-23880643D01*
X9160833Y-23890167D01*
X9170357Y-23909214D01*
X9170357Y-24013976D01*
X9560833Y-23804452D02*
X9389405Y-24061595D01*
X9817976Y-23813976D02*
X9837024Y-23813976D01*
X9856071Y-23823500D01*
X9865595Y-23833024D01*
X9875119Y-23852071D01*
X9884643Y-23890167D01*
X9884643Y-23937786D01*
X9875119Y-23975881D01*
X9865595Y-23994928D01*
X9856071Y-24004452D01*
X9837024Y-24013976D01*
X9817976Y-24013976D01*
X9798929Y-24004452D01*
X9789405Y-23994928D01*
X9779881Y-23975881D01*
X9770357Y-23937786D01*
X9770357Y-23890167D01*
X9779881Y-23852071D01*
X9789405Y-23833024D01*
X9798929Y-23823500D01*
X9817976Y-23813976D01*
X9970357Y-23994928D02*
X9979881Y-24004452D01*
X9970357Y-24013976D01*
X9960833Y-24004452D01*
X9970357Y-23994928D01*
X9970357Y-24013976D01*
X10103690Y-23813976D02*
X10122738Y-23813976D01*
X10141786Y-23823500D01*
X10151310Y-23833024D01*
X10160833Y-23852071D01*
X10170357Y-23890167D01*
X10170357Y-23937786D01*
X10160833Y-23975881D01*
X10151310Y-23994928D01*
X10141786Y-24004452D01*
X10122738Y-24013976D01*
X10103690Y-24013976D01*
X10084643Y-24004452D01*
X10075119Y-23994928D01*
X10065595Y-23975881D01*
X10056071Y-23937786D01*
X10056071Y-23890167D01*
X10065595Y-23852071D01*
X10075119Y-23833024D01*
X10084643Y-23823500D01*
X10103690Y-23813976D01*
X10341786Y-23880643D02*
X10341786Y-24013976D01*
X10294167Y-23804452D02*
X10246548Y-23947309D01*
X10370357Y-23947309D01*
X10427500Y-23813976D02*
X10551310Y-23813976D01*
X10484643Y-23890167D01*
X10513214Y-23890167D01*
X10532262Y-23899690D01*
X10541786Y-23909214D01*
X10551310Y-23928262D01*
X10551310Y-23975881D01*
X10541786Y-23994928D01*
X10532262Y-24004452D01*
X10513214Y-24013976D01*
X10456071Y-24013976D01*
X10437024Y-24004452D01*
X10427500Y-23994928D01*
X10617976Y-23813976D02*
X10741786Y-23813976D01*
X10675119Y-23890167D01*
X10703690Y-23890167D01*
X10722738Y-23899690D01*
X10732262Y-23909214D01*
X10741786Y-23928262D01*
X10741786Y-23975881D01*
X10732262Y-23994928D01*
X10722738Y-24004452D01*
X10703690Y-24013976D01*
X10646548Y-24013976D01*
X10627500Y-24004452D01*
X10617976Y-23994928D01*
X10817976Y-23813976D02*
X10817976Y-23852071D01*
X10894167Y-23813976D02*
X10894167Y-23852071D01*
X11189405Y-24090167D02*
X11179881Y-24080643D01*
X11160833Y-24052071D01*
X11151310Y-24033024D01*
X11141786Y-24004452D01*
X11132262Y-23956833D01*
X11132262Y-23918738D01*
X11141786Y-23871119D01*
X11151310Y-23842548D01*
X11160833Y-23823500D01*
X11179881Y-23794928D01*
X11189405Y-23785405D01*
X11294167Y-23899690D02*
X11275119Y-23890167D01*
X11265595Y-23880643D01*
X11256071Y-23861595D01*
X11256071Y-23852071D01*
X11265595Y-23833024D01*
X11275119Y-23823500D01*
X11294167Y-23813976D01*
X11332262Y-23813976D01*
X11351309Y-23823500D01*
X11360833Y-23833024D01*
X11370357Y-23852071D01*
X11370357Y-23861595D01*
X11360833Y-23880643D01*
X11351309Y-23890167D01*
X11332262Y-23899690D01*
X11294167Y-23899690D01*
X11275119Y-23909214D01*
X11265595Y-23918738D01*
X11256071Y-23937786D01*
X11256071Y-23975881D01*
X11265595Y-23994928D01*
X11275119Y-24004452D01*
X11294167Y-24013976D01*
X11332262Y-24013976D01*
X11351309Y-24004452D01*
X11360833Y-23994928D01*
X11370357Y-23975881D01*
X11370357Y-23937786D01*
X11360833Y-23918738D01*
X11351309Y-23909214D01*
X11332262Y-23899690D01*
X11608452Y-24013976D02*
X11608452Y-23813976D01*
X11694167Y-24013976D02*
X11694167Y-23909214D01*
X11684643Y-23890167D01*
X11665595Y-23880643D01*
X11637024Y-23880643D01*
X11617976Y-23890167D01*
X11608452Y-23899690D01*
X11817976Y-24013976D02*
X11798928Y-24004452D01*
X11789405Y-23994928D01*
X11779881Y-23975881D01*
X11779881Y-23918738D01*
X11789405Y-23899690D01*
X11798928Y-23890167D01*
X11817976Y-23880643D01*
X11846548Y-23880643D01*
X11865595Y-23890167D01*
X11875119Y-23899690D01*
X11884643Y-23918738D01*
X11884643Y-23975881D01*
X11875119Y-23994928D01*
X11865595Y-24004452D01*
X11846548Y-24013976D01*
X11817976Y-24013976D01*
X11998928Y-24013976D02*
X11979881Y-24004452D01*
X11970357Y-23985405D01*
X11970357Y-23813976D01*
X12151309Y-24004452D02*
X12132262Y-24013976D01*
X12094167Y-24013976D01*
X12075119Y-24004452D01*
X12065595Y-23985405D01*
X12065595Y-23909214D01*
X12075119Y-23890167D01*
X12094167Y-23880643D01*
X12132262Y-23880643D01*
X12151309Y-23890167D01*
X12160833Y-23909214D01*
X12160833Y-23928262D01*
X12065595Y-23947309D01*
X12237024Y-24004452D02*
X12256071Y-24013976D01*
X12294167Y-24013976D01*
X12313214Y-24004452D01*
X12322738Y-23985405D01*
X12322738Y-23975881D01*
X12313214Y-23956833D01*
X12294167Y-23947309D01*
X12265595Y-23947309D01*
X12246548Y-23937786D01*
X12237024Y-23918738D01*
X12237024Y-23909214D01*
X12246548Y-23890167D01*
X12265595Y-23880643D01*
X12294167Y-23880643D01*
X12313214Y-23890167D01*
X12389405Y-24090167D02*
X12398928Y-24080643D01*
X12417976Y-24052071D01*
X12427500Y-24033024D01*
X12437024Y-24004452D01*
X12446548Y-23956833D01*
X12446548Y-23918738D01*
X12437024Y-23871119D01*
X12427500Y-23842548D01*
X12417976Y-23823500D01*
X12398928Y-23794928D01*
X12389405Y-23785405D01*
D17*
X7497500Y-24127500D02*
X7617500Y-24247500D01*
X7617500Y-24127500D02*
X7497500Y-24247500D01*
X7617500Y-24187500D02*
G75*
G03*
X7617500Y-24187500I-60000J0D01*
G01*
D11*
X7979881Y-24277976D02*
X7865595Y-24277976D01*
X7922738Y-24277976D02*
X7922738Y-24077976D01*
X7903690Y-24106548D01*
X7884643Y-24125595D01*
X7865595Y-24135119D01*
X8065595Y-24258928D02*
X8075119Y-24268452D01*
X8065595Y-24277976D01*
X8056071Y-24268452D01*
X8065595Y-24258928D01*
X8065595Y-24277976D01*
X8151309Y-24097024D02*
X8160833Y-24087500D01*
X8179881Y-24077976D01*
X8227500Y-24077976D01*
X8246548Y-24087500D01*
X8256071Y-24097024D01*
X8265595Y-24116071D01*
X8265595Y-24135119D01*
X8256071Y-24163690D01*
X8141786Y-24277976D01*
X8265595Y-24277976D01*
X8389405Y-24077976D02*
X8408452Y-24077976D01*
X8427500Y-24087500D01*
X8437024Y-24097024D01*
X8446548Y-24116071D01*
X8456071Y-24154167D01*
X8456071Y-24201786D01*
X8446548Y-24239881D01*
X8437024Y-24258928D01*
X8427500Y-24268452D01*
X8408452Y-24277976D01*
X8389405Y-24277976D01*
X8370357Y-24268452D01*
X8360833Y-24258928D01*
X8351309Y-24239881D01*
X8341786Y-24201786D01*
X8341786Y-24154167D01*
X8351309Y-24116071D01*
X8360833Y-24097024D01*
X8370357Y-24087500D01*
X8389405Y-24077976D01*
X8579881Y-24077976D02*
X8598929Y-24077976D01*
X8617976Y-24087500D01*
X8627500Y-24097024D01*
X8637024Y-24116071D01*
X8646548Y-24154167D01*
X8646548Y-24201786D01*
X8637024Y-24239881D01*
X8627500Y-24258928D01*
X8617976Y-24268452D01*
X8598929Y-24277976D01*
X8579881Y-24277976D01*
X8560833Y-24268452D01*
X8551310Y-24258928D01*
X8541786Y-24239881D01*
X8532262Y-24201786D01*
X8532262Y-24154167D01*
X8541786Y-24116071D01*
X8551310Y-24097024D01*
X8560833Y-24087500D01*
X8579881Y-24077976D01*
X8732262Y-24277976D02*
X8732262Y-24144643D01*
X8732262Y-24163690D02*
X8741786Y-24154167D01*
X8760833Y-24144643D01*
X8789405Y-24144643D01*
X8808452Y-24154167D01*
X8817976Y-24173214D01*
X8817976Y-24277976D01*
X8817976Y-24173214D02*
X8827500Y-24154167D01*
X8846548Y-24144643D01*
X8875119Y-24144643D01*
X8894167Y-24154167D01*
X8903690Y-24173214D01*
X8903690Y-24277976D01*
X8998929Y-24277976D02*
X8998929Y-24144643D01*
X8998929Y-24163690D02*
X9008452Y-24154167D01*
X9027500Y-24144643D01*
X9056071Y-24144643D01*
X9075119Y-24154167D01*
X9084643Y-24173214D01*
X9084643Y-24277976D01*
X9084643Y-24173214D02*
X9094167Y-24154167D01*
X9113214Y-24144643D01*
X9141786Y-24144643D01*
X9160833Y-24154167D01*
X9170357Y-24173214D01*
X9170357Y-24277976D01*
X9560833Y-24068452D02*
X9389405Y-24325595D01*
X9817976Y-24077976D02*
X9837024Y-24077976D01*
X9856071Y-24087500D01*
X9865595Y-24097024D01*
X9875119Y-24116071D01*
X9884643Y-24154167D01*
X9884643Y-24201786D01*
X9875119Y-24239881D01*
X9865595Y-24258928D01*
X9856071Y-24268452D01*
X9837024Y-24277976D01*
X9817976Y-24277976D01*
X9798929Y-24268452D01*
X9789405Y-24258928D01*
X9779881Y-24239881D01*
X9770357Y-24201786D01*
X9770357Y-24154167D01*
X9779881Y-24116071D01*
X9789405Y-24097024D01*
X9798929Y-24087500D01*
X9817976Y-24077976D01*
X9970357Y-24258928D02*
X9979881Y-24268452D01*
X9970357Y-24277976D01*
X9960833Y-24268452D01*
X9970357Y-24258928D01*
X9970357Y-24277976D01*
X10103690Y-24077976D02*
X10122738Y-24077976D01*
X10141786Y-24087500D01*
X10151310Y-24097024D01*
X10160833Y-24116071D01*
X10170357Y-24154167D01*
X10170357Y-24201786D01*
X10160833Y-24239881D01*
X10151310Y-24258928D01*
X10141786Y-24268452D01*
X10122738Y-24277976D01*
X10103690Y-24277976D01*
X10084643Y-24268452D01*
X10075119Y-24258928D01*
X10065595Y-24239881D01*
X10056071Y-24201786D01*
X10056071Y-24154167D01*
X10065595Y-24116071D01*
X10075119Y-24097024D01*
X10084643Y-24087500D01*
X10103690Y-24077976D01*
X10341786Y-24144643D02*
X10341786Y-24277976D01*
X10294167Y-24068452D02*
X10246548Y-24211309D01*
X10370357Y-24211309D01*
X10427500Y-24077976D02*
X10560833Y-24077976D01*
X10475119Y-24277976D01*
X10627500Y-24097024D02*
X10637024Y-24087500D01*
X10656071Y-24077976D01*
X10703690Y-24077976D01*
X10722738Y-24087500D01*
X10732262Y-24097024D01*
X10741786Y-24116071D01*
X10741786Y-24135119D01*
X10732262Y-24163690D01*
X10617976Y-24277976D01*
X10741786Y-24277976D01*
X10817976Y-24077976D02*
X10817976Y-24116071D01*
X10894167Y-24077976D02*
X10894167Y-24116071D01*
X11189405Y-24354167D02*
X11179881Y-24344643D01*
X11160833Y-24316071D01*
X11151310Y-24297024D01*
X11141786Y-24268452D01*
X11132262Y-24220833D01*
X11132262Y-24182738D01*
X11141786Y-24135119D01*
X11151310Y-24106548D01*
X11160833Y-24087500D01*
X11179881Y-24058928D01*
X11189405Y-24049405D01*
X11256071Y-24097024D02*
X11265595Y-24087500D01*
X11284643Y-24077976D01*
X11332262Y-24077976D01*
X11351309Y-24087500D01*
X11360833Y-24097024D01*
X11370357Y-24116071D01*
X11370357Y-24135119D01*
X11360833Y-24163690D01*
X11246548Y-24277976D01*
X11370357Y-24277976D01*
X11608452Y-24277976D02*
X11608452Y-24077976D01*
X11694167Y-24277976D02*
X11694167Y-24173214D01*
X11684643Y-24154167D01*
X11665595Y-24144643D01*
X11637024Y-24144643D01*
X11617976Y-24154167D01*
X11608452Y-24163690D01*
X11817976Y-24277976D02*
X11798928Y-24268452D01*
X11789405Y-24258928D01*
X11779881Y-24239881D01*
X11779881Y-24182738D01*
X11789405Y-24163690D01*
X11798928Y-24154167D01*
X11817976Y-24144643D01*
X11846548Y-24144643D01*
X11865595Y-24154167D01*
X11875119Y-24163690D01*
X11884643Y-24182738D01*
X11884643Y-24239881D01*
X11875119Y-24258928D01*
X11865595Y-24268452D01*
X11846548Y-24277976D01*
X11817976Y-24277976D01*
X11998928Y-24277976D02*
X11979881Y-24268452D01*
X11970357Y-24249405D01*
X11970357Y-24077976D01*
X12151309Y-24268452D02*
X12132262Y-24277976D01*
X12094167Y-24277976D01*
X12075119Y-24268452D01*
X12065595Y-24249405D01*
X12065595Y-24173214D01*
X12075119Y-24154167D01*
X12094167Y-24144643D01*
X12132262Y-24144643D01*
X12151309Y-24154167D01*
X12160833Y-24173214D01*
X12160833Y-24192262D01*
X12065595Y-24211309D01*
X12237024Y-24268452D02*
X12256071Y-24277976D01*
X12294167Y-24277976D01*
X12313214Y-24268452D01*
X12322738Y-24249405D01*
X12322738Y-24239881D01*
X12313214Y-24220833D01*
X12294167Y-24211309D01*
X12265595Y-24211309D01*
X12246548Y-24201786D01*
X12237024Y-24182738D01*
X12237024Y-24173214D01*
X12246548Y-24154167D01*
X12265595Y-24144643D01*
X12294167Y-24144643D01*
X12313214Y-24154167D01*
X12389405Y-24354167D02*
X12398928Y-24344643D01*
X12417976Y-24316071D01*
X12427500Y-24297024D01*
X12437024Y-24268452D01*
X12446548Y-24220833D01*
X12446548Y-24182738D01*
X12437024Y-24135119D01*
X12427500Y-24106548D01*
X12417976Y-24087500D01*
X12398928Y-24058928D01*
X12389405Y-24049405D01*
D18*
X7467500Y-24376500D02*
X7617500Y-24526500D01*
X7617500Y-24376500D02*
X7467500Y-24526500D01*
X7542500Y-24376500D02*
X7542500Y-24526500D01*
X7467500Y-24451500D02*
X7617500Y-24451500D01*
D11*
X7979881Y-24541976D02*
X7865595Y-24541976D01*
X7922738Y-24541976D02*
X7922738Y-24341976D01*
X7903690Y-24370548D01*
X7884643Y-24389595D01*
X7865595Y-24399119D01*
X8065595Y-24522928D02*
X8075119Y-24532452D01*
X8065595Y-24541976D01*
X8056071Y-24532452D01*
X8065595Y-24522928D01*
X8065595Y-24541976D01*
X8256071Y-24341976D02*
X8160833Y-24341976D01*
X8151309Y-24437214D01*
X8160833Y-24427690D01*
X8179881Y-24418167D01*
X8227500Y-24418167D01*
X8246548Y-24427690D01*
X8256071Y-24437214D01*
X8265595Y-24456262D01*
X8265595Y-24503881D01*
X8256071Y-24522928D01*
X8246548Y-24532452D01*
X8227500Y-24541976D01*
X8179881Y-24541976D01*
X8160833Y-24532452D01*
X8151309Y-24522928D01*
X8389405Y-24341976D02*
X8408452Y-24341976D01*
X8427500Y-24351500D01*
X8437024Y-24361024D01*
X8446548Y-24380071D01*
X8456071Y-24418167D01*
X8456071Y-24465786D01*
X8446548Y-24503881D01*
X8437024Y-24522928D01*
X8427500Y-24532452D01*
X8408452Y-24541976D01*
X8389405Y-24541976D01*
X8370357Y-24532452D01*
X8360833Y-24522928D01*
X8351309Y-24503881D01*
X8341786Y-24465786D01*
X8341786Y-24418167D01*
X8351309Y-24380071D01*
X8360833Y-24361024D01*
X8370357Y-24351500D01*
X8389405Y-24341976D01*
X8579881Y-24341976D02*
X8598929Y-24341976D01*
X8617976Y-24351500D01*
X8627500Y-24361024D01*
X8637024Y-24380071D01*
X8646548Y-24418167D01*
X8646548Y-24465786D01*
X8637024Y-24503881D01*
X8627500Y-24522928D01*
X8617976Y-24532452D01*
X8598929Y-24541976D01*
X8579881Y-24541976D01*
X8560833Y-24532452D01*
X8551310Y-24522928D01*
X8541786Y-24503881D01*
X8532262Y-24465786D01*
X8532262Y-24418167D01*
X8541786Y-24380071D01*
X8551310Y-24361024D01*
X8560833Y-24351500D01*
X8579881Y-24341976D01*
X8732262Y-24541976D02*
X8732262Y-24408643D01*
X8732262Y-24427690D02*
X8741786Y-24418167D01*
X8760833Y-24408643D01*
X8789405Y-24408643D01*
X8808452Y-24418167D01*
X8817976Y-24437214D01*
X8817976Y-24541976D01*
X8817976Y-24437214D02*
X8827500Y-24418167D01*
X8846548Y-24408643D01*
X8875119Y-24408643D01*
X8894167Y-24418167D01*
X8903690Y-24437214D01*
X8903690Y-24541976D01*
X8998929Y-24541976D02*
X8998929Y-24408643D01*
X8998929Y-24427690D02*
X9008452Y-24418167D01*
X9027500Y-24408643D01*
X9056071Y-24408643D01*
X9075119Y-24418167D01*
X9084643Y-24437214D01*
X9084643Y-24541976D01*
X9084643Y-24437214D02*
X9094167Y-24418167D01*
X9113214Y-24408643D01*
X9141786Y-24408643D01*
X9160833Y-24418167D01*
X9170357Y-24437214D01*
X9170357Y-24541976D01*
X9560833Y-24332452D02*
X9389405Y-24589595D01*
X9817976Y-24341976D02*
X9837024Y-24341976D01*
X9856071Y-24351500D01*
X9865595Y-24361024D01*
X9875119Y-24380071D01*
X9884643Y-24418167D01*
X9884643Y-24465786D01*
X9875119Y-24503881D01*
X9865595Y-24522928D01*
X9856071Y-24532452D01*
X9837024Y-24541976D01*
X9817976Y-24541976D01*
X9798929Y-24532452D01*
X9789405Y-24522928D01*
X9779881Y-24503881D01*
X9770357Y-24465786D01*
X9770357Y-24418167D01*
X9779881Y-24380071D01*
X9789405Y-24361024D01*
X9798929Y-24351500D01*
X9817976Y-24341976D01*
X9970357Y-24522928D02*
X9979881Y-24532452D01*
X9970357Y-24541976D01*
X9960833Y-24532452D01*
X9970357Y-24522928D01*
X9970357Y-24541976D01*
X10103690Y-24341976D02*
X10122738Y-24341976D01*
X10141786Y-24351500D01*
X10151310Y-24361024D01*
X10160833Y-24380071D01*
X10170357Y-24418167D01*
X10170357Y-24465786D01*
X10160833Y-24503881D01*
X10151310Y-24522928D01*
X10141786Y-24532452D01*
X10122738Y-24541976D01*
X10103690Y-24541976D01*
X10084643Y-24532452D01*
X10075119Y-24522928D01*
X10065595Y-24503881D01*
X10056071Y-24465786D01*
X10056071Y-24418167D01*
X10065595Y-24380071D01*
X10075119Y-24361024D01*
X10084643Y-24351500D01*
X10103690Y-24341976D01*
X10351310Y-24341976D02*
X10256071Y-24341976D01*
X10246548Y-24437214D01*
X10256071Y-24427690D01*
X10275119Y-24418167D01*
X10322738Y-24418167D01*
X10341786Y-24427690D01*
X10351310Y-24437214D01*
X10360833Y-24456262D01*
X10360833Y-24503881D01*
X10351310Y-24522928D01*
X10341786Y-24532452D01*
X10322738Y-24541976D01*
X10275119Y-24541976D01*
X10256071Y-24532452D01*
X10246548Y-24522928D01*
X10456071Y-24541976D02*
X10494167Y-24541976D01*
X10513214Y-24532452D01*
X10522738Y-24522928D01*
X10541786Y-24494357D01*
X10551310Y-24456262D01*
X10551310Y-24380071D01*
X10541786Y-24361024D01*
X10532262Y-24351500D01*
X10513214Y-24341976D01*
X10475119Y-24341976D01*
X10456071Y-24351500D01*
X10446548Y-24361024D01*
X10437024Y-24380071D01*
X10437024Y-24427690D01*
X10446548Y-24446738D01*
X10456071Y-24456262D01*
X10475119Y-24465786D01*
X10513214Y-24465786D01*
X10532262Y-24456262D01*
X10541786Y-24446738D01*
X10551310Y-24427690D01*
X10741786Y-24541976D02*
X10627500Y-24541976D01*
X10684643Y-24541976D02*
X10684643Y-24341976D01*
X10665595Y-24370548D01*
X10646548Y-24389595D01*
X10627500Y-24399119D01*
X10817976Y-24341976D02*
X10817976Y-24380071D01*
X10894167Y-24341976D02*
X10894167Y-24380071D01*
X11189405Y-24618167D02*
X11179881Y-24608643D01*
X11160833Y-24580071D01*
X11151310Y-24561024D01*
X11141786Y-24532452D01*
X11132262Y-24484833D01*
X11132262Y-24446738D01*
X11141786Y-24399119D01*
X11151310Y-24370548D01*
X11160833Y-24351500D01*
X11179881Y-24322928D01*
X11189405Y-24313405D01*
X11370357Y-24541976D02*
X11256071Y-24541976D01*
X11313214Y-24541976D02*
X11313214Y-24341976D01*
X11294167Y-24370548D01*
X11275119Y-24389595D01*
X11256071Y-24399119D01*
X11541786Y-24408643D02*
X11541786Y-24541976D01*
X11494167Y-24332452D02*
X11446548Y-24475309D01*
X11570357Y-24475309D01*
X11637024Y-24361024D02*
X11646548Y-24351500D01*
X11665595Y-24341976D01*
X11713214Y-24341976D01*
X11732262Y-24351500D01*
X11741786Y-24361024D01*
X11751309Y-24380071D01*
X11751309Y-24399119D01*
X11741786Y-24427690D01*
X11627500Y-24541976D01*
X11751309Y-24541976D01*
X11989405Y-24541976D02*
X11989405Y-24341976D01*
X12075119Y-24541976D02*
X12075119Y-24437214D01*
X12065595Y-24418167D01*
X12046548Y-24408643D01*
X12017976Y-24408643D01*
X11998928Y-24418167D01*
X11989405Y-24427690D01*
X12198928Y-24541976D02*
X12179881Y-24532452D01*
X12170357Y-24522928D01*
X12160833Y-24503881D01*
X12160833Y-24446738D01*
X12170357Y-24427690D01*
X12179881Y-24418167D01*
X12198928Y-24408643D01*
X12227500Y-24408643D01*
X12246548Y-24418167D01*
X12256071Y-24427690D01*
X12265595Y-24446738D01*
X12265595Y-24503881D01*
X12256071Y-24522928D01*
X12246548Y-24532452D01*
X12227500Y-24541976D01*
X12198928Y-24541976D01*
X12379881Y-24541976D02*
X12360833Y-24532452D01*
X12351309Y-24513405D01*
X12351309Y-24341976D01*
X12532262Y-24532452D02*
X12513214Y-24541976D01*
X12475119Y-24541976D01*
X12456071Y-24532452D01*
X12446548Y-24513405D01*
X12446548Y-24437214D01*
X12456071Y-24418167D01*
X12475119Y-24408643D01*
X12513214Y-24408643D01*
X12532262Y-24418167D01*
X12541786Y-24437214D01*
X12541786Y-24456262D01*
X12446548Y-24475309D01*
X12617976Y-24532452D02*
X12637024Y-24541976D01*
X12675119Y-24541976D01*
X12694167Y-24532452D01*
X12703690Y-24513405D01*
X12703690Y-24503881D01*
X12694167Y-24484833D01*
X12675119Y-24475309D01*
X12646548Y-24475309D01*
X12627500Y-24465786D01*
X12617976Y-24446738D01*
X12617976Y-24437214D01*
X12627500Y-24418167D01*
X12646548Y-24408643D01*
X12675119Y-24408643D01*
X12694167Y-24418167D01*
X12770357Y-24618167D02*
X12779881Y-24608643D01*
X12798928Y-24580071D01*
X12808452Y-24561024D01*
X12817976Y-24532452D01*
X12827500Y-24484833D01*
X12827500Y-24446738D01*
X12817976Y-24399119D01*
X12808452Y-24370548D01*
X12798928Y-24351500D01*
X12779881Y-24322928D01*
X12770357Y-24313405D01*
X7417500Y-24621500D02*
X7617500Y-24821500D01*
X7617500Y-24621500D02*
X7417500Y-24821500D01*
X7588211Y-24792211D02*
X7588211Y-24650789D01*
X7446789Y-24650789D01*
X7446789Y-24792211D01*
X7588211Y-24792211D01*
X7856071Y-24611976D02*
X7979881Y-24611976D01*
X7913214Y-24688167D01*
X7941786Y-24688167D01*
X7960833Y-24697690D01*
X7970357Y-24707214D01*
X7979881Y-24726262D01*
X7979881Y-24773881D01*
X7970357Y-24792928D01*
X7960833Y-24802452D01*
X7941786Y-24811976D01*
X7884643Y-24811976D01*
X7865595Y-24802452D01*
X7856071Y-24792928D01*
X8065595Y-24792928D02*
X8075119Y-24802452D01*
X8065595Y-24811976D01*
X8056071Y-24802452D01*
X8065595Y-24792928D01*
X8065595Y-24811976D01*
X8151309Y-24631024D02*
X8160833Y-24621500D01*
X8179881Y-24611976D01*
X8227500Y-24611976D01*
X8246548Y-24621500D01*
X8256071Y-24631024D01*
X8265595Y-24650071D01*
X8265595Y-24669119D01*
X8256071Y-24697690D01*
X8141786Y-24811976D01*
X8265595Y-24811976D01*
X8389405Y-24611976D02*
X8408452Y-24611976D01*
X8427500Y-24621500D01*
X8437024Y-24631024D01*
X8446548Y-24650071D01*
X8456071Y-24688167D01*
X8456071Y-24735786D01*
X8446548Y-24773881D01*
X8437024Y-24792928D01*
X8427500Y-24802452D01*
X8408452Y-24811976D01*
X8389405Y-24811976D01*
X8370357Y-24802452D01*
X8360833Y-24792928D01*
X8351309Y-24773881D01*
X8341786Y-24735786D01*
X8341786Y-24688167D01*
X8351309Y-24650071D01*
X8360833Y-24631024D01*
X8370357Y-24621500D01*
X8389405Y-24611976D01*
X8579881Y-24611976D02*
X8598929Y-24611976D01*
X8617976Y-24621500D01*
X8627500Y-24631024D01*
X8637024Y-24650071D01*
X8646548Y-24688167D01*
X8646548Y-24735786D01*
X8637024Y-24773881D01*
X8627500Y-24792928D01*
X8617976Y-24802452D01*
X8598929Y-24811976D01*
X8579881Y-24811976D01*
X8560833Y-24802452D01*
X8551310Y-24792928D01*
X8541786Y-24773881D01*
X8532262Y-24735786D01*
X8532262Y-24688167D01*
X8541786Y-24650071D01*
X8551310Y-24631024D01*
X8560833Y-24621500D01*
X8579881Y-24611976D01*
X8732262Y-24811976D02*
X8732262Y-24678643D01*
X8732262Y-24697690D02*
X8741786Y-24688167D01*
X8760833Y-24678643D01*
X8789405Y-24678643D01*
X8808452Y-24688167D01*
X8817976Y-24707214D01*
X8817976Y-24811976D01*
X8817976Y-24707214D02*
X8827500Y-24688167D01*
X8846548Y-24678643D01*
X8875119Y-24678643D01*
X8894167Y-24688167D01*
X8903690Y-24707214D01*
X8903690Y-24811976D01*
X8998929Y-24811976D02*
X8998929Y-24678643D01*
X8998929Y-24697690D02*
X9008452Y-24688167D01*
X9027500Y-24678643D01*
X9056071Y-24678643D01*
X9075119Y-24688167D01*
X9084643Y-24707214D01*
X9084643Y-24811976D01*
X9084643Y-24707214D02*
X9094167Y-24688167D01*
X9113214Y-24678643D01*
X9141786Y-24678643D01*
X9160833Y-24688167D01*
X9170357Y-24707214D01*
X9170357Y-24811976D01*
X9560833Y-24602452D02*
X9389405Y-24859595D01*
X9817976Y-24611976D02*
X9837024Y-24611976D01*
X9856071Y-24621500D01*
X9865595Y-24631024D01*
X9875119Y-24650071D01*
X9884643Y-24688167D01*
X9884643Y-24735786D01*
X9875119Y-24773881D01*
X9865595Y-24792928D01*
X9856071Y-24802452D01*
X9837024Y-24811976D01*
X9817976Y-24811976D01*
X9798929Y-24802452D01*
X9789405Y-24792928D01*
X9779881Y-24773881D01*
X9770357Y-24735786D01*
X9770357Y-24688167D01*
X9779881Y-24650071D01*
X9789405Y-24631024D01*
X9798929Y-24621500D01*
X9817976Y-24611976D01*
X9970357Y-24792928D02*
X9979881Y-24802452D01*
X9970357Y-24811976D01*
X9960833Y-24802452D01*
X9970357Y-24792928D01*
X9970357Y-24811976D01*
X10170357Y-24811976D02*
X10056071Y-24811976D01*
X10113214Y-24811976D02*
X10113214Y-24611976D01*
X10094167Y-24640548D01*
X10075119Y-24659595D01*
X10056071Y-24669119D01*
X10246548Y-24631024D02*
X10256071Y-24621500D01*
X10275119Y-24611976D01*
X10322738Y-24611976D01*
X10341786Y-24621500D01*
X10351310Y-24631024D01*
X10360833Y-24650071D01*
X10360833Y-24669119D01*
X10351310Y-24697690D01*
X10237024Y-24811976D01*
X10360833Y-24811976D01*
X10532262Y-24611976D02*
X10494167Y-24611976D01*
X10475119Y-24621500D01*
X10465595Y-24631024D01*
X10446548Y-24659595D01*
X10437024Y-24697690D01*
X10437024Y-24773881D01*
X10446548Y-24792928D01*
X10456071Y-24802452D01*
X10475119Y-24811976D01*
X10513214Y-24811976D01*
X10532262Y-24802452D01*
X10541786Y-24792928D01*
X10551310Y-24773881D01*
X10551310Y-24726262D01*
X10541786Y-24707214D01*
X10532262Y-24697690D01*
X10513214Y-24688167D01*
X10475119Y-24688167D01*
X10456071Y-24697690D01*
X10446548Y-24707214D01*
X10437024Y-24726262D01*
X10675119Y-24611976D02*
X10694167Y-24611976D01*
X10713214Y-24621500D01*
X10722738Y-24631024D01*
X10732262Y-24650071D01*
X10741786Y-24688167D01*
X10741786Y-24735786D01*
X10732262Y-24773881D01*
X10722738Y-24792928D01*
X10713214Y-24802452D01*
X10694167Y-24811976D01*
X10675119Y-24811976D01*
X10656071Y-24802452D01*
X10646548Y-24792928D01*
X10637024Y-24773881D01*
X10627500Y-24735786D01*
X10627500Y-24688167D01*
X10637024Y-24650071D01*
X10646548Y-24631024D01*
X10656071Y-24621500D01*
X10675119Y-24611976D01*
X10817976Y-24611976D02*
X10817976Y-24650071D01*
X10894167Y-24611976D02*
X10894167Y-24650071D01*
X11189405Y-24888167D02*
X11179881Y-24878643D01*
X11160833Y-24850071D01*
X11151310Y-24831024D01*
X11141786Y-24802452D01*
X11132262Y-24754833D01*
X11132262Y-24716738D01*
X11141786Y-24669119D01*
X11151310Y-24640548D01*
X11160833Y-24621500D01*
X11179881Y-24592928D01*
X11189405Y-24583405D01*
X11351309Y-24678643D02*
X11351309Y-24811976D01*
X11303690Y-24602452D02*
X11256071Y-24745309D01*
X11379881Y-24745309D01*
X11608452Y-24811976D02*
X11608452Y-24611976D01*
X11694167Y-24811976D02*
X11694167Y-24707214D01*
X11684643Y-24688167D01*
X11665595Y-24678643D01*
X11637024Y-24678643D01*
X11617976Y-24688167D01*
X11608452Y-24697690D01*
X11817976Y-24811976D02*
X11798928Y-24802452D01*
X11789405Y-24792928D01*
X11779881Y-24773881D01*
X11779881Y-24716738D01*
X11789405Y-24697690D01*
X11798928Y-24688167D01*
X11817976Y-24678643D01*
X11846548Y-24678643D01*
X11865595Y-24688167D01*
X11875119Y-24697690D01*
X11884643Y-24716738D01*
X11884643Y-24773881D01*
X11875119Y-24792928D01*
X11865595Y-24802452D01*
X11846548Y-24811976D01*
X11817976Y-24811976D01*
X11998928Y-24811976D02*
X11979881Y-24802452D01*
X11970357Y-24783405D01*
X11970357Y-24611976D01*
X12151309Y-24802452D02*
X12132262Y-24811976D01*
X12094167Y-24811976D01*
X12075119Y-24802452D01*
X12065595Y-24783405D01*
X12065595Y-24707214D01*
X12075119Y-24688167D01*
X12094167Y-24678643D01*
X12132262Y-24678643D01*
X12151309Y-24688167D01*
X12160833Y-24707214D01*
X12160833Y-24726262D01*
X12065595Y-24745309D01*
X12237024Y-24802452D02*
X12256071Y-24811976D01*
X12294167Y-24811976D01*
X12313214Y-24802452D01*
X12322738Y-24783405D01*
X12322738Y-24773881D01*
X12313214Y-24754833D01*
X12294167Y-24745309D01*
X12265595Y-24745309D01*
X12246548Y-24735786D01*
X12237024Y-24716738D01*
X12237024Y-24707214D01*
X12246548Y-24688167D01*
X12265595Y-24678643D01*
X12294167Y-24678643D01*
X12313214Y-24688167D01*
X12389405Y-24888167D02*
X12398928Y-24878643D01*
X12417976Y-24850071D01*
X12427500Y-24831024D01*
X12437024Y-24802452D01*
X12446548Y-24754833D01*
X12446548Y-24716738D01*
X12437024Y-24669119D01*
X12427500Y-24640548D01*
X12417976Y-24621500D01*
X12398928Y-24592928D01*
X12389405Y-24583405D01*
M02*
