G04 #@! TF.GenerationSoftware,KiCad,Pcbnew,6.0.0*
G04 #@! TF.CreationDate,2022-01-19T14:54:03+13:00*
G04 #@! TF.ProjectId,segment_60_PCB,7365676d-656e-4745-9f36-305f5043422e,1.0.0*
G04 #@! TF.SameCoordinates,Original*
G04 #@! TF.FileFunction,Soldermask,Bot*
G04 #@! TF.FilePolarity,Negative*
%FSLAX46Y46*%
G04 Gerber Fmt 4.6, Leading zero omitted, Abs format (unit mm)*
G04 Created by KiCad (PCBNEW 6.0.0) date 2022-01-19 14:54:03*
%MOMM*%
%LPD*%
G01*
G04 APERTURE LIST*
G04 Aperture macros list*
%AMRoundRect*
0 Rectangle with rounded corners*
0 $1 Rounding radius*
0 $2 $3 $4 $5 $6 $7 $8 $9 X,Y pos of 4 corners*
0 Add a 4 corners polygon primitive as box body*
4,1,4,$2,$3,$4,$5,$6,$7,$8,$9,$2,$3,0*
0 Add four circle primitives for the rounded corners*
1,1,$1+$1,$2,$3*
1,1,$1+$1,$4,$5*
1,1,$1+$1,$6,$7*
1,1,$1+$1,$8,$9*
0 Add four rect primitives between the rounded corners*
20,1,$1+$1,$2,$3,$4,$5,0*
20,1,$1+$1,$4,$5,$6,$7,0*
20,1,$1+$1,$6,$7,$8,$9,0*
20,1,$1+$1,$8,$9,$2,$3,0*%
%AMHorizOval*
0 Thick line with rounded ends*
0 $1 width*
0 $2 $3 position (X,Y) of the first rounded end (center of the circle)*
0 $4 $5 position (X,Y) of the second rounded end (center of the circle)*
0 Add line between two ends*
20,1,$1,$2,$3,$4,$5,0*
0 Add two circle primitives to create the rounded ends*
1,1,$1,$2,$3*
1,1,$1,$4,$5*%
G04 Aperture macros list end*
%ADD10C,1.800000*%
%ADD11C,4.100000*%
%ADD12C,2.300000*%
%ADD13C,3.150000*%
%ADD14O,3.546250X1.800000*%
%ADD15O,2.435000X1.800000*%
%ADD16O,3.540000X1.800000*%
%ADD17RoundRect,0.299900X0.600100X-0.600100X0.600100X0.600100X-0.600100X0.600100X-0.600100X-0.600100X0*%
%ADD18C,2.500000*%
%ADD19HorizOval,2.500000X0.000000X0.000000X0.000000X0.000000X0*%
%ADD20C,1.700000*%
%ADD21O,1.700000X1.700000*%
%ADD22HorizOval,1.700000X0.000000X0.000000X0.000000X0.000000X0*%
%ADD23HorizOval,1.700000X0.000000X0.000000X0.000000X0.000000X0*%
%ADD24HorizOval,1.700000X0.000000X0.000000X0.000000X0.000000X0*%
%ADD25HorizOval,1.700000X0.000000X0.000000X0.000000X0.000000X0*%
%ADD26C,2.100000*%
%ADD27C,1.600000*%
%ADD28C,1.900000*%
%ADD29C,3.300000*%
%ADD30C,6.500000*%
%ADD31HorizOval,4.100000X1.187675X-0.642174X-1.187675X0.642174X0*%
%ADD32HorizOval,4.100000X0.642174X-1.187675X-0.642174X1.187675X0*%
%ADD33C,3.149999*%
G04 APERTURE END LIST*
D10*
X357505000Y-193675000D03*
X347345000Y-193675000D03*
D11*
X352425000Y-193675000D03*
D12*
X348615000Y-191135000D03*
X354965000Y-188595000D03*
D10*
X109220000Y-155575000D03*
D11*
X114300000Y-155575000D03*
D10*
X119380000Y-155575000D03*
D12*
X110490000Y-153035000D03*
X116840000Y-150495000D03*
D11*
X352418750Y-166385000D03*
D13*
X352418750Y-181625000D03*
D10*
X345598750Y-174625000D03*
D14*
X334565625Y-174625000D03*
D10*
X323532500Y-174625000D03*
D13*
X328618750Y-181625000D03*
D11*
X328612500Y-174625000D03*
X328618750Y-166385000D03*
X340518750Y-174625000D03*
D12*
X336708750Y-172085000D03*
X324802500Y-172085000D03*
X343058750Y-169545000D03*
X331152500Y-169545000D03*
D10*
X219392500Y-174625000D03*
D11*
X214312500Y-174625000D03*
D10*
X209232500Y-174625000D03*
D12*
X210502500Y-172085000D03*
X216852500Y-169545000D03*
D10*
X266382500Y-174625000D03*
D11*
X271462500Y-174625000D03*
D10*
X276542500Y-174625000D03*
D12*
X267652500Y-172085000D03*
X274002500Y-169545000D03*
D10*
X214630000Y-155575000D03*
D11*
X209550000Y-155575000D03*
D10*
X204470000Y-155575000D03*
D12*
X205740000Y-153035000D03*
X212090000Y-150495000D03*
D10*
X147955000Y-136525000D03*
X137795000Y-136525000D03*
D11*
X142875000Y-136525000D03*
D12*
X139065000Y-133985000D03*
X145415000Y-131445000D03*
D11*
X109537500Y-193675000D03*
D10*
X104457500Y-193675000D03*
X114617500Y-193675000D03*
D12*
X105727500Y-191135000D03*
X112077500Y-188595000D03*
D13*
X247656250Y-219725000D03*
D10*
X264636250Y-212725000D03*
X254476250Y-212725000D03*
D11*
X247656250Y-204485000D03*
X271456250Y-204485000D03*
D13*
X271456250Y-219725000D03*
D11*
X259556250Y-212725000D03*
D12*
X255746250Y-210185000D03*
X262096250Y-207645000D03*
D10*
X280670000Y-155575000D03*
X290830000Y-155575000D03*
D11*
X285750000Y-155575000D03*
D12*
X281940000Y-153035000D03*
X288290000Y-150495000D03*
D10*
X128905000Y-136525000D03*
X118745000Y-136525000D03*
D11*
X123825000Y-136525000D03*
D12*
X120015000Y-133985000D03*
X126365000Y-131445000D03*
D11*
X176212500Y-174625000D03*
D10*
X181292500Y-174625000D03*
X171132500Y-174625000D03*
D12*
X172402500Y-172085000D03*
X178752500Y-169545000D03*
D11*
X185737500Y-193675000D03*
D10*
X180657500Y-193675000D03*
X190817500Y-193675000D03*
D12*
X181927500Y-191135000D03*
X188277500Y-188595000D03*
D10*
X342582500Y-212725000D03*
D11*
X347662500Y-212725000D03*
D10*
X352742500Y-212725000D03*
D12*
X343852500Y-210185000D03*
X350202500Y-207645000D03*
D11*
X166687500Y-193675000D03*
D10*
X161607500Y-193675000D03*
X171767500Y-193675000D03*
D12*
X162877500Y-191135000D03*
X169227500Y-188595000D03*
D10*
X340836250Y-193675000D03*
X321151250Y-193675000D03*
D11*
X323856250Y-185435000D03*
X347656250Y-185435000D03*
X335756250Y-193675000D03*
D15*
X330993750Y-193675000D03*
D13*
X323856250Y-200675000D03*
D11*
X326231250Y-193675000D03*
D13*
X347656250Y-200675000D03*
D12*
X322421250Y-191135000D03*
X331946250Y-191135000D03*
X328771250Y-188595000D03*
X338296250Y-188595000D03*
D11*
X114300000Y-212725000D03*
D10*
X119380000Y-212725000D03*
X109220000Y-212725000D03*
D12*
X110490000Y-210185000D03*
X116840000Y-207645000D03*
D10*
X305117500Y-193675000D03*
X294957500Y-193675000D03*
D11*
X300037500Y-193675000D03*
D12*
X296227500Y-191135000D03*
X302577500Y-188595000D03*
D10*
X328930000Y-212725000D03*
D11*
X323850000Y-212725000D03*
D10*
X318770000Y-212725000D03*
D12*
X320040000Y-210185000D03*
X326390000Y-207645000D03*
D10*
X143192500Y-212725000D03*
X133032500Y-212725000D03*
D11*
X138112500Y-212725000D03*
D12*
X134302500Y-210185000D03*
X140652500Y-207645000D03*
D11*
X90487500Y-155575000D03*
D10*
X85407500Y-155575000D03*
X95567500Y-155575000D03*
D12*
X86677500Y-153035000D03*
X93027500Y-150495000D03*
D10*
X295592500Y-174625000D03*
X285432500Y-174625000D03*
D11*
X290512500Y-174625000D03*
D12*
X286702500Y-172085000D03*
X293052500Y-169545000D03*
D10*
X247967500Y-193675000D03*
D11*
X242887500Y-193675000D03*
D10*
X237807500Y-193675000D03*
D12*
X239077500Y-191135000D03*
X245427500Y-188595000D03*
D10*
X271145000Y-136525000D03*
X281305000Y-136525000D03*
D11*
X276225000Y-136525000D03*
D12*
X272415000Y-133985000D03*
X278765000Y-131445000D03*
D10*
X213995000Y-136525000D03*
D11*
X219075000Y-136525000D03*
D10*
X224155000Y-136525000D03*
D12*
X215265000Y-133985000D03*
X221615000Y-131445000D03*
D10*
X233680000Y-155575000D03*
D11*
X228600000Y-155575000D03*
D10*
X223520000Y-155575000D03*
D12*
X224790000Y-153035000D03*
X231140000Y-150495000D03*
D10*
X275907500Y-193675000D03*
X286067500Y-193675000D03*
D11*
X280987500Y-193675000D03*
D12*
X277177500Y-191135000D03*
X283527500Y-188595000D03*
D10*
X318770000Y-155575000D03*
X328930000Y-155575000D03*
D11*
X323850000Y-155575000D03*
D12*
X320040000Y-153035000D03*
X326390000Y-150495000D03*
D11*
X300037500Y-212725000D03*
D10*
X305117500Y-212725000D03*
X294957500Y-212725000D03*
D12*
X296227500Y-210185000D03*
X302577500Y-207645000D03*
D10*
X113982500Y-174625000D03*
D11*
X119062500Y-174625000D03*
D10*
X124142500Y-174625000D03*
D12*
X115252500Y-172085000D03*
X121602500Y-169545000D03*
D10*
X152082500Y-174625000D03*
X162242500Y-174625000D03*
D11*
X157162500Y-174625000D03*
D12*
X153352500Y-172085000D03*
X159702500Y-169545000D03*
D10*
X167005000Y-136525000D03*
X156845000Y-136525000D03*
D11*
X161925000Y-136525000D03*
D12*
X158115000Y-133985000D03*
X164465000Y-131445000D03*
D10*
X304482500Y-174625000D03*
D11*
X309562500Y-174625000D03*
D10*
X314642500Y-174625000D03*
D12*
X305752500Y-172085000D03*
X312102500Y-169545000D03*
D11*
X257175000Y-136525000D03*
D10*
X252095000Y-136525000D03*
X262255000Y-136525000D03*
D12*
X253365000Y-133985000D03*
X259715000Y-131445000D03*
D11*
X171450000Y-155575000D03*
D10*
X176530000Y-155575000D03*
X166370000Y-155575000D03*
D12*
X167640000Y-153035000D03*
X173990000Y-150495000D03*
D10*
X209867500Y-193675000D03*
D11*
X204787500Y-193675000D03*
D10*
X199707500Y-193675000D03*
D12*
X200977500Y-191135000D03*
X207327500Y-188595000D03*
D10*
X267017500Y-193675000D03*
D11*
X261937500Y-193675000D03*
D10*
X256857500Y-193675000D03*
D12*
X258127500Y-191135000D03*
X264477500Y-188595000D03*
D11*
X104775000Y-136525000D03*
D10*
X109855000Y-136525000D03*
X99695000Y-136525000D03*
D12*
X100965000Y-133985000D03*
X107315000Y-131445000D03*
D11*
X138112500Y-174625000D03*
D10*
X133032500Y-174625000D03*
X143192500Y-174625000D03*
D12*
X134302500Y-172085000D03*
X140652500Y-169545000D03*
D10*
X257492500Y-174625000D03*
D11*
X252412500Y-174625000D03*
D10*
X247332500Y-174625000D03*
D12*
X248602500Y-172085000D03*
X254952500Y-169545000D03*
D11*
X128587500Y-193675000D03*
D10*
X123507500Y-193675000D03*
X133667500Y-193675000D03*
D12*
X124777500Y-191135000D03*
X131127500Y-188595000D03*
D10*
X252730000Y-155575000D03*
X242570000Y-155575000D03*
D11*
X247650000Y-155575000D03*
D12*
X243840000Y-153035000D03*
X250190000Y-150495000D03*
D10*
X261620000Y-155575000D03*
X271780000Y-155575000D03*
D11*
X266700000Y-155575000D03*
D12*
X262890000Y-153035000D03*
X269240000Y-150495000D03*
D11*
X152400000Y-155575000D03*
D10*
X147320000Y-155575000D03*
X157480000Y-155575000D03*
D12*
X148590000Y-153035000D03*
X154940000Y-150495000D03*
D10*
X195580000Y-155575000D03*
X185420000Y-155575000D03*
D11*
X190500000Y-155575000D03*
D12*
X186690000Y-153035000D03*
X193040000Y-150495000D03*
D10*
X138430000Y-155575000D03*
D11*
X133350000Y-155575000D03*
D10*
X128270000Y-155575000D03*
D12*
X129540000Y-153035000D03*
X135890000Y-150495000D03*
D11*
X180975000Y-136525000D03*
D10*
X175895000Y-136525000D03*
X186055000Y-136525000D03*
D12*
X177165000Y-133985000D03*
X183515000Y-131445000D03*
D10*
X194945000Y-136525000D03*
X205105000Y-136525000D03*
D11*
X200025000Y-136525000D03*
D12*
X196215000Y-133985000D03*
X202565000Y-131445000D03*
D11*
X109531250Y-185435000D03*
D16*
X103581250Y-193675000D03*
D10*
X83026250Y-193675000D03*
D11*
X97631250Y-193675000D03*
D13*
X109531250Y-200675000D03*
X85731250Y-200675000D03*
D15*
X92868750Y-193675000D03*
D11*
X88106250Y-193675000D03*
X85731250Y-185435000D03*
D12*
X93821250Y-191135000D03*
X84296250Y-191135000D03*
X100171250Y-188595000D03*
X90646250Y-188595000D03*
D11*
X195262500Y-174625000D03*
D10*
X200342500Y-174625000D03*
X190182500Y-174625000D03*
D12*
X191452500Y-172085000D03*
X197802500Y-169545000D03*
D11*
X223837500Y-193675000D03*
D10*
X218757500Y-193675000D03*
X228917500Y-193675000D03*
D12*
X220027500Y-191135000D03*
X226377500Y-188595000D03*
D11*
X238125000Y-136525000D03*
D10*
X233045000Y-136525000D03*
X243205000Y-136525000D03*
D12*
X234315000Y-133985000D03*
X240665000Y-131445000D03*
D10*
X228282500Y-174625000D03*
D11*
X233362500Y-174625000D03*
D10*
X238442500Y-174625000D03*
D12*
X229552500Y-172085000D03*
X235902500Y-169545000D03*
D11*
X147637500Y-193675000D03*
D10*
X152717500Y-193675000D03*
X142557500Y-193675000D03*
D12*
X143827500Y-191135000D03*
X150177500Y-188595000D03*
D11*
X178593750Y-212725000D03*
D10*
X183673750Y-212725000D03*
D11*
X190493750Y-204485000D03*
D13*
X190493750Y-219725000D03*
D10*
X173513750Y-212725000D03*
D13*
X166693750Y-219725000D03*
D11*
X166693750Y-204485000D03*
D12*
X174783750Y-210185000D03*
X181133750Y-207645000D03*
D10*
X300355000Y-136525000D03*
D11*
X295275000Y-136525000D03*
D10*
X290195000Y-136525000D03*
D12*
X291465000Y-133985000D03*
X297815000Y-131445000D03*
D10*
X299720000Y-155575000D03*
D11*
X304800000Y-155575000D03*
D10*
X309880000Y-155575000D03*
D12*
X300990000Y-153035000D03*
X307340000Y-150495000D03*
D17*
X197485000Y-100330000D03*
D10*
X197485000Y-97790000D03*
X200025000Y-100330000D03*
X200025000Y-97790000D03*
X202565000Y-100330000D03*
X202565000Y-97790000D03*
X205105000Y-100330000D03*
X205105000Y-97790000D03*
X207645000Y-100330000D03*
X207645000Y-97790000D03*
X210185000Y-100330000D03*
X210185000Y-97790000D03*
D18*
X187325000Y-100840000D03*
D19*
X187325000Y-118840000D03*
D20*
X199072500Y-118110000D03*
D21*
X199072500Y-107950000D03*
D20*
X205422500Y-107950000D03*
D22*
X205422500Y-118110000D03*
D20*
X192722500Y-107950000D03*
D22*
X192722500Y-118110000D03*
D20*
X85090000Y-95885000D03*
D21*
X92710000Y-95885000D03*
D20*
X97790000Y-95885000D03*
D21*
X105410000Y-95885000D03*
D20*
X195897500Y-118110000D03*
D21*
X195897500Y-107950000D03*
D20*
X219075000Y-111760000D03*
D21*
X221615000Y-111760000D03*
X224155000Y-111760000D03*
X226695000Y-111760000D03*
X229235000Y-111760000D03*
X231775000Y-111760000D03*
X234315000Y-111760000D03*
D23*
X236855000Y-111760000D03*
D21*
X239395000Y-111760000D03*
X241935000Y-111760000D03*
X244475000Y-111760000D03*
X247015000Y-111760000D03*
X249555000Y-111760000D03*
X252095000Y-111760000D03*
X252095000Y-104140000D03*
X249555000Y-104140000D03*
X247015000Y-104140000D03*
X244475000Y-104140000D03*
X241935000Y-104140000D03*
X239395000Y-104140000D03*
X236855000Y-104140000D03*
D23*
X234315000Y-104140000D03*
D21*
X231775000Y-104140000D03*
X229235000Y-104140000D03*
X226695000Y-104140000D03*
X224155000Y-104140000D03*
X221615000Y-104140000D03*
X219075000Y-104140000D03*
D20*
X202247500Y-107950000D03*
D22*
X202247500Y-118110000D03*
D20*
X276860000Y-95885000D03*
D24*
X269240000Y-95885000D03*
D20*
X135890000Y-100965000D03*
D25*
X135890000Y-103505000D03*
D21*
X135890000Y-106045000D03*
D25*
X135890000Y-108585000D03*
D21*
X135890000Y-111125000D03*
D25*
X135890000Y-113665000D03*
D21*
X135890000Y-116205000D03*
D25*
X135890000Y-118745000D03*
D21*
X143510000Y-118745000D03*
D25*
X143510000Y-116205000D03*
D21*
X143510000Y-113665000D03*
D25*
X143510000Y-111125000D03*
D21*
X143510000Y-108585000D03*
D25*
X143510000Y-106045000D03*
X143510000Y-103505000D03*
D21*
X143510000Y-100965000D03*
D20*
X332740000Y-95885000D03*
D21*
X340360000Y-95885000D03*
D20*
X307340000Y-95885000D03*
D21*
X314960000Y-95885000D03*
D26*
X225575000Y-93290000D03*
X219075000Y-93290000D03*
X219075000Y-97790000D03*
X225575000Y-97790000D03*
D20*
X345440000Y-95885000D03*
D21*
X353060000Y-95885000D03*
D20*
X236855000Y-118110000D03*
X236855000Y-115610000D03*
X161290000Y-100965000D03*
D25*
X161290000Y-103505000D03*
D21*
X161290000Y-106045000D03*
D25*
X161290000Y-108585000D03*
D21*
X161290000Y-111125000D03*
D25*
X161290000Y-113665000D03*
D21*
X161290000Y-116205000D03*
D25*
X161290000Y-118745000D03*
D21*
X168910000Y-118745000D03*
D25*
X168910000Y-116205000D03*
D21*
X168910000Y-113665000D03*
D25*
X168910000Y-111125000D03*
D21*
X168910000Y-108585000D03*
D25*
X168910000Y-106045000D03*
X168910000Y-103505000D03*
D21*
X168910000Y-100965000D03*
D20*
X345440000Y-100965000D03*
D25*
X345440000Y-103505000D03*
D21*
X345440000Y-106045000D03*
D25*
X345440000Y-108585000D03*
D21*
X345440000Y-111125000D03*
D25*
X345440000Y-113665000D03*
D21*
X345440000Y-116205000D03*
D25*
X345440000Y-118745000D03*
D21*
X353060000Y-118745000D03*
D25*
X353060000Y-116205000D03*
D21*
X353060000Y-113665000D03*
D25*
X353060000Y-111125000D03*
D21*
X353060000Y-108585000D03*
D25*
X353060000Y-106045000D03*
X353060000Y-103505000D03*
D21*
X353060000Y-100965000D03*
D20*
X148590000Y-100965000D03*
D25*
X148590000Y-103505000D03*
D21*
X148590000Y-106045000D03*
D25*
X148590000Y-108585000D03*
D21*
X148590000Y-111125000D03*
D25*
X148590000Y-113665000D03*
D21*
X148590000Y-116205000D03*
D25*
X148590000Y-118745000D03*
D21*
X156210000Y-118745000D03*
D25*
X156210000Y-116205000D03*
D21*
X156210000Y-113665000D03*
D25*
X156210000Y-111125000D03*
D21*
X156210000Y-108585000D03*
D25*
X156210000Y-106045000D03*
X156210000Y-103505000D03*
D21*
X156210000Y-100965000D03*
D20*
X234315000Y-114935000D03*
D21*
X224155000Y-114935000D03*
D20*
X252095000Y-115610000D03*
X252095000Y-118110000D03*
X97790000Y-100965000D03*
D25*
X97790000Y-103505000D03*
D21*
X97790000Y-106045000D03*
D25*
X97790000Y-108585000D03*
D21*
X97790000Y-111125000D03*
D25*
X97790000Y-113665000D03*
D21*
X97790000Y-116205000D03*
D25*
X97790000Y-118745000D03*
D21*
X105410000Y-118745000D03*
D25*
X105410000Y-116205000D03*
D21*
X105410000Y-113665000D03*
D25*
X105410000Y-111125000D03*
D21*
X105410000Y-108585000D03*
D25*
X105410000Y-106045000D03*
X105410000Y-103505000D03*
D21*
X105410000Y-100965000D03*
D20*
X307340000Y-100965000D03*
D25*
X307340000Y-103505000D03*
D21*
X307340000Y-106045000D03*
D25*
X307340000Y-108585000D03*
D21*
X307340000Y-111125000D03*
D25*
X307340000Y-113665000D03*
D21*
X307340000Y-116205000D03*
D25*
X307340000Y-118745000D03*
D21*
X314960000Y-118745000D03*
D25*
X314960000Y-116205000D03*
D21*
X314960000Y-113665000D03*
D25*
X314960000Y-111125000D03*
D21*
X314960000Y-108585000D03*
D25*
X314960000Y-106045000D03*
X314960000Y-103505000D03*
D21*
X314960000Y-100965000D03*
D20*
X320040000Y-100965000D03*
D25*
X320040000Y-103505000D03*
D21*
X320040000Y-106045000D03*
D25*
X320040000Y-108585000D03*
D21*
X320040000Y-111125000D03*
D25*
X320040000Y-113665000D03*
D21*
X320040000Y-116205000D03*
D25*
X320040000Y-118745000D03*
D21*
X327660000Y-118745000D03*
D25*
X327660000Y-116205000D03*
D21*
X327660000Y-113665000D03*
D25*
X327660000Y-111125000D03*
D21*
X327660000Y-108585000D03*
D25*
X327660000Y-106045000D03*
X327660000Y-103505000D03*
D21*
X327660000Y-100965000D03*
D20*
X110490000Y-95885000D03*
D21*
X118110000Y-95885000D03*
D20*
X281940000Y-95885000D03*
D21*
X289560000Y-95885000D03*
D20*
X256540000Y-100965000D03*
D21*
X256540000Y-103505000D03*
X256540000Y-106045000D03*
X256540000Y-108585000D03*
D25*
X256540000Y-111125000D03*
D21*
X256540000Y-113665000D03*
X256540000Y-116205000D03*
X256540000Y-118745000D03*
X264160000Y-118745000D03*
X264160000Y-116205000D03*
X264160000Y-113665000D03*
X264160000Y-111125000D03*
X264160000Y-108585000D03*
X264160000Y-106045000D03*
X264160000Y-103505000D03*
X264160000Y-100965000D03*
D20*
X214947500Y-118110000D03*
D21*
X214947500Y-107950000D03*
D20*
X264160000Y-95885000D03*
D24*
X256540000Y-95885000D03*
D20*
X211772500Y-118110000D03*
D21*
X211772500Y-107950000D03*
D27*
X242024999Y-116205000D03*
X246904999Y-116205000D03*
D20*
X123190000Y-100965000D03*
D25*
X123190000Y-103505000D03*
D21*
X123190000Y-106045000D03*
D25*
X123190000Y-108585000D03*
D21*
X123190000Y-111125000D03*
D25*
X123190000Y-113665000D03*
D21*
X123190000Y-116205000D03*
D25*
X123190000Y-118745000D03*
D21*
X130810000Y-118745000D03*
D25*
X130810000Y-116205000D03*
D21*
X130810000Y-113665000D03*
D25*
X130810000Y-111125000D03*
D21*
X130810000Y-108585000D03*
D25*
X130810000Y-106045000D03*
X130810000Y-103505000D03*
D21*
X130810000Y-100965000D03*
D20*
X294640000Y-95885000D03*
D21*
X302260000Y-95885000D03*
D20*
X320040000Y-95885000D03*
D21*
X327660000Y-95885000D03*
D28*
X250190000Y-96520000D03*
X250190000Y-93980000D03*
D29*
X80010000Y-92710000D03*
X358140000Y-92710000D03*
X358140000Y-118364000D03*
D20*
X332740000Y-100965000D03*
D25*
X332740000Y-103505000D03*
D21*
X332740000Y-106045000D03*
D25*
X332740000Y-108585000D03*
D21*
X332740000Y-111125000D03*
D25*
X332740000Y-113665000D03*
D21*
X332740000Y-116205000D03*
D25*
X332740000Y-118745000D03*
D21*
X340360000Y-118745000D03*
D25*
X340360000Y-116205000D03*
D21*
X340360000Y-113665000D03*
D25*
X340360000Y-111125000D03*
D21*
X340360000Y-108585000D03*
D25*
X340360000Y-106045000D03*
X340360000Y-103505000D03*
D21*
X340360000Y-100965000D03*
D20*
X161290000Y-95885000D03*
D21*
X168910000Y-95885000D03*
D20*
X110490000Y-100965000D03*
D25*
X110490000Y-103505000D03*
D21*
X110490000Y-106045000D03*
D25*
X110490000Y-108585000D03*
D21*
X110490000Y-111125000D03*
D25*
X110490000Y-113665000D03*
D21*
X110490000Y-116205000D03*
D25*
X110490000Y-118745000D03*
D21*
X118110000Y-118745000D03*
D25*
X118110000Y-116205000D03*
D21*
X118110000Y-113665000D03*
D25*
X118110000Y-111125000D03*
D21*
X118110000Y-108585000D03*
D25*
X118110000Y-106045000D03*
X118110000Y-103505000D03*
D21*
X118110000Y-100965000D03*
D20*
X234315000Y-118110000D03*
D21*
X224155000Y-118110000D03*
D20*
X123190000Y-95885000D03*
D21*
X130810000Y-95885000D03*
D20*
X173990000Y-100965000D03*
D25*
X173990000Y-103505000D03*
D21*
X173990000Y-106045000D03*
D25*
X173990000Y-108585000D03*
D21*
X173990000Y-111125000D03*
D25*
X173990000Y-113665000D03*
D21*
X173990000Y-116205000D03*
D25*
X173990000Y-118745000D03*
D21*
X181610000Y-118745000D03*
D25*
X181610000Y-116205000D03*
D21*
X181610000Y-113665000D03*
D25*
X181610000Y-111125000D03*
D21*
X181610000Y-108585000D03*
D25*
X181610000Y-106045000D03*
X181610000Y-103505000D03*
D21*
X181610000Y-100965000D03*
D20*
X294640000Y-100965000D03*
D25*
X294640000Y-103505000D03*
D21*
X294640000Y-106045000D03*
D25*
X294640000Y-108585000D03*
D21*
X294640000Y-111125000D03*
D25*
X294640000Y-113665000D03*
D21*
X294640000Y-116205000D03*
D25*
X294640000Y-118745000D03*
D21*
X302260000Y-118745000D03*
D25*
X302260000Y-116205000D03*
D21*
X302260000Y-113665000D03*
D25*
X302260000Y-111125000D03*
D21*
X302260000Y-108585000D03*
D25*
X302260000Y-106045000D03*
X302260000Y-103505000D03*
D21*
X302260000Y-100965000D03*
D20*
X135890000Y-95885000D03*
D21*
X143510000Y-95885000D03*
D26*
X234315000Y-93290000D03*
X240815000Y-93290000D03*
X234315000Y-97790000D03*
X240815000Y-97790000D03*
D20*
X241935000Y-100965000D03*
D21*
X252095000Y-100965000D03*
D20*
X281940000Y-100965000D03*
D25*
X281940000Y-103505000D03*
D21*
X281940000Y-106045000D03*
D25*
X281940000Y-108585000D03*
D21*
X281940000Y-111125000D03*
D25*
X281940000Y-113665000D03*
D21*
X281940000Y-116205000D03*
D25*
X281940000Y-118745000D03*
D21*
X289560000Y-118745000D03*
D25*
X289560000Y-116205000D03*
D21*
X289560000Y-113665000D03*
D25*
X289560000Y-111125000D03*
D21*
X289560000Y-108585000D03*
D25*
X289560000Y-106045000D03*
X289560000Y-103505000D03*
D21*
X289560000Y-100965000D03*
D20*
X85090000Y-100965000D03*
D25*
X85090000Y-103505000D03*
D21*
X85090000Y-106045000D03*
D25*
X85090000Y-108585000D03*
D21*
X85090000Y-111125000D03*
D25*
X85090000Y-113665000D03*
D21*
X85090000Y-116205000D03*
D25*
X85090000Y-118745000D03*
D21*
X92710000Y-118745000D03*
D25*
X92710000Y-116205000D03*
D21*
X92710000Y-113665000D03*
D25*
X92710000Y-111125000D03*
D21*
X92710000Y-108585000D03*
D25*
X92710000Y-106045000D03*
X92710000Y-103505000D03*
D21*
X92710000Y-100965000D03*
D20*
X148590000Y-95885000D03*
D21*
X156210000Y-95885000D03*
D30*
X198834375Y-212725000D03*
X335756250Y-212725000D03*
D20*
X173990000Y-95885000D03*
D21*
X181610000Y-95885000D03*
D29*
X80010000Y-118364000D03*
D20*
X234315000Y-100965000D03*
D21*
X231775000Y-100965000D03*
X229235000Y-100965000D03*
X226695000Y-100965000D03*
X224155000Y-100965000D03*
X221615000Y-100965000D03*
X219075000Y-100965000D03*
D20*
X208597500Y-107950000D03*
D21*
X208597500Y-118110000D03*
D20*
X269240000Y-100965000D03*
D21*
X269240000Y-103505000D03*
X269240000Y-106045000D03*
D25*
X269240000Y-108585000D03*
X269240000Y-111125000D03*
D21*
X269240000Y-113665000D03*
X269240000Y-116205000D03*
D25*
X269240000Y-118745000D03*
D21*
X276860000Y-118745000D03*
X276860000Y-116205000D03*
X276860000Y-113665000D03*
X276860000Y-111125000D03*
X276860000Y-108585000D03*
X276860000Y-106045000D03*
X276860000Y-103505000D03*
X276860000Y-100965000D03*
D28*
X187960000Y-96520000D03*
X187960000Y-93980000D03*
D11*
X85725000Y-136525000D03*
D10*
X90805000Y-136525000D03*
X80645000Y-136525000D03*
D12*
X81915000Y-133985000D03*
X88265000Y-131445000D03*
D10*
X309245000Y-136525000D03*
X319405000Y-136525000D03*
D11*
X314325000Y-136525000D03*
D12*
X310515000Y-133985000D03*
X316865000Y-131445000D03*
D30*
X102393750Y-212725000D03*
D11*
X352425000Y-136525000D03*
D10*
X357505000Y-136525000D03*
X347345000Y-136525000D03*
D12*
X356235000Y-139065000D03*
X349885000Y-141605000D03*
D11*
X92868750Y-174625000D03*
D10*
X93186250Y-174625000D03*
X87788750Y-174625000D03*
D11*
X88106250Y-174625000D03*
D10*
X97948750Y-174625000D03*
X83026250Y-174625000D03*
D12*
X90328750Y-179705000D03*
X84296250Y-172085000D03*
X96678750Y-177165000D03*
X90646250Y-169545000D03*
D13*
X357043750Y-153200000D03*
D11*
X347662500Y-155575000D03*
D31*
X351231250Y-165742500D03*
D32*
X341161250Y-175812500D03*
D10*
X347662500Y-150495000D03*
X350043750Y-170180000D03*
X347662500Y-160655000D03*
D11*
X341803750Y-153200000D03*
D10*
X350043750Y-160020000D03*
D13*
X357043750Y-177000000D03*
D12*
X347503750Y-168910000D03*
X352742500Y-158115000D03*
X344963750Y-162560000D03*
X350202500Y-151765000D03*
D11*
X276225000Y-204485000D03*
X161925000Y-204485000D03*
D10*
X213995000Y-212725000D03*
D11*
X219075000Y-212725000D03*
D33*
X276225000Y-219725000D03*
X161925000Y-219725000D03*
D10*
X224155000Y-212725000D03*
D12*
X215265000Y-210185000D03*
X221615000Y-207645000D03*
D30*
X239315625Y-212725000D03*
D10*
X95567500Y-212725000D03*
X85407500Y-212725000D03*
D11*
X90487500Y-212725000D03*
D12*
X86677500Y-210185000D03*
X93027500Y-207645000D03*
D11*
X331000000Y-144765000D03*
D13*
X354800000Y-129525000D03*
X331000000Y-129525000D03*
D11*
X354800000Y-144765000D03*
X333375000Y-136525000D03*
D15*
X347662500Y-136525000D03*
D11*
X342900000Y-136525000D03*
D10*
X328295000Y-136525000D03*
D15*
X338137500Y-136525000D03*
D12*
X329565000Y-133985000D03*
X339090000Y-133985000D03*
X335915000Y-131445000D03*
X345440000Y-131445000D03*
M02*
