G04 #@! TF.GenerationSoftware,KiCad,Pcbnew,6.0.0*
G04 #@! TF.CreationDate,2022-01-16T18:24:25+13:00*
G04 #@! TF.ProjectId,segment_60_PCB,7365676d-656e-4745-9f36-305f5043422e,1.0.0*
G04 #@! TF.SameCoordinates,Original*
G04 #@! TF.FileFunction,Legend,Top*
G04 #@! TF.FilePolarity,Positive*
%FSLAX46Y46*%
G04 Gerber Fmt 4.6, Leading zero omitted, Abs format (unit mm)*
G04 Created by KiCad (PCBNEW 6.0.0) date 2022-01-16 18:24:25*
%MOMM*%
%LPD*%
G01*
G04 APERTURE LIST*
G04 Aperture macros list*
%AMRoundRect*
0 Rectangle with rounded corners*
0 $1 Rounding radius*
0 $2 $3 $4 $5 $6 $7 $8 $9 X,Y pos of 4 corners*
0 Add a 4 corners polygon primitive as box body*
4,1,4,$2,$3,$4,$5,$6,$7,$8,$9,$2,$3,0*
0 Add four circle primitives for the rounded corners*
1,1,$1+$1,$2,$3*
1,1,$1+$1,$4,$5*
1,1,$1+$1,$6,$7*
1,1,$1+$1,$8,$9*
0 Add four rect primitives between the rounded corners*
20,1,$1+$1,$2,$3,$4,$5,0*
20,1,$1+$1,$4,$5,$6,$7,0*
20,1,$1+$1,$6,$7,$8,$9,0*
20,1,$1+$1,$8,$9,$2,$3,0*%
%AMHorizOval*
0 Thick line with rounded ends*
0 $1 width*
0 $2 $3 position (X,Y) of the first rounded end (center of the circle)*
0 $4 $5 position (X,Y) of the second rounded end (center of the circle)*
0 Add line between two ends*
20,1,$1,$2,$3,$4,$5,0*
0 Add two circle primitives to create the rounded ends*
1,1,$1,$2,$3*
1,1,$1,$4,$5*%
G04 Aperture macros list end*
%ADD10C,0.120000*%
%ADD11C,0.225000*%
%ADD12C,0.150000*%
%ADD13C,1.800000*%
%ADD14C,4.100000*%
%ADD15C,2.300000*%
%ADD16C,3.150000*%
%ADD17O,3.546250X1.800000*%
%ADD18O,2.435000X1.800000*%
%ADD19O,3.540000X1.800000*%
%ADD20RoundRect,0.299900X0.600100X-0.600100X0.600100X0.600100X-0.600100X0.600100X-0.600100X-0.600100X0*%
%ADD21C,2.500000*%
%ADD22HorizOval,2.500000X0.000000X0.000000X0.000000X0.000000X0*%
%ADD23C,1.700000*%
%ADD24O,1.700000X1.700000*%
%ADD25HorizOval,1.700000X0.000000X0.000000X0.000000X0.000000X0*%
%ADD26HorizOval,1.700000X0.000000X0.000000X0.000000X0.000000X0*%
%ADD27HorizOval,1.700000X0.000000X0.000000X0.000000X0.000000X0*%
%ADD28HorizOval,1.700000X0.000000X0.000000X0.000000X0.000000X0*%
%ADD29C,2.100000*%
%ADD30C,1.600000*%
%ADD31C,1.900000*%
%ADD32C,3.300000*%
%ADD33C,6.500000*%
%ADD34HorizOval,4.100000X1.187675X-0.642174X-1.187675X0.642174X0*%
%ADD35HorizOval,4.100000X0.642174X-1.187675X-0.642174X1.187675X0*%
%ADD36C,3.149999*%
G04 APERTURE END LIST*
D10*
X77343000Y-127000000D02*
X360807000Y-127000000D01*
X85915500Y-179070000D02*
X87503000Y-179070000D01*
X88493600Y-179070000D02*
X87503000Y-179070000D01*
X87503000Y-179070000D02*
G75*
G03*
X88138000Y-178435000I1J634999D01*
G01*
X88138000Y-178435000D02*
X88138000Y-177482500D01*
X92837000Y-178435000D02*
X92837000Y-177482500D01*
X92202000Y-179070000D02*
G75*
G03*
X92837000Y-178435000I1J634999D01*
G01*
X354330000Y-92710000D02*
G75*
G03*
X353695000Y-92075000I-634999J1D01*
G01*
X281305000Y-92075000D02*
G75*
G03*
X280670000Y-92710000I-1J-634999D01*
G01*
X354330000Y-92710000D02*
X354330000Y-93980000D01*
X182880000Y-92710000D02*
G75*
G03*
X182245000Y-92075000I-634999J1D01*
G01*
X281305000Y-92075000D02*
X353695000Y-92075000D01*
X255905000Y-92075000D02*
X277495000Y-92075000D01*
X84455000Y-92075000D02*
G75*
G03*
X83820000Y-92710000I-1J-634999D01*
G01*
X84455000Y-92075000D02*
X182245000Y-92075000D01*
X255905000Y-92075000D02*
G75*
G03*
X255270000Y-92710000I-1J-634999D01*
G01*
X83820000Y-92710000D02*
X83820000Y-93980000D01*
X278130000Y-92710000D02*
X278130000Y-93980000D01*
X278130000Y-92710000D02*
G75*
G03*
X277495000Y-92075000I-634999J1D01*
G01*
X255270000Y-93980000D02*
X255270000Y-92710000D01*
X280670000Y-93980000D02*
X280670000Y-92710000D01*
X182880000Y-92710000D02*
X182880000Y-93980000D01*
X333375000Y-140335000D02*
G75*
G03*
X334010000Y-140970000I634999J-1D01*
G01*
X335788000Y-197485000D02*
X335788000Y-196532500D01*
X335153000Y-198120000D02*
G75*
G03*
X335788000Y-197485000I1J634999D01*
G01*
X335153000Y-198120000D02*
X333565500Y-198120000D01*
X326263000Y-197485000D02*
G75*
G03*
X326898000Y-198120000I634999J-1D01*
G01*
X326898000Y-198120000D02*
X328485500Y-198120000D01*
X326263000Y-197485000D02*
X326263000Y-196532500D01*
X337185000Y-178435000D02*
X337185000Y-175260000D01*
X356870000Y-156210000D02*
G75*
G03*
X356235000Y-155575000I-634999J1D01*
G01*
X336550000Y-179070000D02*
X335407000Y-179070000D01*
X356235000Y-166687500D02*
G75*
G03*
X356870000Y-166052500I1J634999D01*
G01*
X356870000Y-166052500D02*
X356870000Y-163512500D01*
X328612500Y-178435000D02*
X328612500Y-177482500D01*
X356870000Y-156210000D02*
X356870000Y-158432500D01*
X356235000Y-166687500D02*
X355282500Y-166687500D01*
X336550000Y-179070000D02*
G75*
G03*
X337185000Y-178435000I1J634999D01*
G01*
X337820000Y-174625000D02*
G75*
G03*
X337185000Y-175260000I-1J-634999D01*
G01*
X329247500Y-179070000D02*
X330327000Y-179070000D01*
X88138000Y-197485000D02*
G75*
G03*
X88773000Y-198120000I634999J-1D01*
G01*
X342265000Y-140970000D02*
G75*
G03*
X342900000Y-140335000I1J634999D01*
G01*
X97028000Y-198120000D02*
G75*
G03*
X97663000Y-197485000I1J634999D01*
G01*
X195580000Y-93980000D02*
X195580000Y-91440000D01*
X342900000Y-140335000D02*
X342900000Y-139382500D01*
X97663000Y-197485000D02*
X97663000Y-196532500D01*
X356235000Y-155575000D02*
X350520000Y-155575000D01*
X88138000Y-197485000D02*
X88138000Y-196532500D01*
X212090000Y-93980000D02*
X212090000Y-91440000D01*
X334010000Y-140970000D02*
X335597500Y-140970000D01*
X97028000Y-198120000D02*
X95440500Y-198120000D01*
X333375000Y-140335000D02*
X333375000Y-139382500D01*
X342265000Y-140970000D02*
X340677500Y-140970000D01*
X88773000Y-198120000D02*
X90360500Y-198120000D01*
X328612500Y-178435000D02*
G75*
G03*
X329247500Y-179070000I634999J-1D01*
G01*
D11*
X248082857Y-90697857D02*
X247582857Y-90697857D01*
X247582857Y-91483571D02*
X247582857Y-89983571D01*
X248297142Y-89983571D01*
X248868571Y-89983571D02*
X248868571Y-91197857D01*
X248940000Y-91340714D01*
X249011428Y-91412142D01*
X249154285Y-91483571D01*
X249440000Y-91483571D01*
X249582857Y-91412142D01*
X249654285Y-91340714D01*
X249725714Y-91197857D01*
X249725714Y-89983571D01*
X250440000Y-91483571D02*
X250440000Y-89983571D01*
X251297142Y-91483571D01*
X251297142Y-89983571D01*
X252868571Y-91340714D02*
X252797142Y-91412142D01*
X252582857Y-91483571D01*
X252440000Y-91483571D01*
X252225714Y-91412142D01*
X252082857Y-91269285D01*
X252011428Y-91126428D01*
X251940000Y-90840714D01*
X251940000Y-90626428D01*
X252011428Y-90340714D01*
X252082857Y-90197857D01*
X252225714Y-90055000D01*
X252440000Y-89983571D01*
X252582857Y-89983571D01*
X252797142Y-90055000D01*
X252868571Y-90126428D01*
X263271428Y-91483571D02*
X263271428Y-89983571D01*
X263628571Y-89983571D01*
X263842857Y-90055000D01*
X263985714Y-90197857D01*
X264057142Y-90340714D01*
X264128571Y-90626428D01*
X264128571Y-90840714D01*
X264057142Y-91126428D01*
X263985714Y-91269285D01*
X263842857Y-91412142D01*
X263628571Y-91483571D01*
X263271428Y-91483571D01*
X264771428Y-90697857D02*
X265271428Y-90697857D01*
X265485714Y-91483571D02*
X264771428Y-91483571D01*
X264771428Y-89983571D01*
X265485714Y-89983571D01*
X266128571Y-91483571D02*
X266128571Y-89983571D01*
X266628571Y-91055000D01*
X267128571Y-89983571D01*
X267128571Y-91483571D01*
X267842857Y-89983571D02*
X267842857Y-91197857D01*
X267914285Y-91340714D01*
X267985714Y-91412142D01*
X268128571Y-91483571D01*
X268414285Y-91483571D01*
X268557142Y-91412142D01*
X268628571Y-91340714D01*
X268700000Y-91197857D01*
X268700000Y-89983571D01*
X269271428Y-89983571D02*
X270271428Y-91483571D01*
X270271428Y-89983571D02*
X269271428Y-91483571D01*
X220071428Y-91483571D02*
X219571428Y-90769285D01*
X219214285Y-91483571D02*
X219214285Y-89983571D01*
X219785714Y-89983571D01*
X219928571Y-90055000D01*
X220000000Y-90126428D01*
X220071428Y-90269285D01*
X220071428Y-90483571D01*
X220000000Y-90626428D01*
X219928571Y-90697857D01*
X219785714Y-90769285D01*
X219214285Y-90769285D01*
X220714285Y-90697857D02*
X221214285Y-90697857D01*
X221428571Y-91483571D02*
X220714285Y-91483571D01*
X220714285Y-89983571D01*
X221428571Y-89983571D01*
X222000000Y-91412142D02*
X222214285Y-91483571D01*
X222571428Y-91483571D01*
X222714285Y-91412142D01*
X222785714Y-91340714D01*
X222857142Y-91197857D01*
X222857142Y-91055000D01*
X222785714Y-90912142D01*
X222714285Y-90840714D01*
X222571428Y-90769285D01*
X222285714Y-90697857D01*
X222142857Y-90626428D01*
X222071428Y-90555000D01*
X222000000Y-90412142D01*
X222000000Y-90269285D01*
X222071428Y-90126428D01*
X222142857Y-90055000D01*
X222285714Y-89983571D01*
X222642857Y-89983571D01*
X222857142Y-90055000D01*
X223500000Y-90697857D02*
X224000000Y-90697857D01*
X224214285Y-91483571D02*
X223500000Y-91483571D01*
X223500000Y-89983571D01*
X224214285Y-89983571D01*
X224642857Y-89983571D02*
X225500000Y-89983571D01*
X225071428Y-91483571D02*
X225071428Y-89983571D01*
X314107142Y-90697857D02*
X314321428Y-90769285D01*
X314392857Y-90840714D01*
X314464285Y-90983571D01*
X314464285Y-91197857D01*
X314392857Y-91340714D01*
X314321428Y-91412142D01*
X314178571Y-91483571D01*
X313607142Y-91483571D01*
X313607142Y-89983571D01*
X314107142Y-89983571D01*
X314250000Y-90055000D01*
X314321428Y-90126428D01*
X314392857Y-90269285D01*
X314392857Y-90412142D01*
X314321428Y-90555000D01*
X314250000Y-90626428D01*
X314107142Y-90697857D01*
X313607142Y-90697857D01*
X315035714Y-91055000D02*
X315750000Y-91055000D01*
X314892857Y-91483571D02*
X315392857Y-89983571D01*
X315892857Y-91483571D01*
X316392857Y-91483571D02*
X316392857Y-89983571D01*
X317250000Y-91483571D01*
X317250000Y-89983571D01*
X317964285Y-91483571D02*
X317964285Y-89983571D01*
X318821428Y-91483571D02*
X318178571Y-90626428D01*
X318821428Y-89983571D02*
X317964285Y-90840714D01*
X321107142Y-90697857D02*
X321321428Y-90769285D01*
X321392857Y-90840714D01*
X321464285Y-90983571D01*
X321464285Y-91197857D01*
X321392857Y-91340714D01*
X321321428Y-91412142D01*
X321178571Y-91483571D01*
X320607142Y-91483571D01*
X320607142Y-89983571D01*
X321107142Y-89983571D01*
X321250000Y-90055000D01*
X321321428Y-90126428D01*
X321392857Y-90269285D01*
X321392857Y-90412142D01*
X321321428Y-90555000D01*
X321250000Y-90626428D01*
X321107142Y-90697857D01*
X320607142Y-90697857D01*
X235454285Y-90697857D02*
X235668571Y-90769285D01*
X235740000Y-90840714D01*
X235811428Y-90983571D01*
X235811428Y-91197857D01*
X235740000Y-91340714D01*
X235668571Y-91412142D01*
X235525714Y-91483571D01*
X234954285Y-91483571D01*
X234954285Y-89983571D01*
X235454285Y-89983571D01*
X235597142Y-90055000D01*
X235668571Y-90126428D01*
X235740000Y-90269285D01*
X235740000Y-90412142D01*
X235668571Y-90555000D01*
X235597142Y-90626428D01*
X235454285Y-90697857D01*
X234954285Y-90697857D01*
X236740000Y-89983571D02*
X237025714Y-89983571D01*
X237168571Y-90055000D01*
X237311428Y-90197857D01*
X237382857Y-90483571D01*
X237382857Y-90983571D01*
X237311428Y-91269285D01*
X237168571Y-91412142D01*
X237025714Y-91483571D01*
X236740000Y-91483571D01*
X236597142Y-91412142D01*
X236454285Y-91269285D01*
X236382857Y-90983571D01*
X236382857Y-90483571D01*
X236454285Y-90197857D01*
X236597142Y-90055000D01*
X236740000Y-89983571D01*
X238311428Y-89983571D02*
X238597142Y-89983571D01*
X238740000Y-90055000D01*
X238882857Y-90197857D01*
X238954285Y-90483571D01*
X238954285Y-90983571D01*
X238882857Y-91269285D01*
X238740000Y-91412142D01*
X238597142Y-91483571D01*
X238311428Y-91483571D01*
X238168571Y-91412142D01*
X238025714Y-91269285D01*
X237954285Y-90983571D01*
X237954285Y-90483571D01*
X238025714Y-90197857D01*
X238168571Y-90055000D01*
X238311428Y-89983571D01*
X239382857Y-89983571D02*
X240240000Y-89983571D01*
X239811428Y-91483571D02*
X239811428Y-89983571D01*
X184495714Y-91483571D02*
X184495714Y-89983571D01*
X185067142Y-89983571D01*
X185210000Y-90055000D01*
X185281428Y-90126428D01*
X185352857Y-90269285D01*
X185352857Y-90483571D01*
X185281428Y-90626428D01*
X185210000Y-90697857D01*
X185067142Y-90769285D01*
X184495714Y-90769285D01*
X186281428Y-89983571D02*
X186567142Y-89983571D01*
X186710000Y-90055000D01*
X186852857Y-90197857D01*
X186924285Y-90483571D01*
X186924285Y-90983571D01*
X186852857Y-91269285D01*
X186710000Y-91412142D01*
X186567142Y-91483571D01*
X186281428Y-91483571D01*
X186138571Y-91412142D01*
X185995714Y-91269285D01*
X185924285Y-90983571D01*
X185924285Y-90483571D01*
X185995714Y-90197857D01*
X186138571Y-90055000D01*
X186281428Y-89983571D01*
X187424285Y-89983571D02*
X187781428Y-91483571D01*
X188067142Y-90412142D01*
X188352857Y-91483571D01*
X188710000Y-89983571D01*
X189281428Y-90697857D02*
X189781428Y-90697857D01*
X189995714Y-91483571D02*
X189281428Y-91483571D01*
X189281428Y-89983571D01*
X189995714Y-89983571D01*
X191495714Y-91483571D02*
X190995714Y-90769285D01*
X190638571Y-91483571D02*
X190638571Y-89983571D01*
X191210000Y-89983571D01*
X191352857Y-90055000D01*
X191424285Y-90126428D01*
X191495714Y-90269285D01*
X191495714Y-90483571D01*
X191424285Y-90626428D01*
X191352857Y-90697857D01*
X191210000Y-90769285D01*
X190638571Y-90769285D01*
X194085000Y-106017142D02*
X194299285Y-106088571D01*
X194656428Y-106088571D01*
X194799285Y-106017142D01*
X194870714Y-105945714D01*
X194942142Y-105802857D01*
X194942142Y-105660000D01*
X194870714Y-105517142D01*
X194799285Y-105445714D01*
X194656428Y-105374285D01*
X194370714Y-105302857D01*
X194227857Y-105231428D01*
X194156428Y-105160000D01*
X194085000Y-105017142D01*
X194085000Y-104874285D01*
X194156428Y-104731428D01*
X194227857Y-104660000D01*
X194370714Y-104588571D01*
X194727857Y-104588571D01*
X194942142Y-104660000D01*
X195585000Y-105302857D02*
X196085000Y-105302857D01*
X196299285Y-106088571D02*
X195585000Y-106088571D01*
X195585000Y-104588571D01*
X196299285Y-104588571D01*
X197799285Y-106088571D02*
X197299285Y-105374285D01*
X196942142Y-106088571D02*
X196942142Y-104588571D01*
X197513571Y-104588571D01*
X197656428Y-104660000D01*
X197727857Y-104731428D01*
X197799285Y-104874285D01*
X197799285Y-105088571D01*
X197727857Y-105231428D01*
X197656428Y-105302857D01*
X197513571Y-105374285D01*
X196942142Y-105374285D01*
X198442142Y-106088571D02*
X198442142Y-104588571D01*
X199085000Y-105660000D02*
X199799285Y-105660000D01*
X198942142Y-106088571D02*
X199442142Y-104588571D01*
X199942142Y-106088571D01*
X201156428Y-106088571D02*
X200442142Y-106088571D01*
X200442142Y-104588571D01*
X203299285Y-105302857D02*
X203513571Y-105374285D01*
X203585000Y-105445714D01*
X203656428Y-105588571D01*
X203656428Y-105802857D01*
X203585000Y-105945714D01*
X203513571Y-106017142D01*
X203370714Y-106088571D01*
X202799285Y-106088571D01*
X202799285Y-104588571D01*
X203299285Y-104588571D01*
X203442142Y-104660000D01*
X203513571Y-104731428D01*
X203585000Y-104874285D01*
X203585000Y-105017142D01*
X203513571Y-105160000D01*
X203442142Y-105231428D01*
X203299285Y-105302857D01*
X202799285Y-105302857D01*
X205156428Y-106088571D02*
X204656428Y-105374285D01*
X204299285Y-106088571D02*
X204299285Y-104588571D01*
X204870714Y-104588571D01*
X205013571Y-104660000D01*
X205085000Y-104731428D01*
X205156428Y-104874285D01*
X205156428Y-105088571D01*
X205085000Y-105231428D01*
X205013571Y-105302857D01*
X204870714Y-105374285D01*
X204299285Y-105374285D01*
X205799285Y-105302857D02*
X206299285Y-105302857D01*
X206513571Y-106088571D02*
X205799285Y-106088571D01*
X205799285Y-104588571D01*
X206513571Y-104588571D01*
X207085000Y-105660000D02*
X207799285Y-105660000D01*
X206942142Y-106088571D02*
X207442142Y-104588571D01*
X207942142Y-106088571D01*
X208442142Y-106088571D02*
X208442142Y-104588571D01*
X209299285Y-106088571D02*
X208656428Y-105231428D01*
X209299285Y-104588571D02*
X208442142Y-105445714D01*
X210227857Y-104588571D02*
X210513571Y-104588571D01*
X210656428Y-104660000D01*
X210799285Y-104802857D01*
X210870714Y-105088571D01*
X210870714Y-105588571D01*
X210799285Y-105874285D01*
X210656428Y-106017142D01*
X210513571Y-106088571D01*
X210227857Y-106088571D01*
X210085000Y-106017142D01*
X209942142Y-105874285D01*
X209870714Y-105588571D01*
X209870714Y-105088571D01*
X209942142Y-104802857D01*
X210085000Y-104660000D01*
X210227857Y-104588571D01*
X211513571Y-104588571D02*
X211513571Y-105802857D01*
X211585000Y-105945714D01*
X211656428Y-106017142D01*
X211799285Y-106088571D01*
X212085000Y-106088571D01*
X212227857Y-106017142D01*
X212299285Y-105945714D01*
X212370714Y-105802857D01*
X212370714Y-104588571D01*
X212870714Y-104588571D02*
X213727857Y-104588571D01*
X213299285Y-106088571D02*
X213299285Y-104588571D01*
D12*
X197073095Y-93162380D02*
X197073095Y-92162380D01*
X197311190Y-92162380D01*
X197454047Y-92210000D01*
X197549285Y-92305238D01*
X197596904Y-92400476D01*
X197644523Y-92590952D01*
X197644523Y-92733809D01*
X197596904Y-92924285D01*
X197549285Y-93019523D01*
X197454047Y-93114761D01*
X197311190Y-93162380D01*
X197073095Y-93162380D01*
X198263571Y-92162380D02*
X198454047Y-92162380D01*
X198549285Y-92210000D01*
X198644523Y-92305238D01*
X198692142Y-92495714D01*
X198692142Y-92829047D01*
X198644523Y-93019523D01*
X198549285Y-93114761D01*
X198454047Y-93162380D01*
X198263571Y-93162380D01*
X198168333Y-93114761D01*
X198073095Y-93019523D01*
X198025476Y-92829047D01*
X198025476Y-92495714D01*
X198073095Y-92305238D01*
X198168333Y-92210000D01*
X198263571Y-92162380D01*
X199882619Y-93162380D02*
X199882619Y-92162380D01*
X200454047Y-93162380D01*
X200454047Y-92162380D01*
X201120714Y-92162380D02*
X201311190Y-92162380D01*
X201406428Y-92210000D01*
X201501666Y-92305238D01*
X201549285Y-92495714D01*
X201549285Y-92829047D01*
X201501666Y-93019523D01*
X201406428Y-93114761D01*
X201311190Y-93162380D01*
X201120714Y-93162380D01*
X201025476Y-93114761D01*
X200930238Y-93019523D01*
X200882619Y-92829047D01*
X200882619Y-92495714D01*
X200930238Y-92305238D01*
X201025476Y-92210000D01*
X201120714Y-92162380D01*
X201835000Y-92162380D02*
X202406428Y-92162380D01*
X202120714Y-93162380D02*
X202120714Y-92162380D01*
X203692142Y-92162380D02*
X203882619Y-92162380D01*
X203977857Y-92210000D01*
X204073095Y-92305238D01*
X204120714Y-92495714D01*
X204120714Y-92829047D01*
X204073095Y-93019523D01*
X203977857Y-93114761D01*
X203882619Y-93162380D01*
X203692142Y-93162380D01*
X203596904Y-93114761D01*
X203501666Y-93019523D01*
X203454047Y-92829047D01*
X203454047Y-92495714D01*
X203501666Y-92305238D01*
X203596904Y-92210000D01*
X203692142Y-92162380D01*
X204882619Y-92638571D02*
X205025476Y-92686190D01*
X205073095Y-92733809D01*
X205120714Y-92829047D01*
X205120714Y-92971904D01*
X205073095Y-93067142D01*
X205025476Y-93114761D01*
X204930238Y-93162380D01*
X204549285Y-93162380D01*
X204549285Y-92162380D01*
X204882619Y-92162380D01*
X204977857Y-92210000D01*
X205025476Y-92257619D01*
X205073095Y-92352857D01*
X205073095Y-92448095D01*
X205025476Y-92543333D01*
X204977857Y-92590952D01*
X204882619Y-92638571D01*
X204549285Y-92638571D01*
X205501666Y-93114761D02*
X205644523Y-93162380D01*
X205882619Y-93162380D01*
X205977857Y-93114761D01*
X206025476Y-93067142D01*
X206073095Y-92971904D01*
X206073095Y-92876666D01*
X206025476Y-92781428D01*
X205977857Y-92733809D01*
X205882619Y-92686190D01*
X205692142Y-92638571D01*
X205596904Y-92590952D01*
X205549285Y-92543333D01*
X205501666Y-92448095D01*
X205501666Y-92352857D01*
X205549285Y-92257619D01*
X205596904Y-92210000D01*
X205692142Y-92162380D01*
X205930238Y-92162380D01*
X206073095Y-92210000D01*
X206358809Y-92162380D02*
X206930238Y-92162380D01*
X206644523Y-93162380D02*
X206644523Y-92162380D01*
X207835000Y-93162380D02*
X207501666Y-92686190D01*
X207263571Y-93162380D02*
X207263571Y-92162380D01*
X207644523Y-92162380D01*
X207739761Y-92210000D01*
X207787380Y-92257619D01*
X207835000Y-92352857D01*
X207835000Y-92495714D01*
X207787380Y-92590952D01*
X207739761Y-92638571D01*
X207644523Y-92686190D01*
X207263571Y-92686190D01*
X208263571Y-92162380D02*
X208263571Y-92971904D01*
X208311190Y-93067142D01*
X208358809Y-93114761D01*
X208454047Y-93162380D01*
X208644523Y-93162380D01*
X208739761Y-93114761D01*
X208787380Y-93067142D01*
X208835000Y-92971904D01*
X208835000Y-92162380D01*
X209882619Y-93067142D02*
X209835000Y-93114761D01*
X209692142Y-93162380D01*
X209596904Y-93162380D01*
X209454047Y-93114761D01*
X209358809Y-93019523D01*
X209311190Y-92924285D01*
X209263571Y-92733809D01*
X209263571Y-92590952D01*
X209311190Y-92400476D01*
X209358809Y-92305238D01*
X209454047Y-92210000D01*
X209596904Y-92162380D01*
X209692142Y-92162380D01*
X209835000Y-92210000D01*
X209882619Y-92257619D01*
X210168333Y-92162380D02*
X210739761Y-92162380D01*
X210454047Y-93162380D02*
X210454047Y-92162380D01*
D11*
X130064285Y-90697857D02*
X130278571Y-90769285D01*
X130350000Y-90840714D01*
X130421428Y-90983571D01*
X130421428Y-91197857D01*
X130350000Y-91340714D01*
X130278571Y-91412142D01*
X130135714Y-91483571D01*
X129564285Y-91483571D01*
X129564285Y-89983571D01*
X130064285Y-89983571D01*
X130207142Y-90055000D01*
X130278571Y-90126428D01*
X130350000Y-90269285D01*
X130350000Y-90412142D01*
X130278571Y-90555000D01*
X130207142Y-90626428D01*
X130064285Y-90697857D01*
X129564285Y-90697857D01*
X130992857Y-91055000D02*
X131707142Y-91055000D01*
X130850000Y-91483571D02*
X131350000Y-89983571D01*
X131850000Y-91483571D01*
X132350000Y-91483571D02*
X132350000Y-89983571D01*
X133207142Y-91483571D01*
X133207142Y-89983571D01*
X133921428Y-91483571D02*
X133921428Y-89983571D01*
X134778571Y-91483571D02*
X134135714Y-90626428D01*
X134778571Y-89983571D02*
X133921428Y-90840714D01*
X136492857Y-91055000D02*
X137207142Y-91055000D01*
X136350000Y-91483571D02*
X136850000Y-89983571D01*
X137350000Y-91483571D01*
D12*
X350615476Y-198524761D02*
X350758333Y-198572380D01*
X350996428Y-198572380D01*
X351091666Y-198524761D01*
X351139285Y-198477142D01*
X351186904Y-198381904D01*
X351186904Y-198286666D01*
X351139285Y-198191428D01*
X351091666Y-198143809D01*
X350996428Y-198096190D01*
X350805952Y-198048571D01*
X350710714Y-198000952D01*
X350663095Y-197953333D01*
X350615476Y-197858095D01*
X350615476Y-197762857D01*
X350663095Y-197667619D01*
X350710714Y-197620000D01*
X350805952Y-197572380D01*
X351044047Y-197572380D01*
X351186904Y-197620000D01*
X351520238Y-197572380D02*
X351758333Y-198572380D01*
X351948809Y-197858095D01*
X352139285Y-198572380D01*
X352377380Y-197572380D01*
X353234523Y-197572380D02*
X352758333Y-197572380D01*
X352710714Y-198048571D01*
X352758333Y-198000952D01*
X352853571Y-197953333D01*
X353091666Y-197953333D01*
X353186904Y-198000952D01*
X353234523Y-198048571D01*
X353282142Y-198143809D01*
X353282142Y-198381904D01*
X353234523Y-198477142D01*
X353186904Y-198524761D01*
X353091666Y-198572380D01*
X352853571Y-198572380D01*
X352758333Y-198524761D01*
X352710714Y-198477142D01*
X354139285Y-197572380D02*
X353948809Y-197572380D01*
X353853571Y-197620000D01*
X353805952Y-197667619D01*
X353710714Y-197810476D01*
X353663095Y-198000952D01*
X353663095Y-198381904D01*
X353710714Y-198477142D01*
X353758333Y-198524761D01*
X353853571Y-198572380D01*
X354044047Y-198572380D01*
X354139285Y-198524761D01*
X354186904Y-198477142D01*
X354234523Y-198381904D01*
X354234523Y-198143809D01*
X354186904Y-198048571D01*
X354139285Y-198000952D01*
X354044047Y-197953333D01*
X353853571Y-197953333D01*
X353758333Y-198000952D01*
X353710714Y-198048571D01*
X353663095Y-198143809D01*
X112807976Y-160424761D02*
X112950833Y-160472380D01*
X113188928Y-160472380D01*
X113284166Y-160424761D01*
X113331785Y-160377142D01*
X113379404Y-160281904D01*
X113379404Y-160186666D01*
X113331785Y-160091428D01*
X113284166Y-160043809D01*
X113188928Y-159996190D01*
X112998452Y-159948571D01*
X112903214Y-159900952D01*
X112855595Y-159853333D01*
X112807976Y-159758095D01*
X112807976Y-159662857D01*
X112855595Y-159567619D01*
X112903214Y-159520000D01*
X112998452Y-159472380D01*
X113236547Y-159472380D01*
X113379404Y-159520000D01*
X113712738Y-159472380D02*
X113950833Y-160472380D01*
X114141309Y-159758095D01*
X114331785Y-160472380D01*
X114569880Y-159472380D01*
X115474642Y-160472380D02*
X114903214Y-160472380D01*
X115188928Y-160472380D02*
X115188928Y-159472380D01*
X115093690Y-159615238D01*
X114998452Y-159710476D01*
X114903214Y-159758095D01*
X116331785Y-159472380D02*
X116141309Y-159472380D01*
X116046071Y-159520000D01*
X115998452Y-159567619D01*
X115903214Y-159710476D01*
X115855595Y-159900952D01*
X115855595Y-160281904D01*
X115903214Y-160377142D01*
X115950833Y-160424761D01*
X116046071Y-160472380D01*
X116236547Y-160472380D01*
X116331785Y-160424761D01*
X116379404Y-160377142D01*
X116427023Y-160281904D01*
X116427023Y-160043809D01*
X116379404Y-159948571D01*
X116331785Y-159900952D01*
X116236547Y-159853333D01*
X116046071Y-159853333D01*
X115950833Y-159900952D01*
X115903214Y-159948571D01*
X115855595Y-160043809D01*
X331057476Y-179474761D02*
X331200333Y-179522380D01*
X331438428Y-179522380D01*
X331533666Y-179474761D01*
X331581285Y-179427142D01*
X331628904Y-179331904D01*
X331628904Y-179236666D01*
X331581285Y-179141428D01*
X331533666Y-179093809D01*
X331438428Y-179046190D01*
X331247952Y-178998571D01*
X331152714Y-178950952D01*
X331105095Y-178903333D01*
X331057476Y-178808095D01*
X331057476Y-178712857D01*
X331105095Y-178617619D01*
X331152714Y-178570000D01*
X331247952Y-178522380D01*
X331486047Y-178522380D01*
X331628904Y-178570000D01*
X331962238Y-178522380D02*
X332200333Y-179522380D01*
X332390809Y-178808095D01*
X332581285Y-179522380D01*
X332819380Y-178522380D01*
X333628904Y-178855714D02*
X333628904Y-179522380D01*
X333390809Y-178474761D02*
X333152714Y-179189047D01*
X333771761Y-179189047D01*
X334676523Y-179522380D02*
X334105095Y-179522380D01*
X334390809Y-179522380D02*
X334390809Y-178522380D01*
X334295571Y-178665238D01*
X334200333Y-178760476D01*
X334105095Y-178808095D01*
X212502976Y-179474761D02*
X212645833Y-179522380D01*
X212883928Y-179522380D01*
X212979166Y-179474761D01*
X213026785Y-179427142D01*
X213074404Y-179331904D01*
X213074404Y-179236666D01*
X213026785Y-179141428D01*
X212979166Y-179093809D01*
X212883928Y-179046190D01*
X212693452Y-178998571D01*
X212598214Y-178950952D01*
X212550595Y-178903333D01*
X212502976Y-178808095D01*
X212502976Y-178712857D01*
X212550595Y-178617619D01*
X212598214Y-178570000D01*
X212693452Y-178522380D01*
X212931547Y-178522380D01*
X213074404Y-178570000D01*
X213407738Y-178522380D02*
X213645833Y-179522380D01*
X213836309Y-178808095D01*
X214026785Y-179522380D01*
X214264880Y-178522380D01*
X214550595Y-178522380D02*
X215169642Y-178522380D01*
X214836309Y-178903333D01*
X214979166Y-178903333D01*
X215074404Y-178950952D01*
X215122023Y-178998571D01*
X215169642Y-179093809D01*
X215169642Y-179331904D01*
X215122023Y-179427142D01*
X215074404Y-179474761D01*
X214979166Y-179522380D01*
X214693452Y-179522380D01*
X214598214Y-179474761D01*
X214550595Y-179427142D01*
X216074404Y-178522380D02*
X215598214Y-178522380D01*
X215550595Y-178998571D01*
X215598214Y-178950952D01*
X215693452Y-178903333D01*
X215931547Y-178903333D01*
X216026785Y-178950952D01*
X216074404Y-178998571D01*
X216122023Y-179093809D01*
X216122023Y-179331904D01*
X216074404Y-179427142D01*
X216026785Y-179474761D01*
X215931547Y-179522380D01*
X215693452Y-179522380D01*
X215598214Y-179474761D01*
X215550595Y-179427142D01*
X269652976Y-179474761D02*
X269795833Y-179522380D01*
X270033928Y-179522380D01*
X270129166Y-179474761D01*
X270176785Y-179427142D01*
X270224404Y-179331904D01*
X270224404Y-179236666D01*
X270176785Y-179141428D01*
X270129166Y-179093809D01*
X270033928Y-179046190D01*
X269843452Y-178998571D01*
X269748214Y-178950952D01*
X269700595Y-178903333D01*
X269652976Y-178808095D01*
X269652976Y-178712857D01*
X269700595Y-178617619D01*
X269748214Y-178570000D01*
X269843452Y-178522380D01*
X270081547Y-178522380D01*
X270224404Y-178570000D01*
X270557738Y-178522380D02*
X270795833Y-179522380D01*
X270986309Y-178808095D01*
X271176785Y-179522380D01*
X271414880Y-178522380D01*
X271700595Y-178522380D02*
X272319642Y-178522380D01*
X271986309Y-178903333D01*
X272129166Y-178903333D01*
X272224404Y-178950952D01*
X272272023Y-178998571D01*
X272319642Y-179093809D01*
X272319642Y-179331904D01*
X272272023Y-179427142D01*
X272224404Y-179474761D01*
X272129166Y-179522380D01*
X271843452Y-179522380D01*
X271748214Y-179474761D01*
X271700595Y-179427142D01*
X272891071Y-178950952D02*
X272795833Y-178903333D01*
X272748214Y-178855714D01*
X272700595Y-178760476D01*
X272700595Y-178712857D01*
X272748214Y-178617619D01*
X272795833Y-178570000D01*
X272891071Y-178522380D01*
X273081547Y-178522380D01*
X273176785Y-178570000D01*
X273224404Y-178617619D01*
X273272023Y-178712857D01*
X273272023Y-178760476D01*
X273224404Y-178855714D01*
X273176785Y-178903333D01*
X273081547Y-178950952D01*
X272891071Y-178950952D01*
X272795833Y-178998571D01*
X272748214Y-179046190D01*
X272700595Y-179141428D01*
X272700595Y-179331904D01*
X272748214Y-179427142D01*
X272795833Y-179474761D01*
X272891071Y-179522380D01*
X273081547Y-179522380D01*
X273176785Y-179474761D01*
X273224404Y-179427142D01*
X273272023Y-179331904D01*
X273272023Y-179141428D01*
X273224404Y-179046190D01*
X273176785Y-178998571D01*
X273081547Y-178950952D01*
X207740476Y-160424761D02*
X207883333Y-160472380D01*
X208121428Y-160472380D01*
X208216666Y-160424761D01*
X208264285Y-160377142D01*
X208311904Y-160281904D01*
X208311904Y-160186666D01*
X208264285Y-160091428D01*
X208216666Y-160043809D01*
X208121428Y-159996190D01*
X207930952Y-159948571D01*
X207835714Y-159900952D01*
X207788095Y-159853333D01*
X207740476Y-159758095D01*
X207740476Y-159662857D01*
X207788095Y-159567619D01*
X207835714Y-159520000D01*
X207930952Y-159472380D01*
X208169047Y-159472380D01*
X208311904Y-159520000D01*
X208645238Y-159472380D02*
X208883333Y-160472380D01*
X209073809Y-159758095D01*
X209264285Y-160472380D01*
X209502380Y-159472380D01*
X209835714Y-159567619D02*
X209883333Y-159520000D01*
X209978571Y-159472380D01*
X210216666Y-159472380D01*
X210311904Y-159520000D01*
X210359523Y-159567619D01*
X210407142Y-159662857D01*
X210407142Y-159758095D01*
X210359523Y-159900952D01*
X209788095Y-160472380D01*
X210407142Y-160472380D01*
X211359523Y-160472380D02*
X210788095Y-160472380D01*
X211073809Y-160472380D02*
X211073809Y-159472380D01*
X210978571Y-159615238D01*
X210883333Y-159710476D01*
X210788095Y-159758095D01*
X141541666Y-141374761D02*
X141684523Y-141422380D01*
X141922619Y-141422380D01*
X142017857Y-141374761D01*
X142065476Y-141327142D01*
X142113095Y-141231904D01*
X142113095Y-141136666D01*
X142065476Y-141041428D01*
X142017857Y-140993809D01*
X141922619Y-140946190D01*
X141732142Y-140898571D01*
X141636904Y-140850952D01*
X141589285Y-140803333D01*
X141541666Y-140708095D01*
X141541666Y-140612857D01*
X141589285Y-140517619D01*
X141636904Y-140470000D01*
X141732142Y-140422380D01*
X141970238Y-140422380D01*
X142113095Y-140470000D01*
X142446428Y-140422380D02*
X142684523Y-141422380D01*
X142875000Y-140708095D01*
X143065476Y-141422380D01*
X143303571Y-140422380D01*
X144113095Y-140755714D02*
X144113095Y-141422380D01*
X143875000Y-140374761D02*
X143636904Y-141089047D01*
X144255952Y-141089047D01*
X112807976Y-198524761D02*
X112950833Y-198572380D01*
X113188928Y-198572380D01*
X113284166Y-198524761D01*
X113331785Y-198477142D01*
X113379404Y-198381904D01*
X113379404Y-198286666D01*
X113331785Y-198191428D01*
X113284166Y-198143809D01*
X113188928Y-198096190D01*
X112998452Y-198048571D01*
X112903214Y-198000952D01*
X112855595Y-197953333D01*
X112807976Y-197858095D01*
X112807976Y-197762857D01*
X112855595Y-197667619D01*
X112903214Y-197620000D01*
X112998452Y-197572380D01*
X113236547Y-197572380D01*
X113379404Y-197620000D01*
X113712738Y-197572380D02*
X113950833Y-198572380D01*
X114141309Y-197858095D01*
X114331785Y-198572380D01*
X114569880Y-197572380D01*
X115379404Y-197905714D02*
X115379404Y-198572380D01*
X115141309Y-197524761D02*
X114903214Y-198239047D01*
X115522261Y-198239047D01*
X116331785Y-197905714D02*
X116331785Y-198572380D01*
X116093690Y-197524761D02*
X115855595Y-198239047D01*
X116474642Y-198239047D01*
X257746726Y-217574761D02*
X257889583Y-217622380D01*
X258127678Y-217622380D01*
X258222916Y-217574761D01*
X258270535Y-217527142D01*
X258318154Y-217431904D01*
X258318154Y-217336666D01*
X258270535Y-217241428D01*
X258222916Y-217193809D01*
X258127678Y-217146190D01*
X257937202Y-217098571D01*
X257841964Y-217050952D01*
X257794345Y-217003333D01*
X257746726Y-216908095D01*
X257746726Y-216812857D01*
X257794345Y-216717619D01*
X257841964Y-216670000D01*
X257937202Y-216622380D01*
X258175297Y-216622380D01*
X258318154Y-216670000D01*
X258651488Y-216622380D02*
X258889583Y-217622380D01*
X259080059Y-216908095D01*
X259270535Y-217622380D01*
X259508630Y-216622380D01*
X260318154Y-216622380D02*
X260127678Y-216622380D01*
X260032440Y-216670000D01*
X259984821Y-216717619D01*
X259889583Y-216860476D01*
X259841964Y-217050952D01*
X259841964Y-217431904D01*
X259889583Y-217527142D01*
X259937202Y-217574761D01*
X260032440Y-217622380D01*
X260222916Y-217622380D01*
X260318154Y-217574761D01*
X260365773Y-217527142D01*
X260413392Y-217431904D01*
X260413392Y-217193809D01*
X260365773Y-217098571D01*
X260318154Y-217050952D01*
X260222916Y-217003333D01*
X260032440Y-217003333D01*
X259937202Y-217050952D01*
X259889583Y-217098571D01*
X259841964Y-217193809D01*
X260794345Y-216717619D02*
X260841964Y-216670000D01*
X260937202Y-216622380D01*
X261175297Y-216622380D01*
X261270535Y-216670000D01*
X261318154Y-216717619D01*
X261365773Y-216812857D01*
X261365773Y-216908095D01*
X261318154Y-217050952D01*
X260746726Y-217622380D01*
X261365773Y-217622380D01*
X283940476Y-160424761D02*
X284083333Y-160472380D01*
X284321428Y-160472380D01*
X284416666Y-160424761D01*
X284464285Y-160377142D01*
X284511904Y-160281904D01*
X284511904Y-160186666D01*
X284464285Y-160091428D01*
X284416666Y-160043809D01*
X284321428Y-159996190D01*
X284130952Y-159948571D01*
X284035714Y-159900952D01*
X283988095Y-159853333D01*
X283940476Y-159758095D01*
X283940476Y-159662857D01*
X283988095Y-159567619D01*
X284035714Y-159520000D01*
X284130952Y-159472380D01*
X284369047Y-159472380D01*
X284511904Y-159520000D01*
X284845238Y-159472380D02*
X285083333Y-160472380D01*
X285273809Y-159758095D01*
X285464285Y-160472380D01*
X285702380Y-159472380D01*
X286035714Y-159567619D02*
X286083333Y-159520000D01*
X286178571Y-159472380D01*
X286416666Y-159472380D01*
X286511904Y-159520000D01*
X286559523Y-159567619D01*
X286607142Y-159662857D01*
X286607142Y-159758095D01*
X286559523Y-159900952D01*
X285988095Y-160472380D01*
X286607142Y-160472380D01*
X287511904Y-159472380D02*
X287035714Y-159472380D01*
X286988095Y-159948571D01*
X287035714Y-159900952D01*
X287130952Y-159853333D01*
X287369047Y-159853333D01*
X287464285Y-159900952D01*
X287511904Y-159948571D01*
X287559523Y-160043809D01*
X287559523Y-160281904D01*
X287511904Y-160377142D01*
X287464285Y-160424761D01*
X287369047Y-160472380D01*
X287130952Y-160472380D01*
X287035714Y-160424761D01*
X286988095Y-160377142D01*
X122491666Y-141374761D02*
X122634523Y-141422380D01*
X122872619Y-141422380D01*
X122967857Y-141374761D01*
X123015476Y-141327142D01*
X123063095Y-141231904D01*
X123063095Y-141136666D01*
X123015476Y-141041428D01*
X122967857Y-140993809D01*
X122872619Y-140946190D01*
X122682142Y-140898571D01*
X122586904Y-140850952D01*
X122539285Y-140803333D01*
X122491666Y-140708095D01*
X122491666Y-140612857D01*
X122539285Y-140517619D01*
X122586904Y-140470000D01*
X122682142Y-140422380D01*
X122920238Y-140422380D01*
X123063095Y-140470000D01*
X123396428Y-140422380D02*
X123634523Y-141422380D01*
X123825000Y-140708095D01*
X124015476Y-141422380D01*
X124253571Y-140422380D01*
X124539285Y-140422380D02*
X125158333Y-140422380D01*
X124825000Y-140803333D01*
X124967857Y-140803333D01*
X125063095Y-140850952D01*
X125110714Y-140898571D01*
X125158333Y-140993809D01*
X125158333Y-141231904D01*
X125110714Y-141327142D01*
X125063095Y-141374761D01*
X124967857Y-141422380D01*
X124682142Y-141422380D01*
X124586904Y-141374761D01*
X124539285Y-141327142D01*
X174402976Y-179474761D02*
X174545833Y-179522380D01*
X174783928Y-179522380D01*
X174879166Y-179474761D01*
X174926785Y-179427142D01*
X174974404Y-179331904D01*
X174974404Y-179236666D01*
X174926785Y-179141428D01*
X174879166Y-179093809D01*
X174783928Y-179046190D01*
X174593452Y-178998571D01*
X174498214Y-178950952D01*
X174450595Y-178903333D01*
X174402976Y-178808095D01*
X174402976Y-178712857D01*
X174450595Y-178617619D01*
X174498214Y-178570000D01*
X174593452Y-178522380D01*
X174831547Y-178522380D01*
X174974404Y-178570000D01*
X175307738Y-178522380D02*
X175545833Y-179522380D01*
X175736309Y-178808095D01*
X175926785Y-179522380D01*
X176164880Y-178522380D01*
X176450595Y-178522380D02*
X177069642Y-178522380D01*
X176736309Y-178903333D01*
X176879166Y-178903333D01*
X176974404Y-178950952D01*
X177022023Y-178998571D01*
X177069642Y-179093809D01*
X177069642Y-179331904D01*
X177022023Y-179427142D01*
X176974404Y-179474761D01*
X176879166Y-179522380D01*
X176593452Y-179522380D01*
X176498214Y-179474761D01*
X176450595Y-179427142D01*
X177402976Y-178522380D02*
X178022023Y-178522380D01*
X177688690Y-178903333D01*
X177831547Y-178903333D01*
X177926785Y-178950952D01*
X177974404Y-178998571D01*
X178022023Y-179093809D01*
X178022023Y-179331904D01*
X177974404Y-179427142D01*
X177926785Y-179474761D01*
X177831547Y-179522380D01*
X177545833Y-179522380D01*
X177450595Y-179474761D01*
X177402976Y-179427142D01*
X183927976Y-198524761D02*
X184070833Y-198572380D01*
X184308928Y-198572380D01*
X184404166Y-198524761D01*
X184451785Y-198477142D01*
X184499404Y-198381904D01*
X184499404Y-198286666D01*
X184451785Y-198191428D01*
X184404166Y-198143809D01*
X184308928Y-198096190D01*
X184118452Y-198048571D01*
X184023214Y-198000952D01*
X183975595Y-197953333D01*
X183927976Y-197858095D01*
X183927976Y-197762857D01*
X183975595Y-197667619D01*
X184023214Y-197620000D01*
X184118452Y-197572380D01*
X184356547Y-197572380D01*
X184499404Y-197620000D01*
X184832738Y-197572380D02*
X185070833Y-198572380D01*
X185261309Y-197858095D01*
X185451785Y-198572380D01*
X185689880Y-197572380D01*
X186499404Y-197905714D02*
X186499404Y-198572380D01*
X186261309Y-197524761D02*
X186023214Y-198239047D01*
X186642261Y-198239047D01*
X187166071Y-198000952D02*
X187070833Y-197953333D01*
X187023214Y-197905714D01*
X186975595Y-197810476D01*
X186975595Y-197762857D01*
X187023214Y-197667619D01*
X187070833Y-197620000D01*
X187166071Y-197572380D01*
X187356547Y-197572380D01*
X187451785Y-197620000D01*
X187499404Y-197667619D01*
X187547023Y-197762857D01*
X187547023Y-197810476D01*
X187499404Y-197905714D01*
X187451785Y-197953333D01*
X187356547Y-198000952D01*
X187166071Y-198000952D01*
X187070833Y-198048571D01*
X187023214Y-198096190D01*
X186975595Y-198191428D01*
X186975595Y-198381904D01*
X187023214Y-198477142D01*
X187070833Y-198524761D01*
X187166071Y-198572380D01*
X187356547Y-198572380D01*
X187451785Y-198524761D01*
X187499404Y-198477142D01*
X187547023Y-198381904D01*
X187547023Y-198191428D01*
X187499404Y-198096190D01*
X187451785Y-198048571D01*
X187356547Y-198000952D01*
X345852976Y-217574761D02*
X345995833Y-217622380D01*
X346233928Y-217622380D01*
X346329166Y-217574761D01*
X346376785Y-217527142D01*
X346424404Y-217431904D01*
X346424404Y-217336666D01*
X346376785Y-217241428D01*
X346329166Y-217193809D01*
X346233928Y-217146190D01*
X346043452Y-217098571D01*
X345948214Y-217050952D01*
X345900595Y-217003333D01*
X345852976Y-216908095D01*
X345852976Y-216812857D01*
X345900595Y-216717619D01*
X345948214Y-216670000D01*
X346043452Y-216622380D01*
X346281547Y-216622380D01*
X346424404Y-216670000D01*
X346757738Y-216622380D02*
X346995833Y-217622380D01*
X347186309Y-216908095D01*
X347376785Y-217622380D01*
X347614880Y-216622380D01*
X348424404Y-216622380D02*
X348233928Y-216622380D01*
X348138690Y-216670000D01*
X348091071Y-216717619D01*
X347995833Y-216860476D01*
X347948214Y-217050952D01*
X347948214Y-217431904D01*
X347995833Y-217527142D01*
X348043452Y-217574761D01*
X348138690Y-217622380D01*
X348329166Y-217622380D01*
X348424404Y-217574761D01*
X348472023Y-217527142D01*
X348519642Y-217431904D01*
X348519642Y-217193809D01*
X348472023Y-217098571D01*
X348424404Y-217050952D01*
X348329166Y-217003333D01*
X348138690Y-217003333D01*
X348043452Y-217050952D01*
X347995833Y-217098571D01*
X347948214Y-217193809D01*
X349424404Y-216622380D02*
X348948214Y-216622380D01*
X348900595Y-217098571D01*
X348948214Y-217050952D01*
X349043452Y-217003333D01*
X349281547Y-217003333D01*
X349376785Y-217050952D01*
X349424404Y-217098571D01*
X349472023Y-217193809D01*
X349472023Y-217431904D01*
X349424404Y-217527142D01*
X349376785Y-217574761D01*
X349281547Y-217622380D01*
X349043452Y-217622380D01*
X348948214Y-217574761D01*
X348900595Y-217527142D01*
X164877976Y-198524761D02*
X165020833Y-198572380D01*
X165258928Y-198572380D01*
X165354166Y-198524761D01*
X165401785Y-198477142D01*
X165449404Y-198381904D01*
X165449404Y-198286666D01*
X165401785Y-198191428D01*
X165354166Y-198143809D01*
X165258928Y-198096190D01*
X165068452Y-198048571D01*
X164973214Y-198000952D01*
X164925595Y-197953333D01*
X164877976Y-197858095D01*
X164877976Y-197762857D01*
X164925595Y-197667619D01*
X164973214Y-197620000D01*
X165068452Y-197572380D01*
X165306547Y-197572380D01*
X165449404Y-197620000D01*
X165782738Y-197572380D02*
X166020833Y-198572380D01*
X166211309Y-197858095D01*
X166401785Y-198572380D01*
X166639880Y-197572380D01*
X167449404Y-197905714D02*
X167449404Y-198572380D01*
X167211309Y-197524761D02*
X166973214Y-198239047D01*
X167592261Y-198239047D01*
X167877976Y-197572380D02*
X168544642Y-197572380D01*
X168116071Y-198572380D01*
X329215976Y-198524761D02*
X329358833Y-198572380D01*
X329596928Y-198572380D01*
X329692166Y-198524761D01*
X329739785Y-198477142D01*
X329787404Y-198381904D01*
X329787404Y-198286666D01*
X329739785Y-198191428D01*
X329692166Y-198143809D01*
X329596928Y-198096190D01*
X329406452Y-198048571D01*
X329311214Y-198000952D01*
X329263595Y-197953333D01*
X329215976Y-197858095D01*
X329215976Y-197762857D01*
X329263595Y-197667619D01*
X329311214Y-197620000D01*
X329406452Y-197572380D01*
X329644547Y-197572380D01*
X329787404Y-197620000D01*
X330120738Y-197572380D02*
X330358833Y-198572380D01*
X330549309Y-197858095D01*
X330739785Y-198572380D01*
X330977880Y-197572380D01*
X331835023Y-197572380D02*
X331358833Y-197572380D01*
X331311214Y-198048571D01*
X331358833Y-198000952D01*
X331454071Y-197953333D01*
X331692166Y-197953333D01*
X331787404Y-198000952D01*
X331835023Y-198048571D01*
X331882642Y-198143809D01*
X331882642Y-198381904D01*
X331835023Y-198477142D01*
X331787404Y-198524761D01*
X331692166Y-198572380D01*
X331454071Y-198572380D01*
X331358833Y-198524761D01*
X331311214Y-198477142D01*
X332787404Y-197572380D02*
X332311214Y-197572380D01*
X332263595Y-198048571D01*
X332311214Y-198000952D01*
X332406452Y-197953333D01*
X332644547Y-197953333D01*
X332739785Y-198000952D01*
X332787404Y-198048571D01*
X332835023Y-198143809D01*
X332835023Y-198381904D01*
X332787404Y-198477142D01*
X332739785Y-198524761D01*
X332644547Y-198572380D01*
X332406452Y-198572380D01*
X332311214Y-198524761D01*
X332263595Y-198477142D01*
X112490476Y-217574761D02*
X112633333Y-217622380D01*
X112871428Y-217622380D01*
X112966666Y-217574761D01*
X113014285Y-217527142D01*
X113061904Y-217431904D01*
X113061904Y-217336666D01*
X113014285Y-217241428D01*
X112966666Y-217193809D01*
X112871428Y-217146190D01*
X112680952Y-217098571D01*
X112585714Y-217050952D01*
X112538095Y-217003333D01*
X112490476Y-216908095D01*
X112490476Y-216812857D01*
X112538095Y-216717619D01*
X112585714Y-216670000D01*
X112680952Y-216622380D01*
X112919047Y-216622380D01*
X113061904Y-216670000D01*
X113395238Y-216622380D02*
X113633333Y-217622380D01*
X113823809Y-216908095D01*
X114014285Y-217622380D01*
X114252380Y-216622380D01*
X115109523Y-216622380D02*
X114633333Y-216622380D01*
X114585714Y-217098571D01*
X114633333Y-217050952D01*
X114728571Y-217003333D01*
X114966666Y-217003333D01*
X115061904Y-217050952D01*
X115109523Y-217098571D01*
X115157142Y-217193809D01*
X115157142Y-217431904D01*
X115109523Y-217527142D01*
X115061904Y-217574761D01*
X114966666Y-217622380D01*
X114728571Y-217622380D01*
X114633333Y-217574761D01*
X114585714Y-217527142D01*
X115728571Y-217050952D02*
X115633333Y-217003333D01*
X115585714Y-216955714D01*
X115538095Y-216860476D01*
X115538095Y-216812857D01*
X115585714Y-216717619D01*
X115633333Y-216670000D01*
X115728571Y-216622380D01*
X115919047Y-216622380D01*
X116014285Y-216670000D01*
X116061904Y-216717619D01*
X116109523Y-216812857D01*
X116109523Y-216860476D01*
X116061904Y-216955714D01*
X116014285Y-217003333D01*
X115919047Y-217050952D01*
X115728571Y-217050952D01*
X115633333Y-217098571D01*
X115585714Y-217146190D01*
X115538095Y-217241428D01*
X115538095Y-217431904D01*
X115585714Y-217527142D01*
X115633333Y-217574761D01*
X115728571Y-217622380D01*
X115919047Y-217622380D01*
X116014285Y-217574761D01*
X116061904Y-217527142D01*
X116109523Y-217431904D01*
X116109523Y-217241428D01*
X116061904Y-217146190D01*
X116014285Y-217098571D01*
X115919047Y-217050952D01*
X298227976Y-198524761D02*
X298370833Y-198572380D01*
X298608928Y-198572380D01*
X298704166Y-198524761D01*
X298751785Y-198477142D01*
X298799404Y-198381904D01*
X298799404Y-198286666D01*
X298751785Y-198191428D01*
X298704166Y-198143809D01*
X298608928Y-198096190D01*
X298418452Y-198048571D01*
X298323214Y-198000952D01*
X298275595Y-197953333D01*
X298227976Y-197858095D01*
X298227976Y-197762857D01*
X298275595Y-197667619D01*
X298323214Y-197620000D01*
X298418452Y-197572380D01*
X298656547Y-197572380D01*
X298799404Y-197620000D01*
X299132738Y-197572380D02*
X299370833Y-198572380D01*
X299561309Y-197858095D01*
X299751785Y-198572380D01*
X299989880Y-197572380D01*
X300847023Y-197572380D02*
X300370833Y-197572380D01*
X300323214Y-198048571D01*
X300370833Y-198000952D01*
X300466071Y-197953333D01*
X300704166Y-197953333D01*
X300799404Y-198000952D01*
X300847023Y-198048571D01*
X300894642Y-198143809D01*
X300894642Y-198381904D01*
X300847023Y-198477142D01*
X300799404Y-198524761D01*
X300704166Y-198572380D01*
X300466071Y-198572380D01*
X300370833Y-198524761D01*
X300323214Y-198477142D01*
X301751785Y-197905714D02*
X301751785Y-198572380D01*
X301513690Y-197524761D02*
X301275595Y-198239047D01*
X301894642Y-198239047D01*
X322040476Y-217574761D02*
X322183333Y-217622380D01*
X322421428Y-217622380D01*
X322516666Y-217574761D01*
X322564285Y-217527142D01*
X322611904Y-217431904D01*
X322611904Y-217336666D01*
X322564285Y-217241428D01*
X322516666Y-217193809D01*
X322421428Y-217146190D01*
X322230952Y-217098571D01*
X322135714Y-217050952D01*
X322088095Y-217003333D01*
X322040476Y-216908095D01*
X322040476Y-216812857D01*
X322088095Y-216717619D01*
X322135714Y-216670000D01*
X322230952Y-216622380D01*
X322469047Y-216622380D01*
X322611904Y-216670000D01*
X322945238Y-216622380D02*
X323183333Y-217622380D01*
X323373809Y-216908095D01*
X323564285Y-217622380D01*
X323802380Y-216622380D01*
X324611904Y-216622380D02*
X324421428Y-216622380D01*
X324326190Y-216670000D01*
X324278571Y-216717619D01*
X324183333Y-216860476D01*
X324135714Y-217050952D01*
X324135714Y-217431904D01*
X324183333Y-217527142D01*
X324230952Y-217574761D01*
X324326190Y-217622380D01*
X324516666Y-217622380D01*
X324611904Y-217574761D01*
X324659523Y-217527142D01*
X324707142Y-217431904D01*
X324707142Y-217193809D01*
X324659523Y-217098571D01*
X324611904Y-217050952D01*
X324516666Y-217003333D01*
X324326190Y-217003333D01*
X324230952Y-217050952D01*
X324183333Y-217098571D01*
X324135714Y-217193809D01*
X325564285Y-216955714D02*
X325564285Y-217622380D01*
X325326190Y-216574761D02*
X325088095Y-217289047D01*
X325707142Y-217289047D01*
X136302976Y-217574761D02*
X136445833Y-217622380D01*
X136683928Y-217622380D01*
X136779166Y-217574761D01*
X136826785Y-217527142D01*
X136874404Y-217431904D01*
X136874404Y-217336666D01*
X136826785Y-217241428D01*
X136779166Y-217193809D01*
X136683928Y-217146190D01*
X136493452Y-217098571D01*
X136398214Y-217050952D01*
X136350595Y-217003333D01*
X136302976Y-216908095D01*
X136302976Y-216812857D01*
X136350595Y-216717619D01*
X136398214Y-216670000D01*
X136493452Y-216622380D01*
X136731547Y-216622380D01*
X136874404Y-216670000D01*
X137207738Y-216622380D02*
X137445833Y-217622380D01*
X137636309Y-216908095D01*
X137826785Y-217622380D01*
X138064880Y-216622380D01*
X138922023Y-216622380D02*
X138445833Y-216622380D01*
X138398214Y-217098571D01*
X138445833Y-217050952D01*
X138541071Y-217003333D01*
X138779166Y-217003333D01*
X138874404Y-217050952D01*
X138922023Y-217098571D01*
X138969642Y-217193809D01*
X138969642Y-217431904D01*
X138922023Y-217527142D01*
X138874404Y-217574761D01*
X138779166Y-217622380D01*
X138541071Y-217622380D01*
X138445833Y-217574761D01*
X138398214Y-217527142D01*
X139445833Y-217622380D02*
X139636309Y-217622380D01*
X139731547Y-217574761D01*
X139779166Y-217527142D01*
X139874404Y-217384285D01*
X139922023Y-217193809D01*
X139922023Y-216812857D01*
X139874404Y-216717619D01*
X139826785Y-216670000D01*
X139731547Y-216622380D01*
X139541071Y-216622380D01*
X139445833Y-216670000D01*
X139398214Y-216717619D01*
X139350595Y-216812857D01*
X139350595Y-217050952D01*
X139398214Y-217146190D01*
X139445833Y-217193809D01*
X139541071Y-217241428D01*
X139731547Y-217241428D01*
X139826785Y-217193809D01*
X139874404Y-217146190D01*
X139922023Y-217050952D01*
X88677976Y-160424761D02*
X88820833Y-160472380D01*
X89058928Y-160472380D01*
X89154166Y-160424761D01*
X89201785Y-160377142D01*
X89249404Y-160281904D01*
X89249404Y-160186666D01*
X89201785Y-160091428D01*
X89154166Y-160043809D01*
X89058928Y-159996190D01*
X88868452Y-159948571D01*
X88773214Y-159900952D01*
X88725595Y-159853333D01*
X88677976Y-159758095D01*
X88677976Y-159662857D01*
X88725595Y-159567619D01*
X88773214Y-159520000D01*
X88868452Y-159472380D01*
X89106547Y-159472380D01*
X89249404Y-159520000D01*
X89582738Y-159472380D02*
X89820833Y-160472380D01*
X90011309Y-159758095D01*
X90201785Y-160472380D01*
X90439880Y-159472380D01*
X91344642Y-160472380D02*
X90773214Y-160472380D01*
X91058928Y-160472380D02*
X91058928Y-159472380D01*
X90963690Y-159615238D01*
X90868452Y-159710476D01*
X90773214Y-159758095D01*
X92249404Y-159472380D02*
X91773214Y-159472380D01*
X91725595Y-159948571D01*
X91773214Y-159900952D01*
X91868452Y-159853333D01*
X92106547Y-159853333D01*
X92201785Y-159900952D01*
X92249404Y-159948571D01*
X92297023Y-160043809D01*
X92297023Y-160281904D01*
X92249404Y-160377142D01*
X92201785Y-160424761D01*
X92106547Y-160472380D01*
X91868452Y-160472380D01*
X91773214Y-160424761D01*
X91725595Y-160377142D01*
X288702976Y-179474761D02*
X288845833Y-179522380D01*
X289083928Y-179522380D01*
X289179166Y-179474761D01*
X289226785Y-179427142D01*
X289274404Y-179331904D01*
X289274404Y-179236666D01*
X289226785Y-179141428D01*
X289179166Y-179093809D01*
X289083928Y-179046190D01*
X288893452Y-178998571D01*
X288798214Y-178950952D01*
X288750595Y-178903333D01*
X288702976Y-178808095D01*
X288702976Y-178712857D01*
X288750595Y-178617619D01*
X288798214Y-178570000D01*
X288893452Y-178522380D01*
X289131547Y-178522380D01*
X289274404Y-178570000D01*
X289607738Y-178522380D02*
X289845833Y-179522380D01*
X290036309Y-178808095D01*
X290226785Y-179522380D01*
X290464880Y-178522380D01*
X290750595Y-178522380D02*
X291369642Y-178522380D01*
X291036309Y-178903333D01*
X291179166Y-178903333D01*
X291274404Y-178950952D01*
X291322023Y-178998571D01*
X291369642Y-179093809D01*
X291369642Y-179331904D01*
X291322023Y-179427142D01*
X291274404Y-179474761D01*
X291179166Y-179522380D01*
X290893452Y-179522380D01*
X290798214Y-179474761D01*
X290750595Y-179427142D01*
X291845833Y-179522380D02*
X292036309Y-179522380D01*
X292131547Y-179474761D01*
X292179166Y-179427142D01*
X292274404Y-179284285D01*
X292322023Y-179093809D01*
X292322023Y-178712857D01*
X292274404Y-178617619D01*
X292226785Y-178570000D01*
X292131547Y-178522380D01*
X291941071Y-178522380D01*
X291845833Y-178570000D01*
X291798214Y-178617619D01*
X291750595Y-178712857D01*
X291750595Y-178950952D01*
X291798214Y-179046190D01*
X291845833Y-179093809D01*
X291941071Y-179141428D01*
X292131547Y-179141428D01*
X292226785Y-179093809D01*
X292274404Y-179046190D01*
X292322023Y-178950952D01*
X241077976Y-198524761D02*
X241220833Y-198572380D01*
X241458928Y-198572380D01*
X241554166Y-198524761D01*
X241601785Y-198477142D01*
X241649404Y-198381904D01*
X241649404Y-198286666D01*
X241601785Y-198191428D01*
X241554166Y-198143809D01*
X241458928Y-198096190D01*
X241268452Y-198048571D01*
X241173214Y-198000952D01*
X241125595Y-197953333D01*
X241077976Y-197858095D01*
X241077976Y-197762857D01*
X241125595Y-197667619D01*
X241173214Y-197620000D01*
X241268452Y-197572380D01*
X241506547Y-197572380D01*
X241649404Y-197620000D01*
X241982738Y-197572380D02*
X242220833Y-198572380D01*
X242411309Y-197858095D01*
X242601785Y-198572380D01*
X242839880Y-197572380D01*
X243697023Y-197572380D02*
X243220833Y-197572380D01*
X243173214Y-198048571D01*
X243220833Y-198000952D01*
X243316071Y-197953333D01*
X243554166Y-197953333D01*
X243649404Y-198000952D01*
X243697023Y-198048571D01*
X243744642Y-198143809D01*
X243744642Y-198381904D01*
X243697023Y-198477142D01*
X243649404Y-198524761D01*
X243554166Y-198572380D01*
X243316071Y-198572380D01*
X243220833Y-198524761D01*
X243173214Y-198477142D01*
X244697023Y-198572380D02*
X244125595Y-198572380D01*
X244411309Y-198572380D02*
X244411309Y-197572380D01*
X244316071Y-197715238D01*
X244220833Y-197810476D01*
X244125595Y-197858095D01*
X274415476Y-141374761D02*
X274558333Y-141422380D01*
X274796428Y-141422380D01*
X274891666Y-141374761D01*
X274939285Y-141327142D01*
X274986904Y-141231904D01*
X274986904Y-141136666D01*
X274939285Y-141041428D01*
X274891666Y-140993809D01*
X274796428Y-140946190D01*
X274605952Y-140898571D01*
X274510714Y-140850952D01*
X274463095Y-140803333D01*
X274415476Y-140708095D01*
X274415476Y-140612857D01*
X274463095Y-140517619D01*
X274510714Y-140470000D01*
X274605952Y-140422380D01*
X274844047Y-140422380D01*
X274986904Y-140470000D01*
X275320238Y-140422380D02*
X275558333Y-141422380D01*
X275748809Y-140708095D01*
X275939285Y-141422380D01*
X276177380Y-140422380D01*
X277082142Y-141422380D02*
X276510714Y-141422380D01*
X276796428Y-141422380D02*
X276796428Y-140422380D01*
X276701190Y-140565238D01*
X276605952Y-140660476D01*
X276510714Y-140708095D01*
X278034523Y-141422380D02*
X277463095Y-141422380D01*
X277748809Y-141422380D02*
X277748809Y-140422380D01*
X277653571Y-140565238D01*
X277558333Y-140660476D01*
X277463095Y-140708095D01*
X217741666Y-141374761D02*
X217884523Y-141422380D01*
X218122619Y-141422380D01*
X218217857Y-141374761D01*
X218265476Y-141327142D01*
X218313095Y-141231904D01*
X218313095Y-141136666D01*
X218265476Y-141041428D01*
X218217857Y-140993809D01*
X218122619Y-140946190D01*
X217932142Y-140898571D01*
X217836904Y-140850952D01*
X217789285Y-140803333D01*
X217741666Y-140708095D01*
X217741666Y-140612857D01*
X217789285Y-140517619D01*
X217836904Y-140470000D01*
X217932142Y-140422380D01*
X218170238Y-140422380D01*
X218313095Y-140470000D01*
X218646428Y-140422380D02*
X218884523Y-141422380D01*
X219075000Y-140708095D01*
X219265476Y-141422380D01*
X219503571Y-140422380D01*
X220027380Y-140850952D02*
X219932142Y-140803333D01*
X219884523Y-140755714D01*
X219836904Y-140660476D01*
X219836904Y-140612857D01*
X219884523Y-140517619D01*
X219932142Y-140470000D01*
X220027380Y-140422380D01*
X220217857Y-140422380D01*
X220313095Y-140470000D01*
X220360714Y-140517619D01*
X220408333Y-140612857D01*
X220408333Y-140660476D01*
X220360714Y-140755714D01*
X220313095Y-140803333D01*
X220217857Y-140850952D01*
X220027380Y-140850952D01*
X219932142Y-140898571D01*
X219884523Y-140946190D01*
X219836904Y-141041428D01*
X219836904Y-141231904D01*
X219884523Y-141327142D01*
X219932142Y-141374761D01*
X220027380Y-141422380D01*
X220217857Y-141422380D01*
X220313095Y-141374761D01*
X220360714Y-141327142D01*
X220408333Y-141231904D01*
X220408333Y-141041428D01*
X220360714Y-140946190D01*
X220313095Y-140898571D01*
X220217857Y-140850952D01*
X226790476Y-160424761D02*
X226933333Y-160472380D01*
X227171428Y-160472380D01*
X227266666Y-160424761D01*
X227314285Y-160377142D01*
X227361904Y-160281904D01*
X227361904Y-160186666D01*
X227314285Y-160091428D01*
X227266666Y-160043809D01*
X227171428Y-159996190D01*
X226980952Y-159948571D01*
X226885714Y-159900952D01*
X226838095Y-159853333D01*
X226790476Y-159758095D01*
X226790476Y-159662857D01*
X226838095Y-159567619D01*
X226885714Y-159520000D01*
X226980952Y-159472380D01*
X227219047Y-159472380D01*
X227361904Y-159520000D01*
X227695238Y-159472380D02*
X227933333Y-160472380D01*
X228123809Y-159758095D01*
X228314285Y-160472380D01*
X228552380Y-159472380D01*
X228885714Y-159567619D02*
X228933333Y-159520000D01*
X229028571Y-159472380D01*
X229266666Y-159472380D01*
X229361904Y-159520000D01*
X229409523Y-159567619D01*
X229457142Y-159662857D01*
X229457142Y-159758095D01*
X229409523Y-159900952D01*
X228838095Y-160472380D01*
X229457142Y-160472380D01*
X229838095Y-159567619D02*
X229885714Y-159520000D01*
X229980952Y-159472380D01*
X230219047Y-159472380D01*
X230314285Y-159520000D01*
X230361904Y-159567619D01*
X230409523Y-159662857D01*
X230409523Y-159758095D01*
X230361904Y-159900952D01*
X229790476Y-160472380D01*
X230409523Y-160472380D01*
X279177976Y-198524761D02*
X279320833Y-198572380D01*
X279558928Y-198572380D01*
X279654166Y-198524761D01*
X279701785Y-198477142D01*
X279749404Y-198381904D01*
X279749404Y-198286666D01*
X279701785Y-198191428D01*
X279654166Y-198143809D01*
X279558928Y-198096190D01*
X279368452Y-198048571D01*
X279273214Y-198000952D01*
X279225595Y-197953333D01*
X279177976Y-197858095D01*
X279177976Y-197762857D01*
X279225595Y-197667619D01*
X279273214Y-197620000D01*
X279368452Y-197572380D01*
X279606547Y-197572380D01*
X279749404Y-197620000D01*
X280082738Y-197572380D02*
X280320833Y-198572380D01*
X280511309Y-197858095D01*
X280701785Y-198572380D01*
X280939880Y-197572380D01*
X281797023Y-197572380D02*
X281320833Y-197572380D01*
X281273214Y-198048571D01*
X281320833Y-198000952D01*
X281416071Y-197953333D01*
X281654166Y-197953333D01*
X281749404Y-198000952D01*
X281797023Y-198048571D01*
X281844642Y-198143809D01*
X281844642Y-198381904D01*
X281797023Y-198477142D01*
X281749404Y-198524761D01*
X281654166Y-198572380D01*
X281416071Y-198572380D01*
X281320833Y-198524761D01*
X281273214Y-198477142D01*
X282177976Y-197572380D02*
X282797023Y-197572380D01*
X282463690Y-197953333D01*
X282606547Y-197953333D01*
X282701785Y-198000952D01*
X282749404Y-198048571D01*
X282797023Y-198143809D01*
X282797023Y-198381904D01*
X282749404Y-198477142D01*
X282701785Y-198524761D01*
X282606547Y-198572380D01*
X282320833Y-198572380D01*
X282225595Y-198524761D01*
X282177976Y-198477142D01*
X322040476Y-160424761D02*
X322183333Y-160472380D01*
X322421428Y-160472380D01*
X322516666Y-160424761D01*
X322564285Y-160377142D01*
X322611904Y-160281904D01*
X322611904Y-160186666D01*
X322564285Y-160091428D01*
X322516666Y-160043809D01*
X322421428Y-159996190D01*
X322230952Y-159948571D01*
X322135714Y-159900952D01*
X322088095Y-159853333D01*
X322040476Y-159758095D01*
X322040476Y-159662857D01*
X322088095Y-159567619D01*
X322135714Y-159520000D01*
X322230952Y-159472380D01*
X322469047Y-159472380D01*
X322611904Y-159520000D01*
X322945238Y-159472380D02*
X323183333Y-160472380D01*
X323373809Y-159758095D01*
X323564285Y-160472380D01*
X323802380Y-159472380D01*
X324135714Y-159567619D02*
X324183333Y-159520000D01*
X324278571Y-159472380D01*
X324516666Y-159472380D01*
X324611904Y-159520000D01*
X324659523Y-159567619D01*
X324707142Y-159662857D01*
X324707142Y-159758095D01*
X324659523Y-159900952D01*
X324088095Y-160472380D01*
X324707142Y-160472380D01*
X325040476Y-159472380D02*
X325707142Y-159472380D01*
X325278571Y-160472380D01*
X298227976Y-217574761D02*
X298370833Y-217622380D01*
X298608928Y-217622380D01*
X298704166Y-217574761D01*
X298751785Y-217527142D01*
X298799404Y-217431904D01*
X298799404Y-217336666D01*
X298751785Y-217241428D01*
X298704166Y-217193809D01*
X298608928Y-217146190D01*
X298418452Y-217098571D01*
X298323214Y-217050952D01*
X298275595Y-217003333D01*
X298227976Y-216908095D01*
X298227976Y-216812857D01*
X298275595Y-216717619D01*
X298323214Y-216670000D01*
X298418452Y-216622380D01*
X298656547Y-216622380D01*
X298799404Y-216670000D01*
X299132738Y-216622380D02*
X299370833Y-217622380D01*
X299561309Y-216908095D01*
X299751785Y-217622380D01*
X299989880Y-216622380D01*
X300799404Y-216622380D02*
X300608928Y-216622380D01*
X300513690Y-216670000D01*
X300466071Y-216717619D01*
X300370833Y-216860476D01*
X300323214Y-217050952D01*
X300323214Y-217431904D01*
X300370833Y-217527142D01*
X300418452Y-217574761D01*
X300513690Y-217622380D01*
X300704166Y-217622380D01*
X300799404Y-217574761D01*
X300847023Y-217527142D01*
X300894642Y-217431904D01*
X300894642Y-217193809D01*
X300847023Y-217098571D01*
X300799404Y-217050952D01*
X300704166Y-217003333D01*
X300513690Y-217003333D01*
X300418452Y-217050952D01*
X300370833Y-217098571D01*
X300323214Y-217193809D01*
X301227976Y-216622380D02*
X301847023Y-216622380D01*
X301513690Y-217003333D01*
X301656547Y-217003333D01*
X301751785Y-217050952D01*
X301799404Y-217098571D01*
X301847023Y-217193809D01*
X301847023Y-217431904D01*
X301799404Y-217527142D01*
X301751785Y-217574761D01*
X301656547Y-217622380D01*
X301370833Y-217622380D01*
X301275595Y-217574761D01*
X301227976Y-217527142D01*
X117252976Y-179474761D02*
X117395833Y-179522380D01*
X117633928Y-179522380D01*
X117729166Y-179474761D01*
X117776785Y-179427142D01*
X117824404Y-179331904D01*
X117824404Y-179236666D01*
X117776785Y-179141428D01*
X117729166Y-179093809D01*
X117633928Y-179046190D01*
X117443452Y-178998571D01*
X117348214Y-178950952D01*
X117300595Y-178903333D01*
X117252976Y-178808095D01*
X117252976Y-178712857D01*
X117300595Y-178617619D01*
X117348214Y-178570000D01*
X117443452Y-178522380D01*
X117681547Y-178522380D01*
X117824404Y-178570000D01*
X118157738Y-178522380D02*
X118395833Y-179522380D01*
X118586309Y-178808095D01*
X118776785Y-179522380D01*
X119014880Y-178522380D01*
X119300595Y-178522380D02*
X119919642Y-178522380D01*
X119586309Y-178903333D01*
X119729166Y-178903333D01*
X119824404Y-178950952D01*
X119872023Y-178998571D01*
X119919642Y-179093809D01*
X119919642Y-179331904D01*
X119872023Y-179427142D01*
X119824404Y-179474761D01*
X119729166Y-179522380D01*
X119443452Y-179522380D01*
X119348214Y-179474761D01*
X119300595Y-179427142D01*
X120538690Y-178522380D02*
X120633928Y-178522380D01*
X120729166Y-178570000D01*
X120776785Y-178617619D01*
X120824404Y-178712857D01*
X120872023Y-178903333D01*
X120872023Y-179141428D01*
X120824404Y-179331904D01*
X120776785Y-179427142D01*
X120729166Y-179474761D01*
X120633928Y-179522380D01*
X120538690Y-179522380D01*
X120443452Y-179474761D01*
X120395833Y-179427142D01*
X120348214Y-179331904D01*
X120300595Y-179141428D01*
X120300595Y-178903333D01*
X120348214Y-178712857D01*
X120395833Y-178617619D01*
X120443452Y-178570000D01*
X120538690Y-178522380D01*
X155352976Y-179474761D02*
X155495833Y-179522380D01*
X155733928Y-179522380D01*
X155829166Y-179474761D01*
X155876785Y-179427142D01*
X155924404Y-179331904D01*
X155924404Y-179236666D01*
X155876785Y-179141428D01*
X155829166Y-179093809D01*
X155733928Y-179046190D01*
X155543452Y-178998571D01*
X155448214Y-178950952D01*
X155400595Y-178903333D01*
X155352976Y-178808095D01*
X155352976Y-178712857D01*
X155400595Y-178617619D01*
X155448214Y-178570000D01*
X155543452Y-178522380D01*
X155781547Y-178522380D01*
X155924404Y-178570000D01*
X156257738Y-178522380D02*
X156495833Y-179522380D01*
X156686309Y-178808095D01*
X156876785Y-179522380D01*
X157114880Y-178522380D01*
X157400595Y-178522380D02*
X158019642Y-178522380D01*
X157686309Y-178903333D01*
X157829166Y-178903333D01*
X157924404Y-178950952D01*
X157972023Y-178998571D01*
X158019642Y-179093809D01*
X158019642Y-179331904D01*
X157972023Y-179427142D01*
X157924404Y-179474761D01*
X157829166Y-179522380D01*
X157543452Y-179522380D01*
X157448214Y-179474761D01*
X157400595Y-179427142D01*
X158400595Y-178617619D02*
X158448214Y-178570000D01*
X158543452Y-178522380D01*
X158781547Y-178522380D01*
X158876785Y-178570000D01*
X158924404Y-178617619D01*
X158972023Y-178712857D01*
X158972023Y-178808095D01*
X158924404Y-178950952D01*
X158352976Y-179522380D01*
X158972023Y-179522380D01*
X160591666Y-141374761D02*
X160734523Y-141422380D01*
X160972619Y-141422380D01*
X161067857Y-141374761D01*
X161115476Y-141327142D01*
X161163095Y-141231904D01*
X161163095Y-141136666D01*
X161115476Y-141041428D01*
X161067857Y-140993809D01*
X160972619Y-140946190D01*
X160782142Y-140898571D01*
X160686904Y-140850952D01*
X160639285Y-140803333D01*
X160591666Y-140708095D01*
X160591666Y-140612857D01*
X160639285Y-140517619D01*
X160686904Y-140470000D01*
X160782142Y-140422380D01*
X161020238Y-140422380D01*
X161163095Y-140470000D01*
X161496428Y-140422380D02*
X161734523Y-141422380D01*
X161925000Y-140708095D01*
X162115476Y-141422380D01*
X162353571Y-140422380D01*
X163210714Y-140422380D02*
X162734523Y-140422380D01*
X162686904Y-140898571D01*
X162734523Y-140850952D01*
X162829761Y-140803333D01*
X163067857Y-140803333D01*
X163163095Y-140850952D01*
X163210714Y-140898571D01*
X163258333Y-140993809D01*
X163258333Y-141231904D01*
X163210714Y-141327142D01*
X163163095Y-141374761D01*
X163067857Y-141422380D01*
X162829761Y-141422380D01*
X162734523Y-141374761D01*
X162686904Y-141327142D01*
X307752976Y-179474761D02*
X307895833Y-179522380D01*
X308133928Y-179522380D01*
X308229166Y-179474761D01*
X308276785Y-179427142D01*
X308324404Y-179331904D01*
X308324404Y-179236666D01*
X308276785Y-179141428D01*
X308229166Y-179093809D01*
X308133928Y-179046190D01*
X307943452Y-178998571D01*
X307848214Y-178950952D01*
X307800595Y-178903333D01*
X307752976Y-178808095D01*
X307752976Y-178712857D01*
X307800595Y-178617619D01*
X307848214Y-178570000D01*
X307943452Y-178522380D01*
X308181547Y-178522380D01*
X308324404Y-178570000D01*
X308657738Y-178522380D02*
X308895833Y-179522380D01*
X309086309Y-178808095D01*
X309276785Y-179522380D01*
X309514880Y-178522380D01*
X310324404Y-178855714D02*
X310324404Y-179522380D01*
X310086309Y-178474761D02*
X309848214Y-179189047D01*
X310467261Y-179189047D01*
X311038690Y-178522380D02*
X311133928Y-178522380D01*
X311229166Y-178570000D01*
X311276785Y-178617619D01*
X311324404Y-178712857D01*
X311372023Y-178903333D01*
X311372023Y-179141428D01*
X311324404Y-179331904D01*
X311276785Y-179427142D01*
X311229166Y-179474761D01*
X311133928Y-179522380D01*
X311038690Y-179522380D01*
X310943452Y-179474761D01*
X310895833Y-179427142D01*
X310848214Y-179331904D01*
X310800595Y-179141428D01*
X310800595Y-178903333D01*
X310848214Y-178712857D01*
X310895833Y-178617619D01*
X310943452Y-178570000D01*
X311038690Y-178522380D01*
X255365476Y-141374761D02*
X255508333Y-141422380D01*
X255746428Y-141422380D01*
X255841666Y-141374761D01*
X255889285Y-141327142D01*
X255936904Y-141231904D01*
X255936904Y-141136666D01*
X255889285Y-141041428D01*
X255841666Y-140993809D01*
X255746428Y-140946190D01*
X255555952Y-140898571D01*
X255460714Y-140850952D01*
X255413095Y-140803333D01*
X255365476Y-140708095D01*
X255365476Y-140612857D01*
X255413095Y-140517619D01*
X255460714Y-140470000D01*
X255555952Y-140422380D01*
X255794047Y-140422380D01*
X255936904Y-140470000D01*
X256270238Y-140422380D02*
X256508333Y-141422380D01*
X256698809Y-140708095D01*
X256889285Y-141422380D01*
X257127380Y-140422380D01*
X258032142Y-141422380D02*
X257460714Y-141422380D01*
X257746428Y-141422380D02*
X257746428Y-140422380D01*
X257651190Y-140565238D01*
X257555952Y-140660476D01*
X257460714Y-140708095D01*
X258651190Y-140422380D02*
X258746428Y-140422380D01*
X258841666Y-140470000D01*
X258889285Y-140517619D01*
X258936904Y-140612857D01*
X258984523Y-140803333D01*
X258984523Y-141041428D01*
X258936904Y-141231904D01*
X258889285Y-141327142D01*
X258841666Y-141374761D01*
X258746428Y-141422380D01*
X258651190Y-141422380D01*
X258555952Y-141374761D01*
X258508333Y-141327142D01*
X258460714Y-141231904D01*
X258413095Y-141041428D01*
X258413095Y-140803333D01*
X258460714Y-140612857D01*
X258508333Y-140517619D01*
X258555952Y-140470000D01*
X258651190Y-140422380D01*
X169640476Y-160424761D02*
X169783333Y-160472380D01*
X170021428Y-160472380D01*
X170116666Y-160424761D01*
X170164285Y-160377142D01*
X170211904Y-160281904D01*
X170211904Y-160186666D01*
X170164285Y-160091428D01*
X170116666Y-160043809D01*
X170021428Y-159996190D01*
X169830952Y-159948571D01*
X169735714Y-159900952D01*
X169688095Y-159853333D01*
X169640476Y-159758095D01*
X169640476Y-159662857D01*
X169688095Y-159567619D01*
X169735714Y-159520000D01*
X169830952Y-159472380D01*
X170069047Y-159472380D01*
X170211904Y-159520000D01*
X170545238Y-159472380D02*
X170783333Y-160472380D01*
X170973809Y-159758095D01*
X171164285Y-160472380D01*
X171402380Y-159472380D01*
X172307142Y-160472380D02*
X171735714Y-160472380D01*
X172021428Y-160472380D02*
X172021428Y-159472380D01*
X171926190Y-159615238D01*
X171830952Y-159710476D01*
X171735714Y-159758095D01*
X172783333Y-160472380D02*
X172973809Y-160472380D01*
X173069047Y-160424761D01*
X173116666Y-160377142D01*
X173211904Y-160234285D01*
X173259523Y-160043809D01*
X173259523Y-159662857D01*
X173211904Y-159567619D01*
X173164285Y-159520000D01*
X173069047Y-159472380D01*
X172878571Y-159472380D01*
X172783333Y-159520000D01*
X172735714Y-159567619D01*
X172688095Y-159662857D01*
X172688095Y-159900952D01*
X172735714Y-159996190D01*
X172783333Y-160043809D01*
X172878571Y-160091428D01*
X173069047Y-160091428D01*
X173164285Y-160043809D01*
X173211904Y-159996190D01*
X173259523Y-159900952D01*
X202977976Y-198524761D02*
X203120833Y-198572380D01*
X203358928Y-198572380D01*
X203454166Y-198524761D01*
X203501785Y-198477142D01*
X203549404Y-198381904D01*
X203549404Y-198286666D01*
X203501785Y-198191428D01*
X203454166Y-198143809D01*
X203358928Y-198096190D01*
X203168452Y-198048571D01*
X203073214Y-198000952D01*
X203025595Y-197953333D01*
X202977976Y-197858095D01*
X202977976Y-197762857D01*
X203025595Y-197667619D01*
X203073214Y-197620000D01*
X203168452Y-197572380D01*
X203406547Y-197572380D01*
X203549404Y-197620000D01*
X203882738Y-197572380D02*
X204120833Y-198572380D01*
X204311309Y-197858095D01*
X204501785Y-198572380D01*
X204739880Y-197572380D01*
X205549404Y-197905714D02*
X205549404Y-198572380D01*
X205311309Y-197524761D02*
X205073214Y-198239047D01*
X205692261Y-198239047D01*
X206120833Y-198572380D02*
X206311309Y-198572380D01*
X206406547Y-198524761D01*
X206454166Y-198477142D01*
X206549404Y-198334285D01*
X206597023Y-198143809D01*
X206597023Y-197762857D01*
X206549404Y-197667619D01*
X206501785Y-197620000D01*
X206406547Y-197572380D01*
X206216071Y-197572380D01*
X206120833Y-197620000D01*
X206073214Y-197667619D01*
X206025595Y-197762857D01*
X206025595Y-198000952D01*
X206073214Y-198096190D01*
X206120833Y-198143809D01*
X206216071Y-198191428D01*
X206406547Y-198191428D01*
X206501785Y-198143809D01*
X206549404Y-198096190D01*
X206597023Y-198000952D01*
X260127976Y-198524761D02*
X260270833Y-198572380D01*
X260508928Y-198572380D01*
X260604166Y-198524761D01*
X260651785Y-198477142D01*
X260699404Y-198381904D01*
X260699404Y-198286666D01*
X260651785Y-198191428D01*
X260604166Y-198143809D01*
X260508928Y-198096190D01*
X260318452Y-198048571D01*
X260223214Y-198000952D01*
X260175595Y-197953333D01*
X260127976Y-197858095D01*
X260127976Y-197762857D01*
X260175595Y-197667619D01*
X260223214Y-197620000D01*
X260318452Y-197572380D01*
X260556547Y-197572380D01*
X260699404Y-197620000D01*
X261032738Y-197572380D02*
X261270833Y-198572380D01*
X261461309Y-197858095D01*
X261651785Y-198572380D01*
X261889880Y-197572380D01*
X262747023Y-197572380D02*
X262270833Y-197572380D01*
X262223214Y-198048571D01*
X262270833Y-198000952D01*
X262366071Y-197953333D01*
X262604166Y-197953333D01*
X262699404Y-198000952D01*
X262747023Y-198048571D01*
X262794642Y-198143809D01*
X262794642Y-198381904D01*
X262747023Y-198477142D01*
X262699404Y-198524761D01*
X262604166Y-198572380D01*
X262366071Y-198572380D01*
X262270833Y-198524761D01*
X262223214Y-198477142D01*
X263175595Y-197667619D02*
X263223214Y-197620000D01*
X263318452Y-197572380D01*
X263556547Y-197572380D01*
X263651785Y-197620000D01*
X263699404Y-197667619D01*
X263747023Y-197762857D01*
X263747023Y-197858095D01*
X263699404Y-198000952D01*
X263127976Y-198572380D01*
X263747023Y-198572380D01*
X103441666Y-141374761D02*
X103584523Y-141422380D01*
X103822619Y-141422380D01*
X103917857Y-141374761D01*
X103965476Y-141327142D01*
X104013095Y-141231904D01*
X104013095Y-141136666D01*
X103965476Y-141041428D01*
X103917857Y-140993809D01*
X103822619Y-140946190D01*
X103632142Y-140898571D01*
X103536904Y-140850952D01*
X103489285Y-140803333D01*
X103441666Y-140708095D01*
X103441666Y-140612857D01*
X103489285Y-140517619D01*
X103536904Y-140470000D01*
X103632142Y-140422380D01*
X103870238Y-140422380D01*
X104013095Y-140470000D01*
X104346428Y-140422380D02*
X104584523Y-141422380D01*
X104775000Y-140708095D01*
X104965476Y-141422380D01*
X105203571Y-140422380D01*
X105536904Y-140517619D02*
X105584523Y-140470000D01*
X105679761Y-140422380D01*
X105917857Y-140422380D01*
X106013095Y-140470000D01*
X106060714Y-140517619D01*
X106108333Y-140612857D01*
X106108333Y-140708095D01*
X106060714Y-140850952D01*
X105489285Y-141422380D01*
X106108333Y-141422380D01*
X136302976Y-179474761D02*
X136445833Y-179522380D01*
X136683928Y-179522380D01*
X136779166Y-179474761D01*
X136826785Y-179427142D01*
X136874404Y-179331904D01*
X136874404Y-179236666D01*
X136826785Y-179141428D01*
X136779166Y-179093809D01*
X136683928Y-179046190D01*
X136493452Y-178998571D01*
X136398214Y-178950952D01*
X136350595Y-178903333D01*
X136302976Y-178808095D01*
X136302976Y-178712857D01*
X136350595Y-178617619D01*
X136398214Y-178570000D01*
X136493452Y-178522380D01*
X136731547Y-178522380D01*
X136874404Y-178570000D01*
X137207738Y-178522380D02*
X137445833Y-179522380D01*
X137636309Y-178808095D01*
X137826785Y-179522380D01*
X138064880Y-178522380D01*
X138350595Y-178522380D02*
X138969642Y-178522380D01*
X138636309Y-178903333D01*
X138779166Y-178903333D01*
X138874404Y-178950952D01*
X138922023Y-178998571D01*
X138969642Y-179093809D01*
X138969642Y-179331904D01*
X138922023Y-179427142D01*
X138874404Y-179474761D01*
X138779166Y-179522380D01*
X138493452Y-179522380D01*
X138398214Y-179474761D01*
X138350595Y-179427142D01*
X139922023Y-179522380D02*
X139350595Y-179522380D01*
X139636309Y-179522380D02*
X139636309Y-178522380D01*
X139541071Y-178665238D01*
X139445833Y-178760476D01*
X139350595Y-178808095D01*
X250602976Y-179474761D02*
X250745833Y-179522380D01*
X250983928Y-179522380D01*
X251079166Y-179474761D01*
X251126785Y-179427142D01*
X251174404Y-179331904D01*
X251174404Y-179236666D01*
X251126785Y-179141428D01*
X251079166Y-179093809D01*
X250983928Y-179046190D01*
X250793452Y-178998571D01*
X250698214Y-178950952D01*
X250650595Y-178903333D01*
X250602976Y-178808095D01*
X250602976Y-178712857D01*
X250650595Y-178617619D01*
X250698214Y-178570000D01*
X250793452Y-178522380D01*
X251031547Y-178522380D01*
X251174404Y-178570000D01*
X251507738Y-178522380D02*
X251745833Y-179522380D01*
X251936309Y-178808095D01*
X252126785Y-179522380D01*
X252364880Y-178522380D01*
X252650595Y-178522380D02*
X253269642Y-178522380D01*
X252936309Y-178903333D01*
X253079166Y-178903333D01*
X253174404Y-178950952D01*
X253222023Y-178998571D01*
X253269642Y-179093809D01*
X253269642Y-179331904D01*
X253222023Y-179427142D01*
X253174404Y-179474761D01*
X253079166Y-179522380D01*
X252793452Y-179522380D01*
X252698214Y-179474761D01*
X252650595Y-179427142D01*
X253602976Y-178522380D02*
X254269642Y-178522380D01*
X253841071Y-179522380D01*
X126777976Y-198524761D02*
X126920833Y-198572380D01*
X127158928Y-198572380D01*
X127254166Y-198524761D01*
X127301785Y-198477142D01*
X127349404Y-198381904D01*
X127349404Y-198286666D01*
X127301785Y-198191428D01*
X127254166Y-198143809D01*
X127158928Y-198096190D01*
X126968452Y-198048571D01*
X126873214Y-198000952D01*
X126825595Y-197953333D01*
X126777976Y-197858095D01*
X126777976Y-197762857D01*
X126825595Y-197667619D01*
X126873214Y-197620000D01*
X126968452Y-197572380D01*
X127206547Y-197572380D01*
X127349404Y-197620000D01*
X127682738Y-197572380D02*
X127920833Y-198572380D01*
X128111309Y-197858095D01*
X128301785Y-198572380D01*
X128539880Y-197572380D01*
X129349404Y-197905714D02*
X129349404Y-198572380D01*
X129111309Y-197524761D02*
X128873214Y-198239047D01*
X129492261Y-198239047D01*
X130349404Y-197572380D02*
X129873214Y-197572380D01*
X129825595Y-198048571D01*
X129873214Y-198000952D01*
X129968452Y-197953333D01*
X130206547Y-197953333D01*
X130301785Y-198000952D01*
X130349404Y-198048571D01*
X130397023Y-198143809D01*
X130397023Y-198381904D01*
X130349404Y-198477142D01*
X130301785Y-198524761D01*
X130206547Y-198572380D01*
X129968452Y-198572380D01*
X129873214Y-198524761D01*
X129825595Y-198477142D01*
X245840476Y-160424761D02*
X245983333Y-160472380D01*
X246221428Y-160472380D01*
X246316666Y-160424761D01*
X246364285Y-160377142D01*
X246411904Y-160281904D01*
X246411904Y-160186666D01*
X246364285Y-160091428D01*
X246316666Y-160043809D01*
X246221428Y-159996190D01*
X246030952Y-159948571D01*
X245935714Y-159900952D01*
X245888095Y-159853333D01*
X245840476Y-159758095D01*
X245840476Y-159662857D01*
X245888095Y-159567619D01*
X245935714Y-159520000D01*
X246030952Y-159472380D01*
X246269047Y-159472380D01*
X246411904Y-159520000D01*
X246745238Y-159472380D02*
X246983333Y-160472380D01*
X247173809Y-159758095D01*
X247364285Y-160472380D01*
X247602380Y-159472380D01*
X247935714Y-159567619D02*
X247983333Y-159520000D01*
X248078571Y-159472380D01*
X248316666Y-159472380D01*
X248411904Y-159520000D01*
X248459523Y-159567619D01*
X248507142Y-159662857D01*
X248507142Y-159758095D01*
X248459523Y-159900952D01*
X247888095Y-160472380D01*
X248507142Y-160472380D01*
X248840476Y-159472380D02*
X249459523Y-159472380D01*
X249126190Y-159853333D01*
X249269047Y-159853333D01*
X249364285Y-159900952D01*
X249411904Y-159948571D01*
X249459523Y-160043809D01*
X249459523Y-160281904D01*
X249411904Y-160377142D01*
X249364285Y-160424761D01*
X249269047Y-160472380D01*
X248983333Y-160472380D01*
X248888095Y-160424761D01*
X248840476Y-160377142D01*
X264890476Y-160424761D02*
X265033333Y-160472380D01*
X265271428Y-160472380D01*
X265366666Y-160424761D01*
X265414285Y-160377142D01*
X265461904Y-160281904D01*
X265461904Y-160186666D01*
X265414285Y-160091428D01*
X265366666Y-160043809D01*
X265271428Y-159996190D01*
X265080952Y-159948571D01*
X264985714Y-159900952D01*
X264938095Y-159853333D01*
X264890476Y-159758095D01*
X264890476Y-159662857D01*
X264938095Y-159567619D01*
X264985714Y-159520000D01*
X265080952Y-159472380D01*
X265319047Y-159472380D01*
X265461904Y-159520000D01*
X265795238Y-159472380D02*
X266033333Y-160472380D01*
X266223809Y-159758095D01*
X266414285Y-160472380D01*
X266652380Y-159472380D01*
X266985714Y-159567619D02*
X267033333Y-159520000D01*
X267128571Y-159472380D01*
X267366666Y-159472380D01*
X267461904Y-159520000D01*
X267509523Y-159567619D01*
X267557142Y-159662857D01*
X267557142Y-159758095D01*
X267509523Y-159900952D01*
X266938095Y-160472380D01*
X267557142Y-160472380D01*
X268414285Y-159805714D02*
X268414285Y-160472380D01*
X268176190Y-159424761D02*
X267938095Y-160139047D01*
X268557142Y-160139047D01*
X150590476Y-160424761D02*
X150733333Y-160472380D01*
X150971428Y-160472380D01*
X151066666Y-160424761D01*
X151114285Y-160377142D01*
X151161904Y-160281904D01*
X151161904Y-160186666D01*
X151114285Y-160091428D01*
X151066666Y-160043809D01*
X150971428Y-159996190D01*
X150780952Y-159948571D01*
X150685714Y-159900952D01*
X150638095Y-159853333D01*
X150590476Y-159758095D01*
X150590476Y-159662857D01*
X150638095Y-159567619D01*
X150685714Y-159520000D01*
X150780952Y-159472380D01*
X151019047Y-159472380D01*
X151161904Y-159520000D01*
X151495238Y-159472380D02*
X151733333Y-160472380D01*
X151923809Y-159758095D01*
X152114285Y-160472380D01*
X152352380Y-159472380D01*
X153257142Y-160472380D02*
X152685714Y-160472380D01*
X152971428Y-160472380D02*
X152971428Y-159472380D01*
X152876190Y-159615238D01*
X152780952Y-159710476D01*
X152685714Y-159758095D01*
X153828571Y-159900952D02*
X153733333Y-159853333D01*
X153685714Y-159805714D01*
X153638095Y-159710476D01*
X153638095Y-159662857D01*
X153685714Y-159567619D01*
X153733333Y-159520000D01*
X153828571Y-159472380D01*
X154019047Y-159472380D01*
X154114285Y-159520000D01*
X154161904Y-159567619D01*
X154209523Y-159662857D01*
X154209523Y-159710476D01*
X154161904Y-159805714D01*
X154114285Y-159853333D01*
X154019047Y-159900952D01*
X153828571Y-159900952D01*
X153733333Y-159948571D01*
X153685714Y-159996190D01*
X153638095Y-160091428D01*
X153638095Y-160281904D01*
X153685714Y-160377142D01*
X153733333Y-160424761D01*
X153828571Y-160472380D01*
X154019047Y-160472380D01*
X154114285Y-160424761D01*
X154161904Y-160377142D01*
X154209523Y-160281904D01*
X154209523Y-160091428D01*
X154161904Y-159996190D01*
X154114285Y-159948571D01*
X154019047Y-159900952D01*
X188690476Y-160424761D02*
X188833333Y-160472380D01*
X189071428Y-160472380D01*
X189166666Y-160424761D01*
X189214285Y-160377142D01*
X189261904Y-160281904D01*
X189261904Y-160186666D01*
X189214285Y-160091428D01*
X189166666Y-160043809D01*
X189071428Y-159996190D01*
X188880952Y-159948571D01*
X188785714Y-159900952D01*
X188738095Y-159853333D01*
X188690476Y-159758095D01*
X188690476Y-159662857D01*
X188738095Y-159567619D01*
X188785714Y-159520000D01*
X188880952Y-159472380D01*
X189119047Y-159472380D01*
X189261904Y-159520000D01*
X189595238Y-159472380D02*
X189833333Y-160472380D01*
X190023809Y-159758095D01*
X190214285Y-160472380D01*
X190452380Y-159472380D01*
X190785714Y-159567619D02*
X190833333Y-159520000D01*
X190928571Y-159472380D01*
X191166666Y-159472380D01*
X191261904Y-159520000D01*
X191309523Y-159567619D01*
X191357142Y-159662857D01*
X191357142Y-159758095D01*
X191309523Y-159900952D01*
X190738095Y-160472380D01*
X191357142Y-160472380D01*
X191976190Y-159472380D02*
X192071428Y-159472380D01*
X192166666Y-159520000D01*
X192214285Y-159567619D01*
X192261904Y-159662857D01*
X192309523Y-159853333D01*
X192309523Y-160091428D01*
X192261904Y-160281904D01*
X192214285Y-160377142D01*
X192166666Y-160424761D01*
X192071428Y-160472380D01*
X191976190Y-160472380D01*
X191880952Y-160424761D01*
X191833333Y-160377142D01*
X191785714Y-160281904D01*
X191738095Y-160091428D01*
X191738095Y-159853333D01*
X191785714Y-159662857D01*
X191833333Y-159567619D01*
X191880952Y-159520000D01*
X191976190Y-159472380D01*
X131540476Y-160424761D02*
X131683333Y-160472380D01*
X131921428Y-160472380D01*
X132016666Y-160424761D01*
X132064285Y-160377142D01*
X132111904Y-160281904D01*
X132111904Y-160186666D01*
X132064285Y-160091428D01*
X132016666Y-160043809D01*
X131921428Y-159996190D01*
X131730952Y-159948571D01*
X131635714Y-159900952D01*
X131588095Y-159853333D01*
X131540476Y-159758095D01*
X131540476Y-159662857D01*
X131588095Y-159567619D01*
X131635714Y-159520000D01*
X131730952Y-159472380D01*
X131969047Y-159472380D01*
X132111904Y-159520000D01*
X132445238Y-159472380D02*
X132683333Y-160472380D01*
X132873809Y-159758095D01*
X133064285Y-160472380D01*
X133302380Y-159472380D01*
X134207142Y-160472380D02*
X133635714Y-160472380D01*
X133921428Y-160472380D02*
X133921428Y-159472380D01*
X133826190Y-159615238D01*
X133730952Y-159710476D01*
X133635714Y-159758095D01*
X134540476Y-159472380D02*
X135207142Y-159472380D01*
X134778571Y-160472380D01*
X179641666Y-141374761D02*
X179784523Y-141422380D01*
X180022619Y-141422380D01*
X180117857Y-141374761D01*
X180165476Y-141327142D01*
X180213095Y-141231904D01*
X180213095Y-141136666D01*
X180165476Y-141041428D01*
X180117857Y-140993809D01*
X180022619Y-140946190D01*
X179832142Y-140898571D01*
X179736904Y-140850952D01*
X179689285Y-140803333D01*
X179641666Y-140708095D01*
X179641666Y-140612857D01*
X179689285Y-140517619D01*
X179736904Y-140470000D01*
X179832142Y-140422380D01*
X180070238Y-140422380D01*
X180213095Y-140470000D01*
X180546428Y-140422380D02*
X180784523Y-141422380D01*
X180975000Y-140708095D01*
X181165476Y-141422380D01*
X181403571Y-140422380D01*
X182213095Y-140422380D02*
X182022619Y-140422380D01*
X181927380Y-140470000D01*
X181879761Y-140517619D01*
X181784523Y-140660476D01*
X181736904Y-140850952D01*
X181736904Y-141231904D01*
X181784523Y-141327142D01*
X181832142Y-141374761D01*
X181927380Y-141422380D01*
X182117857Y-141422380D01*
X182213095Y-141374761D01*
X182260714Y-141327142D01*
X182308333Y-141231904D01*
X182308333Y-140993809D01*
X182260714Y-140898571D01*
X182213095Y-140850952D01*
X182117857Y-140803333D01*
X181927380Y-140803333D01*
X181832142Y-140850952D01*
X181784523Y-140898571D01*
X181736904Y-140993809D01*
X198691666Y-141374761D02*
X198834523Y-141422380D01*
X199072619Y-141422380D01*
X199167857Y-141374761D01*
X199215476Y-141327142D01*
X199263095Y-141231904D01*
X199263095Y-141136666D01*
X199215476Y-141041428D01*
X199167857Y-140993809D01*
X199072619Y-140946190D01*
X198882142Y-140898571D01*
X198786904Y-140850952D01*
X198739285Y-140803333D01*
X198691666Y-140708095D01*
X198691666Y-140612857D01*
X198739285Y-140517619D01*
X198786904Y-140470000D01*
X198882142Y-140422380D01*
X199120238Y-140422380D01*
X199263095Y-140470000D01*
X199596428Y-140422380D02*
X199834523Y-141422380D01*
X200025000Y-140708095D01*
X200215476Y-141422380D01*
X200453571Y-140422380D01*
X200739285Y-140422380D02*
X201405952Y-140422380D01*
X200977380Y-141422380D01*
X91090976Y-198524761D02*
X91233833Y-198572380D01*
X91471928Y-198572380D01*
X91567166Y-198524761D01*
X91614785Y-198477142D01*
X91662404Y-198381904D01*
X91662404Y-198286666D01*
X91614785Y-198191428D01*
X91567166Y-198143809D01*
X91471928Y-198096190D01*
X91281452Y-198048571D01*
X91186214Y-198000952D01*
X91138595Y-197953333D01*
X91090976Y-197858095D01*
X91090976Y-197762857D01*
X91138595Y-197667619D01*
X91186214Y-197620000D01*
X91281452Y-197572380D01*
X91519547Y-197572380D01*
X91662404Y-197620000D01*
X91995738Y-197572380D02*
X92233833Y-198572380D01*
X92424309Y-197858095D01*
X92614785Y-198572380D01*
X92852880Y-197572380D01*
X93662404Y-197905714D02*
X93662404Y-198572380D01*
X93424309Y-197524761D02*
X93186214Y-198239047D01*
X93805261Y-198239047D01*
X94090976Y-197572380D02*
X94710023Y-197572380D01*
X94376690Y-197953333D01*
X94519547Y-197953333D01*
X94614785Y-198000952D01*
X94662404Y-198048571D01*
X94710023Y-198143809D01*
X94710023Y-198381904D01*
X94662404Y-198477142D01*
X94614785Y-198524761D01*
X94519547Y-198572380D01*
X94233833Y-198572380D01*
X94138595Y-198524761D01*
X94090976Y-198477142D01*
X193452976Y-179474761D02*
X193595833Y-179522380D01*
X193833928Y-179522380D01*
X193929166Y-179474761D01*
X193976785Y-179427142D01*
X194024404Y-179331904D01*
X194024404Y-179236666D01*
X193976785Y-179141428D01*
X193929166Y-179093809D01*
X193833928Y-179046190D01*
X193643452Y-178998571D01*
X193548214Y-178950952D01*
X193500595Y-178903333D01*
X193452976Y-178808095D01*
X193452976Y-178712857D01*
X193500595Y-178617619D01*
X193548214Y-178570000D01*
X193643452Y-178522380D01*
X193881547Y-178522380D01*
X194024404Y-178570000D01*
X194357738Y-178522380D02*
X194595833Y-179522380D01*
X194786309Y-178808095D01*
X194976785Y-179522380D01*
X195214880Y-178522380D01*
X195500595Y-178522380D02*
X196119642Y-178522380D01*
X195786309Y-178903333D01*
X195929166Y-178903333D01*
X196024404Y-178950952D01*
X196072023Y-178998571D01*
X196119642Y-179093809D01*
X196119642Y-179331904D01*
X196072023Y-179427142D01*
X196024404Y-179474761D01*
X195929166Y-179522380D01*
X195643452Y-179522380D01*
X195548214Y-179474761D01*
X195500595Y-179427142D01*
X196976785Y-178855714D02*
X196976785Y-179522380D01*
X196738690Y-178474761D02*
X196500595Y-179189047D01*
X197119642Y-179189047D01*
X222027976Y-198524761D02*
X222170833Y-198572380D01*
X222408928Y-198572380D01*
X222504166Y-198524761D01*
X222551785Y-198477142D01*
X222599404Y-198381904D01*
X222599404Y-198286666D01*
X222551785Y-198191428D01*
X222504166Y-198143809D01*
X222408928Y-198096190D01*
X222218452Y-198048571D01*
X222123214Y-198000952D01*
X222075595Y-197953333D01*
X222027976Y-197858095D01*
X222027976Y-197762857D01*
X222075595Y-197667619D01*
X222123214Y-197620000D01*
X222218452Y-197572380D01*
X222456547Y-197572380D01*
X222599404Y-197620000D01*
X222932738Y-197572380D02*
X223170833Y-198572380D01*
X223361309Y-197858095D01*
X223551785Y-198572380D01*
X223789880Y-197572380D01*
X224647023Y-197572380D02*
X224170833Y-197572380D01*
X224123214Y-198048571D01*
X224170833Y-198000952D01*
X224266071Y-197953333D01*
X224504166Y-197953333D01*
X224599404Y-198000952D01*
X224647023Y-198048571D01*
X224694642Y-198143809D01*
X224694642Y-198381904D01*
X224647023Y-198477142D01*
X224599404Y-198524761D01*
X224504166Y-198572380D01*
X224266071Y-198572380D01*
X224170833Y-198524761D01*
X224123214Y-198477142D01*
X225313690Y-197572380D02*
X225408928Y-197572380D01*
X225504166Y-197620000D01*
X225551785Y-197667619D01*
X225599404Y-197762857D01*
X225647023Y-197953333D01*
X225647023Y-198191428D01*
X225599404Y-198381904D01*
X225551785Y-198477142D01*
X225504166Y-198524761D01*
X225408928Y-198572380D01*
X225313690Y-198572380D01*
X225218452Y-198524761D01*
X225170833Y-198477142D01*
X225123214Y-198381904D01*
X225075595Y-198191428D01*
X225075595Y-197953333D01*
X225123214Y-197762857D01*
X225170833Y-197667619D01*
X225218452Y-197620000D01*
X225313690Y-197572380D01*
X236791666Y-141374761D02*
X236934523Y-141422380D01*
X237172619Y-141422380D01*
X237267857Y-141374761D01*
X237315476Y-141327142D01*
X237363095Y-141231904D01*
X237363095Y-141136666D01*
X237315476Y-141041428D01*
X237267857Y-140993809D01*
X237172619Y-140946190D01*
X236982142Y-140898571D01*
X236886904Y-140850952D01*
X236839285Y-140803333D01*
X236791666Y-140708095D01*
X236791666Y-140612857D01*
X236839285Y-140517619D01*
X236886904Y-140470000D01*
X236982142Y-140422380D01*
X237220238Y-140422380D01*
X237363095Y-140470000D01*
X237696428Y-140422380D02*
X237934523Y-141422380D01*
X238125000Y-140708095D01*
X238315476Y-141422380D01*
X238553571Y-140422380D01*
X238982142Y-141422380D02*
X239172619Y-141422380D01*
X239267857Y-141374761D01*
X239315476Y-141327142D01*
X239410714Y-141184285D01*
X239458333Y-140993809D01*
X239458333Y-140612857D01*
X239410714Y-140517619D01*
X239363095Y-140470000D01*
X239267857Y-140422380D01*
X239077380Y-140422380D01*
X238982142Y-140470000D01*
X238934523Y-140517619D01*
X238886904Y-140612857D01*
X238886904Y-140850952D01*
X238934523Y-140946190D01*
X238982142Y-140993809D01*
X239077380Y-141041428D01*
X239267857Y-141041428D01*
X239363095Y-140993809D01*
X239410714Y-140946190D01*
X239458333Y-140850952D01*
X231552976Y-179474761D02*
X231695833Y-179522380D01*
X231933928Y-179522380D01*
X232029166Y-179474761D01*
X232076785Y-179427142D01*
X232124404Y-179331904D01*
X232124404Y-179236666D01*
X232076785Y-179141428D01*
X232029166Y-179093809D01*
X231933928Y-179046190D01*
X231743452Y-178998571D01*
X231648214Y-178950952D01*
X231600595Y-178903333D01*
X231552976Y-178808095D01*
X231552976Y-178712857D01*
X231600595Y-178617619D01*
X231648214Y-178570000D01*
X231743452Y-178522380D01*
X231981547Y-178522380D01*
X232124404Y-178570000D01*
X232457738Y-178522380D02*
X232695833Y-179522380D01*
X232886309Y-178808095D01*
X233076785Y-179522380D01*
X233314880Y-178522380D01*
X233600595Y-178522380D02*
X234219642Y-178522380D01*
X233886309Y-178903333D01*
X234029166Y-178903333D01*
X234124404Y-178950952D01*
X234172023Y-178998571D01*
X234219642Y-179093809D01*
X234219642Y-179331904D01*
X234172023Y-179427142D01*
X234124404Y-179474761D01*
X234029166Y-179522380D01*
X233743452Y-179522380D01*
X233648214Y-179474761D01*
X233600595Y-179427142D01*
X235076785Y-178522380D02*
X234886309Y-178522380D01*
X234791071Y-178570000D01*
X234743452Y-178617619D01*
X234648214Y-178760476D01*
X234600595Y-178950952D01*
X234600595Y-179331904D01*
X234648214Y-179427142D01*
X234695833Y-179474761D01*
X234791071Y-179522380D01*
X234981547Y-179522380D01*
X235076785Y-179474761D01*
X235124404Y-179427142D01*
X235172023Y-179331904D01*
X235172023Y-179093809D01*
X235124404Y-178998571D01*
X235076785Y-178950952D01*
X234981547Y-178903333D01*
X234791071Y-178903333D01*
X234695833Y-178950952D01*
X234648214Y-178998571D01*
X234600595Y-179093809D01*
X145827976Y-198524761D02*
X145970833Y-198572380D01*
X146208928Y-198572380D01*
X146304166Y-198524761D01*
X146351785Y-198477142D01*
X146399404Y-198381904D01*
X146399404Y-198286666D01*
X146351785Y-198191428D01*
X146304166Y-198143809D01*
X146208928Y-198096190D01*
X146018452Y-198048571D01*
X145923214Y-198000952D01*
X145875595Y-197953333D01*
X145827976Y-197858095D01*
X145827976Y-197762857D01*
X145875595Y-197667619D01*
X145923214Y-197620000D01*
X146018452Y-197572380D01*
X146256547Y-197572380D01*
X146399404Y-197620000D01*
X146732738Y-197572380D02*
X146970833Y-198572380D01*
X147161309Y-197858095D01*
X147351785Y-198572380D01*
X147589880Y-197572380D01*
X148399404Y-197905714D02*
X148399404Y-198572380D01*
X148161309Y-197524761D02*
X147923214Y-198239047D01*
X148542261Y-198239047D01*
X149351785Y-197572380D02*
X149161309Y-197572380D01*
X149066071Y-197620000D01*
X149018452Y-197667619D01*
X148923214Y-197810476D01*
X148875595Y-198000952D01*
X148875595Y-198381904D01*
X148923214Y-198477142D01*
X148970833Y-198524761D01*
X149066071Y-198572380D01*
X149256547Y-198572380D01*
X149351785Y-198524761D01*
X149399404Y-198477142D01*
X149447023Y-198381904D01*
X149447023Y-198143809D01*
X149399404Y-198048571D01*
X149351785Y-198000952D01*
X149256547Y-197953333D01*
X149066071Y-197953333D01*
X148970833Y-198000952D01*
X148923214Y-198048571D01*
X148875595Y-198143809D01*
X176784226Y-217574761D02*
X176927083Y-217622380D01*
X177165178Y-217622380D01*
X177260416Y-217574761D01*
X177308035Y-217527142D01*
X177355654Y-217431904D01*
X177355654Y-217336666D01*
X177308035Y-217241428D01*
X177260416Y-217193809D01*
X177165178Y-217146190D01*
X176974702Y-217098571D01*
X176879464Y-217050952D01*
X176831845Y-217003333D01*
X176784226Y-216908095D01*
X176784226Y-216812857D01*
X176831845Y-216717619D01*
X176879464Y-216670000D01*
X176974702Y-216622380D01*
X177212797Y-216622380D01*
X177355654Y-216670000D01*
X177688988Y-216622380D02*
X177927083Y-217622380D01*
X178117559Y-216908095D01*
X178308035Y-217622380D01*
X178546130Y-216622380D01*
X179355654Y-216622380D02*
X179165178Y-216622380D01*
X179069940Y-216670000D01*
X179022321Y-216717619D01*
X178927083Y-216860476D01*
X178879464Y-217050952D01*
X178879464Y-217431904D01*
X178927083Y-217527142D01*
X178974702Y-217574761D01*
X179069940Y-217622380D01*
X179260416Y-217622380D01*
X179355654Y-217574761D01*
X179403273Y-217527142D01*
X179450892Y-217431904D01*
X179450892Y-217193809D01*
X179403273Y-217098571D01*
X179355654Y-217050952D01*
X179260416Y-217003333D01*
X179069940Y-217003333D01*
X178974702Y-217050952D01*
X178927083Y-217098571D01*
X178879464Y-217193809D01*
X180069940Y-216622380D02*
X180165178Y-216622380D01*
X180260416Y-216670000D01*
X180308035Y-216717619D01*
X180355654Y-216812857D01*
X180403273Y-217003333D01*
X180403273Y-217241428D01*
X180355654Y-217431904D01*
X180308035Y-217527142D01*
X180260416Y-217574761D01*
X180165178Y-217622380D01*
X180069940Y-217622380D01*
X179974702Y-217574761D01*
X179927083Y-217527142D01*
X179879464Y-217431904D01*
X179831845Y-217241428D01*
X179831845Y-217003333D01*
X179879464Y-216812857D01*
X179927083Y-216717619D01*
X179974702Y-216670000D01*
X180069940Y-216622380D01*
X293465476Y-141374761D02*
X293608333Y-141422380D01*
X293846428Y-141422380D01*
X293941666Y-141374761D01*
X293989285Y-141327142D01*
X294036904Y-141231904D01*
X294036904Y-141136666D01*
X293989285Y-141041428D01*
X293941666Y-140993809D01*
X293846428Y-140946190D01*
X293655952Y-140898571D01*
X293560714Y-140850952D01*
X293513095Y-140803333D01*
X293465476Y-140708095D01*
X293465476Y-140612857D01*
X293513095Y-140517619D01*
X293560714Y-140470000D01*
X293655952Y-140422380D01*
X293894047Y-140422380D01*
X294036904Y-140470000D01*
X294370238Y-140422380D02*
X294608333Y-141422380D01*
X294798809Y-140708095D01*
X294989285Y-141422380D01*
X295227380Y-140422380D01*
X296132142Y-141422380D02*
X295560714Y-141422380D01*
X295846428Y-141422380D02*
X295846428Y-140422380D01*
X295751190Y-140565238D01*
X295655952Y-140660476D01*
X295560714Y-140708095D01*
X296513095Y-140517619D02*
X296560714Y-140470000D01*
X296655952Y-140422380D01*
X296894047Y-140422380D01*
X296989285Y-140470000D01*
X297036904Y-140517619D01*
X297084523Y-140612857D01*
X297084523Y-140708095D01*
X297036904Y-140850952D01*
X296465476Y-141422380D01*
X297084523Y-141422380D01*
X302990476Y-160424761D02*
X303133333Y-160472380D01*
X303371428Y-160472380D01*
X303466666Y-160424761D01*
X303514285Y-160377142D01*
X303561904Y-160281904D01*
X303561904Y-160186666D01*
X303514285Y-160091428D01*
X303466666Y-160043809D01*
X303371428Y-159996190D01*
X303180952Y-159948571D01*
X303085714Y-159900952D01*
X303038095Y-159853333D01*
X302990476Y-159758095D01*
X302990476Y-159662857D01*
X303038095Y-159567619D01*
X303085714Y-159520000D01*
X303180952Y-159472380D01*
X303419047Y-159472380D01*
X303561904Y-159520000D01*
X303895238Y-159472380D02*
X304133333Y-160472380D01*
X304323809Y-159758095D01*
X304514285Y-160472380D01*
X304752380Y-159472380D01*
X305085714Y-159567619D02*
X305133333Y-159520000D01*
X305228571Y-159472380D01*
X305466666Y-159472380D01*
X305561904Y-159520000D01*
X305609523Y-159567619D01*
X305657142Y-159662857D01*
X305657142Y-159758095D01*
X305609523Y-159900952D01*
X305038095Y-160472380D01*
X305657142Y-160472380D01*
X306514285Y-159472380D02*
X306323809Y-159472380D01*
X306228571Y-159520000D01*
X306180952Y-159567619D01*
X306085714Y-159710476D01*
X306038095Y-159900952D01*
X306038095Y-160281904D01*
X306085714Y-160377142D01*
X306133333Y-160424761D01*
X306228571Y-160472380D01*
X306419047Y-160472380D01*
X306514285Y-160424761D01*
X306561904Y-160377142D01*
X306609523Y-160281904D01*
X306609523Y-160043809D01*
X306561904Y-159948571D01*
X306514285Y-159900952D01*
X306419047Y-159853333D01*
X306228571Y-159853333D01*
X306133333Y-159900952D01*
X306085714Y-159948571D01*
X306038095Y-160043809D01*
X214296666Y-92797380D02*
X214296666Y-93511666D01*
X214249047Y-93654523D01*
X214153809Y-93749761D01*
X214010952Y-93797380D01*
X213915714Y-93797380D01*
X215296666Y-93797380D02*
X214725238Y-93797380D01*
X215010952Y-93797380D02*
X215010952Y-92797380D01*
X214915714Y-92940238D01*
X214820476Y-93035476D01*
X214725238Y-93083095D01*
X187158333Y-110847142D02*
X187110714Y-110894761D01*
X186967857Y-110942380D01*
X186872619Y-110942380D01*
X186729761Y-110894761D01*
X186634523Y-110799523D01*
X186586904Y-110704285D01*
X186539285Y-110513809D01*
X186539285Y-110370952D01*
X186586904Y-110180476D01*
X186634523Y-110085238D01*
X186729761Y-109990000D01*
X186872619Y-109942380D01*
X186967857Y-109942380D01*
X187110714Y-109990000D01*
X187158333Y-110037619D01*
X188015476Y-110275714D02*
X188015476Y-110942380D01*
X187777380Y-109894761D02*
X187539285Y-110609047D01*
X188158333Y-110609047D01*
X198905833Y-121102380D02*
X198572500Y-120626190D01*
X198334404Y-121102380D02*
X198334404Y-120102380D01*
X198715357Y-120102380D01*
X198810595Y-120150000D01*
X198858214Y-120197619D01*
X198905833Y-120292857D01*
X198905833Y-120435714D01*
X198858214Y-120530952D01*
X198810595Y-120578571D01*
X198715357Y-120626190D01*
X198334404Y-120626190D01*
X199810595Y-120102380D02*
X199334404Y-120102380D01*
X199286785Y-120578571D01*
X199334404Y-120530952D01*
X199429642Y-120483333D01*
X199667738Y-120483333D01*
X199762976Y-120530952D01*
X199810595Y-120578571D01*
X199858214Y-120673809D01*
X199858214Y-120911904D01*
X199810595Y-121007142D01*
X199762976Y-121054761D01*
X199667738Y-121102380D01*
X199429642Y-121102380D01*
X199334404Y-121054761D01*
X199286785Y-121007142D01*
X204684404Y-121102380D02*
X204684404Y-120102380D01*
X204922500Y-120102380D01*
X205065357Y-120150000D01*
X205160595Y-120245238D01*
X205208214Y-120340476D01*
X205255833Y-120530952D01*
X205255833Y-120673809D01*
X205208214Y-120864285D01*
X205160595Y-120959523D01*
X205065357Y-121054761D01*
X204922500Y-121102380D01*
X204684404Y-121102380D01*
X206208214Y-121102380D02*
X205636785Y-121102380D01*
X205922500Y-121102380D02*
X205922500Y-120102380D01*
X205827261Y-120245238D01*
X205732023Y-120340476D01*
X205636785Y-120388095D01*
X192555833Y-121102380D02*
X192222500Y-120626190D01*
X191984404Y-121102380D02*
X191984404Y-120102380D01*
X192365357Y-120102380D01*
X192460595Y-120150000D01*
X192508214Y-120197619D01*
X192555833Y-120292857D01*
X192555833Y-120435714D01*
X192508214Y-120530952D01*
X192460595Y-120578571D01*
X192365357Y-120626190D01*
X191984404Y-120626190D01*
X193127261Y-120530952D02*
X193032023Y-120483333D01*
X192984404Y-120435714D01*
X192936785Y-120340476D01*
X192936785Y-120292857D01*
X192984404Y-120197619D01*
X193032023Y-120150000D01*
X193127261Y-120102380D01*
X193317738Y-120102380D01*
X193412976Y-120150000D01*
X193460595Y-120197619D01*
X193508214Y-120292857D01*
X193508214Y-120340476D01*
X193460595Y-120435714D01*
X193412976Y-120483333D01*
X193317738Y-120530952D01*
X193127261Y-120530952D01*
X193032023Y-120578571D01*
X192984404Y-120626190D01*
X192936785Y-120721428D01*
X192936785Y-120911904D01*
X192984404Y-121007142D01*
X193032023Y-121054761D01*
X193127261Y-121102380D01*
X193317738Y-121102380D01*
X193412976Y-121054761D01*
X193460595Y-121007142D01*
X193508214Y-120911904D01*
X193508214Y-120721428D01*
X193460595Y-120626190D01*
X193412976Y-120578571D01*
X193317738Y-120530952D01*
X88683333Y-93702142D02*
X88635714Y-93749761D01*
X88492857Y-93797380D01*
X88397619Y-93797380D01*
X88254761Y-93749761D01*
X88159523Y-93654523D01*
X88111904Y-93559285D01*
X88064285Y-93368809D01*
X88064285Y-93225952D01*
X88111904Y-93035476D01*
X88159523Y-92940238D01*
X88254761Y-92845000D01*
X88397619Y-92797380D01*
X88492857Y-92797380D01*
X88635714Y-92845000D01*
X88683333Y-92892619D01*
X89016666Y-92797380D02*
X89683333Y-92797380D01*
X89254761Y-93797380D01*
X101383333Y-93702142D02*
X101335714Y-93749761D01*
X101192857Y-93797380D01*
X101097619Y-93797380D01*
X100954761Y-93749761D01*
X100859523Y-93654523D01*
X100811904Y-93559285D01*
X100764285Y-93368809D01*
X100764285Y-93225952D01*
X100811904Y-93035476D01*
X100859523Y-92940238D01*
X100954761Y-92845000D01*
X101097619Y-92797380D01*
X101192857Y-92797380D01*
X101335714Y-92845000D01*
X101383333Y-92892619D01*
X101954761Y-93225952D02*
X101859523Y-93178333D01*
X101811904Y-93130714D01*
X101764285Y-93035476D01*
X101764285Y-92987857D01*
X101811904Y-92892619D01*
X101859523Y-92845000D01*
X101954761Y-92797380D01*
X102145238Y-92797380D01*
X102240476Y-92845000D01*
X102288095Y-92892619D01*
X102335714Y-92987857D01*
X102335714Y-93035476D01*
X102288095Y-93130714D01*
X102240476Y-93178333D01*
X102145238Y-93225952D01*
X101954761Y-93225952D01*
X101859523Y-93273571D01*
X101811904Y-93321190D01*
X101764285Y-93416428D01*
X101764285Y-93606904D01*
X101811904Y-93702142D01*
X101859523Y-93749761D01*
X101954761Y-93797380D01*
X102145238Y-93797380D01*
X102240476Y-93749761D01*
X102288095Y-93702142D01*
X102335714Y-93606904D01*
X102335714Y-93416428D01*
X102288095Y-93321190D01*
X102240476Y-93273571D01*
X102145238Y-93225952D01*
X195730833Y-121102380D02*
X195397500Y-120626190D01*
X195159404Y-121102380D02*
X195159404Y-120102380D01*
X195540357Y-120102380D01*
X195635595Y-120150000D01*
X195683214Y-120197619D01*
X195730833Y-120292857D01*
X195730833Y-120435714D01*
X195683214Y-120530952D01*
X195635595Y-120578571D01*
X195540357Y-120626190D01*
X195159404Y-120626190D01*
X196587976Y-120435714D02*
X196587976Y-121102380D01*
X196349880Y-120054761D02*
X196111785Y-120769047D01*
X196730833Y-120769047D01*
X218527380Y-115696904D02*
X219336904Y-115696904D01*
X219432142Y-115649285D01*
X219479761Y-115601666D01*
X219527380Y-115506428D01*
X219527380Y-115315952D01*
X219479761Y-115220714D01*
X219432142Y-115173095D01*
X219336904Y-115125476D01*
X218527380Y-115125476D01*
X219527380Y-114125476D02*
X219527380Y-114696904D01*
X219527380Y-114411190D02*
X218527380Y-114411190D01*
X218670238Y-114506428D01*
X218765476Y-114601666D01*
X218813095Y-114696904D01*
X201509404Y-121102380D02*
X201509404Y-120102380D01*
X201747500Y-120102380D01*
X201890357Y-120150000D01*
X201985595Y-120245238D01*
X202033214Y-120340476D01*
X202080833Y-120530952D01*
X202080833Y-120673809D01*
X202033214Y-120864285D01*
X201985595Y-120959523D01*
X201890357Y-121054761D01*
X201747500Y-121102380D01*
X201509404Y-121102380D01*
X202461785Y-120197619D02*
X202509404Y-120150000D01*
X202604642Y-120102380D01*
X202842738Y-120102380D01*
X202937976Y-120150000D01*
X202985595Y-120197619D01*
X203033214Y-120292857D01*
X203033214Y-120388095D01*
X202985595Y-120530952D01*
X202414166Y-121102380D01*
X203033214Y-121102380D01*
X272883333Y-93702142D02*
X272835714Y-93749761D01*
X272692857Y-93797380D01*
X272597619Y-93797380D01*
X272454761Y-93749761D01*
X272359523Y-93654523D01*
X272311904Y-93559285D01*
X272264285Y-93368809D01*
X272264285Y-93225952D01*
X272311904Y-93035476D01*
X272359523Y-92940238D01*
X272454761Y-92845000D01*
X272597619Y-92797380D01*
X272692857Y-92797380D01*
X272835714Y-92845000D01*
X272883333Y-92892619D01*
X273740476Y-92797380D02*
X273550000Y-92797380D01*
X273454761Y-92845000D01*
X273407142Y-92892619D01*
X273311904Y-93035476D01*
X273264285Y-93225952D01*
X273264285Y-93606904D01*
X273311904Y-93702142D01*
X273359523Y-93749761D01*
X273454761Y-93797380D01*
X273645238Y-93797380D01*
X273740476Y-93749761D01*
X273788095Y-93702142D01*
X273835714Y-93606904D01*
X273835714Y-93368809D01*
X273788095Y-93273571D01*
X273740476Y-93225952D01*
X273645238Y-93178333D01*
X273454761Y-93178333D01*
X273359523Y-93225952D01*
X273311904Y-93273571D01*
X273264285Y-93368809D01*
X138938095Y-97877380D02*
X138938095Y-98686904D01*
X138985714Y-98782142D01*
X139033333Y-98829761D01*
X139128571Y-98877380D01*
X139319047Y-98877380D01*
X139414285Y-98829761D01*
X139461904Y-98782142D01*
X139509523Y-98686904D01*
X139509523Y-97877380D01*
X140128571Y-98305952D02*
X140033333Y-98258333D01*
X139985714Y-98210714D01*
X139938095Y-98115476D01*
X139938095Y-98067857D01*
X139985714Y-97972619D01*
X140033333Y-97925000D01*
X140128571Y-97877380D01*
X140319047Y-97877380D01*
X140414285Y-97925000D01*
X140461904Y-97972619D01*
X140509523Y-98067857D01*
X140509523Y-98115476D01*
X140461904Y-98210714D01*
X140414285Y-98258333D01*
X140319047Y-98305952D01*
X140128571Y-98305952D01*
X140033333Y-98353571D01*
X139985714Y-98401190D01*
X139938095Y-98496428D01*
X139938095Y-98686904D01*
X139985714Y-98782142D01*
X140033333Y-98829761D01*
X140128571Y-98877380D01*
X140319047Y-98877380D01*
X140414285Y-98829761D01*
X140461904Y-98782142D01*
X140509523Y-98686904D01*
X140509523Y-98496428D01*
X140461904Y-98401190D01*
X140414285Y-98353571D01*
X140319047Y-98305952D01*
X335857142Y-93702142D02*
X335809523Y-93749761D01*
X335666666Y-93797380D01*
X335571428Y-93797380D01*
X335428571Y-93749761D01*
X335333333Y-93654523D01*
X335285714Y-93559285D01*
X335238095Y-93368809D01*
X335238095Y-93225952D01*
X335285714Y-93035476D01*
X335333333Y-92940238D01*
X335428571Y-92845000D01*
X335571428Y-92797380D01*
X335666666Y-92797380D01*
X335809523Y-92845000D01*
X335857142Y-92892619D01*
X336809523Y-93797380D02*
X336238095Y-93797380D01*
X336523809Y-93797380D02*
X336523809Y-92797380D01*
X336428571Y-92940238D01*
X336333333Y-93035476D01*
X336238095Y-93083095D01*
X337285714Y-93797380D02*
X337476190Y-93797380D01*
X337571428Y-93749761D01*
X337619047Y-93702142D01*
X337714285Y-93559285D01*
X337761904Y-93368809D01*
X337761904Y-92987857D01*
X337714285Y-92892619D01*
X337666666Y-92845000D01*
X337571428Y-92797380D01*
X337380952Y-92797380D01*
X337285714Y-92845000D01*
X337238095Y-92892619D01*
X337190476Y-92987857D01*
X337190476Y-93225952D01*
X337238095Y-93321190D01*
X337285714Y-93368809D01*
X337380952Y-93416428D01*
X337571428Y-93416428D01*
X337666666Y-93368809D01*
X337714285Y-93321190D01*
X337761904Y-93225952D01*
X310457142Y-93702142D02*
X310409523Y-93749761D01*
X310266666Y-93797380D01*
X310171428Y-93797380D01*
X310028571Y-93749761D01*
X309933333Y-93654523D01*
X309885714Y-93559285D01*
X309838095Y-93368809D01*
X309838095Y-93225952D01*
X309885714Y-93035476D01*
X309933333Y-92940238D01*
X310028571Y-92845000D01*
X310171428Y-92797380D01*
X310266666Y-92797380D01*
X310409523Y-92845000D01*
X310457142Y-92892619D01*
X311409523Y-93797380D02*
X310838095Y-93797380D01*
X311123809Y-93797380D02*
X311123809Y-92797380D01*
X311028571Y-92940238D01*
X310933333Y-93035476D01*
X310838095Y-93083095D01*
X311742857Y-92797380D02*
X312409523Y-92797380D01*
X311980952Y-93797380D01*
X228369761Y-97059523D02*
X228417380Y-96916666D01*
X228417380Y-96678571D01*
X228369761Y-96583333D01*
X228322142Y-96535714D01*
X228226904Y-96488095D01*
X228131666Y-96488095D01*
X228036428Y-96535714D01*
X227988809Y-96583333D01*
X227941190Y-96678571D01*
X227893571Y-96869047D01*
X227845952Y-96964285D01*
X227798333Y-97011904D01*
X227703095Y-97059523D01*
X227607857Y-97059523D01*
X227512619Y-97011904D01*
X227465000Y-96964285D01*
X227417380Y-96869047D01*
X227417380Y-96630952D01*
X227465000Y-96488095D01*
X227417380Y-96154761D02*
X228417380Y-95916666D01*
X227703095Y-95726190D01*
X228417380Y-95535714D01*
X227417380Y-95297619D01*
X227417380Y-94488095D02*
X227417380Y-94678571D01*
X227465000Y-94773809D01*
X227512619Y-94821428D01*
X227655476Y-94916666D01*
X227845952Y-94964285D01*
X228226904Y-94964285D01*
X228322142Y-94916666D01*
X228369761Y-94869047D01*
X228417380Y-94773809D01*
X228417380Y-94583333D01*
X228369761Y-94488095D01*
X228322142Y-94440476D01*
X228226904Y-94392857D01*
X227988809Y-94392857D01*
X227893571Y-94440476D01*
X227845952Y-94488095D01*
X227798333Y-94583333D01*
X227798333Y-94773809D01*
X227845952Y-94869047D01*
X227893571Y-94916666D01*
X227988809Y-94964285D01*
X227417380Y-93535714D02*
X227417380Y-93726190D01*
X227465000Y-93821428D01*
X227512619Y-93869047D01*
X227655476Y-93964285D01*
X227845952Y-94011904D01*
X228226904Y-94011904D01*
X228322142Y-93964285D01*
X228369761Y-93916666D01*
X228417380Y-93821428D01*
X228417380Y-93630952D01*
X228369761Y-93535714D01*
X228322142Y-93488095D01*
X228226904Y-93440476D01*
X227988809Y-93440476D01*
X227893571Y-93488095D01*
X227845952Y-93535714D01*
X227798333Y-93630952D01*
X227798333Y-93821428D01*
X227845952Y-93916666D01*
X227893571Y-93964285D01*
X227988809Y-94011904D01*
X348557142Y-93702142D02*
X348509523Y-93749761D01*
X348366666Y-93797380D01*
X348271428Y-93797380D01*
X348128571Y-93749761D01*
X348033333Y-93654523D01*
X347985714Y-93559285D01*
X347938095Y-93368809D01*
X347938095Y-93225952D01*
X347985714Y-93035476D01*
X348033333Y-92940238D01*
X348128571Y-92845000D01*
X348271428Y-92797380D01*
X348366666Y-92797380D01*
X348509523Y-92845000D01*
X348557142Y-92892619D01*
X348938095Y-92892619D02*
X348985714Y-92845000D01*
X349080952Y-92797380D01*
X349319047Y-92797380D01*
X349414285Y-92845000D01*
X349461904Y-92892619D01*
X349509523Y-92987857D01*
X349509523Y-93083095D01*
X349461904Y-93225952D01*
X348890476Y-93797380D01*
X349509523Y-93797380D01*
X350128571Y-92797380D02*
X350223809Y-92797380D01*
X350319047Y-92845000D01*
X350366666Y-92892619D01*
X350414285Y-92987857D01*
X350461904Y-93178333D01*
X350461904Y-93416428D01*
X350414285Y-93606904D01*
X350366666Y-93702142D01*
X350319047Y-93749761D01*
X350223809Y-93797380D01*
X350128571Y-93797380D01*
X350033333Y-93749761D01*
X349985714Y-93702142D01*
X349938095Y-93606904D01*
X349890476Y-93416428D01*
X349890476Y-93178333D01*
X349938095Y-92987857D01*
X349985714Y-92892619D01*
X350033333Y-92845000D01*
X350128571Y-92797380D01*
X236688333Y-121007142D02*
X236640714Y-121054761D01*
X236497857Y-121102380D01*
X236402619Y-121102380D01*
X236259761Y-121054761D01*
X236164523Y-120959523D01*
X236116904Y-120864285D01*
X236069285Y-120673809D01*
X236069285Y-120530952D01*
X236116904Y-120340476D01*
X236164523Y-120245238D01*
X236259761Y-120150000D01*
X236402619Y-120102380D01*
X236497857Y-120102380D01*
X236640714Y-120150000D01*
X236688333Y-120197619D01*
X237069285Y-120197619D02*
X237116904Y-120150000D01*
X237212142Y-120102380D01*
X237450238Y-120102380D01*
X237545476Y-120150000D01*
X237593095Y-120197619D01*
X237640714Y-120292857D01*
X237640714Y-120388095D01*
X237593095Y-120530952D01*
X237021666Y-121102380D01*
X237640714Y-121102380D01*
X163861904Y-97877380D02*
X163861904Y-98686904D01*
X163909523Y-98782142D01*
X163957142Y-98829761D01*
X164052380Y-98877380D01*
X164242857Y-98877380D01*
X164338095Y-98829761D01*
X164385714Y-98782142D01*
X164433333Y-98686904D01*
X164433333Y-97877380D01*
X165433333Y-98877380D02*
X164861904Y-98877380D01*
X165147619Y-98877380D02*
X165147619Y-97877380D01*
X165052380Y-98020238D01*
X164957142Y-98115476D01*
X164861904Y-98163095D01*
X166052380Y-97877380D02*
X166147619Y-97877380D01*
X166242857Y-97925000D01*
X166290476Y-97972619D01*
X166338095Y-98067857D01*
X166385714Y-98258333D01*
X166385714Y-98496428D01*
X166338095Y-98686904D01*
X166290476Y-98782142D01*
X166242857Y-98829761D01*
X166147619Y-98877380D01*
X166052380Y-98877380D01*
X165957142Y-98829761D01*
X165909523Y-98782142D01*
X165861904Y-98686904D01*
X165814285Y-98496428D01*
X165814285Y-98258333D01*
X165861904Y-98067857D01*
X165909523Y-97972619D01*
X165957142Y-97925000D01*
X166052380Y-97877380D01*
X348011904Y-97877380D02*
X348011904Y-98686904D01*
X348059523Y-98782142D01*
X348107142Y-98829761D01*
X348202380Y-98877380D01*
X348392857Y-98877380D01*
X348488095Y-98829761D01*
X348535714Y-98782142D01*
X348583333Y-98686904D01*
X348583333Y-97877380D01*
X349583333Y-98877380D02*
X349011904Y-98877380D01*
X349297619Y-98877380D02*
X349297619Y-97877380D01*
X349202380Y-98020238D01*
X349107142Y-98115476D01*
X349011904Y-98163095D01*
X349916666Y-97877380D02*
X350583333Y-97877380D01*
X350154761Y-98877380D01*
X151638095Y-97877380D02*
X151638095Y-98686904D01*
X151685714Y-98782142D01*
X151733333Y-98829761D01*
X151828571Y-98877380D01*
X152019047Y-98877380D01*
X152114285Y-98829761D01*
X152161904Y-98782142D01*
X152209523Y-98686904D01*
X152209523Y-97877380D01*
X152733333Y-98877380D02*
X152923809Y-98877380D01*
X153019047Y-98829761D01*
X153066666Y-98782142D01*
X153161904Y-98639285D01*
X153209523Y-98448809D01*
X153209523Y-98067857D01*
X153161904Y-97972619D01*
X153114285Y-97925000D01*
X153019047Y-97877380D01*
X152828571Y-97877380D01*
X152733333Y-97925000D01*
X152685714Y-97972619D01*
X152638095Y-98067857D01*
X152638095Y-98305952D01*
X152685714Y-98401190D01*
X152733333Y-98448809D01*
X152828571Y-98496428D01*
X153019047Y-98496428D01*
X153114285Y-98448809D01*
X153161904Y-98401190D01*
X153209523Y-98305952D01*
X222607142Y-115101666D02*
X222654761Y-115149285D01*
X222702380Y-115292142D01*
X222702380Y-115387380D01*
X222654761Y-115530238D01*
X222559523Y-115625476D01*
X222464285Y-115673095D01*
X222273809Y-115720714D01*
X222130952Y-115720714D01*
X221940476Y-115673095D01*
X221845238Y-115625476D01*
X221750000Y-115530238D01*
X221702380Y-115387380D01*
X221702380Y-115292142D01*
X221750000Y-115149285D01*
X221797619Y-115101666D01*
X222702380Y-114149285D02*
X222702380Y-114720714D01*
X222702380Y-114435000D02*
X221702380Y-114435000D01*
X221845238Y-114530238D01*
X221940476Y-114625476D01*
X221988095Y-114720714D01*
X251928333Y-121007142D02*
X251880714Y-121054761D01*
X251737857Y-121102380D01*
X251642619Y-121102380D01*
X251499761Y-121054761D01*
X251404523Y-120959523D01*
X251356904Y-120864285D01*
X251309285Y-120673809D01*
X251309285Y-120530952D01*
X251356904Y-120340476D01*
X251404523Y-120245238D01*
X251499761Y-120150000D01*
X251642619Y-120102380D01*
X251737857Y-120102380D01*
X251880714Y-120150000D01*
X251928333Y-120197619D01*
X252261666Y-120102380D02*
X252880714Y-120102380D01*
X252547380Y-120483333D01*
X252690238Y-120483333D01*
X252785476Y-120530952D01*
X252833095Y-120578571D01*
X252880714Y-120673809D01*
X252880714Y-120911904D01*
X252833095Y-121007142D01*
X252785476Y-121054761D01*
X252690238Y-121102380D01*
X252404523Y-121102380D01*
X252309285Y-121054761D01*
X252261666Y-121007142D01*
X100838095Y-97877380D02*
X100838095Y-98686904D01*
X100885714Y-98782142D01*
X100933333Y-98829761D01*
X101028571Y-98877380D01*
X101219047Y-98877380D01*
X101314285Y-98829761D01*
X101361904Y-98782142D01*
X101409523Y-98686904D01*
X101409523Y-97877380D01*
X102361904Y-97877380D02*
X101885714Y-97877380D01*
X101838095Y-98353571D01*
X101885714Y-98305952D01*
X101980952Y-98258333D01*
X102219047Y-98258333D01*
X102314285Y-98305952D01*
X102361904Y-98353571D01*
X102409523Y-98448809D01*
X102409523Y-98686904D01*
X102361904Y-98782142D01*
X102314285Y-98829761D01*
X102219047Y-98877380D01*
X101980952Y-98877380D01*
X101885714Y-98829761D01*
X101838095Y-98782142D01*
X309911904Y-97877380D02*
X309911904Y-98686904D01*
X309959523Y-98782142D01*
X310007142Y-98829761D01*
X310102380Y-98877380D01*
X310292857Y-98877380D01*
X310388095Y-98829761D01*
X310435714Y-98782142D01*
X310483333Y-98686904D01*
X310483333Y-97877380D01*
X311483333Y-98877380D02*
X310911904Y-98877380D01*
X311197619Y-98877380D02*
X311197619Y-97877380D01*
X311102380Y-98020238D01*
X311007142Y-98115476D01*
X310911904Y-98163095D01*
X312340476Y-98210714D02*
X312340476Y-98877380D01*
X312102380Y-97829761D02*
X311864285Y-98544047D01*
X312483333Y-98544047D01*
X322611904Y-97877380D02*
X322611904Y-98686904D01*
X322659523Y-98782142D01*
X322707142Y-98829761D01*
X322802380Y-98877380D01*
X322992857Y-98877380D01*
X323088095Y-98829761D01*
X323135714Y-98782142D01*
X323183333Y-98686904D01*
X323183333Y-97877380D01*
X324183333Y-98877380D02*
X323611904Y-98877380D01*
X323897619Y-98877380D02*
X323897619Y-97877380D01*
X323802380Y-98020238D01*
X323707142Y-98115476D01*
X323611904Y-98163095D01*
X325088095Y-97877380D02*
X324611904Y-97877380D01*
X324564285Y-98353571D01*
X324611904Y-98305952D01*
X324707142Y-98258333D01*
X324945238Y-98258333D01*
X325040476Y-98305952D01*
X325088095Y-98353571D01*
X325135714Y-98448809D01*
X325135714Y-98686904D01*
X325088095Y-98782142D01*
X325040476Y-98829761D01*
X324945238Y-98877380D01*
X324707142Y-98877380D01*
X324611904Y-98829761D01*
X324564285Y-98782142D01*
X114083333Y-93702142D02*
X114035714Y-93749761D01*
X113892857Y-93797380D01*
X113797619Y-93797380D01*
X113654761Y-93749761D01*
X113559523Y-93654523D01*
X113511904Y-93559285D01*
X113464285Y-93368809D01*
X113464285Y-93225952D01*
X113511904Y-93035476D01*
X113559523Y-92940238D01*
X113654761Y-92845000D01*
X113797619Y-92797380D01*
X113892857Y-92797380D01*
X114035714Y-92845000D01*
X114083333Y-92892619D01*
X114559523Y-93797380D02*
X114750000Y-93797380D01*
X114845238Y-93749761D01*
X114892857Y-93702142D01*
X114988095Y-93559285D01*
X115035714Y-93368809D01*
X115035714Y-92987857D01*
X114988095Y-92892619D01*
X114940476Y-92845000D01*
X114845238Y-92797380D01*
X114654761Y-92797380D01*
X114559523Y-92845000D01*
X114511904Y-92892619D01*
X114464285Y-92987857D01*
X114464285Y-93225952D01*
X114511904Y-93321190D01*
X114559523Y-93368809D01*
X114654761Y-93416428D01*
X114845238Y-93416428D01*
X114940476Y-93368809D01*
X114988095Y-93321190D01*
X115035714Y-93225952D01*
X285057142Y-93702142D02*
X285009523Y-93749761D01*
X284866666Y-93797380D01*
X284771428Y-93797380D01*
X284628571Y-93749761D01*
X284533333Y-93654523D01*
X284485714Y-93559285D01*
X284438095Y-93368809D01*
X284438095Y-93225952D01*
X284485714Y-93035476D01*
X284533333Y-92940238D01*
X284628571Y-92845000D01*
X284771428Y-92797380D01*
X284866666Y-92797380D01*
X285009523Y-92845000D01*
X285057142Y-92892619D01*
X286009523Y-93797380D02*
X285438095Y-93797380D01*
X285723809Y-93797380D02*
X285723809Y-92797380D01*
X285628571Y-92940238D01*
X285533333Y-93035476D01*
X285438095Y-93083095D01*
X286914285Y-92797380D02*
X286438095Y-92797380D01*
X286390476Y-93273571D01*
X286438095Y-93225952D01*
X286533333Y-93178333D01*
X286771428Y-93178333D01*
X286866666Y-93225952D01*
X286914285Y-93273571D01*
X286961904Y-93368809D01*
X286961904Y-93606904D01*
X286914285Y-93702142D01*
X286866666Y-93749761D01*
X286771428Y-93797380D01*
X286533333Y-93797380D01*
X286438095Y-93749761D01*
X286390476Y-93702142D01*
X259588095Y-97877380D02*
X259588095Y-98686904D01*
X259635714Y-98782142D01*
X259683333Y-98829761D01*
X259778571Y-98877380D01*
X259969047Y-98877380D01*
X260064285Y-98829761D01*
X260111904Y-98782142D01*
X260159523Y-98686904D01*
X260159523Y-97877380D01*
X260588095Y-97972619D02*
X260635714Y-97925000D01*
X260730952Y-97877380D01*
X260969047Y-97877380D01*
X261064285Y-97925000D01*
X261111904Y-97972619D01*
X261159523Y-98067857D01*
X261159523Y-98163095D01*
X261111904Y-98305952D01*
X260540476Y-98877380D01*
X261159523Y-98877380D01*
X214780833Y-121102380D02*
X214447500Y-120626190D01*
X214209404Y-121102380D02*
X214209404Y-120102380D01*
X214590357Y-120102380D01*
X214685595Y-120150000D01*
X214733214Y-120197619D01*
X214780833Y-120292857D01*
X214780833Y-120435714D01*
X214733214Y-120530952D01*
X214685595Y-120578571D01*
X214590357Y-120626190D01*
X214209404Y-120626190D01*
X215114166Y-120102380D02*
X215733214Y-120102380D01*
X215399880Y-120483333D01*
X215542738Y-120483333D01*
X215637976Y-120530952D01*
X215685595Y-120578571D01*
X215733214Y-120673809D01*
X215733214Y-120911904D01*
X215685595Y-121007142D01*
X215637976Y-121054761D01*
X215542738Y-121102380D01*
X215257023Y-121102380D01*
X215161785Y-121054761D01*
X215114166Y-121007142D01*
X260183333Y-93702142D02*
X260135714Y-93749761D01*
X259992857Y-93797380D01*
X259897619Y-93797380D01*
X259754761Y-93749761D01*
X259659523Y-93654523D01*
X259611904Y-93559285D01*
X259564285Y-93368809D01*
X259564285Y-93225952D01*
X259611904Y-93035476D01*
X259659523Y-92940238D01*
X259754761Y-92845000D01*
X259897619Y-92797380D01*
X259992857Y-92797380D01*
X260135714Y-92845000D01*
X260183333Y-92892619D01*
X261088095Y-92797380D02*
X260611904Y-92797380D01*
X260564285Y-93273571D01*
X260611904Y-93225952D01*
X260707142Y-93178333D01*
X260945238Y-93178333D01*
X261040476Y-93225952D01*
X261088095Y-93273571D01*
X261135714Y-93368809D01*
X261135714Y-93606904D01*
X261088095Y-93702142D01*
X261040476Y-93749761D01*
X260945238Y-93797380D01*
X260707142Y-93797380D01*
X260611904Y-93749761D01*
X260564285Y-93702142D01*
X211605833Y-121102380D02*
X211272500Y-120626190D01*
X211034404Y-121102380D02*
X211034404Y-120102380D01*
X211415357Y-120102380D01*
X211510595Y-120150000D01*
X211558214Y-120197619D01*
X211605833Y-120292857D01*
X211605833Y-120435714D01*
X211558214Y-120530952D01*
X211510595Y-120578571D01*
X211415357Y-120626190D01*
X211034404Y-120626190D01*
X211986785Y-120197619D02*
X212034404Y-120150000D01*
X212129642Y-120102380D01*
X212367738Y-120102380D01*
X212462976Y-120150000D01*
X212510595Y-120197619D01*
X212558214Y-120292857D01*
X212558214Y-120388095D01*
X212510595Y-120530952D01*
X211939166Y-121102380D01*
X212558214Y-121102380D01*
X243998809Y-120626190D02*
X243998809Y-121102380D01*
X243665476Y-120102380D02*
X243998809Y-120626190D01*
X244332142Y-120102380D01*
X245189285Y-121102380D02*
X244617857Y-121102380D01*
X244903571Y-121102380D02*
X244903571Y-120102380D01*
X244808333Y-120245238D01*
X244713095Y-120340476D01*
X244617857Y-120388095D01*
X126238095Y-97877380D02*
X126238095Y-98686904D01*
X126285714Y-98782142D01*
X126333333Y-98829761D01*
X126428571Y-98877380D01*
X126619047Y-98877380D01*
X126714285Y-98829761D01*
X126761904Y-98782142D01*
X126809523Y-98686904D01*
X126809523Y-97877380D01*
X127190476Y-97877380D02*
X127857142Y-97877380D01*
X127428571Y-98877380D01*
X297757142Y-93702142D02*
X297709523Y-93749761D01*
X297566666Y-93797380D01*
X297471428Y-93797380D01*
X297328571Y-93749761D01*
X297233333Y-93654523D01*
X297185714Y-93559285D01*
X297138095Y-93368809D01*
X297138095Y-93225952D01*
X297185714Y-93035476D01*
X297233333Y-92940238D01*
X297328571Y-92845000D01*
X297471428Y-92797380D01*
X297566666Y-92797380D01*
X297709523Y-92845000D01*
X297757142Y-92892619D01*
X298709523Y-93797380D02*
X298138095Y-93797380D01*
X298423809Y-93797380D02*
X298423809Y-92797380D01*
X298328571Y-92940238D01*
X298233333Y-93035476D01*
X298138095Y-93083095D01*
X299566666Y-92797380D02*
X299376190Y-92797380D01*
X299280952Y-92845000D01*
X299233333Y-92892619D01*
X299138095Y-93035476D01*
X299090476Y-93225952D01*
X299090476Y-93606904D01*
X299138095Y-93702142D01*
X299185714Y-93749761D01*
X299280952Y-93797380D01*
X299471428Y-93797380D01*
X299566666Y-93749761D01*
X299614285Y-93702142D01*
X299661904Y-93606904D01*
X299661904Y-93368809D01*
X299614285Y-93273571D01*
X299566666Y-93225952D01*
X299471428Y-93178333D01*
X299280952Y-93178333D01*
X299185714Y-93225952D01*
X299138095Y-93273571D01*
X299090476Y-93368809D01*
X323207142Y-93702142D02*
X323159523Y-93749761D01*
X323016666Y-93797380D01*
X322921428Y-93797380D01*
X322778571Y-93749761D01*
X322683333Y-93654523D01*
X322635714Y-93559285D01*
X322588095Y-93368809D01*
X322588095Y-93225952D01*
X322635714Y-93035476D01*
X322683333Y-92940238D01*
X322778571Y-92845000D01*
X322921428Y-92797380D01*
X323016666Y-92797380D01*
X323159523Y-92845000D01*
X323207142Y-92892619D01*
X324159523Y-93797380D02*
X323588095Y-93797380D01*
X323873809Y-93797380D02*
X323873809Y-92797380D01*
X323778571Y-92940238D01*
X323683333Y-93035476D01*
X323588095Y-93083095D01*
X324730952Y-93225952D02*
X324635714Y-93178333D01*
X324588095Y-93130714D01*
X324540476Y-93035476D01*
X324540476Y-92987857D01*
X324588095Y-92892619D01*
X324635714Y-92845000D01*
X324730952Y-92797380D01*
X324921428Y-92797380D01*
X325016666Y-92845000D01*
X325064285Y-92892619D01*
X325111904Y-92987857D01*
X325111904Y-93035476D01*
X325064285Y-93130714D01*
X325016666Y-93178333D01*
X324921428Y-93225952D01*
X324730952Y-93225952D01*
X324635714Y-93273571D01*
X324588095Y-93321190D01*
X324540476Y-93416428D01*
X324540476Y-93606904D01*
X324588095Y-93702142D01*
X324635714Y-93749761D01*
X324730952Y-93797380D01*
X324921428Y-93797380D01*
X325016666Y-93749761D01*
X325064285Y-93702142D01*
X325111904Y-93606904D01*
X325111904Y-93416428D01*
X325064285Y-93321190D01*
X325016666Y-93273571D01*
X324921428Y-93225952D01*
X246197380Y-95988095D02*
X245197380Y-95988095D01*
X245197380Y-95750000D01*
X245245000Y-95607142D01*
X245340238Y-95511904D01*
X245435476Y-95464285D01*
X245625952Y-95416666D01*
X245768809Y-95416666D01*
X245959285Y-95464285D01*
X246054523Y-95511904D01*
X246149761Y-95607142D01*
X246197380Y-95750000D01*
X246197380Y-95988095D01*
X245197380Y-95083333D02*
X245197380Y-94464285D01*
X245578333Y-94797619D01*
X245578333Y-94654761D01*
X245625952Y-94559523D01*
X245673571Y-94511904D01*
X245768809Y-94464285D01*
X246006904Y-94464285D01*
X246102142Y-94511904D01*
X246149761Y-94559523D01*
X246197380Y-94654761D01*
X246197380Y-94940476D01*
X246149761Y-95035714D01*
X246102142Y-95083333D01*
X79248095Y-97607380D02*
X79248095Y-96607380D01*
X79248095Y-97083571D02*
X79819523Y-97083571D01*
X79819523Y-97607380D02*
X79819523Y-96607380D01*
X80819523Y-97607380D02*
X80248095Y-97607380D01*
X80533809Y-97607380D02*
X80533809Y-96607380D01*
X80438571Y-96750238D01*
X80343333Y-96845476D01*
X80248095Y-96893095D01*
X357378095Y-97607380D02*
X357378095Y-96607380D01*
X357378095Y-97083571D02*
X357949523Y-97083571D01*
X357949523Y-97607380D02*
X357949523Y-96607380D01*
X358378095Y-96702619D02*
X358425714Y-96655000D01*
X358520952Y-96607380D01*
X358759047Y-96607380D01*
X358854285Y-96655000D01*
X358901904Y-96702619D01*
X358949523Y-96797857D01*
X358949523Y-96893095D01*
X358901904Y-97035952D01*
X358330476Y-97607380D01*
X358949523Y-97607380D01*
X357378095Y-114616380D02*
X357378095Y-113616380D01*
X357378095Y-114092571D02*
X357949523Y-114092571D01*
X357949523Y-114616380D02*
X357949523Y-113616380D01*
X358854285Y-113949714D02*
X358854285Y-114616380D01*
X358616190Y-113568761D02*
X358378095Y-114283047D01*
X358997142Y-114283047D01*
X335311904Y-97877380D02*
X335311904Y-98686904D01*
X335359523Y-98782142D01*
X335407142Y-98829761D01*
X335502380Y-98877380D01*
X335692857Y-98877380D01*
X335788095Y-98829761D01*
X335835714Y-98782142D01*
X335883333Y-98686904D01*
X335883333Y-97877380D01*
X336883333Y-98877380D02*
X336311904Y-98877380D01*
X336597619Y-98877380D02*
X336597619Y-97877380D01*
X336502380Y-98020238D01*
X336407142Y-98115476D01*
X336311904Y-98163095D01*
X337740476Y-97877380D02*
X337550000Y-97877380D01*
X337454761Y-97925000D01*
X337407142Y-97972619D01*
X337311904Y-98115476D01*
X337264285Y-98305952D01*
X337264285Y-98686904D01*
X337311904Y-98782142D01*
X337359523Y-98829761D01*
X337454761Y-98877380D01*
X337645238Y-98877380D01*
X337740476Y-98829761D01*
X337788095Y-98782142D01*
X337835714Y-98686904D01*
X337835714Y-98448809D01*
X337788095Y-98353571D01*
X337740476Y-98305952D01*
X337645238Y-98258333D01*
X337454761Y-98258333D01*
X337359523Y-98305952D01*
X337311904Y-98353571D01*
X337264285Y-98448809D01*
X164407142Y-93702142D02*
X164359523Y-93749761D01*
X164216666Y-93797380D01*
X164121428Y-93797380D01*
X163978571Y-93749761D01*
X163883333Y-93654523D01*
X163835714Y-93559285D01*
X163788095Y-93368809D01*
X163788095Y-93225952D01*
X163835714Y-93035476D01*
X163883333Y-92940238D01*
X163978571Y-92845000D01*
X164121428Y-92797380D01*
X164216666Y-92797380D01*
X164359523Y-92845000D01*
X164407142Y-92892619D01*
X165359523Y-93797380D02*
X164788095Y-93797380D01*
X165073809Y-93797380D02*
X165073809Y-92797380D01*
X164978571Y-92940238D01*
X164883333Y-93035476D01*
X164788095Y-93083095D01*
X165692857Y-92797380D02*
X166311904Y-92797380D01*
X165978571Y-93178333D01*
X166121428Y-93178333D01*
X166216666Y-93225952D01*
X166264285Y-93273571D01*
X166311904Y-93368809D01*
X166311904Y-93606904D01*
X166264285Y-93702142D01*
X166216666Y-93749761D01*
X166121428Y-93797380D01*
X165835714Y-93797380D01*
X165740476Y-93749761D01*
X165692857Y-93702142D01*
X113538095Y-97877380D02*
X113538095Y-98686904D01*
X113585714Y-98782142D01*
X113633333Y-98829761D01*
X113728571Y-98877380D01*
X113919047Y-98877380D01*
X114014285Y-98829761D01*
X114061904Y-98782142D01*
X114109523Y-98686904D01*
X114109523Y-97877380D01*
X115014285Y-97877380D02*
X114823809Y-97877380D01*
X114728571Y-97925000D01*
X114680952Y-97972619D01*
X114585714Y-98115476D01*
X114538095Y-98305952D01*
X114538095Y-98686904D01*
X114585714Y-98782142D01*
X114633333Y-98829761D01*
X114728571Y-98877380D01*
X114919047Y-98877380D01*
X115014285Y-98829761D01*
X115061904Y-98782142D01*
X115109523Y-98686904D01*
X115109523Y-98448809D01*
X115061904Y-98353571D01*
X115014285Y-98305952D01*
X114919047Y-98258333D01*
X114728571Y-98258333D01*
X114633333Y-98305952D01*
X114585714Y-98353571D01*
X114538095Y-98448809D01*
X222702380Y-118276666D02*
X222226190Y-118610000D01*
X222702380Y-118848095D02*
X221702380Y-118848095D01*
X221702380Y-118467142D01*
X221750000Y-118371904D01*
X221797619Y-118324285D01*
X221892857Y-118276666D01*
X222035714Y-118276666D01*
X222130952Y-118324285D01*
X222178571Y-118371904D01*
X222226190Y-118467142D01*
X222226190Y-118848095D01*
X221702380Y-117419523D02*
X221702380Y-117610000D01*
X221750000Y-117705238D01*
X221797619Y-117752857D01*
X221940476Y-117848095D01*
X222130952Y-117895714D01*
X222511904Y-117895714D01*
X222607142Y-117848095D01*
X222654761Y-117800476D01*
X222702380Y-117705238D01*
X222702380Y-117514761D01*
X222654761Y-117419523D01*
X222607142Y-117371904D01*
X222511904Y-117324285D01*
X222273809Y-117324285D01*
X222178571Y-117371904D01*
X222130952Y-117419523D01*
X222083333Y-117514761D01*
X222083333Y-117705238D01*
X222130952Y-117800476D01*
X222178571Y-117848095D01*
X222273809Y-117895714D01*
X126307142Y-93702142D02*
X126259523Y-93749761D01*
X126116666Y-93797380D01*
X126021428Y-93797380D01*
X125878571Y-93749761D01*
X125783333Y-93654523D01*
X125735714Y-93559285D01*
X125688095Y-93368809D01*
X125688095Y-93225952D01*
X125735714Y-93035476D01*
X125783333Y-92940238D01*
X125878571Y-92845000D01*
X126021428Y-92797380D01*
X126116666Y-92797380D01*
X126259523Y-92845000D01*
X126307142Y-92892619D01*
X127259523Y-93797380D02*
X126688095Y-93797380D01*
X126973809Y-93797380D02*
X126973809Y-92797380D01*
X126878571Y-92940238D01*
X126783333Y-93035476D01*
X126688095Y-93083095D01*
X127878571Y-92797380D02*
X127973809Y-92797380D01*
X128069047Y-92845000D01*
X128116666Y-92892619D01*
X128164285Y-92987857D01*
X128211904Y-93178333D01*
X128211904Y-93416428D01*
X128164285Y-93606904D01*
X128116666Y-93702142D01*
X128069047Y-93749761D01*
X127973809Y-93797380D01*
X127878571Y-93797380D01*
X127783333Y-93749761D01*
X127735714Y-93702142D01*
X127688095Y-93606904D01*
X127640476Y-93416428D01*
X127640476Y-93178333D01*
X127688095Y-92987857D01*
X127735714Y-92892619D01*
X127783333Y-92845000D01*
X127878571Y-92797380D01*
X176561904Y-97877380D02*
X176561904Y-98686904D01*
X176609523Y-98782142D01*
X176657142Y-98829761D01*
X176752380Y-98877380D01*
X176942857Y-98877380D01*
X177038095Y-98829761D01*
X177085714Y-98782142D01*
X177133333Y-98686904D01*
X177133333Y-97877380D01*
X178133333Y-98877380D02*
X177561904Y-98877380D01*
X177847619Y-98877380D02*
X177847619Y-97877380D01*
X177752380Y-98020238D01*
X177657142Y-98115476D01*
X177561904Y-98163095D01*
X179085714Y-98877380D02*
X178514285Y-98877380D01*
X178800000Y-98877380D02*
X178800000Y-97877380D01*
X178704761Y-98020238D01*
X178609523Y-98115476D01*
X178514285Y-98163095D01*
X297211904Y-97877380D02*
X297211904Y-98686904D01*
X297259523Y-98782142D01*
X297307142Y-98829761D01*
X297402380Y-98877380D01*
X297592857Y-98877380D01*
X297688095Y-98829761D01*
X297735714Y-98782142D01*
X297783333Y-98686904D01*
X297783333Y-97877380D01*
X298783333Y-98877380D02*
X298211904Y-98877380D01*
X298497619Y-98877380D02*
X298497619Y-97877380D01*
X298402380Y-98020238D01*
X298307142Y-98115476D01*
X298211904Y-98163095D01*
X299116666Y-97877380D02*
X299735714Y-97877380D01*
X299402380Y-98258333D01*
X299545238Y-98258333D01*
X299640476Y-98305952D01*
X299688095Y-98353571D01*
X299735714Y-98448809D01*
X299735714Y-98686904D01*
X299688095Y-98782142D01*
X299640476Y-98829761D01*
X299545238Y-98877380D01*
X299259523Y-98877380D01*
X299164285Y-98829761D01*
X299116666Y-98782142D01*
X139007142Y-93702142D02*
X138959523Y-93749761D01*
X138816666Y-93797380D01*
X138721428Y-93797380D01*
X138578571Y-93749761D01*
X138483333Y-93654523D01*
X138435714Y-93559285D01*
X138388095Y-93368809D01*
X138388095Y-93225952D01*
X138435714Y-93035476D01*
X138483333Y-92940238D01*
X138578571Y-92845000D01*
X138721428Y-92797380D01*
X138816666Y-92797380D01*
X138959523Y-92845000D01*
X139007142Y-92892619D01*
X139959523Y-93797380D02*
X139388095Y-93797380D01*
X139673809Y-93797380D02*
X139673809Y-92797380D01*
X139578571Y-92940238D01*
X139483333Y-93035476D01*
X139388095Y-93083095D01*
X140911904Y-93797380D02*
X140340476Y-93797380D01*
X140626190Y-93797380D02*
X140626190Y-92797380D01*
X140530952Y-92940238D01*
X140435714Y-93035476D01*
X140340476Y-93083095D01*
X232179761Y-97059523D02*
X232227380Y-96916666D01*
X232227380Y-96678571D01*
X232179761Y-96583333D01*
X232132142Y-96535714D01*
X232036904Y-96488095D01*
X231941666Y-96488095D01*
X231846428Y-96535714D01*
X231798809Y-96583333D01*
X231751190Y-96678571D01*
X231703571Y-96869047D01*
X231655952Y-96964285D01*
X231608333Y-97011904D01*
X231513095Y-97059523D01*
X231417857Y-97059523D01*
X231322619Y-97011904D01*
X231275000Y-96964285D01*
X231227380Y-96869047D01*
X231227380Y-96630952D01*
X231275000Y-96488095D01*
X231227380Y-96154761D02*
X232227380Y-95916666D01*
X231513095Y-95726190D01*
X232227380Y-95535714D01*
X231227380Y-95297619D01*
X231227380Y-94488095D02*
X231227380Y-94678571D01*
X231275000Y-94773809D01*
X231322619Y-94821428D01*
X231465476Y-94916666D01*
X231655952Y-94964285D01*
X232036904Y-94964285D01*
X232132142Y-94916666D01*
X232179761Y-94869047D01*
X232227380Y-94773809D01*
X232227380Y-94583333D01*
X232179761Y-94488095D01*
X232132142Y-94440476D01*
X232036904Y-94392857D01*
X231798809Y-94392857D01*
X231703571Y-94440476D01*
X231655952Y-94488095D01*
X231608333Y-94583333D01*
X231608333Y-94773809D01*
X231655952Y-94869047D01*
X231703571Y-94916666D01*
X231798809Y-94964285D01*
X231227380Y-94059523D02*
X231227380Y-93392857D01*
X232227380Y-93821428D01*
X240482380Y-101131666D02*
X240006190Y-101465000D01*
X240482380Y-101703095D02*
X239482380Y-101703095D01*
X239482380Y-101322142D01*
X239530000Y-101226904D01*
X239577619Y-101179285D01*
X239672857Y-101131666D01*
X239815714Y-101131666D01*
X239910952Y-101179285D01*
X239958571Y-101226904D01*
X240006190Y-101322142D01*
X240006190Y-101703095D01*
X239482380Y-100798333D02*
X239482380Y-100131666D01*
X240482380Y-100560238D01*
X284511904Y-97877380D02*
X284511904Y-98686904D01*
X284559523Y-98782142D01*
X284607142Y-98829761D01*
X284702380Y-98877380D01*
X284892857Y-98877380D01*
X284988095Y-98829761D01*
X285035714Y-98782142D01*
X285083333Y-98686904D01*
X285083333Y-97877380D01*
X286083333Y-98877380D02*
X285511904Y-98877380D01*
X285797619Y-98877380D02*
X285797619Y-97877380D01*
X285702380Y-98020238D01*
X285607142Y-98115476D01*
X285511904Y-98163095D01*
X286464285Y-97972619D02*
X286511904Y-97925000D01*
X286607142Y-97877380D01*
X286845238Y-97877380D01*
X286940476Y-97925000D01*
X286988095Y-97972619D01*
X287035714Y-98067857D01*
X287035714Y-98163095D01*
X286988095Y-98305952D01*
X286416666Y-98877380D01*
X287035714Y-98877380D01*
X88138095Y-97877380D02*
X88138095Y-98686904D01*
X88185714Y-98782142D01*
X88233333Y-98829761D01*
X88328571Y-98877380D01*
X88519047Y-98877380D01*
X88614285Y-98829761D01*
X88661904Y-98782142D01*
X88709523Y-98686904D01*
X88709523Y-97877380D01*
X89614285Y-98210714D02*
X89614285Y-98877380D01*
X89376190Y-97829761D02*
X89138095Y-98544047D01*
X89757142Y-98544047D01*
X151707142Y-93702142D02*
X151659523Y-93749761D01*
X151516666Y-93797380D01*
X151421428Y-93797380D01*
X151278571Y-93749761D01*
X151183333Y-93654523D01*
X151135714Y-93559285D01*
X151088095Y-93368809D01*
X151088095Y-93225952D01*
X151135714Y-93035476D01*
X151183333Y-92940238D01*
X151278571Y-92845000D01*
X151421428Y-92797380D01*
X151516666Y-92797380D01*
X151659523Y-92845000D01*
X151707142Y-92892619D01*
X152659523Y-93797380D02*
X152088095Y-93797380D01*
X152373809Y-93797380D02*
X152373809Y-92797380D01*
X152278571Y-92940238D01*
X152183333Y-93035476D01*
X152088095Y-93083095D01*
X153040476Y-92892619D02*
X153088095Y-92845000D01*
X153183333Y-92797380D01*
X153421428Y-92797380D01*
X153516666Y-92845000D01*
X153564285Y-92892619D01*
X153611904Y-92987857D01*
X153611904Y-93083095D01*
X153564285Y-93225952D01*
X152992857Y-93797380D01*
X153611904Y-93797380D01*
X198072470Y-217622380D02*
X198072470Y-216622380D01*
X198072470Y-217098571D02*
X198643898Y-217098571D01*
X198643898Y-217622380D02*
X198643898Y-216622380D01*
X199548660Y-216622380D02*
X199358184Y-216622380D01*
X199262946Y-216670000D01*
X199215327Y-216717619D01*
X199120089Y-216860476D01*
X199072470Y-217050952D01*
X199072470Y-217431904D01*
X199120089Y-217527142D01*
X199167708Y-217574761D01*
X199262946Y-217622380D01*
X199453422Y-217622380D01*
X199548660Y-217574761D01*
X199596279Y-217527142D01*
X199643898Y-217431904D01*
X199643898Y-217193809D01*
X199596279Y-217098571D01*
X199548660Y-217050952D01*
X199453422Y-217003333D01*
X199262946Y-217003333D01*
X199167708Y-217050952D01*
X199120089Y-217098571D01*
X199072470Y-217193809D01*
X334994345Y-217622380D02*
X334994345Y-216622380D01*
X334994345Y-217098571D02*
X335565773Y-217098571D01*
X335565773Y-217622380D02*
X335565773Y-216622380D01*
X336184821Y-217050952D02*
X336089583Y-217003333D01*
X336041964Y-216955714D01*
X335994345Y-216860476D01*
X335994345Y-216812857D01*
X336041964Y-216717619D01*
X336089583Y-216670000D01*
X336184821Y-216622380D01*
X336375297Y-216622380D01*
X336470535Y-216670000D01*
X336518154Y-216717619D01*
X336565773Y-216812857D01*
X336565773Y-216860476D01*
X336518154Y-216955714D01*
X336470535Y-217003333D01*
X336375297Y-217050952D01*
X336184821Y-217050952D01*
X336089583Y-217098571D01*
X336041964Y-217146190D01*
X335994345Y-217241428D01*
X335994345Y-217431904D01*
X336041964Y-217527142D01*
X336089583Y-217574761D01*
X336184821Y-217622380D01*
X336375297Y-217622380D01*
X336470535Y-217574761D01*
X336518154Y-217527142D01*
X336565773Y-217431904D01*
X336565773Y-217241428D01*
X336518154Y-217146190D01*
X336470535Y-217098571D01*
X336375297Y-217050952D01*
X177107142Y-93702142D02*
X177059523Y-93749761D01*
X176916666Y-93797380D01*
X176821428Y-93797380D01*
X176678571Y-93749761D01*
X176583333Y-93654523D01*
X176535714Y-93559285D01*
X176488095Y-93368809D01*
X176488095Y-93225952D01*
X176535714Y-93035476D01*
X176583333Y-92940238D01*
X176678571Y-92845000D01*
X176821428Y-92797380D01*
X176916666Y-92797380D01*
X177059523Y-92845000D01*
X177107142Y-92892619D01*
X178059523Y-93797380D02*
X177488095Y-93797380D01*
X177773809Y-93797380D02*
X177773809Y-92797380D01*
X177678571Y-92940238D01*
X177583333Y-93035476D01*
X177488095Y-93083095D01*
X178916666Y-93130714D02*
X178916666Y-93797380D01*
X178678571Y-92749761D02*
X178440476Y-93464047D01*
X179059523Y-93464047D01*
X79248095Y-114616380D02*
X79248095Y-113616380D01*
X79248095Y-114092571D02*
X79819523Y-114092571D01*
X79819523Y-114616380D02*
X79819523Y-113616380D01*
X80200476Y-113616380D02*
X80819523Y-113616380D01*
X80486190Y-113997333D01*
X80629047Y-113997333D01*
X80724285Y-114044952D01*
X80771904Y-114092571D01*
X80819523Y-114187809D01*
X80819523Y-114425904D01*
X80771904Y-114521142D01*
X80724285Y-114568761D01*
X80629047Y-114616380D01*
X80343333Y-114616380D01*
X80248095Y-114568761D01*
X80200476Y-114521142D01*
X237307380Y-101655476D02*
X236831190Y-101988809D01*
X237307380Y-102226904D02*
X236307380Y-102226904D01*
X236307380Y-101845952D01*
X236355000Y-101750714D01*
X236402619Y-101703095D01*
X236497857Y-101655476D01*
X236640714Y-101655476D01*
X236735952Y-101703095D01*
X236783571Y-101750714D01*
X236831190Y-101845952D01*
X236831190Y-102226904D01*
X237307380Y-101226904D02*
X236307380Y-101226904D01*
X237307380Y-100655476D01*
X236307380Y-100655476D01*
X237307380Y-99655476D02*
X237307380Y-100226904D01*
X237307380Y-99941190D02*
X236307380Y-99941190D01*
X236450238Y-100036428D01*
X236545476Y-100131666D01*
X236593095Y-100226904D01*
X208430833Y-121102380D02*
X208097500Y-120626190D01*
X207859404Y-121102380D02*
X207859404Y-120102380D01*
X208240357Y-120102380D01*
X208335595Y-120150000D01*
X208383214Y-120197619D01*
X208430833Y-120292857D01*
X208430833Y-120435714D01*
X208383214Y-120530952D01*
X208335595Y-120578571D01*
X208240357Y-120626190D01*
X207859404Y-120626190D01*
X209383214Y-121102380D02*
X208811785Y-121102380D01*
X209097500Y-121102380D02*
X209097500Y-120102380D01*
X209002261Y-120245238D01*
X208907023Y-120340476D01*
X208811785Y-120388095D01*
X272288095Y-97877380D02*
X272288095Y-98686904D01*
X272335714Y-98782142D01*
X272383333Y-98829761D01*
X272478571Y-98877380D01*
X272669047Y-98877380D01*
X272764285Y-98829761D01*
X272811904Y-98782142D01*
X272859523Y-98686904D01*
X272859523Y-97877380D01*
X273240476Y-97877380D02*
X273859523Y-97877380D01*
X273526190Y-98258333D01*
X273669047Y-98258333D01*
X273764285Y-98305952D01*
X273811904Y-98353571D01*
X273859523Y-98448809D01*
X273859523Y-98686904D01*
X273811904Y-98782142D01*
X273764285Y-98829761D01*
X273669047Y-98877380D01*
X273383333Y-98877380D01*
X273288095Y-98829761D01*
X273240476Y-98782142D01*
X192301904Y-93797380D02*
X192301904Y-92797380D01*
X192540000Y-92797380D01*
X192682857Y-92845000D01*
X192778095Y-92940238D01*
X192825714Y-93035476D01*
X192873333Y-93225952D01*
X192873333Y-93368809D01*
X192825714Y-93559285D01*
X192778095Y-93654523D01*
X192682857Y-93749761D01*
X192540000Y-93797380D01*
X192301904Y-93797380D01*
X193730476Y-93130714D02*
X193730476Y-93797380D01*
X193492380Y-92749761D02*
X193254285Y-93464047D01*
X193873333Y-93464047D01*
X84074166Y-141374761D02*
X84217023Y-141422380D01*
X84455119Y-141422380D01*
X84550357Y-141374761D01*
X84597976Y-141327142D01*
X84645595Y-141231904D01*
X84645595Y-141136666D01*
X84597976Y-141041428D01*
X84550357Y-140993809D01*
X84455119Y-140946190D01*
X84264642Y-140898571D01*
X84169404Y-140850952D01*
X84121785Y-140803333D01*
X84074166Y-140708095D01*
X84074166Y-140612857D01*
X84121785Y-140517619D01*
X84169404Y-140470000D01*
X84264642Y-140422380D01*
X84502738Y-140422380D01*
X84645595Y-140470000D01*
X84978928Y-140422380D02*
X85217023Y-141422380D01*
X85407500Y-140708095D01*
X85597976Y-141422380D01*
X85836071Y-140422380D01*
X86740833Y-141422380D02*
X86169404Y-141422380D01*
X86455119Y-141422380D02*
X86455119Y-140422380D01*
X86359880Y-140565238D01*
X86264642Y-140660476D01*
X86169404Y-140708095D01*
X312515476Y-141374761D02*
X312658333Y-141422380D01*
X312896428Y-141422380D01*
X312991666Y-141374761D01*
X313039285Y-141327142D01*
X313086904Y-141231904D01*
X313086904Y-141136666D01*
X313039285Y-141041428D01*
X312991666Y-140993809D01*
X312896428Y-140946190D01*
X312705952Y-140898571D01*
X312610714Y-140850952D01*
X312563095Y-140803333D01*
X312515476Y-140708095D01*
X312515476Y-140612857D01*
X312563095Y-140517619D01*
X312610714Y-140470000D01*
X312705952Y-140422380D01*
X312944047Y-140422380D01*
X313086904Y-140470000D01*
X313420238Y-140422380D02*
X313658333Y-141422380D01*
X313848809Y-140708095D01*
X314039285Y-141422380D01*
X314277380Y-140422380D01*
X315182142Y-141422380D02*
X314610714Y-141422380D01*
X314896428Y-141422380D02*
X314896428Y-140422380D01*
X314801190Y-140565238D01*
X314705952Y-140660476D01*
X314610714Y-140708095D01*
X315515476Y-140422380D02*
X316134523Y-140422380D01*
X315801190Y-140803333D01*
X315944047Y-140803333D01*
X316039285Y-140850952D01*
X316086904Y-140898571D01*
X316134523Y-140993809D01*
X316134523Y-141231904D01*
X316086904Y-141327142D01*
X316039285Y-141374761D01*
X315944047Y-141422380D01*
X315658333Y-141422380D01*
X315563095Y-141374761D01*
X315515476Y-141327142D01*
X101631845Y-217622380D02*
X101631845Y-216622380D01*
X101631845Y-217098571D02*
X102203273Y-217098571D01*
X102203273Y-217622380D02*
X102203273Y-216622380D01*
X103155654Y-216622380D02*
X102679464Y-216622380D01*
X102631845Y-217098571D01*
X102679464Y-217050952D01*
X102774702Y-217003333D01*
X103012797Y-217003333D01*
X103108035Y-217050952D01*
X103155654Y-217098571D01*
X103203273Y-217193809D01*
X103203273Y-217431904D01*
X103155654Y-217527142D01*
X103108035Y-217574761D01*
X103012797Y-217622380D01*
X102774702Y-217622380D01*
X102679464Y-217574761D01*
X102631845Y-217527142D01*
X350615476Y-133119761D02*
X350758333Y-133167380D01*
X350996428Y-133167380D01*
X351091666Y-133119761D01*
X351139285Y-133072142D01*
X351186904Y-132976904D01*
X351186904Y-132881666D01*
X351139285Y-132786428D01*
X351091666Y-132738809D01*
X350996428Y-132691190D01*
X350805952Y-132643571D01*
X350710714Y-132595952D01*
X350663095Y-132548333D01*
X350615476Y-132453095D01*
X350615476Y-132357857D01*
X350663095Y-132262619D01*
X350710714Y-132215000D01*
X350805952Y-132167380D01*
X351044047Y-132167380D01*
X351186904Y-132215000D01*
X351520238Y-132167380D02*
X351758333Y-133167380D01*
X351948809Y-132453095D01*
X352139285Y-133167380D01*
X352377380Y-132167380D01*
X352710714Y-132262619D02*
X352758333Y-132215000D01*
X352853571Y-132167380D01*
X353091666Y-132167380D01*
X353186904Y-132215000D01*
X353234523Y-132262619D01*
X353282142Y-132357857D01*
X353282142Y-132453095D01*
X353234523Y-132595952D01*
X352663095Y-133167380D01*
X353282142Y-133167380D01*
X353853571Y-132595952D02*
X353758333Y-132548333D01*
X353710714Y-132500714D01*
X353663095Y-132405476D01*
X353663095Y-132357857D01*
X353710714Y-132262619D01*
X353758333Y-132215000D01*
X353853571Y-132167380D01*
X354044047Y-132167380D01*
X354139285Y-132215000D01*
X354186904Y-132262619D01*
X354234523Y-132357857D01*
X354234523Y-132405476D01*
X354186904Y-132500714D01*
X354139285Y-132548333D01*
X354044047Y-132595952D01*
X353853571Y-132595952D01*
X353758333Y-132643571D01*
X353710714Y-132691190D01*
X353663095Y-132786428D01*
X353663095Y-132976904D01*
X353710714Y-133072142D01*
X353758333Y-133119761D01*
X353853571Y-133167380D01*
X354044047Y-133167380D01*
X354139285Y-133119761D01*
X354186904Y-133072142D01*
X354234523Y-132976904D01*
X354234523Y-132786428D01*
X354186904Y-132691190D01*
X354139285Y-132643571D01*
X354044047Y-132595952D01*
X81604076Y-179500161D02*
X81746933Y-179547780D01*
X81985028Y-179547780D01*
X82080266Y-179500161D01*
X82127885Y-179452542D01*
X82175504Y-179357304D01*
X82175504Y-179262066D01*
X82127885Y-179166828D01*
X82080266Y-179119209D01*
X81985028Y-179071590D01*
X81794552Y-179023971D01*
X81699314Y-178976352D01*
X81651695Y-178928733D01*
X81604076Y-178833495D01*
X81604076Y-178738257D01*
X81651695Y-178643019D01*
X81699314Y-178595400D01*
X81794552Y-178547780D01*
X82032647Y-178547780D01*
X82175504Y-178595400D01*
X82508838Y-178547780D02*
X82746933Y-179547780D01*
X82937409Y-178833495D01*
X83127885Y-179547780D01*
X83365980Y-178547780D01*
X83699314Y-178643019D02*
X83746933Y-178595400D01*
X83842171Y-178547780D01*
X84080266Y-178547780D01*
X84175504Y-178595400D01*
X84223123Y-178643019D01*
X84270742Y-178738257D01*
X84270742Y-178833495D01*
X84223123Y-178976352D01*
X83651695Y-179547780D01*
X84270742Y-179547780D01*
X84746933Y-179547780D02*
X84937409Y-179547780D01*
X85032647Y-179500161D01*
X85080266Y-179452542D01*
X85175504Y-179309685D01*
X85223123Y-179119209D01*
X85223123Y-178738257D01*
X85175504Y-178643019D01*
X85127885Y-178595400D01*
X85032647Y-178547780D01*
X84842171Y-178547780D01*
X84746933Y-178595400D01*
X84699314Y-178643019D01*
X84651695Y-178738257D01*
X84651695Y-178976352D01*
X84699314Y-179071590D01*
X84746933Y-179119209D01*
X84842171Y-179166828D01*
X85032647Y-179166828D01*
X85127885Y-179119209D01*
X85175504Y-179071590D01*
X85223123Y-178976352D01*
X357274761Y-162782023D02*
X357322380Y-162639166D01*
X357322380Y-162401071D01*
X357274761Y-162305833D01*
X357227142Y-162258214D01*
X357131904Y-162210595D01*
X357036666Y-162210595D01*
X356941428Y-162258214D01*
X356893809Y-162305833D01*
X356846190Y-162401071D01*
X356798571Y-162591547D01*
X356750952Y-162686785D01*
X356703333Y-162734404D01*
X356608095Y-162782023D01*
X356512857Y-162782023D01*
X356417619Y-162734404D01*
X356370000Y-162686785D01*
X356322380Y-162591547D01*
X356322380Y-162353452D01*
X356370000Y-162210595D01*
X356322380Y-161877261D02*
X357322380Y-161639166D01*
X356608095Y-161448690D01*
X357322380Y-161258214D01*
X356322380Y-161020119D01*
X356655714Y-160210595D02*
X357322380Y-160210595D01*
X356274761Y-160448690D02*
X356989047Y-160686785D01*
X356989047Y-160067738D01*
X356417619Y-159734404D02*
X356370000Y-159686785D01*
X356322380Y-159591547D01*
X356322380Y-159353452D01*
X356370000Y-159258214D01*
X356417619Y-159210595D01*
X356512857Y-159162976D01*
X356608095Y-159162976D01*
X356750952Y-159210595D01*
X357322380Y-159782023D01*
X357322380Y-159162976D01*
X217265476Y-217574761D02*
X217408333Y-217622380D01*
X217646428Y-217622380D01*
X217741666Y-217574761D01*
X217789285Y-217527142D01*
X217836904Y-217431904D01*
X217836904Y-217336666D01*
X217789285Y-217241428D01*
X217741666Y-217193809D01*
X217646428Y-217146190D01*
X217455952Y-217098571D01*
X217360714Y-217050952D01*
X217313095Y-217003333D01*
X217265476Y-216908095D01*
X217265476Y-216812857D01*
X217313095Y-216717619D01*
X217360714Y-216670000D01*
X217455952Y-216622380D01*
X217694047Y-216622380D01*
X217836904Y-216670000D01*
X218170238Y-216622380D02*
X218408333Y-217622380D01*
X218598809Y-216908095D01*
X218789285Y-217622380D01*
X219027380Y-216622380D01*
X219836904Y-216622380D02*
X219646428Y-216622380D01*
X219551190Y-216670000D01*
X219503571Y-216717619D01*
X219408333Y-216860476D01*
X219360714Y-217050952D01*
X219360714Y-217431904D01*
X219408333Y-217527142D01*
X219455952Y-217574761D01*
X219551190Y-217622380D01*
X219741666Y-217622380D01*
X219836904Y-217574761D01*
X219884523Y-217527142D01*
X219932142Y-217431904D01*
X219932142Y-217193809D01*
X219884523Y-217098571D01*
X219836904Y-217050952D01*
X219741666Y-217003333D01*
X219551190Y-217003333D01*
X219455952Y-217050952D01*
X219408333Y-217098571D01*
X219360714Y-217193809D01*
X220884523Y-217622380D02*
X220313095Y-217622380D01*
X220598809Y-217622380D02*
X220598809Y-216622380D01*
X220503571Y-216765238D01*
X220408333Y-216860476D01*
X220313095Y-216908095D01*
X238553720Y-217622380D02*
X238553720Y-216622380D01*
X238553720Y-217098571D02*
X239125148Y-217098571D01*
X239125148Y-217622380D02*
X239125148Y-216622380D01*
X239506101Y-216622380D02*
X240172767Y-216622380D01*
X239744196Y-217622380D01*
X88677976Y-217574761D02*
X88820833Y-217622380D01*
X89058928Y-217622380D01*
X89154166Y-217574761D01*
X89201785Y-217527142D01*
X89249404Y-217431904D01*
X89249404Y-217336666D01*
X89201785Y-217241428D01*
X89154166Y-217193809D01*
X89058928Y-217146190D01*
X88868452Y-217098571D01*
X88773214Y-217050952D01*
X88725595Y-217003333D01*
X88677976Y-216908095D01*
X88677976Y-216812857D01*
X88725595Y-216717619D01*
X88773214Y-216670000D01*
X88868452Y-216622380D01*
X89106547Y-216622380D01*
X89249404Y-216670000D01*
X89582738Y-216622380D02*
X89820833Y-217622380D01*
X90011309Y-216908095D01*
X90201785Y-217622380D01*
X90439880Y-216622380D01*
X91297023Y-216622380D02*
X90820833Y-216622380D01*
X90773214Y-217098571D01*
X90820833Y-217050952D01*
X90916071Y-217003333D01*
X91154166Y-217003333D01*
X91249404Y-217050952D01*
X91297023Y-217098571D01*
X91344642Y-217193809D01*
X91344642Y-217431904D01*
X91297023Y-217527142D01*
X91249404Y-217574761D01*
X91154166Y-217622380D01*
X90916071Y-217622380D01*
X90820833Y-217574761D01*
X90773214Y-217527142D01*
X91677976Y-216622380D02*
X92344642Y-216622380D01*
X91916071Y-217622380D01*
X336327976Y-141374761D02*
X336470833Y-141422380D01*
X336708928Y-141422380D01*
X336804166Y-141374761D01*
X336851785Y-141327142D01*
X336899404Y-141231904D01*
X336899404Y-141136666D01*
X336851785Y-141041428D01*
X336804166Y-140993809D01*
X336708928Y-140946190D01*
X336518452Y-140898571D01*
X336423214Y-140850952D01*
X336375595Y-140803333D01*
X336327976Y-140708095D01*
X336327976Y-140612857D01*
X336375595Y-140517619D01*
X336423214Y-140470000D01*
X336518452Y-140422380D01*
X336756547Y-140422380D01*
X336899404Y-140470000D01*
X337232738Y-140422380D02*
X337470833Y-141422380D01*
X337661309Y-140708095D01*
X337851785Y-141422380D01*
X338089880Y-140422380D01*
X338994642Y-141422380D02*
X338423214Y-141422380D01*
X338708928Y-141422380D02*
X338708928Y-140422380D01*
X338613690Y-140565238D01*
X338518452Y-140660476D01*
X338423214Y-140708095D01*
X339851785Y-140755714D02*
X339851785Y-141422380D01*
X339613690Y-140374761D02*
X339375595Y-141089047D01*
X339994642Y-141089047D01*
D10*
X201785000Y-102310000D02*
X193575000Y-102310000D01*
X214095000Y-95810000D02*
X214095000Y-102310000D01*
X192275000Y-94500000D02*
X215395000Y-94500000D01*
X215395000Y-94500000D02*
X215395000Y-103620000D01*
X192275000Y-103620000D02*
X192275000Y-94500000D01*
X205885000Y-102310000D02*
X205885000Y-103620000D01*
X201785000Y-103620000D02*
X201785000Y-102310000D01*
X205885000Y-102310000D02*
X205885000Y-102310000D01*
X193575000Y-102310000D02*
X193575000Y-95810000D01*
X214095000Y-102310000D02*
X205885000Y-102310000D01*
X215395000Y-103620000D02*
X192275000Y-103620000D01*
X193575000Y-95810000D02*
X214095000Y-95810000D01*
X187325000Y-102280000D02*
X187325000Y-104220000D01*
X189945000Y-115460000D02*
X184705000Y-115460000D01*
X184705000Y-104220000D02*
X184705000Y-106020000D01*
X187325000Y-117400000D02*
X187325000Y-115460000D01*
X189945000Y-106020000D02*
X189045000Y-106920000D01*
X185605000Y-106920000D02*
X184705000Y-107820000D01*
X184705000Y-107820000D02*
X184705000Y-115460000D01*
X184705000Y-106020000D02*
X185605000Y-106920000D01*
X189945000Y-104220000D02*
X184705000Y-104220000D01*
X189945000Y-107820000D02*
X189945000Y-115460000D01*
X189045000Y-106920000D02*
X189945000Y-107820000D01*
X189945000Y-104220000D02*
X189945000Y-106020000D01*
X199072500Y-117070000D02*
X199072500Y-116300000D01*
X200442500Y-109760000D02*
X197702500Y-109760000D01*
X197702500Y-116300000D02*
X200442500Y-116300000D01*
X197702500Y-109760000D02*
X197702500Y-116300000D01*
X200442500Y-116300000D02*
X200442500Y-109760000D01*
X199072500Y-108990000D02*
X199072500Y-109760000D01*
X204302500Y-115150000D02*
X206542500Y-115150000D01*
X206542500Y-111510000D02*
X204302500Y-111510000D01*
X204302500Y-110910000D02*
X204302500Y-115150000D01*
X206542500Y-111630000D02*
X204302500Y-111630000D01*
X205422500Y-117070000D02*
X205422500Y-115150000D01*
X206542500Y-115150000D02*
X206542500Y-110910000D01*
X206542500Y-111750000D02*
X204302500Y-111750000D01*
X205422500Y-108990000D02*
X205422500Y-110910000D01*
X206542500Y-110910000D02*
X204302500Y-110910000D01*
X191352500Y-109760000D02*
X191352500Y-116300000D01*
X192722500Y-108990000D02*
X192722500Y-109760000D01*
X194092500Y-116300000D02*
X194092500Y-109760000D01*
X192722500Y-117070000D02*
X192722500Y-116300000D01*
X191352500Y-116300000D02*
X194092500Y-116300000D01*
X194092500Y-109760000D02*
X191352500Y-109760000D01*
X86880000Y-97305000D02*
X90920000Y-97305000D01*
X91610000Y-95885000D02*
X90920000Y-95885000D01*
X86190000Y-95885000D02*
X86880000Y-95885000D01*
X90920000Y-94465000D02*
X86880000Y-94465000D01*
X90920000Y-97305000D02*
X90920000Y-94465000D01*
X86880000Y-94465000D02*
X86880000Y-97305000D01*
X103620000Y-97305000D02*
X103620000Y-94465000D01*
X98890000Y-95885000D02*
X99580000Y-95885000D01*
X103620000Y-94465000D02*
X99580000Y-94465000D01*
X99580000Y-97305000D02*
X103620000Y-97305000D01*
X104310000Y-95885000D02*
X103620000Y-95885000D01*
X99580000Y-94465000D02*
X99580000Y-97305000D01*
X194527500Y-109760000D02*
X194527500Y-116300000D01*
X195897500Y-117070000D02*
X195897500Y-116300000D01*
X197267500Y-109760000D02*
X194527500Y-109760000D01*
X195897500Y-108990000D02*
X195897500Y-109760000D01*
X197267500Y-116300000D02*
X197267500Y-109760000D01*
X194527500Y-116300000D02*
X197267500Y-116300000D01*
X217745000Y-108950000D02*
X217745000Y-110600000D01*
X217745000Y-105300000D02*
X217745000Y-106950000D01*
X253425000Y-105300000D02*
X217745000Y-105300000D01*
X217745000Y-110600000D02*
X253425000Y-110600000D01*
X253425000Y-110600000D02*
X253425000Y-105300000D01*
X217745000Y-108950000D02*
G75*
G03*
X217745000Y-106950000I0J1000000D01*
G01*
X203367500Y-111630000D02*
X201127500Y-111630000D01*
X203367500Y-115150000D02*
X203367500Y-110910000D01*
X202247500Y-117070000D02*
X202247500Y-115150000D01*
X203367500Y-111750000D02*
X201127500Y-111750000D01*
X202247500Y-108990000D02*
X202247500Y-110910000D01*
X203367500Y-110910000D02*
X201127500Y-110910000D01*
X203367500Y-111510000D02*
X201127500Y-111510000D01*
X201127500Y-115150000D02*
X203367500Y-115150000D01*
X201127500Y-110910000D02*
X201127500Y-115150000D01*
X271030000Y-94465000D02*
X271030000Y-97305000D01*
X270340000Y-95885000D02*
X271030000Y-95885000D01*
X275760000Y-95885000D02*
X275070000Y-95885000D01*
X275070000Y-94465000D02*
X271030000Y-94465000D01*
X275070000Y-97305000D02*
X275070000Y-94465000D01*
X271030000Y-97305000D02*
X275070000Y-97305000D01*
X137050000Y-99635000D02*
X137050000Y-120075000D01*
X138700000Y-99635000D02*
X137050000Y-99635000D01*
X142350000Y-99635000D02*
X140700000Y-99635000D01*
X142350000Y-120075000D02*
X142350000Y-99635000D01*
X137050000Y-120075000D02*
X142350000Y-120075000D01*
X138700000Y-99635000D02*
G75*
G03*
X140700000Y-99635000I1000000J0D01*
G01*
X334530000Y-94465000D02*
X334530000Y-97305000D01*
X338570000Y-94465000D02*
X334530000Y-94465000D01*
X334530000Y-97305000D02*
X338570000Y-97305000D01*
X333840000Y-95885000D02*
X334530000Y-95885000D01*
X339260000Y-95885000D02*
X338570000Y-95885000D01*
X338570000Y-97305000D02*
X338570000Y-94465000D01*
X313860000Y-95885000D02*
X313170000Y-95885000D01*
X309130000Y-94465000D02*
X309130000Y-97305000D01*
X313170000Y-97305000D02*
X313170000Y-94465000D01*
X313170000Y-94465000D02*
X309130000Y-94465000D01*
X308440000Y-95885000D02*
X309130000Y-95885000D01*
X309130000Y-97305000D02*
X313170000Y-97305000D01*
X220075000Y-98790000D02*
X224575000Y-98790000D01*
X224575000Y-92290000D02*
X220075000Y-92290000D01*
X218825000Y-94790000D02*
X218825000Y-96290000D01*
X225825000Y-96290000D02*
X225825000Y-94790000D01*
X346540000Y-95885000D02*
X347230000Y-95885000D01*
X351960000Y-95885000D02*
X351270000Y-95885000D01*
X351270000Y-94465000D02*
X347230000Y-94465000D01*
X347230000Y-97305000D02*
X351270000Y-97305000D01*
X347230000Y-94465000D02*
X347230000Y-97305000D01*
X351270000Y-97305000D02*
X351270000Y-94465000D01*
X235935000Y-117489000D02*
X235935000Y-116231000D01*
X237775000Y-117489000D02*
X237775000Y-116231000D01*
X162450000Y-99635000D02*
X162450000Y-120075000D01*
X164100000Y-99635000D02*
X162450000Y-99635000D01*
X167750000Y-120075000D02*
X167750000Y-99635000D01*
X162450000Y-120075000D02*
X167750000Y-120075000D01*
X167750000Y-99635000D02*
X166100000Y-99635000D01*
X164100000Y-99635000D02*
G75*
G03*
X166100000Y-99635000I1000000J0D01*
G01*
X351900000Y-99635000D02*
X350250000Y-99635000D01*
X348250000Y-99635000D02*
X346600000Y-99635000D01*
X346600000Y-99635000D02*
X346600000Y-120075000D01*
X346600000Y-120075000D02*
X351900000Y-120075000D01*
X351900000Y-120075000D02*
X351900000Y-99635000D01*
X348250000Y-99635000D02*
G75*
G03*
X350250000Y-99635000I1000000J0D01*
G01*
X149750000Y-120075000D02*
X155050000Y-120075000D01*
X151400000Y-99635000D02*
X149750000Y-99635000D01*
X149750000Y-99635000D02*
X149750000Y-120075000D01*
X155050000Y-99635000D02*
X153400000Y-99635000D01*
X155050000Y-120075000D02*
X155050000Y-99635000D01*
X151400000Y-99635000D02*
G75*
G03*
X153400000Y-99635000I1000000J0D01*
G01*
X225275000Y-114935000D02*
X227215000Y-114935000D01*
X227215000Y-116355000D02*
X231255000Y-116355000D01*
X233195000Y-114935000D02*
X231255000Y-114935000D01*
X227215000Y-113515000D02*
X227215000Y-116355000D01*
X231255000Y-116355000D02*
X231255000Y-113515000D01*
X231255000Y-113515000D02*
X227215000Y-113515000D01*
X251175000Y-116231000D02*
X251175000Y-117489000D01*
X253015000Y-116231000D02*
X253015000Y-117489000D01*
X98950000Y-120075000D02*
X104250000Y-120075000D01*
X104250000Y-120075000D02*
X104250000Y-99635000D01*
X104250000Y-99635000D02*
X102600000Y-99635000D01*
X98950000Y-99635000D02*
X98950000Y-120075000D01*
X100600000Y-99635000D02*
X98950000Y-99635000D01*
X100600000Y-99635000D02*
G75*
G03*
X102600000Y-99635000I1000000J0D01*
G01*
X313800000Y-99635000D02*
X312150000Y-99635000D01*
X308500000Y-99635000D02*
X308500000Y-120075000D01*
X308500000Y-120075000D02*
X313800000Y-120075000D01*
X313800000Y-120075000D02*
X313800000Y-99635000D01*
X310150000Y-99635000D02*
X308500000Y-99635000D01*
X310150000Y-99635000D02*
G75*
G03*
X312150000Y-99635000I1000000J0D01*
G01*
X326500000Y-120075000D02*
X326500000Y-99635000D01*
X322850000Y-99635000D02*
X321200000Y-99635000D01*
X326500000Y-99635000D02*
X324850000Y-99635000D01*
X321200000Y-99635000D02*
X321200000Y-120075000D01*
X321200000Y-120075000D02*
X326500000Y-120075000D01*
X322850000Y-99635000D02*
G75*
G03*
X324850000Y-99635000I1000000J0D01*
G01*
X111590000Y-95885000D02*
X112280000Y-95885000D01*
X112280000Y-94465000D02*
X112280000Y-97305000D01*
X116320000Y-97305000D02*
X116320000Y-94465000D01*
X112280000Y-97305000D02*
X116320000Y-97305000D01*
X116320000Y-94465000D02*
X112280000Y-94465000D01*
X117010000Y-95885000D02*
X116320000Y-95885000D01*
X287770000Y-94465000D02*
X283730000Y-94465000D01*
X288460000Y-95885000D02*
X287770000Y-95885000D01*
X287770000Y-97305000D02*
X287770000Y-94465000D01*
X283730000Y-94465000D02*
X283730000Y-97305000D01*
X283040000Y-95885000D02*
X283730000Y-95885000D01*
X283730000Y-97305000D02*
X287770000Y-97305000D01*
X257700000Y-120075000D02*
X263000000Y-120075000D01*
X263000000Y-120075000D02*
X263000000Y-99635000D01*
X257700000Y-99635000D02*
X257700000Y-120075000D01*
X259350000Y-99635000D02*
X257700000Y-99635000D01*
X263000000Y-99635000D02*
X261350000Y-99635000D01*
X259350000Y-99635000D02*
G75*
G03*
X261350000Y-99635000I1000000J0D01*
G01*
X214947500Y-108990000D02*
X214947500Y-109760000D01*
X213577500Y-109760000D02*
X213577500Y-116300000D01*
X213577500Y-116300000D02*
X216317500Y-116300000D01*
X216317500Y-109760000D02*
X213577500Y-109760000D01*
X216317500Y-116300000D02*
X216317500Y-109760000D01*
X214947500Y-117070000D02*
X214947500Y-116300000D01*
X262370000Y-97305000D02*
X262370000Y-94465000D01*
X262370000Y-94465000D02*
X258330000Y-94465000D01*
X263060000Y-95885000D02*
X262370000Y-95885000D01*
X257640000Y-95885000D02*
X258330000Y-95885000D01*
X258330000Y-97305000D02*
X262370000Y-97305000D01*
X258330000Y-94465000D02*
X258330000Y-97305000D01*
X210402500Y-116300000D02*
X213142500Y-116300000D01*
X210402500Y-109760000D02*
X210402500Y-116300000D01*
X211772500Y-117070000D02*
X211772500Y-116300000D01*
X211772500Y-108990000D02*
X211772500Y-109760000D01*
X213142500Y-116300000D02*
X213142500Y-109760000D01*
X213142500Y-109760000D02*
X210402500Y-109760000D01*
X241264999Y-113680000D02*
X247664999Y-113680000D01*
X241264999Y-118730000D02*
X247664999Y-118730000D01*
X247664999Y-118730000D02*
G75*
G03*
X247664999Y-113680000I0J2525000D01*
G01*
X241264999Y-113680000D02*
G75*
G03*
X241264999Y-118730000I0J-2525000D01*
G01*
X124350000Y-120075000D02*
X129650000Y-120075000D01*
X124350000Y-99635000D02*
X124350000Y-120075000D01*
X129650000Y-120075000D02*
X129650000Y-99635000D01*
X129650000Y-99635000D02*
X128000000Y-99635000D01*
X126000000Y-99635000D02*
X124350000Y-99635000D01*
X126000000Y-99635000D02*
G75*
G03*
X128000000Y-99635000I1000000J0D01*
G01*
X295740000Y-95885000D02*
X296430000Y-95885000D01*
X300470000Y-94465000D02*
X296430000Y-94465000D01*
X296430000Y-94465000D02*
X296430000Y-97305000D01*
X301160000Y-95885000D02*
X300470000Y-95885000D01*
X296430000Y-97305000D02*
X300470000Y-97305000D01*
X300470000Y-97305000D02*
X300470000Y-94465000D01*
X326560000Y-95885000D02*
X325870000Y-95885000D01*
X325870000Y-94465000D02*
X321830000Y-94465000D01*
X325870000Y-97305000D02*
X325870000Y-94465000D01*
X321140000Y-95885000D02*
X321830000Y-95885000D01*
X321830000Y-94465000D02*
X321830000Y-97305000D01*
X321830000Y-97305000D02*
X325870000Y-97305000D01*
X248645000Y-97810000D02*
X251735000Y-97810000D01*
X251734830Y-97810000D02*
G75*
G03*
X250189538Y-92260000I-1544830J2560000D01*
G01*
X250190462Y-92260000D02*
G75*
G03*
X248645170Y-97810000I-462J-2990000D01*
G01*
X339200000Y-120075000D02*
X339200000Y-99635000D01*
X333900000Y-120075000D02*
X339200000Y-120075000D01*
X333900000Y-99635000D02*
X333900000Y-120075000D01*
X335550000Y-99635000D02*
X333900000Y-99635000D01*
X339200000Y-99635000D02*
X337550000Y-99635000D01*
X335550000Y-99635000D02*
G75*
G03*
X337550000Y-99635000I1000000J0D01*
G01*
X167120000Y-97305000D02*
X167120000Y-94465000D01*
X162390000Y-95885000D02*
X163080000Y-95885000D01*
X163080000Y-97305000D02*
X167120000Y-97305000D01*
X163080000Y-94465000D02*
X163080000Y-97305000D01*
X167120000Y-94465000D02*
X163080000Y-94465000D01*
X167810000Y-95885000D02*
X167120000Y-95885000D01*
X116950000Y-120075000D02*
X116950000Y-99635000D01*
X113300000Y-99635000D02*
X111650000Y-99635000D01*
X116950000Y-99635000D02*
X115300000Y-99635000D01*
X111650000Y-120075000D02*
X116950000Y-120075000D01*
X111650000Y-99635000D02*
X111650000Y-120075000D01*
X113300000Y-99635000D02*
G75*
G03*
X115300000Y-99635000I1000000J0D01*
G01*
X232505000Y-116740000D02*
X225965000Y-116740000D01*
X225965000Y-119480000D02*
X232505000Y-119480000D01*
X225965000Y-116740000D02*
X225965000Y-119480000D01*
X233275000Y-118110000D02*
X232505000Y-118110000D01*
X225195000Y-118110000D02*
X225965000Y-118110000D01*
X232505000Y-119480000D02*
X232505000Y-116740000D01*
X124290000Y-95885000D02*
X124980000Y-95885000D01*
X124980000Y-97305000D02*
X129020000Y-97305000D01*
X129710000Y-95885000D02*
X129020000Y-95885000D01*
X124980000Y-94465000D02*
X124980000Y-97305000D01*
X129020000Y-97305000D02*
X129020000Y-94465000D01*
X129020000Y-94465000D02*
X124980000Y-94465000D01*
X180450000Y-99635000D02*
X178800000Y-99635000D01*
X175150000Y-120075000D02*
X180450000Y-120075000D01*
X176800000Y-99635000D02*
X175150000Y-99635000D01*
X180450000Y-120075000D02*
X180450000Y-99635000D01*
X175150000Y-99635000D02*
X175150000Y-120075000D01*
X176800000Y-99635000D02*
G75*
G03*
X178800000Y-99635000I1000000J0D01*
G01*
X295800000Y-120075000D02*
X301100000Y-120075000D01*
X297450000Y-99635000D02*
X295800000Y-99635000D01*
X301100000Y-120075000D02*
X301100000Y-99635000D01*
X295800000Y-99635000D02*
X295800000Y-120075000D01*
X301100000Y-99635000D02*
X299450000Y-99635000D01*
X297450000Y-99635000D02*
G75*
G03*
X299450000Y-99635000I1000000J0D01*
G01*
X137680000Y-97305000D02*
X141720000Y-97305000D01*
X141720000Y-97305000D02*
X141720000Y-94465000D01*
X137680000Y-94465000D02*
X137680000Y-97305000D01*
X142410000Y-95885000D02*
X141720000Y-95885000D01*
X136990000Y-95885000D02*
X137680000Y-95885000D01*
X141720000Y-94465000D02*
X137680000Y-94465000D01*
X241065000Y-96290000D02*
X241065000Y-94790000D01*
X235315000Y-98790000D02*
X239815000Y-98790000D01*
X239815000Y-92290000D02*
X235315000Y-92290000D01*
X234065000Y-94790000D02*
X234065000Y-96290000D01*
X251055000Y-100965000D02*
X250285000Y-100965000D01*
X250285000Y-99595000D02*
X243745000Y-99595000D01*
X243745000Y-102335000D02*
X250285000Y-102335000D01*
X250285000Y-102335000D02*
X250285000Y-99595000D01*
X243745000Y-99595000D02*
X243745000Y-102335000D01*
X242975000Y-100965000D02*
X243745000Y-100965000D01*
X288400000Y-120075000D02*
X288400000Y-99635000D01*
X283100000Y-120075000D02*
X288400000Y-120075000D01*
X283100000Y-99635000D02*
X283100000Y-120075000D01*
X288400000Y-99635000D02*
X286750000Y-99635000D01*
X284750000Y-99635000D02*
X283100000Y-99635000D01*
X284750000Y-99635000D02*
G75*
G03*
X286750000Y-99635000I1000000J0D01*
G01*
X91550000Y-99635000D02*
X89900000Y-99635000D01*
X87900000Y-99635000D02*
X86250000Y-99635000D01*
X91550000Y-120075000D02*
X91550000Y-99635000D01*
X86250000Y-99635000D02*
X86250000Y-120075000D01*
X86250000Y-120075000D02*
X91550000Y-120075000D01*
X87900000Y-99635000D02*
G75*
G03*
X89900000Y-99635000I1000000J0D01*
G01*
X154420000Y-97305000D02*
X154420000Y-94465000D01*
X154420000Y-94465000D02*
X150380000Y-94465000D01*
X155110000Y-95885000D02*
X154420000Y-95885000D01*
X150380000Y-97305000D02*
X154420000Y-97305000D01*
X149690000Y-95885000D02*
X150380000Y-95885000D01*
X150380000Y-94465000D02*
X150380000Y-97305000D01*
X179820000Y-94465000D02*
X175780000Y-94465000D01*
X175780000Y-94465000D02*
X175780000Y-97305000D01*
X175090000Y-95885000D02*
X175780000Y-95885000D01*
X180510000Y-95885000D02*
X179820000Y-95885000D01*
X179820000Y-97305000D02*
X179820000Y-94465000D01*
X175780000Y-97305000D02*
X179820000Y-97305000D01*
X217635000Y-99565000D02*
X217635000Y-102365000D01*
X233045000Y-102365000D02*
X233045000Y-99565000D01*
X217635000Y-102365000D02*
X235755000Y-102365000D01*
X235755000Y-102365000D02*
X235755000Y-99565000D01*
X235755000Y-99565000D02*
X217635000Y-99565000D01*
X208597500Y-108990000D02*
X208597500Y-109760000D01*
X207227500Y-109760000D02*
X207227500Y-116300000D01*
X209967500Y-116300000D02*
X209967500Y-109760000D01*
X209967500Y-109760000D02*
X207227500Y-109760000D01*
X207227500Y-116300000D02*
X209967500Y-116300000D01*
X208597500Y-117070000D02*
X208597500Y-116300000D01*
X270400000Y-120075000D02*
X275700000Y-120075000D01*
X275700000Y-120075000D02*
X275700000Y-99635000D01*
X270400000Y-99635000D02*
X270400000Y-120075000D01*
X272050000Y-99635000D02*
X270400000Y-99635000D01*
X275700000Y-99635000D02*
X274050000Y-99635000D01*
X272050000Y-99635000D02*
G75*
G03*
X274050000Y-99635000I1000000J0D01*
G01*
X186415000Y-97810000D02*
X189505000Y-97810000D01*
X189504830Y-97810000D02*
G75*
G03*
X187959538Y-92260000I-1544830J2560000D01*
G01*
X187960462Y-92260000D02*
G75*
G03*
X186415170Y-97810000I-462J-2990000D01*
G01*
%LPC*%
D13*
X357505000Y-193675000D03*
X347345000Y-193675000D03*
D14*
X352425000Y-193675000D03*
D15*
X348615000Y-191135000D03*
X354965000Y-188595000D03*
D13*
X109220000Y-155575000D03*
D14*
X114300000Y-155575000D03*
D13*
X119380000Y-155575000D03*
D15*
X110490000Y-153035000D03*
X116840000Y-150495000D03*
D14*
X352418750Y-166385000D03*
D16*
X352418750Y-181625000D03*
D13*
X345598750Y-174625000D03*
D17*
X334565625Y-174625000D03*
D13*
X323532500Y-174625000D03*
D16*
X328618750Y-181625000D03*
D14*
X328612500Y-174625000D03*
X328618750Y-166385000D03*
X340518750Y-174625000D03*
D15*
X336708750Y-172085000D03*
X324802500Y-172085000D03*
X343058750Y-169545000D03*
X331152500Y-169545000D03*
D13*
X219392500Y-174625000D03*
D14*
X214312500Y-174625000D03*
D13*
X209232500Y-174625000D03*
D15*
X210502500Y-172085000D03*
X216852500Y-169545000D03*
D13*
X266382500Y-174625000D03*
D14*
X271462500Y-174625000D03*
D13*
X276542500Y-174625000D03*
D15*
X267652500Y-172085000D03*
X274002500Y-169545000D03*
D13*
X214630000Y-155575000D03*
D14*
X209550000Y-155575000D03*
D13*
X204470000Y-155575000D03*
D15*
X205740000Y-153035000D03*
X212090000Y-150495000D03*
D13*
X147955000Y-136525000D03*
X137795000Y-136525000D03*
D14*
X142875000Y-136525000D03*
D15*
X139065000Y-133985000D03*
X145415000Y-131445000D03*
D14*
X109537500Y-193675000D03*
D13*
X104457500Y-193675000D03*
X114617500Y-193675000D03*
D15*
X105727500Y-191135000D03*
X112077500Y-188595000D03*
D16*
X247656250Y-219725000D03*
D13*
X264636250Y-212725000D03*
X254476250Y-212725000D03*
D14*
X247656250Y-204485000D03*
X271456250Y-204485000D03*
D16*
X271456250Y-219725000D03*
D14*
X259556250Y-212725000D03*
D15*
X255746250Y-210185000D03*
X262096250Y-207645000D03*
D13*
X280670000Y-155575000D03*
X290830000Y-155575000D03*
D14*
X285750000Y-155575000D03*
D15*
X281940000Y-153035000D03*
X288290000Y-150495000D03*
D13*
X128905000Y-136525000D03*
X118745000Y-136525000D03*
D14*
X123825000Y-136525000D03*
D15*
X120015000Y-133985000D03*
X126365000Y-131445000D03*
D14*
X176212500Y-174625000D03*
D13*
X181292500Y-174625000D03*
X171132500Y-174625000D03*
D15*
X172402500Y-172085000D03*
X178752500Y-169545000D03*
D14*
X185737500Y-193675000D03*
D13*
X180657500Y-193675000D03*
X190817500Y-193675000D03*
D15*
X181927500Y-191135000D03*
X188277500Y-188595000D03*
D13*
X342582500Y-212725000D03*
D14*
X347662500Y-212725000D03*
D13*
X352742500Y-212725000D03*
D15*
X343852500Y-210185000D03*
X350202500Y-207645000D03*
D14*
X166687500Y-193675000D03*
D13*
X161607500Y-193675000D03*
X171767500Y-193675000D03*
D15*
X162877500Y-191135000D03*
X169227500Y-188595000D03*
D13*
X340836250Y-193675000D03*
X321151250Y-193675000D03*
D14*
X323856250Y-185435000D03*
X347656250Y-185435000D03*
X335756250Y-193675000D03*
D18*
X330993750Y-193675000D03*
D16*
X323856250Y-200675000D03*
D14*
X326231250Y-193675000D03*
D16*
X347656250Y-200675000D03*
D15*
X322421250Y-191135000D03*
X331946250Y-191135000D03*
X328771250Y-188595000D03*
X338296250Y-188595000D03*
D14*
X114300000Y-212725000D03*
D13*
X119380000Y-212725000D03*
X109220000Y-212725000D03*
D15*
X110490000Y-210185000D03*
X116840000Y-207645000D03*
D13*
X305117500Y-193675000D03*
X294957500Y-193675000D03*
D14*
X300037500Y-193675000D03*
D15*
X296227500Y-191135000D03*
X302577500Y-188595000D03*
D13*
X328930000Y-212725000D03*
D14*
X323850000Y-212725000D03*
D13*
X318770000Y-212725000D03*
D15*
X320040000Y-210185000D03*
X326390000Y-207645000D03*
D13*
X143192500Y-212725000D03*
X133032500Y-212725000D03*
D14*
X138112500Y-212725000D03*
D15*
X134302500Y-210185000D03*
X140652500Y-207645000D03*
D14*
X90487500Y-155575000D03*
D13*
X85407500Y-155575000D03*
X95567500Y-155575000D03*
D15*
X86677500Y-153035000D03*
X93027500Y-150495000D03*
D13*
X295592500Y-174625000D03*
X285432500Y-174625000D03*
D14*
X290512500Y-174625000D03*
D15*
X286702500Y-172085000D03*
X293052500Y-169545000D03*
D13*
X247967500Y-193675000D03*
D14*
X242887500Y-193675000D03*
D13*
X237807500Y-193675000D03*
D15*
X239077500Y-191135000D03*
X245427500Y-188595000D03*
D13*
X271145000Y-136525000D03*
X281305000Y-136525000D03*
D14*
X276225000Y-136525000D03*
D15*
X272415000Y-133985000D03*
X278765000Y-131445000D03*
D13*
X213995000Y-136525000D03*
D14*
X219075000Y-136525000D03*
D13*
X224155000Y-136525000D03*
D15*
X215265000Y-133985000D03*
X221615000Y-131445000D03*
D13*
X233680000Y-155575000D03*
D14*
X228600000Y-155575000D03*
D13*
X223520000Y-155575000D03*
D15*
X224790000Y-153035000D03*
X231140000Y-150495000D03*
D13*
X275907500Y-193675000D03*
X286067500Y-193675000D03*
D14*
X280987500Y-193675000D03*
D15*
X277177500Y-191135000D03*
X283527500Y-188595000D03*
D13*
X318770000Y-155575000D03*
X328930000Y-155575000D03*
D14*
X323850000Y-155575000D03*
D15*
X320040000Y-153035000D03*
X326390000Y-150495000D03*
D14*
X300037500Y-212725000D03*
D13*
X305117500Y-212725000D03*
X294957500Y-212725000D03*
D15*
X296227500Y-210185000D03*
X302577500Y-207645000D03*
D13*
X113982500Y-174625000D03*
D14*
X119062500Y-174625000D03*
D13*
X124142500Y-174625000D03*
D15*
X115252500Y-172085000D03*
X121602500Y-169545000D03*
D13*
X152082500Y-174625000D03*
X162242500Y-174625000D03*
D14*
X157162500Y-174625000D03*
D15*
X153352500Y-172085000D03*
X159702500Y-169545000D03*
D13*
X167005000Y-136525000D03*
X156845000Y-136525000D03*
D14*
X161925000Y-136525000D03*
D15*
X158115000Y-133985000D03*
X164465000Y-131445000D03*
D13*
X304482500Y-174625000D03*
D14*
X309562500Y-174625000D03*
D13*
X314642500Y-174625000D03*
D15*
X305752500Y-172085000D03*
X312102500Y-169545000D03*
D14*
X257175000Y-136525000D03*
D13*
X252095000Y-136525000D03*
X262255000Y-136525000D03*
D15*
X253365000Y-133985000D03*
X259715000Y-131445000D03*
D14*
X171450000Y-155575000D03*
D13*
X176530000Y-155575000D03*
X166370000Y-155575000D03*
D15*
X167640000Y-153035000D03*
X173990000Y-150495000D03*
D13*
X209867500Y-193675000D03*
D14*
X204787500Y-193675000D03*
D13*
X199707500Y-193675000D03*
D15*
X200977500Y-191135000D03*
X207327500Y-188595000D03*
D13*
X267017500Y-193675000D03*
D14*
X261937500Y-193675000D03*
D13*
X256857500Y-193675000D03*
D15*
X258127500Y-191135000D03*
X264477500Y-188595000D03*
D14*
X104775000Y-136525000D03*
D13*
X109855000Y-136525000D03*
X99695000Y-136525000D03*
D15*
X100965000Y-133985000D03*
X107315000Y-131445000D03*
D14*
X138112500Y-174625000D03*
D13*
X133032500Y-174625000D03*
X143192500Y-174625000D03*
D15*
X134302500Y-172085000D03*
X140652500Y-169545000D03*
D13*
X257492500Y-174625000D03*
D14*
X252412500Y-174625000D03*
D13*
X247332500Y-174625000D03*
D15*
X248602500Y-172085000D03*
X254952500Y-169545000D03*
D14*
X128587500Y-193675000D03*
D13*
X123507500Y-193675000D03*
X133667500Y-193675000D03*
D15*
X124777500Y-191135000D03*
X131127500Y-188595000D03*
D13*
X252730000Y-155575000D03*
X242570000Y-155575000D03*
D14*
X247650000Y-155575000D03*
D15*
X243840000Y-153035000D03*
X250190000Y-150495000D03*
D13*
X261620000Y-155575000D03*
X271780000Y-155575000D03*
D14*
X266700000Y-155575000D03*
D15*
X262890000Y-153035000D03*
X269240000Y-150495000D03*
D14*
X152400000Y-155575000D03*
D13*
X147320000Y-155575000D03*
X157480000Y-155575000D03*
D15*
X148590000Y-153035000D03*
X154940000Y-150495000D03*
D13*
X195580000Y-155575000D03*
X185420000Y-155575000D03*
D14*
X190500000Y-155575000D03*
D15*
X186690000Y-153035000D03*
X193040000Y-150495000D03*
D13*
X138430000Y-155575000D03*
D14*
X133350000Y-155575000D03*
D13*
X128270000Y-155575000D03*
D15*
X129540000Y-153035000D03*
X135890000Y-150495000D03*
D14*
X180975000Y-136525000D03*
D13*
X175895000Y-136525000D03*
X186055000Y-136525000D03*
D15*
X177165000Y-133985000D03*
X183515000Y-131445000D03*
D13*
X194945000Y-136525000D03*
X205105000Y-136525000D03*
D14*
X200025000Y-136525000D03*
D15*
X196215000Y-133985000D03*
X202565000Y-131445000D03*
D14*
X109531250Y-185435000D03*
D19*
X103581250Y-193675000D03*
D13*
X83026250Y-193675000D03*
D14*
X97631250Y-193675000D03*
D16*
X109531250Y-200675000D03*
X85731250Y-200675000D03*
D18*
X92868750Y-193675000D03*
D14*
X88106250Y-193675000D03*
X85731250Y-185435000D03*
D15*
X93821250Y-191135000D03*
X84296250Y-191135000D03*
X100171250Y-188595000D03*
X90646250Y-188595000D03*
D14*
X195262500Y-174625000D03*
D13*
X200342500Y-174625000D03*
X190182500Y-174625000D03*
D15*
X191452500Y-172085000D03*
X197802500Y-169545000D03*
D14*
X223837500Y-193675000D03*
D13*
X218757500Y-193675000D03*
X228917500Y-193675000D03*
D15*
X220027500Y-191135000D03*
X226377500Y-188595000D03*
D14*
X238125000Y-136525000D03*
D13*
X233045000Y-136525000D03*
X243205000Y-136525000D03*
D15*
X234315000Y-133985000D03*
X240665000Y-131445000D03*
D13*
X228282500Y-174625000D03*
D14*
X233362500Y-174625000D03*
D13*
X238442500Y-174625000D03*
D15*
X229552500Y-172085000D03*
X235902500Y-169545000D03*
D14*
X147637500Y-193675000D03*
D13*
X152717500Y-193675000D03*
X142557500Y-193675000D03*
D15*
X143827500Y-191135000D03*
X150177500Y-188595000D03*
D14*
X178593750Y-212725000D03*
D13*
X183673750Y-212725000D03*
D14*
X190493750Y-204485000D03*
D16*
X190493750Y-219725000D03*
D13*
X173513750Y-212725000D03*
D16*
X166693750Y-219725000D03*
D14*
X166693750Y-204485000D03*
D15*
X174783750Y-210185000D03*
X181133750Y-207645000D03*
D13*
X300355000Y-136525000D03*
D14*
X295275000Y-136525000D03*
D13*
X290195000Y-136525000D03*
D15*
X291465000Y-133985000D03*
X297815000Y-131445000D03*
D13*
X299720000Y-155575000D03*
D14*
X304800000Y-155575000D03*
D13*
X309880000Y-155575000D03*
D15*
X300990000Y-153035000D03*
X307340000Y-150495000D03*
D20*
X197485000Y-100330000D03*
D13*
X197485000Y-97790000D03*
X200025000Y-100330000D03*
X200025000Y-97790000D03*
X202565000Y-100330000D03*
X202565000Y-97790000D03*
X205105000Y-100330000D03*
X205105000Y-97790000D03*
X207645000Y-100330000D03*
X207645000Y-97790000D03*
X210185000Y-100330000D03*
X210185000Y-97790000D03*
D21*
X187325000Y-100840000D03*
D22*
X187325000Y-118840000D03*
D23*
X199072500Y-118110000D03*
D24*
X199072500Y-107950000D03*
D23*
X205422500Y-107950000D03*
D25*
X205422500Y-118110000D03*
D23*
X192722500Y-107950000D03*
D25*
X192722500Y-118110000D03*
D23*
X85090000Y-95885000D03*
D24*
X92710000Y-95885000D03*
D23*
X97790000Y-95885000D03*
D24*
X105410000Y-95885000D03*
D23*
X195897500Y-118110000D03*
D24*
X195897500Y-107950000D03*
D23*
X219075000Y-111760000D03*
D24*
X221615000Y-111760000D03*
X224155000Y-111760000D03*
X226695000Y-111760000D03*
X229235000Y-111760000D03*
X231775000Y-111760000D03*
X234315000Y-111760000D03*
D26*
X236855000Y-111760000D03*
D24*
X239395000Y-111760000D03*
X241935000Y-111760000D03*
X244475000Y-111760000D03*
X247015000Y-111760000D03*
X249555000Y-111760000D03*
X252095000Y-111760000D03*
X252095000Y-104140000D03*
X249555000Y-104140000D03*
X247015000Y-104140000D03*
X244475000Y-104140000D03*
X241935000Y-104140000D03*
X239395000Y-104140000D03*
X236855000Y-104140000D03*
D26*
X234315000Y-104140000D03*
D24*
X231775000Y-104140000D03*
X229235000Y-104140000D03*
X226695000Y-104140000D03*
X224155000Y-104140000D03*
X221615000Y-104140000D03*
X219075000Y-104140000D03*
D23*
X202247500Y-107950000D03*
D25*
X202247500Y-118110000D03*
D23*
X276860000Y-95885000D03*
D27*
X269240000Y-95885000D03*
D23*
X135890000Y-100965000D03*
D28*
X135890000Y-103505000D03*
D24*
X135890000Y-106045000D03*
D28*
X135890000Y-108585000D03*
D24*
X135890000Y-111125000D03*
D28*
X135890000Y-113665000D03*
D24*
X135890000Y-116205000D03*
D28*
X135890000Y-118745000D03*
D24*
X143510000Y-118745000D03*
D28*
X143510000Y-116205000D03*
D24*
X143510000Y-113665000D03*
D28*
X143510000Y-111125000D03*
D24*
X143510000Y-108585000D03*
D28*
X143510000Y-106045000D03*
X143510000Y-103505000D03*
D24*
X143510000Y-100965000D03*
D23*
X332740000Y-95885000D03*
D24*
X340360000Y-95885000D03*
D23*
X307340000Y-95885000D03*
D24*
X314960000Y-95885000D03*
D29*
X225575000Y-93290000D03*
X219075000Y-93290000D03*
X219075000Y-97790000D03*
X225575000Y-97790000D03*
D23*
X345440000Y-95885000D03*
D24*
X353060000Y-95885000D03*
D23*
X236855000Y-118110000D03*
X236855000Y-115610000D03*
X161290000Y-100965000D03*
D28*
X161290000Y-103505000D03*
D24*
X161290000Y-106045000D03*
D28*
X161290000Y-108585000D03*
D24*
X161290000Y-111125000D03*
D28*
X161290000Y-113665000D03*
D24*
X161290000Y-116205000D03*
D28*
X161290000Y-118745000D03*
D24*
X168910000Y-118745000D03*
D28*
X168910000Y-116205000D03*
D24*
X168910000Y-113665000D03*
D28*
X168910000Y-111125000D03*
D24*
X168910000Y-108585000D03*
D28*
X168910000Y-106045000D03*
X168910000Y-103505000D03*
D24*
X168910000Y-100965000D03*
D23*
X345440000Y-100965000D03*
D28*
X345440000Y-103505000D03*
D24*
X345440000Y-106045000D03*
D28*
X345440000Y-108585000D03*
D24*
X345440000Y-111125000D03*
D28*
X345440000Y-113665000D03*
D24*
X345440000Y-116205000D03*
D28*
X345440000Y-118745000D03*
D24*
X353060000Y-118745000D03*
D28*
X353060000Y-116205000D03*
D24*
X353060000Y-113665000D03*
D28*
X353060000Y-111125000D03*
D24*
X353060000Y-108585000D03*
D28*
X353060000Y-106045000D03*
X353060000Y-103505000D03*
D24*
X353060000Y-100965000D03*
D23*
X148590000Y-100965000D03*
D28*
X148590000Y-103505000D03*
D24*
X148590000Y-106045000D03*
D28*
X148590000Y-108585000D03*
D24*
X148590000Y-111125000D03*
D28*
X148590000Y-113665000D03*
D24*
X148590000Y-116205000D03*
D28*
X148590000Y-118745000D03*
D24*
X156210000Y-118745000D03*
D28*
X156210000Y-116205000D03*
D24*
X156210000Y-113665000D03*
D28*
X156210000Y-111125000D03*
D24*
X156210000Y-108585000D03*
D28*
X156210000Y-106045000D03*
X156210000Y-103505000D03*
D24*
X156210000Y-100965000D03*
D23*
X234315000Y-114935000D03*
D24*
X224155000Y-114935000D03*
D23*
X252095000Y-115610000D03*
X252095000Y-118110000D03*
X97790000Y-100965000D03*
D28*
X97790000Y-103505000D03*
D24*
X97790000Y-106045000D03*
D28*
X97790000Y-108585000D03*
D24*
X97790000Y-111125000D03*
D28*
X97790000Y-113665000D03*
D24*
X97790000Y-116205000D03*
D28*
X97790000Y-118745000D03*
D24*
X105410000Y-118745000D03*
D28*
X105410000Y-116205000D03*
D24*
X105410000Y-113665000D03*
D28*
X105410000Y-111125000D03*
D24*
X105410000Y-108585000D03*
D28*
X105410000Y-106045000D03*
X105410000Y-103505000D03*
D24*
X105410000Y-100965000D03*
D23*
X307340000Y-100965000D03*
D28*
X307340000Y-103505000D03*
D24*
X307340000Y-106045000D03*
D28*
X307340000Y-108585000D03*
D24*
X307340000Y-111125000D03*
D28*
X307340000Y-113665000D03*
D24*
X307340000Y-116205000D03*
D28*
X307340000Y-118745000D03*
D24*
X314960000Y-118745000D03*
D28*
X314960000Y-116205000D03*
D24*
X314960000Y-113665000D03*
D28*
X314960000Y-111125000D03*
D24*
X314960000Y-108585000D03*
D28*
X314960000Y-106045000D03*
X314960000Y-103505000D03*
D24*
X314960000Y-100965000D03*
D23*
X320040000Y-100965000D03*
D28*
X320040000Y-103505000D03*
D24*
X320040000Y-106045000D03*
D28*
X320040000Y-108585000D03*
D24*
X320040000Y-111125000D03*
D28*
X320040000Y-113665000D03*
D24*
X320040000Y-116205000D03*
D28*
X320040000Y-118745000D03*
D24*
X327660000Y-118745000D03*
D28*
X327660000Y-116205000D03*
D24*
X327660000Y-113665000D03*
D28*
X327660000Y-111125000D03*
D24*
X327660000Y-108585000D03*
D28*
X327660000Y-106045000D03*
X327660000Y-103505000D03*
D24*
X327660000Y-100965000D03*
D23*
X110490000Y-95885000D03*
D24*
X118110000Y-95885000D03*
D23*
X281940000Y-95885000D03*
D24*
X289560000Y-95885000D03*
D23*
X256540000Y-100965000D03*
D24*
X256540000Y-103505000D03*
X256540000Y-106045000D03*
X256540000Y-108585000D03*
D28*
X256540000Y-111125000D03*
D24*
X256540000Y-113665000D03*
X256540000Y-116205000D03*
X256540000Y-118745000D03*
X264160000Y-118745000D03*
X264160000Y-116205000D03*
X264160000Y-113665000D03*
X264160000Y-111125000D03*
X264160000Y-108585000D03*
X264160000Y-106045000D03*
X264160000Y-103505000D03*
X264160000Y-100965000D03*
D23*
X214947500Y-118110000D03*
D24*
X214947500Y-107950000D03*
D23*
X264160000Y-95885000D03*
D27*
X256540000Y-95885000D03*
D23*
X211772500Y-118110000D03*
D24*
X211772500Y-107950000D03*
D30*
X242024999Y-116205000D03*
X246904999Y-116205000D03*
D23*
X123190000Y-100965000D03*
D28*
X123190000Y-103505000D03*
D24*
X123190000Y-106045000D03*
D28*
X123190000Y-108585000D03*
D24*
X123190000Y-111125000D03*
D28*
X123190000Y-113665000D03*
D24*
X123190000Y-116205000D03*
D28*
X123190000Y-118745000D03*
D24*
X130810000Y-118745000D03*
D28*
X130810000Y-116205000D03*
D24*
X130810000Y-113665000D03*
D28*
X130810000Y-111125000D03*
D24*
X130810000Y-108585000D03*
D28*
X130810000Y-106045000D03*
X130810000Y-103505000D03*
D24*
X130810000Y-100965000D03*
D23*
X294640000Y-95885000D03*
D24*
X302260000Y-95885000D03*
D23*
X320040000Y-95885000D03*
D24*
X327660000Y-95885000D03*
D31*
X250190000Y-96520000D03*
X250190000Y-93980000D03*
D32*
X80010000Y-92710000D03*
X358140000Y-92710000D03*
X358140000Y-118364000D03*
D23*
X332740000Y-100965000D03*
D28*
X332740000Y-103505000D03*
D24*
X332740000Y-106045000D03*
D28*
X332740000Y-108585000D03*
D24*
X332740000Y-111125000D03*
D28*
X332740000Y-113665000D03*
D24*
X332740000Y-116205000D03*
D28*
X332740000Y-118745000D03*
D24*
X340360000Y-118745000D03*
D28*
X340360000Y-116205000D03*
D24*
X340360000Y-113665000D03*
D28*
X340360000Y-111125000D03*
D24*
X340360000Y-108585000D03*
D28*
X340360000Y-106045000D03*
X340360000Y-103505000D03*
D24*
X340360000Y-100965000D03*
D23*
X161290000Y-95885000D03*
D24*
X168910000Y-95885000D03*
D23*
X110490000Y-100965000D03*
D28*
X110490000Y-103505000D03*
D24*
X110490000Y-106045000D03*
D28*
X110490000Y-108585000D03*
D24*
X110490000Y-111125000D03*
D28*
X110490000Y-113665000D03*
D24*
X110490000Y-116205000D03*
D28*
X110490000Y-118745000D03*
D24*
X118110000Y-118745000D03*
D28*
X118110000Y-116205000D03*
D24*
X118110000Y-113665000D03*
D28*
X118110000Y-111125000D03*
D24*
X118110000Y-108585000D03*
D28*
X118110000Y-106045000D03*
X118110000Y-103505000D03*
D24*
X118110000Y-100965000D03*
D23*
X234315000Y-118110000D03*
D24*
X224155000Y-118110000D03*
D23*
X123190000Y-95885000D03*
D24*
X130810000Y-95885000D03*
D23*
X173990000Y-100965000D03*
D28*
X173990000Y-103505000D03*
D24*
X173990000Y-106045000D03*
D28*
X173990000Y-108585000D03*
D24*
X173990000Y-111125000D03*
D28*
X173990000Y-113665000D03*
D24*
X173990000Y-116205000D03*
D28*
X173990000Y-118745000D03*
D24*
X181610000Y-118745000D03*
D28*
X181610000Y-116205000D03*
D24*
X181610000Y-113665000D03*
D28*
X181610000Y-111125000D03*
D24*
X181610000Y-108585000D03*
D28*
X181610000Y-106045000D03*
X181610000Y-103505000D03*
D24*
X181610000Y-100965000D03*
D23*
X294640000Y-100965000D03*
D28*
X294640000Y-103505000D03*
D24*
X294640000Y-106045000D03*
D28*
X294640000Y-108585000D03*
D24*
X294640000Y-111125000D03*
D28*
X294640000Y-113665000D03*
D24*
X294640000Y-116205000D03*
D28*
X294640000Y-118745000D03*
D24*
X302260000Y-118745000D03*
D28*
X302260000Y-116205000D03*
D24*
X302260000Y-113665000D03*
D28*
X302260000Y-111125000D03*
D24*
X302260000Y-108585000D03*
D28*
X302260000Y-106045000D03*
X302260000Y-103505000D03*
D24*
X302260000Y-100965000D03*
D23*
X135890000Y-95885000D03*
D24*
X143510000Y-95885000D03*
D29*
X234315000Y-93290000D03*
X240815000Y-93290000D03*
X234315000Y-97790000D03*
X240815000Y-97790000D03*
D23*
X241935000Y-100965000D03*
D24*
X252095000Y-100965000D03*
D23*
X281940000Y-100965000D03*
D28*
X281940000Y-103505000D03*
D24*
X281940000Y-106045000D03*
D28*
X281940000Y-108585000D03*
D24*
X281940000Y-111125000D03*
D28*
X281940000Y-113665000D03*
D24*
X281940000Y-116205000D03*
D28*
X281940000Y-118745000D03*
D24*
X289560000Y-118745000D03*
D28*
X289560000Y-116205000D03*
D24*
X289560000Y-113665000D03*
D28*
X289560000Y-111125000D03*
D24*
X289560000Y-108585000D03*
D28*
X289560000Y-106045000D03*
X289560000Y-103505000D03*
D24*
X289560000Y-100965000D03*
D23*
X85090000Y-100965000D03*
D28*
X85090000Y-103505000D03*
D24*
X85090000Y-106045000D03*
D28*
X85090000Y-108585000D03*
D24*
X85090000Y-111125000D03*
D28*
X85090000Y-113665000D03*
D24*
X85090000Y-116205000D03*
D28*
X85090000Y-118745000D03*
D24*
X92710000Y-118745000D03*
D28*
X92710000Y-116205000D03*
D24*
X92710000Y-113665000D03*
D28*
X92710000Y-111125000D03*
D24*
X92710000Y-108585000D03*
D28*
X92710000Y-106045000D03*
X92710000Y-103505000D03*
D24*
X92710000Y-100965000D03*
D23*
X148590000Y-95885000D03*
D24*
X156210000Y-95885000D03*
D33*
X198834375Y-212725000D03*
X335756250Y-212725000D03*
D23*
X173990000Y-95885000D03*
D24*
X181610000Y-95885000D03*
D32*
X80010000Y-118364000D03*
D23*
X234315000Y-100965000D03*
D24*
X231775000Y-100965000D03*
X229235000Y-100965000D03*
X226695000Y-100965000D03*
X224155000Y-100965000D03*
X221615000Y-100965000D03*
X219075000Y-100965000D03*
D23*
X208597500Y-107950000D03*
D24*
X208597500Y-118110000D03*
D23*
X269240000Y-100965000D03*
D24*
X269240000Y-103505000D03*
X269240000Y-106045000D03*
D28*
X269240000Y-108585000D03*
X269240000Y-111125000D03*
D24*
X269240000Y-113665000D03*
X269240000Y-116205000D03*
D28*
X269240000Y-118745000D03*
D24*
X276860000Y-118745000D03*
X276860000Y-116205000D03*
X276860000Y-113665000D03*
X276860000Y-111125000D03*
X276860000Y-108585000D03*
X276860000Y-106045000D03*
X276860000Y-103505000D03*
X276860000Y-100965000D03*
D31*
X187960000Y-96520000D03*
X187960000Y-93980000D03*
D14*
X85725000Y-136525000D03*
D13*
X90805000Y-136525000D03*
X80645000Y-136525000D03*
D15*
X81915000Y-133985000D03*
X88265000Y-131445000D03*
D13*
X309245000Y-136525000D03*
X319405000Y-136525000D03*
D14*
X314325000Y-136525000D03*
D15*
X310515000Y-133985000D03*
X316865000Y-131445000D03*
D33*
X102393750Y-212725000D03*
D14*
X352425000Y-136525000D03*
D13*
X357505000Y-136525000D03*
X347345000Y-136525000D03*
D15*
X356235000Y-139065000D03*
X349885000Y-141605000D03*
X90646250Y-169545000D03*
X96678750Y-177165000D03*
X84296250Y-172085000D03*
X90328750Y-179705000D03*
D13*
X83026250Y-174625000D03*
X97948750Y-174625000D03*
D14*
X88106250Y-174625000D03*
D13*
X87788750Y-174625000D03*
X93186250Y-174625000D03*
D14*
X92868750Y-174625000D03*
D16*
X357043750Y-153200000D03*
D14*
X347662500Y-155575000D03*
D34*
X351231250Y-165742500D03*
D35*
X341161250Y-175812500D03*
D13*
X347662500Y-150495000D03*
X350043750Y-170180000D03*
X347662500Y-160655000D03*
D14*
X341803750Y-153200000D03*
D13*
X350043750Y-160020000D03*
D16*
X357043750Y-177000000D03*
D15*
X347503750Y-168910000D03*
X352742500Y-158115000D03*
X344963750Y-162560000D03*
X350202500Y-151765000D03*
D14*
X276225000Y-204485000D03*
X161925000Y-204485000D03*
D13*
X213995000Y-212725000D03*
D14*
X219075000Y-212725000D03*
D36*
X276225000Y-219725000D03*
X161925000Y-219725000D03*
D13*
X224155000Y-212725000D03*
D15*
X215265000Y-210185000D03*
X221615000Y-207645000D03*
D33*
X239315625Y-212725000D03*
D13*
X95567500Y-212725000D03*
X85407500Y-212725000D03*
D14*
X90487500Y-212725000D03*
D15*
X86677500Y-210185000D03*
X93027500Y-207645000D03*
D14*
X331000000Y-144765000D03*
D16*
X354800000Y-129525000D03*
X331000000Y-129525000D03*
D14*
X354800000Y-144765000D03*
X333375000Y-136525000D03*
D18*
X347662500Y-136525000D03*
D14*
X342900000Y-136525000D03*
D13*
X328295000Y-136525000D03*
D18*
X338137500Y-136525000D03*
D15*
X329565000Y-133985000D03*
X339090000Y-133985000D03*
X335915000Y-131445000D03*
X345440000Y-131445000D03*
M02*
