%TF.GenerationSoftware,KiCad,Pcbnew,5.1.10*%
%TF.CreationDate,2021-08-19T15:46:26+12:00*%
%TF.ProjectId,74HC365_breakout,37344843-3336-4355-9f62-7265616b6f75,rev?*%
%TF.SameCoordinates,Original*%
%TF.FileFunction,Soldermask,Top*%
%TF.FilePolarity,Negative*%
%FSLAX46Y46*%
G04 Gerber Fmt 4.6, Leading zero omitted, Abs format (unit mm)*
G04 Created by KiCad (PCBNEW 5.1.10) date 2021-08-19 15:46:26*
%MOMM*%
%LPD*%
G01*
G04 APERTURE LIST*
%ADD10C,1.600000*%
%ADD11O,1.600000X1.600000*%
%ADD12O,1.700000X1.700000*%
%ADD13C,1.700000*%
G04 APERTURE END LIST*
D10*
%TO.C,C1*%
X137160000Y-91400000D03*
X137160000Y-88900000D03*
%TD*%
%TO.C,U1*%
X127000000Y-88900000D03*
D11*
X134620000Y-106680000D03*
X127000000Y-91440000D03*
X134620000Y-104140000D03*
X127000000Y-93980000D03*
X134620000Y-101600000D03*
X127000000Y-96520000D03*
X134620000Y-99060000D03*
X127000000Y-99060000D03*
X134620000Y-96520000D03*
X127000000Y-101600000D03*
X134620000Y-93980000D03*
X127000000Y-104140000D03*
X134620000Y-91440000D03*
X127000000Y-106680000D03*
X134620000Y-88900000D03*
%TD*%
D12*
%TO.C,J3*%
X137160000Y-109220000D03*
X134620000Y-109220000D03*
X132080000Y-109220000D03*
X129540000Y-109220000D03*
D13*
X127000000Y-109220000D03*
%TD*%
%TO.C,J2*%
X137160000Y-86360000D03*
D12*
X134620000Y-86360000D03*
X132080000Y-86360000D03*
X129540000Y-86360000D03*
G36*
G01*
X126398959Y-86961041D02*
X126398959Y-86961041D01*
G75*
G02*
X126398959Y-85758959I601041J601041D01*
G01*
X126398959Y-85758959D01*
G75*
G02*
X127601041Y-85758959I601041J-601041D01*
G01*
X127601041Y-85758959D01*
G75*
G02*
X127601041Y-86961041I-601041J-601041D01*
G01*
X127601041Y-86961041D01*
G75*
G02*
X126398959Y-86961041I-601041J601041D01*
G01*
G37*
%TD*%
D13*
%TO.C,J1*%
X137160000Y-93980000D03*
D12*
X137160000Y-96520000D03*
X137160000Y-99060000D03*
X137160000Y-101600000D03*
X137160000Y-104140000D03*
X137160000Y-106680000D03*
%TD*%
M02*
