%TF.GenerationSoftware,KiCad,Pcbnew,5.1.10*%
%TF.CreationDate,2021-08-19T15:46:26+12:00*%
%TF.ProjectId,74HC365_breakout,37344843-3336-4355-9f62-7265616b6f75,rev?*%
%TF.SameCoordinates,Original*%
%TF.FileFunction,Copper,L1,Top*%
%TF.FilePolarity,Positive*%
%FSLAX46Y46*%
G04 Gerber Fmt 4.6, Leading zero omitted, Abs format (unit mm)*
G04 Created by KiCad (PCBNEW 5.1.10) date 2021-08-19 15:46:26*
%MOMM*%
%LPD*%
G01*
G04 APERTURE LIST*
%TA.AperFunction,ComponentPad*%
%ADD10C,1.600000*%
%TD*%
%TA.AperFunction,ComponentPad*%
%ADD11O,1.600000X1.600000*%
%TD*%
%TA.AperFunction,ComponentPad*%
%ADD12O,1.700000X1.700000*%
%TD*%
%TA.AperFunction,ComponentPad*%
%ADD13C,1.700000*%
%TD*%
%TA.AperFunction,Conductor*%
%ADD14C,0.400000*%
%TD*%
%TA.AperFunction,Conductor*%
%ADD15C,0.600000*%
%TD*%
%TA.AperFunction,Conductor*%
%ADD16C,0.254000*%
%TD*%
%TA.AperFunction,Conductor*%
%ADD17C,0.100000*%
%TD*%
%TA.AperFunction,Conductor*%
%ADD18C,0.025400*%
%TD*%
G04 APERTURE END LIST*
D10*
%TO.P,C1,2*%
%TO.N,GND*%
X137160000Y-91400000D03*
%TO.P,C1,1*%
%TO.N,+5V*%
X137160000Y-88900000D03*
%TD*%
%TO.P,U1,1*%
%TO.N,E1*%
X127000000Y-88900000D03*
D11*
%TO.P,U1,9*%
%TO.N,Net-(J1-Pad4)*%
X134620000Y-106680000D03*
%TO.P,U1,2*%
%TO.N,INPUT*%
X127000000Y-91440000D03*
%TO.P,U1,10*%
X134620000Y-104140000D03*
%TO.P,U1,3*%
%TO.N,Net-(J1-Pad1)*%
X127000000Y-93980000D03*
%TO.P,U1,11*%
%TO.N,Net-(J1-Pad5)*%
X134620000Y-101600000D03*
%TO.P,U1,4*%
%TO.N,INPUT*%
X127000000Y-96520000D03*
%TO.P,U1,12*%
X134620000Y-99060000D03*
%TO.P,U1,5*%
%TO.N,Net-(J1-Pad2)*%
X127000000Y-99060000D03*
%TO.P,U1,13*%
%TO.N,Net-(J1-Pad6)*%
X134620000Y-96520000D03*
%TO.P,U1,6*%
%TO.N,INPUT*%
X127000000Y-101600000D03*
%TO.P,U1,14*%
X134620000Y-93980000D03*
%TO.P,U1,7*%
%TO.N,Net-(J1-Pad3)*%
X127000000Y-104140000D03*
%TO.P,U1,15*%
%TO.N,E2*%
X134620000Y-91440000D03*
%TO.P,U1,8*%
%TO.N,GND*%
X127000000Y-106680000D03*
%TO.P,U1,16*%
%TO.N,+5V*%
X134620000Y-88900000D03*
%TD*%
D12*
%TO.P,J3,5*%
%TO.N,Net-(J3-Pad5)*%
X137160000Y-109220000D03*
%TO.P,J3,4*%
%TO.N,Net-(J3-Pad4)*%
X134620000Y-109220000D03*
%TO.P,J3,3*%
%TO.N,Net-(J3-Pad3)*%
X132080000Y-109220000D03*
%TO.P,J3,2*%
%TO.N,Net-(J3-Pad2)*%
X129540000Y-109220000D03*
D13*
%TO.P,J3,1*%
%TO.N,Net-(J3-Pad1)*%
X127000000Y-109220000D03*
%TD*%
%TO.P,J2,1*%
%TO.N,+5V*%
X137160000Y-86360000D03*
D12*
%TO.P,J2,2*%
%TO.N,E1*%
X134620000Y-86360000D03*
%TO.P,J2,3*%
%TO.N,E2*%
X132080000Y-86360000D03*
%TO.P,J2,4*%
%TO.N,INPUT*%
X129540000Y-86360000D03*
%TO.P,J2,5*%
%TO.N,GND*%
%TA.AperFunction,ComponentPad*%
G36*
G01*
X126398959Y-86961041D02*
X126398959Y-86961041D01*
G75*
G02*
X126398959Y-85758959I601041J601041D01*
G01*
X126398959Y-85758959D01*
G75*
G02*
X127601041Y-85758959I601041J-601041D01*
G01*
X127601041Y-85758959D01*
G75*
G02*
X127601041Y-86961041I-601041J-601041D01*
G01*
X127601041Y-86961041D01*
G75*
G02*
X126398959Y-86961041I-601041J601041D01*
G01*
G37*
%TD.AperFunction*%
%TD*%
D13*
%TO.P,J1,1*%
%TO.N,Net-(J1-Pad1)*%
X137160000Y-93980000D03*
D12*
%TO.P,J1,2*%
%TO.N,Net-(J1-Pad2)*%
X137160000Y-96520000D03*
%TO.P,J1,3*%
%TO.N,Net-(J1-Pad3)*%
X137160000Y-99060000D03*
%TO.P,J1,4*%
%TO.N,Net-(J1-Pad4)*%
X137160000Y-101600000D03*
%TO.P,J1,5*%
%TO.N,Net-(J1-Pad5)*%
X137160000Y-104140000D03*
%TO.P,J1,6*%
%TO.N,Net-(J1-Pad6)*%
X137160000Y-106680000D03*
%TD*%
D14*
%TO.N,Net-(J1-Pad1)*%
X136249210Y-93069210D02*
X137160000Y-93980000D01*
X136249210Y-93069210D02*
X136205613Y-93027702D01*
X136205613Y-93027702D02*
X136160032Y-92988384D01*
X136160032Y-92988384D02*
X136112577Y-92951350D01*
X136112577Y-92951350D02*
X136063362Y-92916688D01*
X136063362Y-92916688D02*
X136012505Y-92884484D01*
X136012505Y-92884484D02*
X135960130Y-92854813D01*
X135960130Y-92854813D02*
X135906362Y-92827749D01*
X135906362Y-92827749D02*
X135851330Y-92803355D01*
X135851330Y-92803355D02*
X135795168Y-92781691D01*
X135795168Y-92781691D02*
X135738010Y-92762809D01*
X135738010Y-92762809D02*
X135679995Y-92746754D01*
X135679995Y-92746754D02*
X135621262Y-92733565D01*
X135621262Y-92733565D02*
X135561953Y-92723274D01*
X135561953Y-92723274D02*
X135502210Y-92715905D01*
X135502210Y-92715905D02*
X135442177Y-92711477D01*
X135442177Y-92711477D02*
X135382000Y-92710000D01*
X127910789Y-93069210D02*
X127000000Y-93980000D01*
X127910789Y-93069210D02*
X127954385Y-93027702D01*
X127954385Y-93027702D02*
X127999966Y-92988384D01*
X127999966Y-92988384D02*
X128047421Y-92951349D01*
X128047421Y-92951349D02*
X128096636Y-92916688D01*
X128096636Y-92916688D02*
X128147493Y-92884484D01*
X128147493Y-92884484D02*
X128199868Y-92854813D01*
X128199868Y-92854813D02*
X128253637Y-92827749D01*
X128253637Y-92827749D02*
X128308668Y-92803355D01*
X128308668Y-92803355D02*
X128364831Y-92781691D01*
X128364831Y-92781691D02*
X128421988Y-92762808D01*
X128421988Y-92762808D02*
X128480003Y-92746753D01*
X128480003Y-92746753D02*
X128538737Y-92733565D01*
X128538737Y-92733565D02*
X128598046Y-92723273D01*
X128598046Y-92723273D02*
X128657789Y-92715905D01*
X128657789Y-92715905D02*
X128717822Y-92711477D01*
X128717822Y-92711477D02*
X128778000Y-92710000D01*
X128778000Y-92710000D02*
X135382000Y-92710000D01*
%TO.N,Net-(J1-Pad2)*%
X136249210Y-95609210D02*
X137160000Y-96520000D01*
X136249210Y-95609210D02*
X136205613Y-95567702D01*
X136205613Y-95567702D02*
X136160032Y-95528384D01*
X136160032Y-95528384D02*
X136112577Y-95491350D01*
X136112577Y-95491350D02*
X136063362Y-95456688D01*
X136063362Y-95456688D02*
X136012505Y-95424484D01*
X136012505Y-95424484D02*
X135960130Y-95394813D01*
X135960130Y-95394813D02*
X135906362Y-95367749D01*
X135906362Y-95367749D02*
X135851330Y-95343355D01*
X135851330Y-95343355D02*
X135795168Y-95321691D01*
X135795168Y-95321691D02*
X135738010Y-95302809D01*
X135738010Y-95302809D02*
X135679995Y-95286754D01*
X135679995Y-95286754D02*
X135621262Y-95273565D01*
X135621262Y-95273565D02*
X135561953Y-95263274D01*
X135561953Y-95263274D02*
X135502210Y-95255905D01*
X135502210Y-95255905D02*
X135442177Y-95251477D01*
X135442177Y-95251477D02*
X135382000Y-95250000D01*
X130450789Y-95609210D02*
X127000000Y-99060000D01*
X130450789Y-95609210D02*
X130494385Y-95567702D01*
X130494385Y-95567702D02*
X130539966Y-95528384D01*
X130539966Y-95528384D02*
X130587421Y-95491349D01*
X130587421Y-95491349D02*
X130636636Y-95456688D01*
X130636636Y-95456688D02*
X130687493Y-95424484D01*
X130687493Y-95424484D02*
X130739868Y-95394813D01*
X130739868Y-95394813D02*
X130793637Y-95367749D01*
X130793637Y-95367749D02*
X130848668Y-95343355D01*
X130848668Y-95343355D02*
X130904831Y-95321691D01*
X130904831Y-95321691D02*
X130961988Y-95302808D01*
X130961988Y-95302808D02*
X131020003Y-95286753D01*
X131020003Y-95286753D02*
X131078737Y-95273565D01*
X131078737Y-95273565D02*
X131138046Y-95263273D01*
X131138046Y-95263273D02*
X131197789Y-95255905D01*
X131197789Y-95255905D02*
X131257822Y-95251477D01*
X131257822Y-95251477D02*
X131318000Y-95250000D01*
X131318000Y-95250000D02*
X135382000Y-95250000D01*
%TO.N,Net-(J1-Pad3)*%
X136249210Y-99970789D02*
X137160000Y-99060000D01*
X136249210Y-99970789D02*
X136205613Y-100012296D01*
X136205613Y-100012296D02*
X136160032Y-100051614D01*
X136160032Y-100051614D02*
X136112577Y-100088648D01*
X136112577Y-100088648D02*
X136063362Y-100123310D01*
X136063362Y-100123310D02*
X136012505Y-100155514D01*
X136012505Y-100155514D02*
X135960130Y-100185185D01*
X135960130Y-100185185D02*
X135906362Y-100212249D01*
X135906362Y-100212249D02*
X135851330Y-100236643D01*
X135851330Y-100236643D02*
X135795168Y-100258307D01*
X135795168Y-100258307D02*
X135738010Y-100277190D01*
X135738010Y-100277190D02*
X135679995Y-100293245D01*
X135679995Y-100293245D02*
X135621262Y-100306434D01*
X135621262Y-100306434D02*
X135561953Y-100316725D01*
X135561953Y-100316725D02*
X135502210Y-100324093D01*
X135502210Y-100324093D02*
X135442177Y-100328522D01*
X135442177Y-100328522D02*
X135382000Y-100330000D01*
X130450789Y-100689210D02*
X127000000Y-104140000D01*
X130450789Y-100689210D02*
X130494385Y-100647702D01*
X130494385Y-100647702D02*
X130539966Y-100608384D01*
X130539966Y-100608384D02*
X130587421Y-100571349D01*
X130587421Y-100571349D02*
X130636636Y-100536688D01*
X130636636Y-100536688D02*
X130687493Y-100504484D01*
X130687493Y-100504484D02*
X130739868Y-100474813D01*
X130739868Y-100474813D02*
X130793637Y-100447749D01*
X130793637Y-100447749D02*
X130848668Y-100423355D01*
X130848668Y-100423355D02*
X130904831Y-100401691D01*
X130904831Y-100401691D02*
X130961988Y-100382808D01*
X130961988Y-100382808D02*
X131020003Y-100366753D01*
X131020003Y-100366753D02*
X131078737Y-100353565D01*
X131078737Y-100353565D02*
X131138046Y-100343273D01*
X131138046Y-100343273D02*
X131197789Y-100335905D01*
X131197789Y-100335905D02*
X131257822Y-100331477D01*
X131257822Y-100331477D02*
X131318000Y-100330000D01*
X131318000Y-100330000D02*
X135382000Y-100330000D01*
%TO.N,Net-(J1-Pad5)*%
X134620000Y-101600000D02*
X137160000Y-104140000D01*
%TO.N,Net-(J1-Pad6)*%
X138112295Y-105725612D02*
X138070789Y-105769210D01*
X138151614Y-105680032D02*
X138112295Y-105725612D01*
X138223309Y-105583362D02*
X138188648Y-105632577D01*
X138255514Y-105532505D02*
X138223309Y-105583362D01*
X135767493Y-97615515D02*
X135819868Y-97645185D01*
X135819868Y-97645185D02*
X135873637Y-97672250D01*
X138416725Y-105081953D02*
X138406433Y-105141262D01*
X138406433Y-105141262D02*
X138393244Y-105199995D01*
X136041988Y-97737190D02*
X136100003Y-97753245D01*
X138188648Y-105632577D02*
X138151614Y-105680032D01*
X135716636Y-97583310D02*
X135767493Y-97615515D01*
X136218046Y-97776725D02*
X136277789Y-97784094D01*
X135574385Y-97472296D02*
X135619966Y-97511615D01*
X136100003Y-97753245D02*
X136158736Y-97766434D01*
X135928668Y-97696644D02*
X135984830Y-97718308D01*
X135667421Y-97548649D02*
X135716636Y-97583310D01*
X135619966Y-97511615D02*
X135667421Y-97548649D01*
X138285184Y-105480130D02*
X138255514Y-105532505D01*
X135984830Y-97718308D02*
X136041988Y-97737190D01*
X138430000Y-104902000D02*
X138428522Y-104962177D01*
X138393244Y-105199995D02*
X138377189Y-105258010D01*
X135530789Y-97430789D02*
X135574385Y-97472296D01*
X138428522Y-104962177D02*
X138424093Y-105022210D01*
X136158736Y-97766434D02*
X136218046Y-97776725D01*
X134620000Y-96520000D02*
X135530789Y-97430789D01*
X136337822Y-97788522D02*
X136398000Y-97790000D01*
X138336643Y-105371330D02*
X138312249Y-105426361D01*
X138424093Y-105022210D02*
X138416725Y-105081953D01*
X136277789Y-97784094D02*
X136337822Y-97788522D01*
X138377189Y-105258010D02*
X138358307Y-105315168D01*
X138070789Y-105769210D02*
X137160000Y-106680000D01*
X135873637Y-97672250D02*
X135928668Y-97696644D01*
X138358307Y-105315168D02*
X138336643Y-105371330D01*
X138312249Y-105426361D02*
X138285184Y-105480130D01*
X137160000Y-97790000D02*
X136398000Y-97790000D01*
X137160000Y-97790000D02*
X137284481Y-97796115D01*
X137284481Y-97796115D02*
X137407764Y-97814402D01*
X137407764Y-97814402D02*
X137528661Y-97844685D01*
X137528661Y-97844685D02*
X137646007Y-97886672D01*
X137646007Y-97886672D02*
X137758673Y-97939959D01*
X137758673Y-97939959D02*
X137865574Y-98004033D01*
X137865574Y-98004033D02*
X137965679Y-98078276D01*
X137965679Y-98078276D02*
X138058025Y-98161974D01*
X138058025Y-98161974D02*
X138141723Y-98254320D01*
X138141723Y-98254320D02*
X138215966Y-98354425D01*
X138215966Y-98354425D02*
X138280040Y-98461326D01*
X138280040Y-98461326D02*
X138333327Y-98573992D01*
X138333327Y-98573992D02*
X138375314Y-98691338D01*
X138375314Y-98691338D02*
X138405597Y-98812235D01*
X138405597Y-98812235D02*
X138423884Y-98935518D01*
X138423884Y-98935518D02*
X138430000Y-99060000D01*
X138430000Y-99060000D02*
X138430000Y-104902000D01*
D15*
%TO.N,+5V*%
X134620000Y-88900000D02*
X137160000Y-88900000D01*
X137160000Y-86360000D02*
X137160000Y-88900000D01*
D14*
%TO.N,E2*%
X132439210Y-89259210D02*
X134620000Y-91440000D01*
X132439210Y-89259210D02*
X132397702Y-89215613D01*
X132397702Y-89215613D02*
X132358384Y-89170032D01*
X132358384Y-89170032D02*
X132321350Y-89122577D01*
X132321350Y-89122577D02*
X132286688Y-89073362D01*
X132286688Y-89073362D02*
X132254484Y-89022505D01*
X132254484Y-89022505D02*
X132224813Y-88970130D01*
X132224813Y-88970130D02*
X132197749Y-88916362D01*
X132197749Y-88916362D02*
X132173355Y-88861330D01*
X132173355Y-88861330D02*
X132151691Y-88805168D01*
X132151691Y-88805168D02*
X132132809Y-88748010D01*
X132132809Y-88748010D02*
X132116754Y-88689995D01*
X132116754Y-88689995D02*
X132103565Y-88631262D01*
X132103565Y-88631262D02*
X132093274Y-88571953D01*
X132093274Y-88571953D02*
X132085905Y-88512210D01*
X132085905Y-88512210D02*
X132081477Y-88452177D01*
X132081477Y-88452177D02*
X132080000Y-88392000D01*
X132080000Y-88392000D02*
X132080000Y-86360000D01*
%TO.N,INPUT*%
X129180789Y-89259210D02*
X127000000Y-91440000D01*
X129180789Y-89259210D02*
X129222296Y-89215613D01*
X129222296Y-89215613D02*
X129261614Y-89170032D01*
X129261614Y-89170032D02*
X129298648Y-89122577D01*
X129298648Y-89122577D02*
X129333310Y-89073362D01*
X129333310Y-89073362D02*
X129365514Y-89022505D01*
X129365514Y-89022505D02*
X129395185Y-88970130D01*
X129395185Y-88970130D02*
X129422249Y-88916362D01*
X129422249Y-88916362D02*
X129446643Y-88861330D01*
X129446643Y-88861330D02*
X129468307Y-88805168D01*
X129468307Y-88805168D02*
X129487190Y-88748010D01*
X129487190Y-88748010D02*
X129503245Y-88689995D01*
X129503245Y-88689995D02*
X129516434Y-88631262D01*
X129516434Y-88631262D02*
X129526725Y-88571953D01*
X129526725Y-88571953D02*
X129534093Y-88512210D01*
X129534093Y-88512210D02*
X129538522Y-88452177D01*
X129538522Y-88452177D02*
X129540000Y-88392000D01*
X129540000Y-88392000D02*
X129540000Y-86360000D01*
X129180789Y-94339210D02*
X127000000Y-96520000D01*
X129180789Y-94339210D02*
X129224385Y-94297702D01*
X129224385Y-94297702D02*
X129269966Y-94258384D01*
X129269966Y-94258384D02*
X129317421Y-94221349D01*
X129317421Y-94221349D02*
X129366636Y-94186688D01*
X129366636Y-94186688D02*
X129417493Y-94154484D01*
X129417493Y-94154484D02*
X129469868Y-94124813D01*
X129469868Y-94124813D02*
X129523637Y-94097749D01*
X129523637Y-94097749D02*
X129578668Y-94073355D01*
X129578668Y-94073355D02*
X129634831Y-94051691D01*
X129634831Y-94051691D02*
X129691988Y-94032808D01*
X129691988Y-94032808D02*
X129750003Y-94016753D01*
X129750003Y-94016753D02*
X129808737Y-94003565D01*
X129808737Y-94003565D02*
X129868046Y-93993273D01*
X129868046Y-93993273D02*
X129927789Y-93985905D01*
X129927789Y-93985905D02*
X129987822Y-93981477D01*
X129987822Y-93981477D02*
X130048000Y-93980000D01*
X130048000Y-93980000D02*
X134620000Y-93980000D01*
%TD*%
D16*
%TO.N,GND*%
X137450776Y-83621457D02*
X137730481Y-83705905D01*
X137988458Y-83843074D01*
X138214875Y-84027735D01*
X138401111Y-84252856D01*
X138540078Y-84509870D01*
X138626476Y-84788976D01*
X138659000Y-85098418D01*
X138659001Y-97976465D01*
X138591385Y-97885295D01*
X138533786Y-97821745D01*
X138469350Y-97750651D01*
X138462914Y-97744818D01*
X138334709Y-97628619D01*
X138334397Y-97628387D01*
X138188751Y-97520369D01*
X138188747Y-97520366D01*
X138032887Y-97426947D01*
X138032882Y-97426944D01*
X138006453Y-97414444D01*
X138116180Y-97304717D01*
X138250898Y-97103097D01*
X138343693Y-96879069D01*
X138391000Y-96641243D01*
X138391000Y-96398757D01*
X138343693Y-96160931D01*
X138250898Y-95936903D01*
X138116180Y-95735283D01*
X137944717Y-95563820D01*
X137743097Y-95429102D01*
X137519069Y-95336307D01*
X137476470Y-95327833D01*
X137385907Y-95297493D01*
X137378181Y-95294996D01*
X137227844Y-95248169D01*
X137222166Y-95246448D01*
X137101790Y-95211000D01*
X137281243Y-95211000D01*
X137519069Y-95163693D01*
X137743097Y-95070898D01*
X137944717Y-94936180D01*
X138116180Y-94764717D01*
X138250898Y-94563097D01*
X138343693Y-94339069D01*
X138391000Y-94101243D01*
X138391000Y-93858757D01*
X138343693Y-93620931D01*
X138250898Y-93396903D01*
X138116180Y-93195283D01*
X137944717Y-93023820D01*
X137743097Y-92889102D01*
X137519069Y-92796307D01*
X137476470Y-92787833D01*
X137385907Y-92757493D01*
X137378181Y-92754996D01*
X137227844Y-92708169D01*
X137222166Y-92706448D01*
X137089219Y-92667298D01*
X137087525Y-92666804D01*
X136967539Y-92632074D01*
X136856734Y-92598762D01*
X136748687Y-92563310D01*
X136634791Y-92521492D01*
X136506421Y-92468792D01*
X136355659Y-92400653D01*
X136222295Y-92335579D01*
X136221678Y-92335229D01*
X136220592Y-92334748D01*
X136179058Y-92314481D01*
X136167898Y-92308159D01*
X136154849Y-92302375D01*
X136142089Y-92295952D01*
X136128764Y-92290812D01*
X136099808Y-92277977D01*
X136087056Y-92271558D01*
X136073735Y-92266420D01*
X136060683Y-92260634D01*
X136047691Y-92256342D01*
X136483263Y-92256342D01*
X136569218Y-92429207D01*
X136781358Y-92524687D01*
X137008048Y-92576945D01*
X137240578Y-92583975D01*
X137470012Y-92545505D01*
X137687532Y-92463014D01*
X137750782Y-92429207D01*
X137836737Y-92256342D01*
X137160000Y-91579605D01*
X136483263Y-92256342D01*
X136047691Y-92256342D01*
X136047127Y-92256156D01*
X136017559Y-92244750D01*
X136004512Y-92238967D01*
X135990964Y-92234491D01*
X135977638Y-92229351D01*
X135963873Y-92225542D01*
X135933798Y-92215606D01*
X135920477Y-92210468D01*
X135906715Y-92206659D01*
X135893155Y-92202180D01*
X135879226Y-92199052D01*
X135848701Y-92190605D01*
X135835140Y-92186125D01*
X135821206Y-92182996D01*
X135807449Y-92179189D01*
X135793384Y-92176748D01*
X135762479Y-92169809D01*
X135748709Y-92165998D01*
X135734630Y-92163555D01*
X135720713Y-92160430D01*
X135706555Y-92158684D01*
X135675335Y-92153267D01*
X135661403Y-92150138D01*
X135647225Y-92148389D01*
X135633161Y-92145949D01*
X135618929Y-92144899D01*
X135587481Y-92141020D01*
X135573580Y-92138609D01*
X135666588Y-91999413D01*
X135755614Y-91784485D01*
X135801000Y-91556318D01*
X135801000Y-91480578D01*
X135976025Y-91480578D01*
X136014495Y-91710012D01*
X136096986Y-91927532D01*
X136130793Y-91990782D01*
X136303658Y-92076737D01*
X136980395Y-91400000D01*
X137339605Y-91400000D01*
X138016342Y-92076737D01*
X138189207Y-91990782D01*
X138284687Y-91778642D01*
X138336945Y-91551952D01*
X138343975Y-91319422D01*
X138305505Y-91089988D01*
X138223014Y-90872468D01*
X138189207Y-90809218D01*
X138016342Y-90723263D01*
X137339605Y-91400000D01*
X136980395Y-91400000D01*
X136303658Y-90723263D01*
X136130793Y-90809218D01*
X136035313Y-91021358D01*
X135983055Y-91248048D01*
X135976025Y-91480578D01*
X135801000Y-91480578D01*
X135801000Y-91323682D01*
X135755614Y-91095515D01*
X135666588Y-90880587D01*
X135537342Y-90687157D01*
X135393843Y-90543658D01*
X136483263Y-90543658D01*
X137160000Y-91220395D01*
X137836737Y-90543658D01*
X137750782Y-90370793D01*
X137538642Y-90275313D01*
X137311952Y-90223055D01*
X137079422Y-90216025D01*
X136849988Y-90254495D01*
X136632468Y-90336986D01*
X136569218Y-90370793D01*
X136483263Y-90543658D01*
X135393843Y-90543658D01*
X135372843Y-90522658D01*
X135179413Y-90393412D01*
X134964485Y-90304386D01*
X134904527Y-90292459D01*
X134838643Y-90272198D01*
X134814150Y-90265550D01*
X134674655Y-90232634D01*
X134657476Y-90228996D01*
X134530839Y-90205214D01*
X134526211Y-90204374D01*
X134414837Y-90184879D01*
X134323670Y-90165931D01*
X134249271Y-90144340D01*
X134180966Y-90115836D01*
X134106480Y-90072940D01*
X134016500Y-90005566D01*
X133900911Y-89899253D01*
X132855083Y-88853426D01*
X132828321Y-88825317D01*
X132807632Y-88801333D01*
X132793858Y-88783682D01*
X133439000Y-88783682D01*
X133439000Y-89016318D01*
X133484386Y-89244485D01*
X133573412Y-89459413D01*
X133702658Y-89652843D01*
X133867157Y-89817342D01*
X134060587Y-89946588D01*
X134275515Y-90035614D01*
X134503682Y-90081000D01*
X134736318Y-90081000D01*
X134964485Y-90035614D01*
X135179413Y-89946588D01*
X135237098Y-89908044D01*
X135254956Y-89898395D01*
X135281917Y-89882360D01*
X135370968Y-89824304D01*
X135389392Y-89811504D01*
X135467310Y-89753898D01*
X135473829Y-89748969D01*
X135541605Y-89696576D01*
X135596288Y-89656552D01*
X135639033Y-89630032D01*
X135677710Y-89611933D01*
X135724425Y-89597499D01*
X135792195Y-89586224D01*
X135890000Y-89581453D01*
X135987803Y-89586224D01*
X136055574Y-89597499D01*
X136102289Y-89611933D01*
X136140966Y-89630032D01*
X136183711Y-89656552D01*
X136238394Y-89696576D01*
X136306170Y-89748969D01*
X136312689Y-89753898D01*
X136390607Y-89811504D01*
X136409031Y-89824304D01*
X136498082Y-89882360D01*
X136525044Y-89898396D01*
X136542909Y-89908049D01*
X136600587Y-89946588D01*
X136815515Y-90035614D01*
X137043682Y-90081000D01*
X137276318Y-90081000D01*
X137504485Y-90035614D01*
X137719413Y-89946588D01*
X137912843Y-89817342D01*
X138077342Y-89652843D01*
X138206588Y-89459413D01*
X138295614Y-89244485D01*
X138341000Y-89016318D01*
X138341000Y-88783682D01*
X138295614Y-88555515D01*
X138206588Y-88340587D01*
X138168049Y-88282909D01*
X138158396Y-88265044D01*
X138142360Y-88238082D01*
X138084304Y-88149031D01*
X138071504Y-88130607D01*
X138013898Y-88052689D01*
X138008969Y-88046170D01*
X137956576Y-87978394D01*
X137916552Y-87923711D01*
X137890032Y-87880966D01*
X137871933Y-87842289D01*
X137857499Y-87795574D01*
X137846224Y-87727803D01*
X137843483Y-87671610D01*
X137846916Y-87604966D01*
X137859698Y-87532369D01*
X137876159Y-87482131D01*
X137897098Y-87439977D01*
X137927881Y-87393193D01*
X137973769Y-87333840D01*
X138032471Y-87261394D01*
X138038836Y-87253319D01*
X138102304Y-87170520D01*
X138116861Y-87150179D01*
X138180372Y-87054981D01*
X138198013Y-87025788D01*
X138208458Y-87006613D01*
X138250898Y-86943097D01*
X138343693Y-86719069D01*
X138391000Y-86481243D01*
X138391000Y-86238757D01*
X138343693Y-86000931D01*
X138250898Y-85776903D01*
X138116180Y-85575283D01*
X137944717Y-85403820D01*
X137743097Y-85269102D01*
X137519069Y-85176307D01*
X137281243Y-85129000D01*
X137038757Y-85129000D01*
X136800931Y-85176307D01*
X136576903Y-85269102D01*
X136375283Y-85403820D01*
X136203820Y-85575283D01*
X136069102Y-85776903D01*
X135976307Y-86000931D01*
X135929000Y-86238757D01*
X135929000Y-86481243D01*
X135976307Y-86719069D01*
X136069102Y-86943097D01*
X136111538Y-87006607D01*
X136121985Y-87025786D01*
X136139627Y-87054981D01*
X136203138Y-87150179D01*
X136217695Y-87170520D01*
X136281163Y-87253319D01*
X136287528Y-87261394D01*
X136346230Y-87333840D01*
X136392118Y-87393193D01*
X136422901Y-87439977D01*
X136443840Y-87482131D01*
X136460301Y-87532369D01*
X136473084Y-87604974D01*
X136476517Y-87671610D01*
X136473776Y-87727794D01*
X136462500Y-87795574D01*
X136448066Y-87842289D01*
X136429967Y-87880966D01*
X136403447Y-87923711D01*
X136363423Y-87978394D01*
X136311030Y-88046170D01*
X136308937Y-88048938D01*
X136306170Y-88051030D01*
X136238394Y-88103423D01*
X136183711Y-88143447D01*
X136140966Y-88169967D01*
X136102289Y-88188066D01*
X136055574Y-88202500D01*
X135987794Y-88213776D01*
X135890000Y-88218547D01*
X135792205Y-88213776D01*
X135724425Y-88202500D01*
X135677710Y-88188066D01*
X135639033Y-88169967D01*
X135596288Y-88143447D01*
X135541605Y-88103423D01*
X135473829Y-88051030D01*
X135467310Y-88046101D01*
X135389392Y-87988495D01*
X135370968Y-87975695D01*
X135281917Y-87917639D01*
X135254954Y-87901603D01*
X135237092Y-87891952D01*
X135179413Y-87853412D01*
X134964485Y-87764386D01*
X134736318Y-87719000D01*
X134503682Y-87719000D01*
X134275515Y-87764386D01*
X134060587Y-87853412D01*
X133867157Y-87982658D01*
X133702658Y-88147157D01*
X133573412Y-88340587D01*
X133484386Y-88555515D01*
X133439000Y-88783682D01*
X132793858Y-88783682D01*
X132788152Y-88776371D01*
X132769926Y-88750493D01*
X132752971Y-88723716D01*
X132737362Y-88696164D01*
X132723126Y-88667881D01*
X132710290Y-88638923D01*
X132698892Y-88609376D01*
X132688959Y-88579308D01*
X132680513Y-88548787D01*
X132673572Y-88517881D01*
X132668157Y-88486670D01*
X132664281Y-88455248D01*
X132661952Y-88423663D01*
X132661000Y-88384898D01*
X132661000Y-88058234D01*
X132668264Y-87890134D01*
X132686043Y-87770465D01*
X132711013Y-87680764D01*
X132742628Y-87606407D01*
X132784506Y-87532705D01*
X132841197Y-87448782D01*
X132912261Y-87350058D01*
X132915623Y-87345313D01*
X132994402Y-87232272D01*
X133004822Y-87216500D01*
X133086103Y-87086574D01*
X133099492Y-87063400D01*
X133134502Y-86997567D01*
X133170898Y-86943097D01*
X133263693Y-86719069D01*
X133311000Y-86481243D01*
X133311000Y-86238757D01*
X133389000Y-86238757D01*
X133389000Y-86481243D01*
X133436307Y-86719069D01*
X133529102Y-86943097D01*
X133663820Y-87144717D01*
X133835283Y-87316180D01*
X134036903Y-87450898D01*
X134260931Y-87543693D01*
X134498757Y-87591000D01*
X134741243Y-87591000D01*
X134979069Y-87543693D01*
X135203097Y-87450898D01*
X135404717Y-87316180D01*
X135576180Y-87144717D01*
X135710898Y-86943097D01*
X135803693Y-86719069D01*
X135851000Y-86481243D01*
X135851000Y-86238757D01*
X135803693Y-86000931D01*
X135710898Y-85776903D01*
X135576180Y-85575283D01*
X135404717Y-85403820D01*
X135203097Y-85269102D01*
X134979069Y-85176307D01*
X134741243Y-85129000D01*
X134498757Y-85129000D01*
X134260931Y-85176307D01*
X134036903Y-85269102D01*
X133835283Y-85403820D01*
X133663820Y-85575283D01*
X133529102Y-85776903D01*
X133436307Y-86000931D01*
X133389000Y-86238757D01*
X133311000Y-86238757D01*
X133263693Y-86000931D01*
X133170898Y-85776903D01*
X133036180Y-85575283D01*
X132864717Y-85403820D01*
X132663097Y-85269102D01*
X132439069Y-85176307D01*
X132201243Y-85129000D01*
X131958757Y-85129000D01*
X131720931Y-85176307D01*
X131496903Y-85269102D01*
X131295283Y-85403820D01*
X131123820Y-85575283D01*
X130989102Y-85776903D01*
X130896307Y-86000931D01*
X130849000Y-86238757D01*
X130849000Y-86481243D01*
X130896307Y-86719069D01*
X130989102Y-86943097D01*
X131025495Y-86997563D01*
X131060506Y-87063398D01*
X131073896Y-87086574D01*
X131155177Y-87216500D01*
X131165597Y-87232272D01*
X131244376Y-87345313D01*
X131247738Y-87350058D01*
X131318802Y-87448782D01*
X131375493Y-87532705D01*
X131417371Y-87606407D01*
X131448986Y-87680764D01*
X131473956Y-87770465D01*
X131491735Y-87890134D01*
X131499000Y-88058241D01*
X131499000Y-88370608D01*
X131498475Y-88377725D01*
X131499000Y-88399112D01*
X131499000Y-88420539D01*
X131499701Y-88427652D01*
X131500303Y-88452176D01*
X131499952Y-88466452D01*
X131501003Y-88480698D01*
X131501353Y-88494964D01*
X131503100Y-88509126D01*
X131505431Y-88540739D01*
X131505782Y-88555009D01*
X131507529Y-88569170D01*
X131508579Y-88583410D01*
X131511020Y-88597481D01*
X131514899Y-88628929D01*
X131515949Y-88643161D01*
X131518389Y-88657225D01*
X131520138Y-88671403D01*
X131523267Y-88685335D01*
X131528684Y-88716555D01*
X131530430Y-88730713D01*
X131533555Y-88744630D01*
X131535998Y-88758709D01*
X131539809Y-88772479D01*
X131546748Y-88803384D01*
X131549189Y-88817449D01*
X131552996Y-88831206D01*
X131556125Y-88845140D01*
X131560605Y-88858701D01*
X131569052Y-88889226D01*
X131572180Y-88903155D01*
X131576659Y-88916715D01*
X131580468Y-88930477D01*
X131585606Y-88943798D01*
X131595542Y-88973873D01*
X131599351Y-88987638D01*
X131604491Y-89000964D01*
X131608967Y-89014512D01*
X131614750Y-89027559D01*
X131626156Y-89057127D01*
X131630634Y-89070683D01*
X131636420Y-89083735D01*
X131641558Y-89097056D01*
X131647977Y-89109808D01*
X131660812Y-89138764D01*
X131665952Y-89152089D01*
X131672375Y-89164849D01*
X131678159Y-89177898D01*
X131685193Y-89190315D01*
X131699439Y-89218617D01*
X131705229Y-89231678D01*
X131712266Y-89244100D01*
X131718680Y-89256842D01*
X131726318Y-89268903D01*
X131741934Y-89296469D01*
X131748352Y-89309220D01*
X131755998Y-89321294D01*
X131763036Y-89333718D01*
X131771251Y-89345382D01*
X131788202Y-89372152D01*
X131795242Y-89384578D01*
X131803459Y-89396245D01*
X131811094Y-89408302D01*
X131819883Y-89419564D01*
X131838119Y-89445456D01*
X131845761Y-89457525D01*
X131854558Y-89468798D01*
X131862772Y-89480460D01*
X131872084Y-89491255D01*
X131891589Y-89516249D01*
X131899803Y-89527912D01*
X131909120Y-89538713D01*
X131917912Y-89549979D01*
X131927765Y-89560328D01*
X131948439Y-89584295D01*
X131957236Y-89595567D01*
X131967093Y-89605920D01*
X131976404Y-89616714D01*
X131986734Y-89626549D01*
X132003673Y-89644340D01*
X132008201Y-89649858D01*
X132023337Y-89664994D01*
X132038103Y-89680503D01*
X132043511Y-89685168D01*
X133079253Y-90720911D01*
X133185566Y-90836500D01*
X133252940Y-90926480D01*
X133295836Y-91000966D01*
X133324340Y-91069271D01*
X133345931Y-91143670D01*
X133364879Y-91234837D01*
X133384374Y-91346211D01*
X133385214Y-91350839D01*
X133408996Y-91477476D01*
X133412634Y-91494655D01*
X133445550Y-91634150D01*
X133452198Y-91658643D01*
X133472459Y-91724527D01*
X133484386Y-91784485D01*
X133573412Y-91999413D01*
X133659999Y-92129000D01*
X128799392Y-92129000D01*
X128792275Y-92128475D01*
X128770888Y-92129000D01*
X128749460Y-92129000D01*
X128742346Y-92129701D01*
X128717822Y-92130303D01*
X128703546Y-92129952D01*
X128689300Y-92131003D01*
X128675035Y-92131353D01*
X128660871Y-92133100D01*
X128629269Y-92135431D01*
X128614999Y-92135781D01*
X128600829Y-92137529D01*
X128586589Y-92138579D01*
X128572522Y-92141020D01*
X128541083Y-92144897D01*
X128526828Y-92145949D01*
X128512757Y-92148391D01*
X128498606Y-92150136D01*
X128484682Y-92153263D01*
X128453444Y-92158683D01*
X128439297Y-92160428D01*
X128425373Y-92163554D01*
X128411280Y-92166000D01*
X128397515Y-92169810D01*
X128366626Y-92176745D01*
X128352549Y-92179188D01*
X128338793Y-92182995D01*
X128324870Y-92186121D01*
X128311311Y-92190600D01*
X128280773Y-92199051D01*
X128266831Y-92202182D01*
X128253271Y-92206662D01*
X128239521Y-92210467D01*
X128226203Y-92215604D01*
X128196114Y-92225545D01*
X128182364Y-92229350D01*
X128169040Y-92234490D01*
X128155475Y-92238971D01*
X128142427Y-92244755D01*
X128112861Y-92256160D01*
X128099311Y-92260636D01*
X128086274Y-92266415D01*
X128072946Y-92271556D01*
X128060182Y-92277981D01*
X128031226Y-92290816D01*
X128017914Y-92295951D01*
X128005161Y-92302370D01*
X127992097Y-92308161D01*
X127979673Y-92315199D01*
X127951389Y-92329436D01*
X127938320Y-92335229D01*
X127925894Y-92342269D01*
X127913160Y-92348678D01*
X127901103Y-92356313D01*
X127873523Y-92371937D01*
X127860778Y-92378352D01*
X127853695Y-92382837D01*
X127709095Y-92462241D01*
X127573856Y-92530936D01*
X127459151Y-92583638D01*
X127357837Y-92624906D01*
X127261693Y-92659372D01*
X127162335Y-92691290D01*
X127052295Y-92724478D01*
X126929094Y-92761474D01*
X126924726Y-92762814D01*
X126785016Y-92806600D01*
X126777850Y-92808924D01*
X126696235Y-92836286D01*
X126655515Y-92844386D01*
X126440587Y-92933412D01*
X126247157Y-93062658D01*
X126082658Y-93227157D01*
X125953412Y-93420587D01*
X125864386Y-93635515D01*
X125819000Y-93863682D01*
X125819000Y-94096318D01*
X125864386Y-94324485D01*
X125953412Y-94539413D01*
X126082658Y-94732843D01*
X126247157Y-94897342D01*
X126440587Y-95026588D01*
X126655515Y-95115614D01*
X126883682Y-95161000D01*
X127116318Y-95161000D01*
X127344485Y-95115614D01*
X127559413Y-95026588D01*
X127752843Y-94897342D01*
X127917342Y-94732843D01*
X128046588Y-94539413D01*
X128135614Y-94324485D01*
X128152337Y-94240412D01*
X128165653Y-94193484D01*
X128174364Y-94155474D01*
X128199499Y-94012550D01*
X128203113Y-93986920D01*
X128217362Y-93853170D01*
X128218112Y-93845374D01*
X128228262Y-93727063D01*
X128239599Y-93635827D01*
X128253793Y-93574778D01*
X128270590Y-93534781D01*
X128279004Y-93522653D01*
X128316596Y-93485061D01*
X128344685Y-93458318D01*
X128368658Y-93437638D01*
X128389265Y-93421556D01*
X128454929Y-93378072D01*
X128473837Y-93367360D01*
X128502107Y-93353131D01*
X128531071Y-93340291D01*
X128560625Y-93328892D01*
X128590701Y-93318955D01*
X128621217Y-93310510D01*
X128652109Y-93303574D01*
X128683331Y-93298156D01*
X128714741Y-93294282D01*
X128746335Y-93291952D01*
X128785101Y-93291000D01*
X133505258Y-93291000D01*
X133441684Y-93325975D01*
X133373234Y-93354117D01*
X133290226Y-93376456D01*
X133178963Y-93392440D01*
X133022050Y-93399000D01*
X130069392Y-93399000D01*
X130062275Y-93398475D01*
X130040888Y-93399000D01*
X130019460Y-93399000D01*
X130012346Y-93399701D01*
X129987822Y-93400303D01*
X129973546Y-93399952D01*
X129959300Y-93401003D01*
X129945035Y-93401353D01*
X129930871Y-93403100D01*
X129899269Y-93405431D01*
X129884999Y-93405781D01*
X129870829Y-93407529D01*
X129856589Y-93408579D01*
X129842522Y-93411020D01*
X129811083Y-93414897D01*
X129796828Y-93415949D01*
X129782757Y-93418391D01*
X129768606Y-93420136D01*
X129754682Y-93423263D01*
X129723444Y-93428683D01*
X129709297Y-93430428D01*
X129695373Y-93433554D01*
X129681280Y-93436000D01*
X129667515Y-93439810D01*
X129636626Y-93446745D01*
X129622549Y-93449188D01*
X129608793Y-93452995D01*
X129594870Y-93456121D01*
X129581311Y-93460600D01*
X129550773Y-93469051D01*
X129536831Y-93472182D01*
X129523271Y-93476662D01*
X129509521Y-93480467D01*
X129496203Y-93485604D01*
X129466114Y-93495545D01*
X129452364Y-93499350D01*
X129439040Y-93504490D01*
X129425475Y-93508971D01*
X129412427Y-93514755D01*
X129382861Y-93526160D01*
X129369311Y-93530636D01*
X129356274Y-93536415D01*
X129342946Y-93541556D01*
X129330182Y-93547981D01*
X129301226Y-93560816D01*
X129287914Y-93565951D01*
X129275161Y-93572370D01*
X129262097Y-93578161D01*
X129249673Y-93585199D01*
X129221389Y-93599436D01*
X129208320Y-93605229D01*
X129195894Y-93612269D01*
X129183160Y-93618678D01*
X129171103Y-93626313D01*
X129143523Y-93641937D01*
X129130778Y-93648352D01*
X129118708Y-93655995D01*
X129106281Y-93663035D01*
X129094618Y-93671250D01*
X129067848Y-93688201D01*
X129055427Y-93695237D01*
X129043761Y-93703453D01*
X129031696Y-93711093D01*
X129020432Y-93719883D01*
X128994529Y-93738126D01*
X128982467Y-93745765D01*
X128971215Y-93754546D01*
X128959544Y-93762766D01*
X128948732Y-93772092D01*
X128923760Y-93791581D01*
X128912087Y-93799802D01*
X128901269Y-93809134D01*
X128890013Y-93817918D01*
X128879680Y-93827756D01*
X128855675Y-93848463D01*
X128844427Y-93857241D01*
X128834101Y-93867072D01*
X128823284Y-93876403D01*
X128813428Y-93886755D01*
X128795666Y-93903666D01*
X128790140Y-93908201D01*
X128774980Y-93923361D01*
X128759491Y-93938108D01*
X128754833Y-93943508D01*
X127719102Y-94979240D01*
X127603498Y-95085565D01*
X127513515Y-95152942D01*
X127439035Y-95195835D01*
X127370726Y-95224340D01*
X127296322Y-95245933D01*
X127205187Y-95264874D01*
X127093787Y-95284374D01*
X127089158Y-95285214D01*
X126962522Y-95308996D01*
X126945344Y-95312634D01*
X126805849Y-95345550D01*
X126781355Y-95352198D01*
X126715468Y-95372460D01*
X126655515Y-95384386D01*
X126440587Y-95473412D01*
X126247157Y-95602658D01*
X126082658Y-95767157D01*
X125953412Y-95960587D01*
X125864386Y-96175515D01*
X125819000Y-96403682D01*
X125819000Y-96636318D01*
X125864386Y-96864485D01*
X125953412Y-97079413D01*
X126082658Y-97272843D01*
X126247157Y-97437342D01*
X126440587Y-97566588D01*
X126655515Y-97655614D01*
X126883682Y-97701000D01*
X127116318Y-97701000D01*
X127344485Y-97655614D01*
X127559413Y-97566588D01*
X127752843Y-97437342D01*
X127917342Y-97272843D01*
X128046588Y-97079413D01*
X128135614Y-96864485D01*
X128147541Y-96804526D01*
X128167802Y-96738641D01*
X128174449Y-96714150D01*
X128207365Y-96574655D01*
X128211003Y-96557476D01*
X128234785Y-96430839D01*
X128235625Y-96426211D01*
X128255120Y-96314837D01*
X128274068Y-96223670D01*
X128295659Y-96149271D01*
X128324163Y-96080966D01*
X128367059Y-96006480D01*
X128434433Y-95916500D01*
X128540757Y-95800900D01*
X129586596Y-94755061D01*
X129614685Y-94728318D01*
X129638658Y-94707638D01*
X129663628Y-94688151D01*
X129689514Y-94669921D01*
X129716275Y-94652975D01*
X129743837Y-94637360D01*
X129772107Y-94623131D01*
X129801071Y-94610291D01*
X129830625Y-94598892D01*
X129860701Y-94588955D01*
X129891217Y-94580510D01*
X129922109Y-94573574D01*
X129953331Y-94568156D01*
X129984741Y-94564282D01*
X130016335Y-94561952D01*
X130055101Y-94561000D01*
X133022029Y-94561000D01*
X133178973Y-94567561D01*
X133290226Y-94583543D01*
X133373234Y-94605882D01*
X133441684Y-94634024D01*
X133505260Y-94669000D01*
X131339392Y-94669000D01*
X131332275Y-94668475D01*
X131310888Y-94669000D01*
X131289460Y-94669000D01*
X131282346Y-94669701D01*
X131257822Y-94670303D01*
X131243546Y-94669952D01*
X131229300Y-94671003D01*
X131215035Y-94671353D01*
X131200871Y-94673100D01*
X131169269Y-94675431D01*
X131154999Y-94675781D01*
X131140829Y-94677529D01*
X131126589Y-94678579D01*
X131112522Y-94681020D01*
X131081083Y-94684897D01*
X131066828Y-94685949D01*
X131052757Y-94688391D01*
X131038606Y-94690136D01*
X131024682Y-94693263D01*
X130993444Y-94698683D01*
X130979297Y-94700428D01*
X130965373Y-94703554D01*
X130951280Y-94706000D01*
X130937515Y-94709810D01*
X130906626Y-94716745D01*
X130892549Y-94719188D01*
X130878793Y-94722995D01*
X130864870Y-94726121D01*
X130851311Y-94730600D01*
X130820773Y-94739051D01*
X130806831Y-94742182D01*
X130793271Y-94746662D01*
X130779521Y-94750467D01*
X130766203Y-94755604D01*
X130736114Y-94765545D01*
X130722364Y-94769350D01*
X130709040Y-94774490D01*
X130695475Y-94778971D01*
X130682427Y-94784755D01*
X130652861Y-94796160D01*
X130639311Y-94800636D01*
X130626274Y-94806415D01*
X130612946Y-94811556D01*
X130600182Y-94817981D01*
X130571226Y-94830816D01*
X130557914Y-94835951D01*
X130545161Y-94842370D01*
X130532097Y-94848161D01*
X130519673Y-94855199D01*
X130491389Y-94869436D01*
X130478320Y-94875229D01*
X130465894Y-94882269D01*
X130453160Y-94888678D01*
X130441103Y-94896313D01*
X130413523Y-94911937D01*
X130400778Y-94918352D01*
X130388708Y-94925995D01*
X130376281Y-94933035D01*
X130364618Y-94941250D01*
X130337848Y-94958201D01*
X130325427Y-94965237D01*
X130313761Y-94973453D01*
X130301696Y-94981093D01*
X130290432Y-94989883D01*
X130264529Y-95008126D01*
X130252467Y-95015765D01*
X130241215Y-95024546D01*
X130229544Y-95032766D01*
X130218732Y-95042092D01*
X130193760Y-95061581D01*
X130182087Y-95069802D01*
X130171269Y-95079134D01*
X130160013Y-95087918D01*
X130149680Y-95097756D01*
X130125675Y-95118463D01*
X130114427Y-95127241D01*
X130104101Y-95137072D01*
X130093284Y-95146403D01*
X130083428Y-95156755D01*
X130065667Y-95173665D01*
X130060140Y-95178201D01*
X130044980Y-95193361D01*
X130029491Y-95208108D01*
X130024833Y-95213508D01*
X127719107Y-97519236D01*
X127603498Y-97625565D01*
X127513518Y-97692940D01*
X127439028Y-97735839D01*
X127370730Y-97764339D01*
X127296322Y-97785933D01*
X127205187Y-97804874D01*
X127093787Y-97824374D01*
X127089158Y-97825214D01*
X126962522Y-97848996D01*
X126945344Y-97852634D01*
X126805849Y-97885550D01*
X126781355Y-97892198D01*
X126715468Y-97912460D01*
X126655515Y-97924386D01*
X126440587Y-98013412D01*
X126247157Y-98142658D01*
X126082658Y-98307157D01*
X125953412Y-98500587D01*
X125864386Y-98715515D01*
X125819000Y-98943682D01*
X125819000Y-99176318D01*
X125864386Y-99404485D01*
X125953412Y-99619413D01*
X126082658Y-99812843D01*
X126247157Y-99977342D01*
X126440587Y-100106588D01*
X126655515Y-100195614D01*
X126883682Y-100241000D01*
X127116318Y-100241000D01*
X127344485Y-100195614D01*
X127559413Y-100106588D01*
X127752843Y-99977342D01*
X127917342Y-99812843D01*
X128046588Y-99619413D01*
X128135614Y-99404485D01*
X128147541Y-99344526D01*
X128167802Y-99278641D01*
X128174449Y-99254150D01*
X128207365Y-99114655D01*
X128211003Y-99097476D01*
X128234785Y-98970839D01*
X128235625Y-98966211D01*
X128255120Y-98854837D01*
X128274068Y-98763670D01*
X128295659Y-98689271D01*
X128324163Y-98620966D01*
X128367059Y-98546480D01*
X128434433Y-98456500D01*
X128540757Y-98340900D01*
X130856596Y-96025061D01*
X130884685Y-95998318D01*
X130908658Y-95977638D01*
X130933628Y-95958151D01*
X130959514Y-95939921D01*
X130986275Y-95922975D01*
X131013837Y-95907360D01*
X131042107Y-95893131D01*
X131071071Y-95880291D01*
X131100625Y-95868892D01*
X131130701Y-95858955D01*
X131161217Y-95850510D01*
X131192109Y-95843574D01*
X131223331Y-95838156D01*
X131254741Y-95834282D01*
X131286335Y-95831952D01*
X131325101Y-95831000D01*
X133659999Y-95831000D01*
X133573412Y-95960587D01*
X133484386Y-96175515D01*
X133439000Y-96403682D01*
X133439000Y-96636318D01*
X133484386Y-96864485D01*
X133573412Y-97079413D01*
X133702658Y-97272843D01*
X133867157Y-97437342D01*
X134060587Y-97566588D01*
X134275515Y-97655614D01*
X134316236Y-97663714D01*
X134397852Y-97691076D01*
X134405014Y-97693398D01*
X134544724Y-97737185D01*
X134549091Y-97738525D01*
X134672295Y-97775523D01*
X134782335Y-97808711D01*
X134881704Y-97840634D01*
X134977831Y-97875094D01*
X135079153Y-97916365D01*
X135193850Y-97969063D01*
X135329113Y-98037770D01*
X135473703Y-98117166D01*
X135480771Y-98121642D01*
X135493511Y-98128055D01*
X135521097Y-98143682D01*
X135533152Y-98151316D01*
X135545895Y-98157730D01*
X135558327Y-98164773D01*
X135571389Y-98170563D01*
X135599672Y-98184799D01*
X135612097Y-98191838D01*
X135625156Y-98197627D01*
X135637907Y-98204045D01*
X135651225Y-98209182D01*
X135680185Y-98222019D01*
X135692942Y-98228441D01*
X135706268Y-98233581D01*
X135719311Y-98239363D01*
X135732862Y-98243840D01*
X135762439Y-98255249D01*
X135775486Y-98261032D01*
X135789034Y-98265508D01*
X135802360Y-98270648D01*
X135816128Y-98274458D01*
X135846201Y-98284393D01*
X135859521Y-98289531D01*
X135873283Y-98293340D01*
X135886843Y-98297819D01*
X135900772Y-98300947D01*
X135931303Y-98309396D01*
X135944859Y-98313874D01*
X135958791Y-98317003D01*
X135972549Y-98320810D01*
X135986613Y-98323251D01*
X136017532Y-98330194D01*
X136031290Y-98334001D01*
X136045347Y-98336440D01*
X136059285Y-98339570D01*
X136073469Y-98341319D01*
X136104664Y-98346732D01*
X136118597Y-98349861D01*
X136132778Y-98351610D01*
X136146840Y-98354050D01*
X136150985Y-98354356D01*
X136069102Y-98476903D01*
X135976307Y-98700931D01*
X135958106Y-98792430D01*
X135944724Y-98840031D01*
X135935900Y-98879254D01*
X135909979Y-99031631D01*
X135906463Y-99057726D01*
X135892186Y-99200923D01*
X135891491Y-99208691D01*
X135881440Y-99335809D01*
X135869748Y-99434333D01*
X135854592Y-99500135D01*
X135836805Y-99541793D01*
X135810348Y-99578406D01*
X135755854Y-99626554D01*
X135647528Y-99691462D01*
X135628923Y-99699708D01*
X135607385Y-99708016D01*
X135666588Y-99619413D01*
X135755614Y-99404485D01*
X135801000Y-99176318D01*
X135801000Y-98943682D01*
X135755614Y-98715515D01*
X135666588Y-98500587D01*
X135537342Y-98307157D01*
X135372843Y-98142658D01*
X135179413Y-98013412D01*
X134964485Y-97924386D01*
X134736318Y-97879000D01*
X134503682Y-97879000D01*
X134275515Y-97924386D01*
X134060587Y-98013412D01*
X133867157Y-98142658D01*
X133702658Y-98307157D01*
X133573412Y-98500587D01*
X133484386Y-98715515D01*
X133439000Y-98943682D01*
X133439000Y-99176318D01*
X133484386Y-99404485D01*
X133573412Y-99619413D01*
X133659999Y-99749000D01*
X131339392Y-99749000D01*
X131332275Y-99748475D01*
X131310888Y-99749000D01*
X131289460Y-99749000D01*
X131282346Y-99749701D01*
X131257822Y-99750303D01*
X131243546Y-99749952D01*
X131229300Y-99751003D01*
X131215035Y-99751353D01*
X131200871Y-99753100D01*
X131169269Y-99755431D01*
X131154999Y-99755781D01*
X131140829Y-99757529D01*
X131126589Y-99758579D01*
X131112522Y-99761020D01*
X131081083Y-99764897D01*
X131066828Y-99765949D01*
X131052757Y-99768391D01*
X131038606Y-99770136D01*
X131024682Y-99773263D01*
X130993444Y-99778683D01*
X130979297Y-99780428D01*
X130965373Y-99783554D01*
X130951280Y-99786000D01*
X130937515Y-99789810D01*
X130906626Y-99796745D01*
X130892549Y-99799188D01*
X130878793Y-99802995D01*
X130864870Y-99806121D01*
X130851311Y-99810600D01*
X130820773Y-99819051D01*
X130806831Y-99822182D01*
X130793271Y-99826662D01*
X130779521Y-99830467D01*
X130766203Y-99835604D01*
X130736114Y-99845545D01*
X130722364Y-99849350D01*
X130709040Y-99854490D01*
X130695475Y-99858971D01*
X130682427Y-99864755D01*
X130652861Y-99876160D01*
X130639311Y-99880636D01*
X130626274Y-99886415D01*
X130612946Y-99891556D01*
X130600182Y-99897981D01*
X130571226Y-99910816D01*
X130557914Y-99915951D01*
X130545161Y-99922370D01*
X130532097Y-99928161D01*
X130519673Y-99935199D01*
X130491389Y-99949436D01*
X130478320Y-99955229D01*
X130465894Y-99962269D01*
X130453160Y-99968678D01*
X130441103Y-99976313D01*
X130413523Y-99991937D01*
X130400778Y-99998352D01*
X130388708Y-100005995D01*
X130376281Y-100013035D01*
X130364618Y-100021250D01*
X130337848Y-100038201D01*
X130325427Y-100045237D01*
X130313761Y-100053453D01*
X130301696Y-100061093D01*
X130290432Y-100069883D01*
X130264529Y-100088126D01*
X130252467Y-100095765D01*
X130241215Y-100104546D01*
X130229544Y-100112766D01*
X130218732Y-100122092D01*
X130193760Y-100141581D01*
X130182087Y-100149802D01*
X130171269Y-100159134D01*
X130160013Y-100167918D01*
X130149680Y-100177756D01*
X130125675Y-100198463D01*
X130114427Y-100207241D01*
X130104101Y-100217072D01*
X130093284Y-100226403D01*
X130083428Y-100236755D01*
X130065667Y-100253665D01*
X130060140Y-100258201D01*
X130044980Y-100273361D01*
X130029491Y-100288108D01*
X130024833Y-100293508D01*
X127719107Y-102599236D01*
X127603498Y-102705565D01*
X127513518Y-102772940D01*
X127439028Y-102815839D01*
X127370730Y-102844339D01*
X127296322Y-102865933D01*
X127205187Y-102884874D01*
X127093787Y-102904374D01*
X127089158Y-102905214D01*
X126962522Y-102928996D01*
X126945344Y-102932634D01*
X126805849Y-102965550D01*
X126781355Y-102972198D01*
X126715468Y-102992460D01*
X126655515Y-103004386D01*
X126440587Y-103093412D01*
X126247157Y-103222658D01*
X126082658Y-103387157D01*
X125953412Y-103580587D01*
X125864386Y-103795515D01*
X125819000Y-104023682D01*
X125819000Y-104256318D01*
X125864386Y-104484485D01*
X125953412Y-104699413D01*
X126082658Y-104892843D01*
X126247157Y-105057342D01*
X126440587Y-105186588D01*
X126655515Y-105275614D01*
X126883682Y-105321000D01*
X127116318Y-105321000D01*
X127344485Y-105275614D01*
X127559413Y-105186588D01*
X127752843Y-105057342D01*
X127917342Y-104892843D01*
X128046588Y-104699413D01*
X128135614Y-104484485D01*
X128147541Y-104424526D01*
X128167802Y-104358641D01*
X128174449Y-104334150D01*
X128207365Y-104194655D01*
X128211003Y-104177476D01*
X128234785Y-104050839D01*
X128235625Y-104046211D01*
X128239568Y-104023682D01*
X133439000Y-104023682D01*
X133439000Y-104256318D01*
X133484386Y-104484485D01*
X133573412Y-104699413D01*
X133702658Y-104892843D01*
X133867157Y-105057342D01*
X134060587Y-105186588D01*
X134275515Y-105275614D01*
X134503682Y-105321000D01*
X134736318Y-105321000D01*
X134964485Y-105275614D01*
X135179413Y-105186588D01*
X135372843Y-105057342D01*
X135537342Y-104892843D01*
X135666588Y-104699413D01*
X135755614Y-104484485D01*
X135801000Y-104256318D01*
X135801000Y-104023682D01*
X135755614Y-103795515D01*
X135666588Y-103580587D01*
X135537342Y-103387157D01*
X135372843Y-103222658D01*
X135179413Y-103093412D01*
X134964485Y-103004386D01*
X134736318Y-102959000D01*
X134503682Y-102959000D01*
X134275515Y-103004386D01*
X134060587Y-103093412D01*
X133867157Y-103222658D01*
X133702658Y-103387157D01*
X133573412Y-103580587D01*
X133484386Y-103795515D01*
X133439000Y-104023682D01*
X128239568Y-104023682D01*
X128255120Y-103934837D01*
X128274068Y-103843670D01*
X128295659Y-103769271D01*
X128324163Y-103700966D01*
X128367059Y-103626480D01*
X128434433Y-103536500D01*
X128540757Y-103420900D01*
X130856596Y-101105061D01*
X130884685Y-101078318D01*
X130908658Y-101057638D01*
X130933628Y-101038151D01*
X130959514Y-101019921D01*
X130986275Y-101002975D01*
X131013837Y-100987360D01*
X131042107Y-100973131D01*
X131071071Y-100960291D01*
X131100625Y-100948892D01*
X131130701Y-100938955D01*
X131161217Y-100930510D01*
X131192109Y-100923574D01*
X131223331Y-100918156D01*
X131254741Y-100914282D01*
X131286335Y-100911952D01*
X131325101Y-100911000D01*
X133659999Y-100911000D01*
X133573412Y-101040587D01*
X133484386Y-101255515D01*
X133439000Y-101483682D01*
X133439000Y-101716318D01*
X133484386Y-101944485D01*
X133573412Y-102159413D01*
X133702658Y-102352843D01*
X133867157Y-102517342D01*
X134060587Y-102646588D01*
X134275515Y-102735614D01*
X134335470Y-102747540D01*
X134401357Y-102767802D01*
X134425849Y-102774449D01*
X134565344Y-102807365D01*
X134582523Y-102811003D01*
X134709160Y-102834785D01*
X134713788Y-102835625D01*
X134825162Y-102855120D01*
X134916329Y-102874068D01*
X134990728Y-102895659D01*
X135059033Y-102924163D01*
X135133519Y-102967059D01*
X135223499Y-103034433D01*
X135339096Y-103140753D01*
X135548334Y-103349992D01*
X135662064Y-103473995D01*
X135734114Y-103571189D01*
X135779882Y-103652267D01*
X135810110Y-103727214D01*
X135832610Y-103808929D01*
X135851861Y-103908329D01*
X135871424Y-104028419D01*
X135872403Y-104034152D01*
X135896630Y-104169790D01*
X135900414Y-104188310D01*
X135934811Y-104337656D01*
X135941731Y-104363513D01*
X135963528Y-104434825D01*
X135976307Y-104499069D01*
X136069102Y-104723097D01*
X136203820Y-104924717D01*
X136375283Y-105096180D01*
X136576903Y-105230898D01*
X136800931Y-105323693D01*
X137038757Y-105371000D01*
X137281243Y-105371000D01*
X137519069Y-105323693D01*
X137743097Y-105230898D01*
X137760432Y-105219315D01*
X137726557Y-105275851D01*
X137678405Y-105330347D01*
X137641792Y-105356804D01*
X137600134Y-105374591D01*
X137534332Y-105389746D01*
X137435785Y-105401442D01*
X137308687Y-105411492D01*
X137300924Y-105412185D01*
X137157728Y-105426461D01*
X137131631Y-105429978D01*
X136979254Y-105455899D01*
X136940029Y-105464723D01*
X136892415Y-105478110D01*
X136800931Y-105496307D01*
X136576903Y-105589102D01*
X136375283Y-105723820D01*
X136203820Y-105895283D01*
X136069102Y-106096903D01*
X135976307Y-106320931D01*
X135929000Y-106558757D01*
X135929000Y-106801243D01*
X135976307Y-107039069D01*
X136069102Y-107263097D01*
X136203820Y-107464717D01*
X136375283Y-107636180D01*
X136576903Y-107770898D01*
X136800931Y-107863693D01*
X137038757Y-107911000D01*
X137281243Y-107911000D01*
X137519069Y-107863693D01*
X137743097Y-107770898D01*
X137944717Y-107636180D01*
X138116180Y-107464717D01*
X138250898Y-107263097D01*
X138343693Y-107039069D01*
X138352169Y-106996458D01*
X138382506Y-106905902D01*
X138385002Y-106898180D01*
X138431829Y-106747843D01*
X138433550Y-106742162D01*
X138472699Y-106609215D01*
X138473193Y-106607524D01*
X138507947Y-106487456D01*
X138541227Y-106376752D01*
X138576686Y-106268683D01*
X138618500Y-106154797D01*
X138659001Y-106056141D01*
X138659001Y-109200137D01*
X138628543Y-109510775D01*
X138544094Y-109790484D01*
X138406926Y-110048458D01*
X138222267Y-110274873D01*
X137997141Y-110461114D01*
X137740130Y-110600078D01*
X137461024Y-110686476D01*
X137151582Y-110719000D01*
X127019853Y-110719000D01*
X126709225Y-110688543D01*
X126429516Y-110604094D01*
X126171542Y-110466926D01*
X125945127Y-110282267D01*
X125758886Y-110057141D01*
X125619922Y-109800130D01*
X125533524Y-109521024D01*
X125501000Y-109211582D01*
X125501000Y-109098757D01*
X125769000Y-109098757D01*
X125769000Y-109341243D01*
X125816307Y-109579069D01*
X125909102Y-109803097D01*
X126043820Y-110004717D01*
X126215283Y-110176180D01*
X126416903Y-110310898D01*
X126640931Y-110403693D01*
X126878757Y-110451000D01*
X127121243Y-110451000D01*
X127359069Y-110403693D01*
X127583097Y-110310898D01*
X127784717Y-110176180D01*
X127956180Y-110004717D01*
X128090898Y-109803097D01*
X128183693Y-109579069D01*
X128231000Y-109341243D01*
X128231000Y-109098757D01*
X128309000Y-109098757D01*
X128309000Y-109341243D01*
X128356307Y-109579069D01*
X128449102Y-109803097D01*
X128583820Y-110004717D01*
X128755283Y-110176180D01*
X128956903Y-110310898D01*
X129180931Y-110403693D01*
X129418757Y-110451000D01*
X129661243Y-110451000D01*
X129899069Y-110403693D01*
X130123097Y-110310898D01*
X130324717Y-110176180D01*
X130496180Y-110004717D01*
X130630898Y-109803097D01*
X130723693Y-109579069D01*
X130771000Y-109341243D01*
X130771000Y-109098757D01*
X130849000Y-109098757D01*
X130849000Y-109341243D01*
X130896307Y-109579069D01*
X130989102Y-109803097D01*
X131123820Y-110004717D01*
X131295283Y-110176180D01*
X131496903Y-110310898D01*
X131720931Y-110403693D01*
X131958757Y-110451000D01*
X132201243Y-110451000D01*
X132439069Y-110403693D01*
X132663097Y-110310898D01*
X132864717Y-110176180D01*
X133036180Y-110004717D01*
X133170898Y-109803097D01*
X133263693Y-109579069D01*
X133311000Y-109341243D01*
X133311000Y-109098757D01*
X133389000Y-109098757D01*
X133389000Y-109341243D01*
X133436307Y-109579069D01*
X133529102Y-109803097D01*
X133663820Y-110004717D01*
X133835283Y-110176180D01*
X134036903Y-110310898D01*
X134260931Y-110403693D01*
X134498757Y-110451000D01*
X134741243Y-110451000D01*
X134979069Y-110403693D01*
X135203097Y-110310898D01*
X135404717Y-110176180D01*
X135576180Y-110004717D01*
X135710898Y-109803097D01*
X135803693Y-109579069D01*
X135851000Y-109341243D01*
X135851000Y-109098757D01*
X135929000Y-109098757D01*
X135929000Y-109341243D01*
X135976307Y-109579069D01*
X136069102Y-109803097D01*
X136203820Y-110004717D01*
X136375283Y-110176180D01*
X136576903Y-110310898D01*
X136800931Y-110403693D01*
X137038757Y-110451000D01*
X137281243Y-110451000D01*
X137519069Y-110403693D01*
X137743097Y-110310898D01*
X137944717Y-110176180D01*
X138116180Y-110004717D01*
X138250898Y-109803097D01*
X138343693Y-109579069D01*
X138391000Y-109341243D01*
X138391000Y-109098757D01*
X138343693Y-108860931D01*
X138250898Y-108636903D01*
X138116180Y-108435283D01*
X137944717Y-108263820D01*
X137743097Y-108129102D01*
X137519069Y-108036307D01*
X137281243Y-107989000D01*
X137038757Y-107989000D01*
X136800931Y-108036307D01*
X136576903Y-108129102D01*
X136375283Y-108263820D01*
X136203820Y-108435283D01*
X136069102Y-108636903D01*
X135976307Y-108860931D01*
X135929000Y-109098757D01*
X135851000Y-109098757D01*
X135803693Y-108860931D01*
X135710898Y-108636903D01*
X135576180Y-108435283D01*
X135404717Y-108263820D01*
X135203097Y-108129102D01*
X134979069Y-108036307D01*
X134741243Y-107989000D01*
X134498757Y-107989000D01*
X134260931Y-108036307D01*
X134036903Y-108129102D01*
X133835283Y-108263820D01*
X133663820Y-108435283D01*
X133529102Y-108636903D01*
X133436307Y-108860931D01*
X133389000Y-109098757D01*
X133311000Y-109098757D01*
X133263693Y-108860931D01*
X133170898Y-108636903D01*
X133036180Y-108435283D01*
X132864717Y-108263820D01*
X132663097Y-108129102D01*
X132439069Y-108036307D01*
X132201243Y-107989000D01*
X131958757Y-107989000D01*
X131720931Y-108036307D01*
X131496903Y-108129102D01*
X131295283Y-108263820D01*
X131123820Y-108435283D01*
X130989102Y-108636903D01*
X130896307Y-108860931D01*
X130849000Y-109098757D01*
X130771000Y-109098757D01*
X130723693Y-108860931D01*
X130630898Y-108636903D01*
X130496180Y-108435283D01*
X130324717Y-108263820D01*
X130123097Y-108129102D01*
X129899069Y-108036307D01*
X129661243Y-107989000D01*
X129418757Y-107989000D01*
X129180931Y-108036307D01*
X128956903Y-108129102D01*
X128755283Y-108263820D01*
X128583820Y-108435283D01*
X128449102Y-108636903D01*
X128356307Y-108860931D01*
X128309000Y-109098757D01*
X128231000Y-109098757D01*
X128183693Y-108860931D01*
X128090898Y-108636903D01*
X127956180Y-108435283D01*
X127784717Y-108263820D01*
X127583097Y-108129102D01*
X127359069Y-108036307D01*
X127121243Y-107989000D01*
X126878757Y-107989000D01*
X126640931Y-108036307D01*
X126416903Y-108129102D01*
X126215283Y-108263820D01*
X126043820Y-108435283D01*
X125909102Y-108636903D01*
X125816307Y-108860931D01*
X125769000Y-109098757D01*
X125501000Y-109098757D01*
X125501000Y-106989114D01*
X125860171Y-106989114D01*
X125880527Y-107056239D01*
X125975438Y-107267408D01*
X126109722Y-107456003D01*
X126278219Y-107614777D01*
X126474454Y-107737628D01*
X126690885Y-107819835D01*
X126873000Y-107758908D01*
X126873000Y-106807000D01*
X127127000Y-106807000D01*
X127127000Y-107758908D01*
X127309115Y-107819835D01*
X127525546Y-107737628D01*
X127721781Y-107614777D01*
X127890278Y-107456003D01*
X128024562Y-107267408D01*
X128119473Y-107056239D01*
X128139829Y-106989114D01*
X128078297Y-106807000D01*
X127127000Y-106807000D01*
X126873000Y-106807000D01*
X125921703Y-106807000D01*
X125860171Y-106989114D01*
X125501000Y-106989114D01*
X125501000Y-106563682D01*
X133439000Y-106563682D01*
X133439000Y-106796318D01*
X133484386Y-107024485D01*
X133573412Y-107239413D01*
X133702658Y-107432843D01*
X133867157Y-107597342D01*
X134060587Y-107726588D01*
X134275515Y-107815614D01*
X134503682Y-107861000D01*
X134736318Y-107861000D01*
X134964485Y-107815614D01*
X135179413Y-107726588D01*
X135372843Y-107597342D01*
X135537342Y-107432843D01*
X135666588Y-107239413D01*
X135755614Y-107024485D01*
X135801000Y-106796318D01*
X135801000Y-106563682D01*
X135755614Y-106335515D01*
X135666588Y-106120587D01*
X135537342Y-105927157D01*
X135372843Y-105762658D01*
X135179413Y-105633412D01*
X134964485Y-105544386D01*
X134736318Y-105499000D01*
X134503682Y-105499000D01*
X134275515Y-105544386D01*
X134060587Y-105633412D01*
X133867157Y-105762658D01*
X133702658Y-105927157D01*
X133573412Y-106120587D01*
X133484386Y-106335515D01*
X133439000Y-106563682D01*
X125501000Y-106563682D01*
X125501000Y-106370886D01*
X125860171Y-106370886D01*
X125921703Y-106553000D01*
X126873000Y-106553000D01*
X126873000Y-105601092D01*
X127127000Y-105601092D01*
X127127000Y-106553000D01*
X128078297Y-106553000D01*
X128139829Y-106370886D01*
X128119473Y-106303761D01*
X128024562Y-106092592D01*
X127890278Y-105903997D01*
X127721781Y-105745223D01*
X127525546Y-105622372D01*
X127309115Y-105540165D01*
X127127000Y-105601092D01*
X126873000Y-105601092D01*
X126690885Y-105540165D01*
X126474454Y-105622372D01*
X126278219Y-105745223D01*
X126109722Y-105903997D01*
X125975438Y-106092592D01*
X125880527Y-106303761D01*
X125860171Y-106370886D01*
X125501000Y-106370886D01*
X125501000Y-101483682D01*
X125819000Y-101483682D01*
X125819000Y-101716318D01*
X125864386Y-101944485D01*
X125953412Y-102159413D01*
X126082658Y-102352843D01*
X126247157Y-102517342D01*
X126440587Y-102646588D01*
X126655515Y-102735614D01*
X126883682Y-102781000D01*
X127116318Y-102781000D01*
X127344485Y-102735614D01*
X127559413Y-102646588D01*
X127752843Y-102517342D01*
X127917342Y-102352843D01*
X128046588Y-102159413D01*
X128135614Y-101944485D01*
X128181000Y-101716318D01*
X128181000Y-101483682D01*
X128135614Y-101255515D01*
X128046588Y-101040587D01*
X127917342Y-100847157D01*
X127752843Y-100682658D01*
X127559413Y-100553412D01*
X127344485Y-100464386D01*
X127116318Y-100419000D01*
X126883682Y-100419000D01*
X126655515Y-100464386D01*
X126440587Y-100553412D01*
X126247157Y-100682658D01*
X126082658Y-100847157D01*
X125953412Y-101040587D01*
X125864386Y-101255515D01*
X125819000Y-101483682D01*
X125501000Y-101483682D01*
X125501000Y-91323682D01*
X125819000Y-91323682D01*
X125819000Y-91556318D01*
X125864386Y-91784485D01*
X125953412Y-91999413D01*
X126082658Y-92192843D01*
X126247157Y-92357342D01*
X126440587Y-92486588D01*
X126655515Y-92575614D01*
X126883682Y-92621000D01*
X127116318Y-92621000D01*
X127344485Y-92575614D01*
X127559413Y-92486588D01*
X127752843Y-92357342D01*
X127917342Y-92192843D01*
X128046588Y-91999413D01*
X128135614Y-91784485D01*
X128147541Y-91724526D01*
X128167802Y-91658641D01*
X128174449Y-91634150D01*
X128207365Y-91494655D01*
X128211003Y-91477476D01*
X128234785Y-91350839D01*
X128235625Y-91346211D01*
X128255120Y-91234837D01*
X128274068Y-91143670D01*
X128295659Y-91069271D01*
X128324163Y-91000966D01*
X128367059Y-90926480D01*
X128434433Y-90836500D01*
X128540757Y-90720900D01*
X129576493Y-89685164D01*
X129581901Y-89680499D01*
X129596652Y-89665005D01*
X129611798Y-89649859D01*
X129616335Y-89644330D01*
X129633253Y-89626561D01*
X129643595Y-89616714D01*
X129652926Y-89605896D01*
X129662766Y-89595561D01*
X129671543Y-89584314D01*
X129692246Y-89560314D01*
X129702085Y-89549979D01*
X129710865Y-89538729D01*
X129720196Y-89527911D01*
X129728421Y-89516233D01*
X129747904Y-89491267D01*
X129757226Y-89480460D01*
X129765449Y-89468785D01*
X129774236Y-89457525D01*
X129781871Y-89445468D01*
X129800108Y-89419575D01*
X129808905Y-89408302D01*
X129816548Y-89396233D01*
X129824756Y-89384578D01*
X129831790Y-89372161D01*
X129848748Y-89345380D01*
X129856963Y-89333717D01*
X129864003Y-89321290D01*
X129871646Y-89309220D01*
X129878061Y-89296475D01*
X129893682Y-89268901D01*
X129901318Y-89256842D01*
X129907731Y-89244101D01*
X129914769Y-89231678D01*
X129920558Y-89218618D01*
X129934804Y-89190316D01*
X129941839Y-89177898D01*
X129947623Y-89164849D01*
X129954046Y-89152089D01*
X129959186Y-89138764D01*
X129972022Y-89109807D01*
X129978440Y-89097056D01*
X129983578Y-89083735D01*
X129989364Y-89070683D01*
X129993842Y-89057127D01*
X130005244Y-89027570D01*
X130011028Y-89014521D01*
X130015507Y-89000962D01*
X130020647Y-88987638D01*
X130024455Y-88973876D01*
X130034390Y-88943804D01*
X130039531Y-88930477D01*
X130043340Y-88916712D01*
X130047816Y-88903164D01*
X130050943Y-88889238D01*
X130059396Y-88858695D01*
X130063874Y-88845139D01*
X130067003Y-88831207D01*
X130070810Y-88817449D01*
X130073251Y-88803385D01*
X130080193Y-88772468D01*
X130084001Y-88758709D01*
X130086441Y-88744647D01*
X130089570Y-88730713D01*
X130091319Y-88716535D01*
X130096735Y-88685318D01*
X130099862Y-88671393D01*
X130101609Y-88657232D01*
X130104050Y-88643161D01*
X130105101Y-88628918D01*
X130108977Y-88597487D01*
X130111418Y-88583420D01*
X130112469Y-88569171D01*
X130114217Y-88555000D01*
X130114567Y-88540740D01*
X130116898Y-88509140D01*
X130118646Y-88494973D01*
X130118996Y-88480702D01*
X130120047Y-88466463D01*
X130119697Y-88452187D01*
X130120299Y-88427656D01*
X130121000Y-88420540D01*
X130121000Y-88399114D01*
X130121525Y-88377735D01*
X130121000Y-88370617D01*
X130121000Y-88058234D01*
X130128264Y-87890134D01*
X130146043Y-87770465D01*
X130171013Y-87680764D01*
X130202628Y-87606407D01*
X130244506Y-87532705D01*
X130301197Y-87448782D01*
X130372261Y-87350058D01*
X130375623Y-87345313D01*
X130454402Y-87232272D01*
X130464822Y-87216500D01*
X130546103Y-87086574D01*
X130559492Y-87063400D01*
X130594502Y-86997567D01*
X130630898Y-86943097D01*
X130723693Y-86719069D01*
X130771000Y-86481243D01*
X130771000Y-86238757D01*
X130723693Y-86000931D01*
X130630898Y-85776903D01*
X130496180Y-85575283D01*
X130324717Y-85403820D01*
X130123097Y-85269102D01*
X129899069Y-85176307D01*
X129661243Y-85129000D01*
X129418757Y-85129000D01*
X129180931Y-85176307D01*
X128956903Y-85269102D01*
X128755283Y-85403820D01*
X128583820Y-85575283D01*
X128449102Y-85776903D01*
X128356307Y-86000931D01*
X128309000Y-86238757D01*
X128309000Y-86481243D01*
X128356307Y-86719069D01*
X128449102Y-86943097D01*
X128485495Y-86997563D01*
X128520506Y-87063398D01*
X128533896Y-87086574D01*
X128615177Y-87216500D01*
X128625597Y-87232272D01*
X128704376Y-87345313D01*
X128707738Y-87350058D01*
X128778802Y-87448782D01*
X128835493Y-87532705D01*
X128877371Y-87606407D01*
X128908986Y-87680764D01*
X128933956Y-87770465D01*
X128951735Y-87890134D01*
X128959000Y-88058241D01*
X128959000Y-88384876D01*
X128958048Y-88423651D01*
X128955716Y-88455258D01*
X128951841Y-88486674D01*
X128946426Y-88517885D01*
X128939489Y-88548776D01*
X128931042Y-88579299D01*
X128921105Y-88609378D01*
X128909708Y-88638923D01*
X128896872Y-88667881D01*
X128882634Y-88696168D01*
X128867023Y-88723723D01*
X128850075Y-88750488D01*
X128831855Y-88776358D01*
X128812349Y-88801353D01*
X128791671Y-88825324D01*
X128764944Y-88853397D01*
X127719102Y-89899240D01*
X127603498Y-90005565D01*
X127513515Y-90072942D01*
X127439035Y-90115835D01*
X127370726Y-90144340D01*
X127296322Y-90165933D01*
X127205187Y-90184874D01*
X127093787Y-90204374D01*
X127089158Y-90205214D01*
X126962522Y-90228996D01*
X126945344Y-90232634D01*
X126805849Y-90265550D01*
X126781355Y-90272198D01*
X126715468Y-90292460D01*
X126655515Y-90304386D01*
X126440587Y-90393412D01*
X126247157Y-90522658D01*
X126082658Y-90687157D01*
X125953412Y-90880587D01*
X125864386Y-91095515D01*
X125819000Y-91323682D01*
X125501000Y-91323682D01*
X125501000Y-88783682D01*
X125819000Y-88783682D01*
X125819000Y-89016318D01*
X125864386Y-89244485D01*
X125953412Y-89459413D01*
X126082658Y-89652843D01*
X126247157Y-89817342D01*
X126440587Y-89946588D01*
X126655515Y-90035614D01*
X126883682Y-90081000D01*
X127116318Y-90081000D01*
X127344485Y-90035614D01*
X127559413Y-89946588D01*
X127752843Y-89817342D01*
X127917342Y-89652843D01*
X128046588Y-89459413D01*
X128135614Y-89244485D01*
X128181000Y-89016318D01*
X128181000Y-88783682D01*
X128135614Y-88555515D01*
X128046588Y-88340587D01*
X127917342Y-88147157D01*
X127752843Y-87982658D01*
X127559413Y-87853412D01*
X127344485Y-87764386D01*
X127116318Y-87719000D01*
X126883682Y-87719000D01*
X126655515Y-87764386D01*
X126440587Y-87853412D01*
X126247157Y-87982658D01*
X126082658Y-88147157D01*
X125953412Y-88340587D01*
X125864386Y-88555515D01*
X125819000Y-88783682D01*
X125501000Y-88783682D01*
X125501000Y-87247862D01*
X126291743Y-87247862D01*
X126383043Y-87425234D01*
X126457051Y-87464799D01*
X126683020Y-87549495D01*
X126921169Y-87588479D01*
X127162348Y-87580253D01*
X127397288Y-87525134D01*
X127616961Y-87425239D01*
X127708653Y-87248258D01*
X127000000Y-86539605D01*
X126291743Y-87247862D01*
X125501000Y-87247862D01*
X125501000Y-86438831D01*
X125771521Y-86438831D01*
X125810505Y-86676980D01*
X125895201Y-86902949D01*
X125934766Y-86976957D01*
X126112138Y-87068257D01*
X126820395Y-86360000D01*
X127179605Y-86360000D01*
X127888258Y-87068653D01*
X128065239Y-86976961D01*
X128165134Y-86757288D01*
X128220253Y-86522348D01*
X128228479Y-86281169D01*
X128189495Y-86043020D01*
X128104799Y-85817051D01*
X128065234Y-85743043D01*
X127887862Y-85651743D01*
X127179605Y-86360000D01*
X126820395Y-86360000D01*
X126111742Y-85651347D01*
X125934761Y-85743039D01*
X125834866Y-85962712D01*
X125779747Y-86197652D01*
X125771521Y-86438831D01*
X125501000Y-86438831D01*
X125501000Y-85471742D01*
X126291347Y-85471742D01*
X127000000Y-86180395D01*
X127708257Y-85472138D01*
X127616957Y-85294766D01*
X127542949Y-85255201D01*
X127316980Y-85170505D01*
X127078831Y-85131521D01*
X126837652Y-85139747D01*
X126602712Y-85194866D01*
X126383039Y-85294761D01*
X126291347Y-85471742D01*
X125501000Y-85471742D01*
X125501000Y-85109853D01*
X125531457Y-84799224D01*
X125615905Y-84519519D01*
X125753074Y-84261542D01*
X125937735Y-84035125D01*
X126162856Y-83848889D01*
X126419870Y-83709922D01*
X126698976Y-83623524D01*
X127008418Y-83591000D01*
X137140147Y-83591000D01*
X137450776Y-83621457D01*
%TA.AperFunction,Conductor*%
D17*
G36*
X137450776Y-83621457D02*
G01*
X137730481Y-83705905D01*
X137988458Y-83843074D01*
X138214875Y-84027735D01*
X138401111Y-84252856D01*
X138540078Y-84509870D01*
X138626476Y-84788976D01*
X138659000Y-85098418D01*
X138659001Y-97976465D01*
X138591385Y-97885295D01*
X138533786Y-97821745D01*
X138469350Y-97750651D01*
X138462914Y-97744818D01*
X138334709Y-97628619D01*
X138334397Y-97628387D01*
X138188751Y-97520369D01*
X138188747Y-97520366D01*
X138032887Y-97426947D01*
X138032882Y-97426944D01*
X138006453Y-97414444D01*
X138116180Y-97304717D01*
X138250898Y-97103097D01*
X138343693Y-96879069D01*
X138391000Y-96641243D01*
X138391000Y-96398757D01*
X138343693Y-96160931D01*
X138250898Y-95936903D01*
X138116180Y-95735283D01*
X137944717Y-95563820D01*
X137743097Y-95429102D01*
X137519069Y-95336307D01*
X137476470Y-95327833D01*
X137385907Y-95297493D01*
X137378181Y-95294996D01*
X137227844Y-95248169D01*
X137222166Y-95246448D01*
X137101790Y-95211000D01*
X137281243Y-95211000D01*
X137519069Y-95163693D01*
X137743097Y-95070898D01*
X137944717Y-94936180D01*
X138116180Y-94764717D01*
X138250898Y-94563097D01*
X138343693Y-94339069D01*
X138391000Y-94101243D01*
X138391000Y-93858757D01*
X138343693Y-93620931D01*
X138250898Y-93396903D01*
X138116180Y-93195283D01*
X137944717Y-93023820D01*
X137743097Y-92889102D01*
X137519069Y-92796307D01*
X137476470Y-92787833D01*
X137385907Y-92757493D01*
X137378181Y-92754996D01*
X137227844Y-92708169D01*
X137222166Y-92706448D01*
X137089219Y-92667298D01*
X137087525Y-92666804D01*
X136967539Y-92632074D01*
X136856734Y-92598762D01*
X136748687Y-92563310D01*
X136634791Y-92521492D01*
X136506421Y-92468792D01*
X136355659Y-92400653D01*
X136222295Y-92335579D01*
X136221678Y-92335229D01*
X136220592Y-92334748D01*
X136179058Y-92314481D01*
X136167898Y-92308159D01*
X136154849Y-92302375D01*
X136142089Y-92295952D01*
X136128764Y-92290812D01*
X136099808Y-92277977D01*
X136087056Y-92271558D01*
X136073735Y-92266420D01*
X136060683Y-92260634D01*
X136047691Y-92256342D01*
X136483263Y-92256342D01*
X136569218Y-92429207D01*
X136781358Y-92524687D01*
X137008048Y-92576945D01*
X137240578Y-92583975D01*
X137470012Y-92545505D01*
X137687532Y-92463014D01*
X137750782Y-92429207D01*
X137836737Y-92256342D01*
X137160000Y-91579605D01*
X136483263Y-92256342D01*
X136047691Y-92256342D01*
X136047127Y-92256156D01*
X136017559Y-92244750D01*
X136004512Y-92238967D01*
X135990964Y-92234491D01*
X135977638Y-92229351D01*
X135963873Y-92225542D01*
X135933798Y-92215606D01*
X135920477Y-92210468D01*
X135906715Y-92206659D01*
X135893155Y-92202180D01*
X135879226Y-92199052D01*
X135848701Y-92190605D01*
X135835140Y-92186125D01*
X135821206Y-92182996D01*
X135807449Y-92179189D01*
X135793384Y-92176748D01*
X135762479Y-92169809D01*
X135748709Y-92165998D01*
X135734630Y-92163555D01*
X135720713Y-92160430D01*
X135706555Y-92158684D01*
X135675335Y-92153267D01*
X135661403Y-92150138D01*
X135647225Y-92148389D01*
X135633161Y-92145949D01*
X135618929Y-92144899D01*
X135587481Y-92141020D01*
X135573580Y-92138609D01*
X135666588Y-91999413D01*
X135755614Y-91784485D01*
X135801000Y-91556318D01*
X135801000Y-91480578D01*
X135976025Y-91480578D01*
X136014495Y-91710012D01*
X136096986Y-91927532D01*
X136130793Y-91990782D01*
X136303658Y-92076737D01*
X136980395Y-91400000D01*
X137339605Y-91400000D01*
X138016342Y-92076737D01*
X138189207Y-91990782D01*
X138284687Y-91778642D01*
X138336945Y-91551952D01*
X138343975Y-91319422D01*
X138305505Y-91089988D01*
X138223014Y-90872468D01*
X138189207Y-90809218D01*
X138016342Y-90723263D01*
X137339605Y-91400000D01*
X136980395Y-91400000D01*
X136303658Y-90723263D01*
X136130793Y-90809218D01*
X136035313Y-91021358D01*
X135983055Y-91248048D01*
X135976025Y-91480578D01*
X135801000Y-91480578D01*
X135801000Y-91323682D01*
X135755614Y-91095515D01*
X135666588Y-90880587D01*
X135537342Y-90687157D01*
X135393843Y-90543658D01*
X136483263Y-90543658D01*
X137160000Y-91220395D01*
X137836737Y-90543658D01*
X137750782Y-90370793D01*
X137538642Y-90275313D01*
X137311952Y-90223055D01*
X137079422Y-90216025D01*
X136849988Y-90254495D01*
X136632468Y-90336986D01*
X136569218Y-90370793D01*
X136483263Y-90543658D01*
X135393843Y-90543658D01*
X135372843Y-90522658D01*
X135179413Y-90393412D01*
X134964485Y-90304386D01*
X134904527Y-90292459D01*
X134838643Y-90272198D01*
X134814150Y-90265550D01*
X134674655Y-90232634D01*
X134657476Y-90228996D01*
X134530839Y-90205214D01*
X134526211Y-90204374D01*
X134414837Y-90184879D01*
X134323670Y-90165931D01*
X134249271Y-90144340D01*
X134180966Y-90115836D01*
X134106480Y-90072940D01*
X134016500Y-90005566D01*
X133900911Y-89899253D01*
X132855083Y-88853426D01*
X132828321Y-88825317D01*
X132807632Y-88801333D01*
X132793858Y-88783682D01*
X133439000Y-88783682D01*
X133439000Y-89016318D01*
X133484386Y-89244485D01*
X133573412Y-89459413D01*
X133702658Y-89652843D01*
X133867157Y-89817342D01*
X134060587Y-89946588D01*
X134275515Y-90035614D01*
X134503682Y-90081000D01*
X134736318Y-90081000D01*
X134964485Y-90035614D01*
X135179413Y-89946588D01*
X135237098Y-89908044D01*
X135254956Y-89898395D01*
X135281917Y-89882360D01*
X135370968Y-89824304D01*
X135389392Y-89811504D01*
X135467310Y-89753898D01*
X135473829Y-89748969D01*
X135541605Y-89696576D01*
X135596288Y-89656552D01*
X135639033Y-89630032D01*
X135677710Y-89611933D01*
X135724425Y-89597499D01*
X135792195Y-89586224D01*
X135890000Y-89581453D01*
X135987803Y-89586224D01*
X136055574Y-89597499D01*
X136102289Y-89611933D01*
X136140966Y-89630032D01*
X136183711Y-89656552D01*
X136238394Y-89696576D01*
X136306170Y-89748969D01*
X136312689Y-89753898D01*
X136390607Y-89811504D01*
X136409031Y-89824304D01*
X136498082Y-89882360D01*
X136525044Y-89898396D01*
X136542909Y-89908049D01*
X136600587Y-89946588D01*
X136815515Y-90035614D01*
X137043682Y-90081000D01*
X137276318Y-90081000D01*
X137504485Y-90035614D01*
X137719413Y-89946588D01*
X137912843Y-89817342D01*
X138077342Y-89652843D01*
X138206588Y-89459413D01*
X138295614Y-89244485D01*
X138341000Y-89016318D01*
X138341000Y-88783682D01*
X138295614Y-88555515D01*
X138206588Y-88340587D01*
X138168049Y-88282909D01*
X138158396Y-88265044D01*
X138142360Y-88238082D01*
X138084304Y-88149031D01*
X138071504Y-88130607D01*
X138013898Y-88052689D01*
X138008969Y-88046170D01*
X137956576Y-87978394D01*
X137916552Y-87923711D01*
X137890032Y-87880966D01*
X137871933Y-87842289D01*
X137857499Y-87795574D01*
X137846224Y-87727803D01*
X137843483Y-87671610D01*
X137846916Y-87604966D01*
X137859698Y-87532369D01*
X137876159Y-87482131D01*
X137897098Y-87439977D01*
X137927881Y-87393193D01*
X137973769Y-87333840D01*
X138032471Y-87261394D01*
X138038836Y-87253319D01*
X138102304Y-87170520D01*
X138116861Y-87150179D01*
X138180372Y-87054981D01*
X138198013Y-87025788D01*
X138208458Y-87006613D01*
X138250898Y-86943097D01*
X138343693Y-86719069D01*
X138391000Y-86481243D01*
X138391000Y-86238757D01*
X138343693Y-86000931D01*
X138250898Y-85776903D01*
X138116180Y-85575283D01*
X137944717Y-85403820D01*
X137743097Y-85269102D01*
X137519069Y-85176307D01*
X137281243Y-85129000D01*
X137038757Y-85129000D01*
X136800931Y-85176307D01*
X136576903Y-85269102D01*
X136375283Y-85403820D01*
X136203820Y-85575283D01*
X136069102Y-85776903D01*
X135976307Y-86000931D01*
X135929000Y-86238757D01*
X135929000Y-86481243D01*
X135976307Y-86719069D01*
X136069102Y-86943097D01*
X136111538Y-87006607D01*
X136121985Y-87025786D01*
X136139627Y-87054981D01*
X136203138Y-87150179D01*
X136217695Y-87170520D01*
X136281163Y-87253319D01*
X136287528Y-87261394D01*
X136346230Y-87333840D01*
X136392118Y-87393193D01*
X136422901Y-87439977D01*
X136443840Y-87482131D01*
X136460301Y-87532369D01*
X136473084Y-87604974D01*
X136476517Y-87671610D01*
X136473776Y-87727794D01*
X136462500Y-87795574D01*
X136448066Y-87842289D01*
X136429967Y-87880966D01*
X136403447Y-87923711D01*
X136363423Y-87978394D01*
X136311030Y-88046170D01*
X136308937Y-88048938D01*
X136306170Y-88051030D01*
X136238394Y-88103423D01*
X136183711Y-88143447D01*
X136140966Y-88169967D01*
X136102289Y-88188066D01*
X136055574Y-88202500D01*
X135987794Y-88213776D01*
X135890000Y-88218547D01*
X135792205Y-88213776D01*
X135724425Y-88202500D01*
X135677710Y-88188066D01*
X135639033Y-88169967D01*
X135596288Y-88143447D01*
X135541605Y-88103423D01*
X135473829Y-88051030D01*
X135467310Y-88046101D01*
X135389392Y-87988495D01*
X135370968Y-87975695D01*
X135281917Y-87917639D01*
X135254954Y-87901603D01*
X135237092Y-87891952D01*
X135179413Y-87853412D01*
X134964485Y-87764386D01*
X134736318Y-87719000D01*
X134503682Y-87719000D01*
X134275515Y-87764386D01*
X134060587Y-87853412D01*
X133867157Y-87982658D01*
X133702658Y-88147157D01*
X133573412Y-88340587D01*
X133484386Y-88555515D01*
X133439000Y-88783682D01*
X132793858Y-88783682D01*
X132788152Y-88776371D01*
X132769926Y-88750493D01*
X132752971Y-88723716D01*
X132737362Y-88696164D01*
X132723126Y-88667881D01*
X132710290Y-88638923D01*
X132698892Y-88609376D01*
X132688959Y-88579308D01*
X132680513Y-88548787D01*
X132673572Y-88517881D01*
X132668157Y-88486670D01*
X132664281Y-88455248D01*
X132661952Y-88423663D01*
X132661000Y-88384898D01*
X132661000Y-88058234D01*
X132668264Y-87890134D01*
X132686043Y-87770465D01*
X132711013Y-87680764D01*
X132742628Y-87606407D01*
X132784506Y-87532705D01*
X132841197Y-87448782D01*
X132912261Y-87350058D01*
X132915623Y-87345313D01*
X132994402Y-87232272D01*
X133004822Y-87216500D01*
X133086103Y-87086574D01*
X133099492Y-87063400D01*
X133134502Y-86997567D01*
X133170898Y-86943097D01*
X133263693Y-86719069D01*
X133311000Y-86481243D01*
X133311000Y-86238757D01*
X133389000Y-86238757D01*
X133389000Y-86481243D01*
X133436307Y-86719069D01*
X133529102Y-86943097D01*
X133663820Y-87144717D01*
X133835283Y-87316180D01*
X134036903Y-87450898D01*
X134260931Y-87543693D01*
X134498757Y-87591000D01*
X134741243Y-87591000D01*
X134979069Y-87543693D01*
X135203097Y-87450898D01*
X135404717Y-87316180D01*
X135576180Y-87144717D01*
X135710898Y-86943097D01*
X135803693Y-86719069D01*
X135851000Y-86481243D01*
X135851000Y-86238757D01*
X135803693Y-86000931D01*
X135710898Y-85776903D01*
X135576180Y-85575283D01*
X135404717Y-85403820D01*
X135203097Y-85269102D01*
X134979069Y-85176307D01*
X134741243Y-85129000D01*
X134498757Y-85129000D01*
X134260931Y-85176307D01*
X134036903Y-85269102D01*
X133835283Y-85403820D01*
X133663820Y-85575283D01*
X133529102Y-85776903D01*
X133436307Y-86000931D01*
X133389000Y-86238757D01*
X133311000Y-86238757D01*
X133263693Y-86000931D01*
X133170898Y-85776903D01*
X133036180Y-85575283D01*
X132864717Y-85403820D01*
X132663097Y-85269102D01*
X132439069Y-85176307D01*
X132201243Y-85129000D01*
X131958757Y-85129000D01*
X131720931Y-85176307D01*
X131496903Y-85269102D01*
X131295283Y-85403820D01*
X131123820Y-85575283D01*
X130989102Y-85776903D01*
X130896307Y-86000931D01*
X130849000Y-86238757D01*
X130849000Y-86481243D01*
X130896307Y-86719069D01*
X130989102Y-86943097D01*
X131025495Y-86997563D01*
X131060506Y-87063398D01*
X131073896Y-87086574D01*
X131155177Y-87216500D01*
X131165597Y-87232272D01*
X131244376Y-87345313D01*
X131247738Y-87350058D01*
X131318802Y-87448782D01*
X131375493Y-87532705D01*
X131417371Y-87606407D01*
X131448986Y-87680764D01*
X131473956Y-87770465D01*
X131491735Y-87890134D01*
X131499000Y-88058241D01*
X131499000Y-88370608D01*
X131498475Y-88377725D01*
X131499000Y-88399112D01*
X131499000Y-88420539D01*
X131499701Y-88427652D01*
X131500303Y-88452176D01*
X131499952Y-88466452D01*
X131501003Y-88480698D01*
X131501353Y-88494964D01*
X131503100Y-88509126D01*
X131505431Y-88540739D01*
X131505782Y-88555009D01*
X131507529Y-88569170D01*
X131508579Y-88583410D01*
X131511020Y-88597481D01*
X131514899Y-88628929D01*
X131515949Y-88643161D01*
X131518389Y-88657225D01*
X131520138Y-88671403D01*
X131523267Y-88685335D01*
X131528684Y-88716555D01*
X131530430Y-88730713D01*
X131533555Y-88744630D01*
X131535998Y-88758709D01*
X131539809Y-88772479D01*
X131546748Y-88803384D01*
X131549189Y-88817449D01*
X131552996Y-88831206D01*
X131556125Y-88845140D01*
X131560605Y-88858701D01*
X131569052Y-88889226D01*
X131572180Y-88903155D01*
X131576659Y-88916715D01*
X131580468Y-88930477D01*
X131585606Y-88943798D01*
X131595542Y-88973873D01*
X131599351Y-88987638D01*
X131604491Y-89000964D01*
X131608967Y-89014512D01*
X131614750Y-89027559D01*
X131626156Y-89057127D01*
X131630634Y-89070683D01*
X131636420Y-89083735D01*
X131641558Y-89097056D01*
X131647977Y-89109808D01*
X131660812Y-89138764D01*
X131665952Y-89152089D01*
X131672375Y-89164849D01*
X131678159Y-89177898D01*
X131685193Y-89190315D01*
X131699439Y-89218617D01*
X131705229Y-89231678D01*
X131712266Y-89244100D01*
X131718680Y-89256842D01*
X131726318Y-89268903D01*
X131741934Y-89296469D01*
X131748352Y-89309220D01*
X131755998Y-89321294D01*
X131763036Y-89333718D01*
X131771251Y-89345382D01*
X131788202Y-89372152D01*
X131795242Y-89384578D01*
X131803459Y-89396245D01*
X131811094Y-89408302D01*
X131819883Y-89419564D01*
X131838119Y-89445456D01*
X131845761Y-89457525D01*
X131854558Y-89468798D01*
X131862772Y-89480460D01*
X131872084Y-89491255D01*
X131891589Y-89516249D01*
X131899803Y-89527912D01*
X131909120Y-89538713D01*
X131917912Y-89549979D01*
X131927765Y-89560328D01*
X131948439Y-89584295D01*
X131957236Y-89595567D01*
X131967093Y-89605920D01*
X131976404Y-89616714D01*
X131986734Y-89626549D01*
X132003673Y-89644340D01*
X132008201Y-89649858D01*
X132023337Y-89664994D01*
X132038103Y-89680503D01*
X132043511Y-89685168D01*
X133079253Y-90720911D01*
X133185566Y-90836500D01*
X133252940Y-90926480D01*
X133295836Y-91000966D01*
X133324340Y-91069271D01*
X133345931Y-91143670D01*
X133364879Y-91234837D01*
X133384374Y-91346211D01*
X133385214Y-91350839D01*
X133408996Y-91477476D01*
X133412634Y-91494655D01*
X133445550Y-91634150D01*
X133452198Y-91658643D01*
X133472459Y-91724527D01*
X133484386Y-91784485D01*
X133573412Y-91999413D01*
X133659999Y-92129000D01*
X128799392Y-92129000D01*
X128792275Y-92128475D01*
X128770888Y-92129000D01*
X128749460Y-92129000D01*
X128742346Y-92129701D01*
X128717822Y-92130303D01*
X128703546Y-92129952D01*
X128689300Y-92131003D01*
X128675035Y-92131353D01*
X128660871Y-92133100D01*
X128629269Y-92135431D01*
X128614999Y-92135781D01*
X128600829Y-92137529D01*
X128586589Y-92138579D01*
X128572522Y-92141020D01*
X128541083Y-92144897D01*
X128526828Y-92145949D01*
X128512757Y-92148391D01*
X128498606Y-92150136D01*
X128484682Y-92153263D01*
X128453444Y-92158683D01*
X128439297Y-92160428D01*
X128425373Y-92163554D01*
X128411280Y-92166000D01*
X128397515Y-92169810D01*
X128366626Y-92176745D01*
X128352549Y-92179188D01*
X128338793Y-92182995D01*
X128324870Y-92186121D01*
X128311311Y-92190600D01*
X128280773Y-92199051D01*
X128266831Y-92202182D01*
X128253271Y-92206662D01*
X128239521Y-92210467D01*
X128226203Y-92215604D01*
X128196114Y-92225545D01*
X128182364Y-92229350D01*
X128169040Y-92234490D01*
X128155475Y-92238971D01*
X128142427Y-92244755D01*
X128112861Y-92256160D01*
X128099311Y-92260636D01*
X128086274Y-92266415D01*
X128072946Y-92271556D01*
X128060182Y-92277981D01*
X128031226Y-92290816D01*
X128017914Y-92295951D01*
X128005161Y-92302370D01*
X127992097Y-92308161D01*
X127979673Y-92315199D01*
X127951389Y-92329436D01*
X127938320Y-92335229D01*
X127925894Y-92342269D01*
X127913160Y-92348678D01*
X127901103Y-92356313D01*
X127873523Y-92371937D01*
X127860778Y-92378352D01*
X127853695Y-92382837D01*
X127709095Y-92462241D01*
X127573856Y-92530936D01*
X127459151Y-92583638D01*
X127357837Y-92624906D01*
X127261693Y-92659372D01*
X127162335Y-92691290D01*
X127052295Y-92724478D01*
X126929094Y-92761474D01*
X126924726Y-92762814D01*
X126785016Y-92806600D01*
X126777850Y-92808924D01*
X126696235Y-92836286D01*
X126655515Y-92844386D01*
X126440587Y-92933412D01*
X126247157Y-93062658D01*
X126082658Y-93227157D01*
X125953412Y-93420587D01*
X125864386Y-93635515D01*
X125819000Y-93863682D01*
X125819000Y-94096318D01*
X125864386Y-94324485D01*
X125953412Y-94539413D01*
X126082658Y-94732843D01*
X126247157Y-94897342D01*
X126440587Y-95026588D01*
X126655515Y-95115614D01*
X126883682Y-95161000D01*
X127116318Y-95161000D01*
X127344485Y-95115614D01*
X127559413Y-95026588D01*
X127752843Y-94897342D01*
X127917342Y-94732843D01*
X128046588Y-94539413D01*
X128135614Y-94324485D01*
X128152337Y-94240412D01*
X128165653Y-94193484D01*
X128174364Y-94155474D01*
X128199499Y-94012550D01*
X128203113Y-93986920D01*
X128217362Y-93853170D01*
X128218112Y-93845374D01*
X128228262Y-93727063D01*
X128239599Y-93635827D01*
X128253793Y-93574778D01*
X128270590Y-93534781D01*
X128279004Y-93522653D01*
X128316596Y-93485061D01*
X128344685Y-93458318D01*
X128368658Y-93437638D01*
X128389265Y-93421556D01*
X128454929Y-93378072D01*
X128473837Y-93367360D01*
X128502107Y-93353131D01*
X128531071Y-93340291D01*
X128560625Y-93328892D01*
X128590701Y-93318955D01*
X128621217Y-93310510D01*
X128652109Y-93303574D01*
X128683331Y-93298156D01*
X128714741Y-93294282D01*
X128746335Y-93291952D01*
X128785101Y-93291000D01*
X133505258Y-93291000D01*
X133441684Y-93325975D01*
X133373234Y-93354117D01*
X133290226Y-93376456D01*
X133178963Y-93392440D01*
X133022050Y-93399000D01*
X130069392Y-93399000D01*
X130062275Y-93398475D01*
X130040888Y-93399000D01*
X130019460Y-93399000D01*
X130012346Y-93399701D01*
X129987822Y-93400303D01*
X129973546Y-93399952D01*
X129959300Y-93401003D01*
X129945035Y-93401353D01*
X129930871Y-93403100D01*
X129899269Y-93405431D01*
X129884999Y-93405781D01*
X129870829Y-93407529D01*
X129856589Y-93408579D01*
X129842522Y-93411020D01*
X129811083Y-93414897D01*
X129796828Y-93415949D01*
X129782757Y-93418391D01*
X129768606Y-93420136D01*
X129754682Y-93423263D01*
X129723444Y-93428683D01*
X129709297Y-93430428D01*
X129695373Y-93433554D01*
X129681280Y-93436000D01*
X129667515Y-93439810D01*
X129636626Y-93446745D01*
X129622549Y-93449188D01*
X129608793Y-93452995D01*
X129594870Y-93456121D01*
X129581311Y-93460600D01*
X129550773Y-93469051D01*
X129536831Y-93472182D01*
X129523271Y-93476662D01*
X129509521Y-93480467D01*
X129496203Y-93485604D01*
X129466114Y-93495545D01*
X129452364Y-93499350D01*
X129439040Y-93504490D01*
X129425475Y-93508971D01*
X129412427Y-93514755D01*
X129382861Y-93526160D01*
X129369311Y-93530636D01*
X129356274Y-93536415D01*
X129342946Y-93541556D01*
X129330182Y-93547981D01*
X129301226Y-93560816D01*
X129287914Y-93565951D01*
X129275161Y-93572370D01*
X129262097Y-93578161D01*
X129249673Y-93585199D01*
X129221389Y-93599436D01*
X129208320Y-93605229D01*
X129195894Y-93612269D01*
X129183160Y-93618678D01*
X129171103Y-93626313D01*
X129143523Y-93641937D01*
X129130778Y-93648352D01*
X129118708Y-93655995D01*
X129106281Y-93663035D01*
X129094618Y-93671250D01*
X129067848Y-93688201D01*
X129055427Y-93695237D01*
X129043761Y-93703453D01*
X129031696Y-93711093D01*
X129020432Y-93719883D01*
X128994529Y-93738126D01*
X128982467Y-93745765D01*
X128971215Y-93754546D01*
X128959544Y-93762766D01*
X128948732Y-93772092D01*
X128923760Y-93791581D01*
X128912087Y-93799802D01*
X128901269Y-93809134D01*
X128890013Y-93817918D01*
X128879680Y-93827756D01*
X128855675Y-93848463D01*
X128844427Y-93857241D01*
X128834101Y-93867072D01*
X128823284Y-93876403D01*
X128813428Y-93886755D01*
X128795666Y-93903666D01*
X128790140Y-93908201D01*
X128774980Y-93923361D01*
X128759491Y-93938108D01*
X128754833Y-93943508D01*
X127719102Y-94979240D01*
X127603498Y-95085565D01*
X127513515Y-95152942D01*
X127439035Y-95195835D01*
X127370726Y-95224340D01*
X127296322Y-95245933D01*
X127205187Y-95264874D01*
X127093787Y-95284374D01*
X127089158Y-95285214D01*
X126962522Y-95308996D01*
X126945344Y-95312634D01*
X126805849Y-95345550D01*
X126781355Y-95352198D01*
X126715468Y-95372460D01*
X126655515Y-95384386D01*
X126440587Y-95473412D01*
X126247157Y-95602658D01*
X126082658Y-95767157D01*
X125953412Y-95960587D01*
X125864386Y-96175515D01*
X125819000Y-96403682D01*
X125819000Y-96636318D01*
X125864386Y-96864485D01*
X125953412Y-97079413D01*
X126082658Y-97272843D01*
X126247157Y-97437342D01*
X126440587Y-97566588D01*
X126655515Y-97655614D01*
X126883682Y-97701000D01*
X127116318Y-97701000D01*
X127344485Y-97655614D01*
X127559413Y-97566588D01*
X127752843Y-97437342D01*
X127917342Y-97272843D01*
X128046588Y-97079413D01*
X128135614Y-96864485D01*
X128147541Y-96804526D01*
X128167802Y-96738641D01*
X128174449Y-96714150D01*
X128207365Y-96574655D01*
X128211003Y-96557476D01*
X128234785Y-96430839D01*
X128235625Y-96426211D01*
X128255120Y-96314837D01*
X128274068Y-96223670D01*
X128295659Y-96149271D01*
X128324163Y-96080966D01*
X128367059Y-96006480D01*
X128434433Y-95916500D01*
X128540757Y-95800900D01*
X129586596Y-94755061D01*
X129614685Y-94728318D01*
X129638658Y-94707638D01*
X129663628Y-94688151D01*
X129689514Y-94669921D01*
X129716275Y-94652975D01*
X129743837Y-94637360D01*
X129772107Y-94623131D01*
X129801071Y-94610291D01*
X129830625Y-94598892D01*
X129860701Y-94588955D01*
X129891217Y-94580510D01*
X129922109Y-94573574D01*
X129953331Y-94568156D01*
X129984741Y-94564282D01*
X130016335Y-94561952D01*
X130055101Y-94561000D01*
X133022029Y-94561000D01*
X133178973Y-94567561D01*
X133290226Y-94583543D01*
X133373234Y-94605882D01*
X133441684Y-94634024D01*
X133505260Y-94669000D01*
X131339392Y-94669000D01*
X131332275Y-94668475D01*
X131310888Y-94669000D01*
X131289460Y-94669000D01*
X131282346Y-94669701D01*
X131257822Y-94670303D01*
X131243546Y-94669952D01*
X131229300Y-94671003D01*
X131215035Y-94671353D01*
X131200871Y-94673100D01*
X131169269Y-94675431D01*
X131154999Y-94675781D01*
X131140829Y-94677529D01*
X131126589Y-94678579D01*
X131112522Y-94681020D01*
X131081083Y-94684897D01*
X131066828Y-94685949D01*
X131052757Y-94688391D01*
X131038606Y-94690136D01*
X131024682Y-94693263D01*
X130993444Y-94698683D01*
X130979297Y-94700428D01*
X130965373Y-94703554D01*
X130951280Y-94706000D01*
X130937515Y-94709810D01*
X130906626Y-94716745D01*
X130892549Y-94719188D01*
X130878793Y-94722995D01*
X130864870Y-94726121D01*
X130851311Y-94730600D01*
X130820773Y-94739051D01*
X130806831Y-94742182D01*
X130793271Y-94746662D01*
X130779521Y-94750467D01*
X130766203Y-94755604D01*
X130736114Y-94765545D01*
X130722364Y-94769350D01*
X130709040Y-94774490D01*
X130695475Y-94778971D01*
X130682427Y-94784755D01*
X130652861Y-94796160D01*
X130639311Y-94800636D01*
X130626274Y-94806415D01*
X130612946Y-94811556D01*
X130600182Y-94817981D01*
X130571226Y-94830816D01*
X130557914Y-94835951D01*
X130545161Y-94842370D01*
X130532097Y-94848161D01*
X130519673Y-94855199D01*
X130491389Y-94869436D01*
X130478320Y-94875229D01*
X130465894Y-94882269D01*
X130453160Y-94888678D01*
X130441103Y-94896313D01*
X130413523Y-94911937D01*
X130400778Y-94918352D01*
X130388708Y-94925995D01*
X130376281Y-94933035D01*
X130364618Y-94941250D01*
X130337848Y-94958201D01*
X130325427Y-94965237D01*
X130313761Y-94973453D01*
X130301696Y-94981093D01*
X130290432Y-94989883D01*
X130264529Y-95008126D01*
X130252467Y-95015765D01*
X130241215Y-95024546D01*
X130229544Y-95032766D01*
X130218732Y-95042092D01*
X130193760Y-95061581D01*
X130182087Y-95069802D01*
X130171269Y-95079134D01*
X130160013Y-95087918D01*
X130149680Y-95097756D01*
X130125675Y-95118463D01*
X130114427Y-95127241D01*
X130104101Y-95137072D01*
X130093284Y-95146403D01*
X130083428Y-95156755D01*
X130065667Y-95173665D01*
X130060140Y-95178201D01*
X130044980Y-95193361D01*
X130029491Y-95208108D01*
X130024833Y-95213508D01*
X127719107Y-97519236D01*
X127603498Y-97625565D01*
X127513518Y-97692940D01*
X127439028Y-97735839D01*
X127370730Y-97764339D01*
X127296322Y-97785933D01*
X127205187Y-97804874D01*
X127093787Y-97824374D01*
X127089158Y-97825214D01*
X126962522Y-97848996D01*
X126945344Y-97852634D01*
X126805849Y-97885550D01*
X126781355Y-97892198D01*
X126715468Y-97912460D01*
X126655515Y-97924386D01*
X126440587Y-98013412D01*
X126247157Y-98142658D01*
X126082658Y-98307157D01*
X125953412Y-98500587D01*
X125864386Y-98715515D01*
X125819000Y-98943682D01*
X125819000Y-99176318D01*
X125864386Y-99404485D01*
X125953412Y-99619413D01*
X126082658Y-99812843D01*
X126247157Y-99977342D01*
X126440587Y-100106588D01*
X126655515Y-100195614D01*
X126883682Y-100241000D01*
X127116318Y-100241000D01*
X127344485Y-100195614D01*
X127559413Y-100106588D01*
X127752843Y-99977342D01*
X127917342Y-99812843D01*
X128046588Y-99619413D01*
X128135614Y-99404485D01*
X128147541Y-99344526D01*
X128167802Y-99278641D01*
X128174449Y-99254150D01*
X128207365Y-99114655D01*
X128211003Y-99097476D01*
X128234785Y-98970839D01*
X128235625Y-98966211D01*
X128255120Y-98854837D01*
X128274068Y-98763670D01*
X128295659Y-98689271D01*
X128324163Y-98620966D01*
X128367059Y-98546480D01*
X128434433Y-98456500D01*
X128540757Y-98340900D01*
X130856596Y-96025061D01*
X130884685Y-95998318D01*
X130908658Y-95977638D01*
X130933628Y-95958151D01*
X130959514Y-95939921D01*
X130986275Y-95922975D01*
X131013837Y-95907360D01*
X131042107Y-95893131D01*
X131071071Y-95880291D01*
X131100625Y-95868892D01*
X131130701Y-95858955D01*
X131161217Y-95850510D01*
X131192109Y-95843574D01*
X131223331Y-95838156D01*
X131254741Y-95834282D01*
X131286335Y-95831952D01*
X131325101Y-95831000D01*
X133659999Y-95831000D01*
X133573412Y-95960587D01*
X133484386Y-96175515D01*
X133439000Y-96403682D01*
X133439000Y-96636318D01*
X133484386Y-96864485D01*
X133573412Y-97079413D01*
X133702658Y-97272843D01*
X133867157Y-97437342D01*
X134060587Y-97566588D01*
X134275515Y-97655614D01*
X134316236Y-97663714D01*
X134397852Y-97691076D01*
X134405014Y-97693398D01*
X134544724Y-97737185D01*
X134549091Y-97738525D01*
X134672295Y-97775523D01*
X134782335Y-97808711D01*
X134881704Y-97840634D01*
X134977831Y-97875094D01*
X135079153Y-97916365D01*
X135193850Y-97969063D01*
X135329113Y-98037770D01*
X135473703Y-98117166D01*
X135480771Y-98121642D01*
X135493511Y-98128055D01*
X135521097Y-98143682D01*
X135533152Y-98151316D01*
X135545895Y-98157730D01*
X135558327Y-98164773D01*
X135571389Y-98170563D01*
X135599672Y-98184799D01*
X135612097Y-98191838D01*
X135625156Y-98197627D01*
X135637907Y-98204045D01*
X135651225Y-98209182D01*
X135680185Y-98222019D01*
X135692942Y-98228441D01*
X135706268Y-98233581D01*
X135719311Y-98239363D01*
X135732862Y-98243840D01*
X135762439Y-98255249D01*
X135775486Y-98261032D01*
X135789034Y-98265508D01*
X135802360Y-98270648D01*
X135816128Y-98274458D01*
X135846201Y-98284393D01*
X135859521Y-98289531D01*
X135873283Y-98293340D01*
X135886843Y-98297819D01*
X135900772Y-98300947D01*
X135931303Y-98309396D01*
X135944859Y-98313874D01*
X135958791Y-98317003D01*
X135972549Y-98320810D01*
X135986613Y-98323251D01*
X136017532Y-98330194D01*
X136031290Y-98334001D01*
X136045347Y-98336440D01*
X136059285Y-98339570D01*
X136073469Y-98341319D01*
X136104664Y-98346732D01*
X136118597Y-98349861D01*
X136132778Y-98351610D01*
X136146840Y-98354050D01*
X136150985Y-98354356D01*
X136069102Y-98476903D01*
X135976307Y-98700931D01*
X135958106Y-98792430D01*
X135944724Y-98840031D01*
X135935900Y-98879254D01*
X135909979Y-99031631D01*
X135906463Y-99057726D01*
X135892186Y-99200923D01*
X135891491Y-99208691D01*
X135881440Y-99335809D01*
X135869748Y-99434333D01*
X135854592Y-99500135D01*
X135836805Y-99541793D01*
X135810348Y-99578406D01*
X135755854Y-99626554D01*
X135647528Y-99691462D01*
X135628923Y-99699708D01*
X135607385Y-99708016D01*
X135666588Y-99619413D01*
X135755614Y-99404485D01*
X135801000Y-99176318D01*
X135801000Y-98943682D01*
X135755614Y-98715515D01*
X135666588Y-98500587D01*
X135537342Y-98307157D01*
X135372843Y-98142658D01*
X135179413Y-98013412D01*
X134964485Y-97924386D01*
X134736318Y-97879000D01*
X134503682Y-97879000D01*
X134275515Y-97924386D01*
X134060587Y-98013412D01*
X133867157Y-98142658D01*
X133702658Y-98307157D01*
X133573412Y-98500587D01*
X133484386Y-98715515D01*
X133439000Y-98943682D01*
X133439000Y-99176318D01*
X133484386Y-99404485D01*
X133573412Y-99619413D01*
X133659999Y-99749000D01*
X131339392Y-99749000D01*
X131332275Y-99748475D01*
X131310888Y-99749000D01*
X131289460Y-99749000D01*
X131282346Y-99749701D01*
X131257822Y-99750303D01*
X131243546Y-99749952D01*
X131229300Y-99751003D01*
X131215035Y-99751353D01*
X131200871Y-99753100D01*
X131169269Y-99755431D01*
X131154999Y-99755781D01*
X131140829Y-99757529D01*
X131126589Y-99758579D01*
X131112522Y-99761020D01*
X131081083Y-99764897D01*
X131066828Y-99765949D01*
X131052757Y-99768391D01*
X131038606Y-99770136D01*
X131024682Y-99773263D01*
X130993444Y-99778683D01*
X130979297Y-99780428D01*
X130965373Y-99783554D01*
X130951280Y-99786000D01*
X130937515Y-99789810D01*
X130906626Y-99796745D01*
X130892549Y-99799188D01*
X130878793Y-99802995D01*
X130864870Y-99806121D01*
X130851311Y-99810600D01*
X130820773Y-99819051D01*
X130806831Y-99822182D01*
X130793271Y-99826662D01*
X130779521Y-99830467D01*
X130766203Y-99835604D01*
X130736114Y-99845545D01*
X130722364Y-99849350D01*
X130709040Y-99854490D01*
X130695475Y-99858971D01*
X130682427Y-99864755D01*
X130652861Y-99876160D01*
X130639311Y-99880636D01*
X130626274Y-99886415D01*
X130612946Y-99891556D01*
X130600182Y-99897981D01*
X130571226Y-99910816D01*
X130557914Y-99915951D01*
X130545161Y-99922370D01*
X130532097Y-99928161D01*
X130519673Y-99935199D01*
X130491389Y-99949436D01*
X130478320Y-99955229D01*
X130465894Y-99962269D01*
X130453160Y-99968678D01*
X130441103Y-99976313D01*
X130413523Y-99991937D01*
X130400778Y-99998352D01*
X130388708Y-100005995D01*
X130376281Y-100013035D01*
X130364618Y-100021250D01*
X130337848Y-100038201D01*
X130325427Y-100045237D01*
X130313761Y-100053453D01*
X130301696Y-100061093D01*
X130290432Y-100069883D01*
X130264529Y-100088126D01*
X130252467Y-100095765D01*
X130241215Y-100104546D01*
X130229544Y-100112766D01*
X130218732Y-100122092D01*
X130193760Y-100141581D01*
X130182087Y-100149802D01*
X130171269Y-100159134D01*
X130160013Y-100167918D01*
X130149680Y-100177756D01*
X130125675Y-100198463D01*
X130114427Y-100207241D01*
X130104101Y-100217072D01*
X130093284Y-100226403D01*
X130083428Y-100236755D01*
X130065667Y-100253665D01*
X130060140Y-100258201D01*
X130044980Y-100273361D01*
X130029491Y-100288108D01*
X130024833Y-100293508D01*
X127719107Y-102599236D01*
X127603498Y-102705565D01*
X127513518Y-102772940D01*
X127439028Y-102815839D01*
X127370730Y-102844339D01*
X127296322Y-102865933D01*
X127205187Y-102884874D01*
X127093787Y-102904374D01*
X127089158Y-102905214D01*
X126962522Y-102928996D01*
X126945344Y-102932634D01*
X126805849Y-102965550D01*
X126781355Y-102972198D01*
X126715468Y-102992460D01*
X126655515Y-103004386D01*
X126440587Y-103093412D01*
X126247157Y-103222658D01*
X126082658Y-103387157D01*
X125953412Y-103580587D01*
X125864386Y-103795515D01*
X125819000Y-104023682D01*
X125819000Y-104256318D01*
X125864386Y-104484485D01*
X125953412Y-104699413D01*
X126082658Y-104892843D01*
X126247157Y-105057342D01*
X126440587Y-105186588D01*
X126655515Y-105275614D01*
X126883682Y-105321000D01*
X127116318Y-105321000D01*
X127344485Y-105275614D01*
X127559413Y-105186588D01*
X127752843Y-105057342D01*
X127917342Y-104892843D01*
X128046588Y-104699413D01*
X128135614Y-104484485D01*
X128147541Y-104424526D01*
X128167802Y-104358641D01*
X128174449Y-104334150D01*
X128207365Y-104194655D01*
X128211003Y-104177476D01*
X128234785Y-104050839D01*
X128235625Y-104046211D01*
X128239568Y-104023682D01*
X133439000Y-104023682D01*
X133439000Y-104256318D01*
X133484386Y-104484485D01*
X133573412Y-104699413D01*
X133702658Y-104892843D01*
X133867157Y-105057342D01*
X134060587Y-105186588D01*
X134275515Y-105275614D01*
X134503682Y-105321000D01*
X134736318Y-105321000D01*
X134964485Y-105275614D01*
X135179413Y-105186588D01*
X135372843Y-105057342D01*
X135537342Y-104892843D01*
X135666588Y-104699413D01*
X135755614Y-104484485D01*
X135801000Y-104256318D01*
X135801000Y-104023682D01*
X135755614Y-103795515D01*
X135666588Y-103580587D01*
X135537342Y-103387157D01*
X135372843Y-103222658D01*
X135179413Y-103093412D01*
X134964485Y-103004386D01*
X134736318Y-102959000D01*
X134503682Y-102959000D01*
X134275515Y-103004386D01*
X134060587Y-103093412D01*
X133867157Y-103222658D01*
X133702658Y-103387157D01*
X133573412Y-103580587D01*
X133484386Y-103795515D01*
X133439000Y-104023682D01*
X128239568Y-104023682D01*
X128255120Y-103934837D01*
X128274068Y-103843670D01*
X128295659Y-103769271D01*
X128324163Y-103700966D01*
X128367059Y-103626480D01*
X128434433Y-103536500D01*
X128540757Y-103420900D01*
X130856596Y-101105061D01*
X130884685Y-101078318D01*
X130908658Y-101057638D01*
X130933628Y-101038151D01*
X130959514Y-101019921D01*
X130986275Y-101002975D01*
X131013837Y-100987360D01*
X131042107Y-100973131D01*
X131071071Y-100960291D01*
X131100625Y-100948892D01*
X131130701Y-100938955D01*
X131161217Y-100930510D01*
X131192109Y-100923574D01*
X131223331Y-100918156D01*
X131254741Y-100914282D01*
X131286335Y-100911952D01*
X131325101Y-100911000D01*
X133659999Y-100911000D01*
X133573412Y-101040587D01*
X133484386Y-101255515D01*
X133439000Y-101483682D01*
X133439000Y-101716318D01*
X133484386Y-101944485D01*
X133573412Y-102159413D01*
X133702658Y-102352843D01*
X133867157Y-102517342D01*
X134060587Y-102646588D01*
X134275515Y-102735614D01*
X134335470Y-102747540D01*
X134401357Y-102767802D01*
X134425849Y-102774449D01*
X134565344Y-102807365D01*
X134582523Y-102811003D01*
X134709160Y-102834785D01*
X134713788Y-102835625D01*
X134825162Y-102855120D01*
X134916329Y-102874068D01*
X134990728Y-102895659D01*
X135059033Y-102924163D01*
X135133519Y-102967059D01*
X135223499Y-103034433D01*
X135339096Y-103140753D01*
X135548334Y-103349992D01*
X135662064Y-103473995D01*
X135734114Y-103571189D01*
X135779882Y-103652267D01*
X135810110Y-103727214D01*
X135832610Y-103808929D01*
X135851861Y-103908329D01*
X135871424Y-104028419D01*
X135872403Y-104034152D01*
X135896630Y-104169790D01*
X135900414Y-104188310D01*
X135934811Y-104337656D01*
X135941731Y-104363513D01*
X135963528Y-104434825D01*
X135976307Y-104499069D01*
X136069102Y-104723097D01*
X136203820Y-104924717D01*
X136375283Y-105096180D01*
X136576903Y-105230898D01*
X136800931Y-105323693D01*
X137038757Y-105371000D01*
X137281243Y-105371000D01*
X137519069Y-105323693D01*
X137743097Y-105230898D01*
X137760432Y-105219315D01*
X137726557Y-105275851D01*
X137678405Y-105330347D01*
X137641792Y-105356804D01*
X137600134Y-105374591D01*
X137534332Y-105389746D01*
X137435785Y-105401442D01*
X137308687Y-105411492D01*
X137300924Y-105412185D01*
X137157728Y-105426461D01*
X137131631Y-105429978D01*
X136979254Y-105455899D01*
X136940029Y-105464723D01*
X136892415Y-105478110D01*
X136800931Y-105496307D01*
X136576903Y-105589102D01*
X136375283Y-105723820D01*
X136203820Y-105895283D01*
X136069102Y-106096903D01*
X135976307Y-106320931D01*
X135929000Y-106558757D01*
X135929000Y-106801243D01*
X135976307Y-107039069D01*
X136069102Y-107263097D01*
X136203820Y-107464717D01*
X136375283Y-107636180D01*
X136576903Y-107770898D01*
X136800931Y-107863693D01*
X137038757Y-107911000D01*
X137281243Y-107911000D01*
X137519069Y-107863693D01*
X137743097Y-107770898D01*
X137944717Y-107636180D01*
X138116180Y-107464717D01*
X138250898Y-107263097D01*
X138343693Y-107039069D01*
X138352169Y-106996458D01*
X138382506Y-106905902D01*
X138385002Y-106898180D01*
X138431829Y-106747843D01*
X138433550Y-106742162D01*
X138472699Y-106609215D01*
X138473193Y-106607524D01*
X138507947Y-106487456D01*
X138541227Y-106376752D01*
X138576686Y-106268683D01*
X138618500Y-106154797D01*
X138659001Y-106056141D01*
X138659001Y-109200137D01*
X138628543Y-109510775D01*
X138544094Y-109790484D01*
X138406926Y-110048458D01*
X138222267Y-110274873D01*
X137997141Y-110461114D01*
X137740130Y-110600078D01*
X137461024Y-110686476D01*
X137151582Y-110719000D01*
X127019853Y-110719000D01*
X126709225Y-110688543D01*
X126429516Y-110604094D01*
X126171542Y-110466926D01*
X125945127Y-110282267D01*
X125758886Y-110057141D01*
X125619922Y-109800130D01*
X125533524Y-109521024D01*
X125501000Y-109211582D01*
X125501000Y-109098757D01*
X125769000Y-109098757D01*
X125769000Y-109341243D01*
X125816307Y-109579069D01*
X125909102Y-109803097D01*
X126043820Y-110004717D01*
X126215283Y-110176180D01*
X126416903Y-110310898D01*
X126640931Y-110403693D01*
X126878757Y-110451000D01*
X127121243Y-110451000D01*
X127359069Y-110403693D01*
X127583097Y-110310898D01*
X127784717Y-110176180D01*
X127956180Y-110004717D01*
X128090898Y-109803097D01*
X128183693Y-109579069D01*
X128231000Y-109341243D01*
X128231000Y-109098757D01*
X128309000Y-109098757D01*
X128309000Y-109341243D01*
X128356307Y-109579069D01*
X128449102Y-109803097D01*
X128583820Y-110004717D01*
X128755283Y-110176180D01*
X128956903Y-110310898D01*
X129180931Y-110403693D01*
X129418757Y-110451000D01*
X129661243Y-110451000D01*
X129899069Y-110403693D01*
X130123097Y-110310898D01*
X130324717Y-110176180D01*
X130496180Y-110004717D01*
X130630898Y-109803097D01*
X130723693Y-109579069D01*
X130771000Y-109341243D01*
X130771000Y-109098757D01*
X130849000Y-109098757D01*
X130849000Y-109341243D01*
X130896307Y-109579069D01*
X130989102Y-109803097D01*
X131123820Y-110004717D01*
X131295283Y-110176180D01*
X131496903Y-110310898D01*
X131720931Y-110403693D01*
X131958757Y-110451000D01*
X132201243Y-110451000D01*
X132439069Y-110403693D01*
X132663097Y-110310898D01*
X132864717Y-110176180D01*
X133036180Y-110004717D01*
X133170898Y-109803097D01*
X133263693Y-109579069D01*
X133311000Y-109341243D01*
X133311000Y-109098757D01*
X133389000Y-109098757D01*
X133389000Y-109341243D01*
X133436307Y-109579069D01*
X133529102Y-109803097D01*
X133663820Y-110004717D01*
X133835283Y-110176180D01*
X134036903Y-110310898D01*
X134260931Y-110403693D01*
X134498757Y-110451000D01*
X134741243Y-110451000D01*
X134979069Y-110403693D01*
X135203097Y-110310898D01*
X135404717Y-110176180D01*
X135576180Y-110004717D01*
X135710898Y-109803097D01*
X135803693Y-109579069D01*
X135851000Y-109341243D01*
X135851000Y-109098757D01*
X135929000Y-109098757D01*
X135929000Y-109341243D01*
X135976307Y-109579069D01*
X136069102Y-109803097D01*
X136203820Y-110004717D01*
X136375283Y-110176180D01*
X136576903Y-110310898D01*
X136800931Y-110403693D01*
X137038757Y-110451000D01*
X137281243Y-110451000D01*
X137519069Y-110403693D01*
X137743097Y-110310898D01*
X137944717Y-110176180D01*
X138116180Y-110004717D01*
X138250898Y-109803097D01*
X138343693Y-109579069D01*
X138391000Y-109341243D01*
X138391000Y-109098757D01*
X138343693Y-108860931D01*
X138250898Y-108636903D01*
X138116180Y-108435283D01*
X137944717Y-108263820D01*
X137743097Y-108129102D01*
X137519069Y-108036307D01*
X137281243Y-107989000D01*
X137038757Y-107989000D01*
X136800931Y-108036307D01*
X136576903Y-108129102D01*
X136375283Y-108263820D01*
X136203820Y-108435283D01*
X136069102Y-108636903D01*
X135976307Y-108860931D01*
X135929000Y-109098757D01*
X135851000Y-109098757D01*
X135803693Y-108860931D01*
X135710898Y-108636903D01*
X135576180Y-108435283D01*
X135404717Y-108263820D01*
X135203097Y-108129102D01*
X134979069Y-108036307D01*
X134741243Y-107989000D01*
X134498757Y-107989000D01*
X134260931Y-108036307D01*
X134036903Y-108129102D01*
X133835283Y-108263820D01*
X133663820Y-108435283D01*
X133529102Y-108636903D01*
X133436307Y-108860931D01*
X133389000Y-109098757D01*
X133311000Y-109098757D01*
X133263693Y-108860931D01*
X133170898Y-108636903D01*
X133036180Y-108435283D01*
X132864717Y-108263820D01*
X132663097Y-108129102D01*
X132439069Y-108036307D01*
X132201243Y-107989000D01*
X131958757Y-107989000D01*
X131720931Y-108036307D01*
X131496903Y-108129102D01*
X131295283Y-108263820D01*
X131123820Y-108435283D01*
X130989102Y-108636903D01*
X130896307Y-108860931D01*
X130849000Y-109098757D01*
X130771000Y-109098757D01*
X130723693Y-108860931D01*
X130630898Y-108636903D01*
X130496180Y-108435283D01*
X130324717Y-108263820D01*
X130123097Y-108129102D01*
X129899069Y-108036307D01*
X129661243Y-107989000D01*
X129418757Y-107989000D01*
X129180931Y-108036307D01*
X128956903Y-108129102D01*
X128755283Y-108263820D01*
X128583820Y-108435283D01*
X128449102Y-108636903D01*
X128356307Y-108860931D01*
X128309000Y-109098757D01*
X128231000Y-109098757D01*
X128183693Y-108860931D01*
X128090898Y-108636903D01*
X127956180Y-108435283D01*
X127784717Y-108263820D01*
X127583097Y-108129102D01*
X127359069Y-108036307D01*
X127121243Y-107989000D01*
X126878757Y-107989000D01*
X126640931Y-108036307D01*
X126416903Y-108129102D01*
X126215283Y-108263820D01*
X126043820Y-108435283D01*
X125909102Y-108636903D01*
X125816307Y-108860931D01*
X125769000Y-109098757D01*
X125501000Y-109098757D01*
X125501000Y-106989114D01*
X125860171Y-106989114D01*
X125880527Y-107056239D01*
X125975438Y-107267408D01*
X126109722Y-107456003D01*
X126278219Y-107614777D01*
X126474454Y-107737628D01*
X126690885Y-107819835D01*
X126873000Y-107758908D01*
X126873000Y-106807000D01*
X127127000Y-106807000D01*
X127127000Y-107758908D01*
X127309115Y-107819835D01*
X127525546Y-107737628D01*
X127721781Y-107614777D01*
X127890278Y-107456003D01*
X128024562Y-107267408D01*
X128119473Y-107056239D01*
X128139829Y-106989114D01*
X128078297Y-106807000D01*
X127127000Y-106807000D01*
X126873000Y-106807000D01*
X125921703Y-106807000D01*
X125860171Y-106989114D01*
X125501000Y-106989114D01*
X125501000Y-106563682D01*
X133439000Y-106563682D01*
X133439000Y-106796318D01*
X133484386Y-107024485D01*
X133573412Y-107239413D01*
X133702658Y-107432843D01*
X133867157Y-107597342D01*
X134060587Y-107726588D01*
X134275515Y-107815614D01*
X134503682Y-107861000D01*
X134736318Y-107861000D01*
X134964485Y-107815614D01*
X135179413Y-107726588D01*
X135372843Y-107597342D01*
X135537342Y-107432843D01*
X135666588Y-107239413D01*
X135755614Y-107024485D01*
X135801000Y-106796318D01*
X135801000Y-106563682D01*
X135755614Y-106335515D01*
X135666588Y-106120587D01*
X135537342Y-105927157D01*
X135372843Y-105762658D01*
X135179413Y-105633412D01*
X134964485Y-105544386D01*
X134736318Y-105499000D01*
X134503682Y-105499000D01*
X134275515Y-105544386D01*
X134060587Y-105633412D01*
X133867157Y-105762658D01*
X133702658Y-105927157D01*
X133573412Y-106120587D01*
X133484386Y-106335515D01*
X133439000Y-106563682D01*
X125501000Y-106563682D01*
X125501000Y-106370886D01*
X125860171Y-106370886D01*
X125921703Y-106553000D01*
X126873000Y-106553000D01*
X126873000Y-105601092D01*
X127127000Y-105601092D01*
X127127000Y-106553000D01*
X128078297Y-106553000D01*
X128139829Y-106370886D01*
X128119473Y-106303761D01*
X128024562Y-106092592D01*
X127890278Y-105903997D01*
X127721781Y-105745223D01*
X127525546Y-105622372D01*
X127309115Y-105540165D01*
X127127000Y-105601092D01*
X126873000Y-105601092D01*
X126690885Y-105540165D01*
X126474454Y-105622372D01*
X126278219Y-105745223D01*
X126109722Y-105903997D01*
X125975438Y-106092592D01*
X125880527Y-106303761D01*
X125860171Y-106370886D01*
X125501000Y-106370886D01*
X125501000Y-101483682D01*
X125819000Y-101483682D01*
X125819000Y-101716318D01*
X125864386Y-101944485D01*
X125953412Y-102159413D01*
X126082658Y-102352843D01*
X126247157Y-102517342D01*
X126440587Y-102646588D01*
X126655515Y-102735614D01*
X126883682Y-102781000D01*
X127116318Y-102781000D01*
X127344485Y-102735614D01*
X127559413Y-102646588D01*
X127752843Y-102517342D01*
X127917342Y-102352843D01*
X128046588Y-102159413D01*
X128135614Y-101944485D01*
X128181000Y-101716318D01*
X128181000Y-101483682D01*
X128135614Y-101255515D01*
X128046588Y-101040587D01*
X127917342Y-100847157D01*
X127752843Y-100682658D01*
X127559413Y-100553412D01*
X127344485Y-100464386D01*
X127116318Y-100419000D01*
X126883682Y-100419000D01*
X126655515Y-100464386D01*
X126440587Y-100553412D01*
X126247157Y-100682658D01*
X126082658Y-100847157D01*
X125953412Y-101040587D01*
X125864386Y-101255515D01*
X125819000Y-101483682D01*
X125501000Y-101483682D01*
X125501000Y-91323682D01*
X125819000Y-91323682D01*
X125819000Y-91556318D01*
X125864386Y-91784485D01*
X125953412Y-91999413D01*
X126082658Y-92192843D01*
X126247157Y-92357342D01*
X126440587Y-92486588D01*
X126655515Y-92575614D01*
X126883682Y-92621000D01*
X127116318Y-92621000D01*
X127344485Y-92575614D01*
X127559413Y-92486588D01*
X127752843Y-92357342D01*
X127917342Y-92192843D01*
X128046588Y-91999413D01*
X128135614Y-91784485D01*
X128147541Y-91724526D01*
X128167802Y-91658641D01*
X128174449Y-91634150D01*
X128207365Y-91494655D01*
X128211003Y-91477476D01*
X128234785Y-91350839D01*
X128235625Y-91346211D01*
X128255120Y-91234837D01*
X128274068Y-91143670D01*
X128295659Y-91069271D01*
X128324163Y-91000966D01*
X128367059Y-90926480D01*
X128434433Y-90836500D01*
X128540757Y-90720900D01*
X129576493Y-89685164D01*
X129581901Y-89680499D01*
X129596652Y-89665005D01*
X129611798Y-89649859D01*
X129616335Y-89644330D01*
X129633253Y-89626561D01*
X129643595Y-89616714D01*
X129652926Y-89605896D01*
X129662766Y-89595561D01*
X129671543Y-89584314D01*
X129692246Y-89560314D01*
X129702085Y-89549979D01*
X129710865Y-89538729D01*
X129720196Y-89527911D01*
X129728421Y-89516233D01*
X129747904Y-89491267D01*
X129757226Y-89480460D01*
X129765449Y-89468785D01*
X129774236Y-89457525D01*
X129781871Y-89445468D01*
X129800108Y-89419575D01*
X129808905Y-89408302D01*
X129816548Y-89396233D01*
X129824756Y-89384578D01*
X129831790Y-89372161D01*
X129848748Y-89345380D01*
X129856963Y-89333717D01*
X129864003Y-89321290D01*
X129871646Y-89309220D01*
X129878061Y-89296475D01*
X129893682Y-89268901D01*
X129901318Y-89256842D01*
X129907731Y-89244101D01*
X129914769Y-89231678D01*
X129920558Y-89218618D01*
X129934804Y-89190316D01*
X129941839Y-89177898D01*
X129947623Y-89164849D01*
X129954046Y-89152089D01*
X129959186Y-89138764D01*
X129972022Y-89109807D01*
X129978440Y-89097056D01*
X129983578Y-89083735D01*
X129989364Y-89070683D01*
X129993842Y-89057127D01*
X130005244Y-89027570D01*
X130011028Y-89014521D01*
X130015507Y-89000962D01*
X130020647Y-88987638D01*
X130024455Y-88973876D01*
X130034390Y-88943804D01*
X130039531Y-88930477D01*
X130043340Y-88916712D01*
X130047816Y-88903164D01*
X130050943Y-88889238D01*
X130059396Y-88858695D01*
X130063874Y-88845139D01*
X130067003Y-88831207D01*
X130070810Y-88817449D01*
X130073251Y-88803385D01*
X130080193Y-88772468D01*
X130084001Y-88758709D01*
X130086441Y-88744647D01*
X130089570Y-88730713D01*
X130091319Y-88716535D01*
X130096735Y-88685318D01*
X130099862Y-88671393D01*
X130101609Y-88657232D01*
X130104050Y-88643161D01*
X130105101Y-88628918D01*
X130108977Y-88597487D01*
X130111418Y-88583420D01*
X130112469Y-88569171D01*
X130114217Y-88555000D01*
X130114567Y-88540740D01*
X130116898Y-88509140D01*
X130118646Y-88494973D01*
X130118996Y-88480702D01*
X130120047Y-88466463D01*
X130119697Y-88452187D01*
X130120299Y-88427656D01*
X130121000Y-88420540D01*
X130121000Y-88399114D01*
X130121525Y-88377735D01*
X130121000Y-88370617D01*
X130121000Y-88058234D01*
X130128264Y-87890134D01*
X130146043Y-87770465D01*
X130171013Y-87680764D01*
X130202628Y-87606407D01*
X130244506Y-87532705D01*
X130301197Y-87448782D01*
X130372261Y-87350058D01*
X130375623Y-87345313D01*
X130454402Y-87232272D01*
X130464822Y-87216500D01*
X130546103Y-87086574D01*
X130559492Y-87063400D01*
X130594502Y-86997567D01*
X130630898Y-86943097D01*
X130723693Y-86719069D01*
X130771000Y-86481243D01*
X130771000Y-86238757D01*
X130723693Y-86000931D01*
X130630898Y-85776903D01*
X130496180Y-85575283D01*
X130324717Y-85403820D01*
X130123097Y-85269102D01*
X129899069Y-85176307D01*
X129661243Y-85129000D01*
X129418757Y-85129000D01*
X129180931Y-85176307D01*
X128956903Y-85269102D01*
X128755283Y-85403820D01*
X128583820Y-85575283D01*
X128449102Y-85776903D01*
X128356307Y-86000931D01*
X128309000Y-86238757D01*
X128309000Y-86481243D01*
X128356307Y-86719069D01*
X128449102Y-86943097D01*
X128485495Y-86997563D01*
X128520506Y-87063398D01*
X128533896Y-87086574D01*
X128615177Y-87216500D01*
X128625597Y-87232272D01*
X128704376Y-87345313D01*
X128707738Y-87350058D01*
X128778802Y-87448782D01*
X128835493Y-87532705D01*
X128877371Y-87606407D01*
X128908986Y-87680764D01*
X128933956Y-87770465D01*
X128951735Y-87890134D01*
X128959000Y-88058241D01*
X128959000Y-88384876D01*
X128958048Y-88423651D01*
X128955716Y-88455258D01*
X128951841Y-88486674D01*
X128946426Y-88517885D01*
X128939489Y-88548776D01*
X128931042Y-88579299D01*
X128921105Y-88609378D01*
X128909708Y-88638923D01*
X128896872Y-88667881D01*
X128882634Y-88696168D01*
X128867023Y-88723723D01*
X128850075Y-88750488D01*
X128831855Y-88776358D01*
X128812349Y-88801353D01*
X128791671Y-88825324D01*
X128764944Y-88853397D01*
X127719102Y-89899240D01*
X127603498Y-90005565D01*
X127513515Y-90072942D01*
X127439035Y-90115835D01*
X127370726Y-90144340D01*
X127296322Y-90165933D01*
X127205187Y-90184874D01*
X127093787Y-90204374D01*
X127089158Y-90205214D01*
X126962522Y-90228996D01*
X126945344Y-90232634D01*
X126805849Y-90265550D01*
X126781355Y-90272198D01*
X126715468Y-90292460D01*
X126655515Y-90304386D01*
X126440587Y-90393412D01*
X126247157Y-90522658D01*
X126082658Y-90687157D01*
X125953412Y-90880587D01*
X125864386Y-91095515D01*
X125819000Y-91323682D01*
X125501000Y-91323682D01*
X125501000Y-88783682D01*
X125819000Y-88783682D01*
X125819000Y-89016318D01*
X125864386Y-89244485D01*
X125953412Y-89459413D01*
X126082658Y-89652843D01*
X126247157Y-89817342D01*
X126440587Y-89946588D01*
X126655515Y-90035614D01*
X126883682Y-90081000D01*
X127116318Y-90081000D01*
X127344485Y-90035614D01*
X127559413Y-89946588D01*
X127752843Y-89817342D01*
X127917342Y-89652843D01*
X128046588Y-89459413D01*
X128135614Y-89244485D01*
X128181000Y-89016318D01*
X128181000Y-88783682D01*
X128135614Y-88555515D01*
X128046588Y-88340587D01*
X127917342Y-88147157D01*
X127752843Y-87982658D01*
X127559413Y-87853412D01*
X127344485Y-87764386D01*
X127116318Y-87719000D01*
X126883682Y-87719000D01*
X126655515Y-87764386D01*
X126440587Y-87853412D01*
X126247157Y-87982658D01*
X126082658Y-88147157D01*
X125953412Y-88340587D01*
X125864386Y-88555515D01*
X125819000Y-88783682D01*
X125501000Y-88783682D01*
X125501000Y-87247862D01*
X126291743Y-87247862D01*
X126383043Y-87425234D01*
X126457051Y-87464799D01*
X126683020Y-87549495D01*
X126921169Y-87588479D01*
X127162348Y-87580253D01*
X127397288Y-87525134D01*
X127616961Y-87425239D01*
X127708653Y-87248258D01*
X127000000Y-86539605D01*
X126291743Y-87247862D01*
X125501000Y-87247862D01*
X125501000Y-86438831D01*
X125771521Y-86438831D01*
X125810505Y-86676980D01*
X125895201Y-86902949D01*
X125934766Y-86976957D01*
X126112138Y-87068257D01*
X126820395Y-86360000D01*
X127179605Y-86360000D01*
X127888258Y-87068653D01*
X128065239Y-86976961D01*
X128165134Y-86757288D01*
X128220253Y-86522348D01*
X128228479Y-86281169D01*
X128189495Y-86043020D01*
X128104799Y-85817051D01*
X128065234Y-85743043D01*
X127887862Y-85651743D01*
X127179605Y-86360000D01*
X126820395Y-86360000D01*
X126111742Y-85651347D01*
X125934761Y-85743039D01*
X125834866Y-85962712D01*
X125779747Y-86197652D01*
X125771521Y-86438831D01*
X125501000Y-86438831D01*
X125501000Y-85471742D01*
X126291347Y-85471742D01*
X127000000Y-86180395D01*
X127708257Y-85472138D01*
X127616957Y-85294766D01*
X127542949Y-85255201D01*
X127316980Y-85170505D01*
X127078831Y-85131521D01*
X126837652Y-85139747D01*
X126602712Y-85194866D01*
X126383039Y-85294761D01*
X126291347Y-85471742D01*
X125501000Y-85471742D01*
X125501000Y-85109853D01*
X125531457Y-84799224D01*
X125615905Y-84519519D01*
X125753074Y-84261542D01*
X125937735Y-84035125D01*
X126162856Y-83848889D01*
X126419870Y-83709922D01*
X126698976Y-83623524D01*
X127008418Y-83591000D01*
X137140147Y-83591000D01*
X137450776Y-83621457D01*
G37*
%TD.AperFunction*%
%TD*%
D18*
%TO.N,INPUT*%
X128248128Y-90457490D02*
X128131636Y-90584145D01*
X128130817Y-90585130D01*
X128038171Y-90708861D01*
X128037332Y-90710135D01*
X127970887Y-90825511D01*
X127970172Y-90826958D01*
X127924037Y-90937515D01*
X127923560Y-90938866D01*
X127891848Y-91048139D01*
X127891611Y-91049095D01*
X127868432Y-91160621D01*
X127868356Y-91161015D01*
X127847834Y-91278256D01*
X127824122Y-91404516D01*
X127791367Y-91543329D01*
X127746256Y-91690022D01*
X126730114Y-91709886D01*
X126749978Y-90693744D01*
X126896670Y-90648632D01*
X127035483Y-90615877D01*
X127161742Y-90592165D01*
X127278984Y-90571643D01*
X127279378Y-90571567D01*
X127390903Y-90548388D01*
X127391859Y-90548151D01*
X127501133Y-90516439D01*
X127502484Y-90515962D01*
X127613041Y-90469827D01*
X127614488Y-90469112D01*
X127729863Y-90402667D01*
X127731137Y-90401828D01*
X127854868Y-90309182D01*
X127855853Y-90308364D01*
X127982510Y-90191873D01*
X128248128Y-90457490D01*
%TA.AperFunction,Conductor*%
D17*
G36*
X128248128Y-90457490D02*
G01*
X128131636Y-90584145D01*
X128130817Y-90585130D01*
X128038171Y-90708861D01*
X128037332Y-90710135D01*
X127970887Y-90825511D01*
X127970172Y-90826958D01*
X127924037Y-90937515D01*
X127923560Y-90938866D01*
X127891848Y-91048139D01*
X127891611Y-91049095D01*
X127868432Y-91160621D01*
X127868356Y-91161015D01*
X127847834Y-91278256D01*
X127824122Y-91404516D01*
X127791367Y-91543329D01*
X127746256Y-91690022D01*
X126730114Y-91709886D01*
X126749978Y-90693744D01*
X126896670Y-90648632D01*
X127035483Y-90615877D01*
X127161742Y-90592165D01*
X127278984Y-90571643D01*
X127279378Y-90571567D01*
X127390903Y-90548388D01*
X127391859Y-90548151D01*
X127501133Y-90516439D01*
X127502484Y-90515962D01*
X127613041Y-90469827D01*
X127614488Y-90469112D01*
X127729863Y-90402667D01*
X127731137Y-90401828D01*
X127854868Y-90309182D01*
X127855853Y-90308364D01*
X127982510Y-90191873D01*
X128248128Y-90457490D01*
G37*
%TD.AperFunction*%
%TD*%
D18*
%TO.N,Net-(J1-Pad1)*%
X136188071Y-92756947D02*
X136188409Y-92757106D01*
X136350311Y-92830281D01*
X136350719Y-92830457D01*
X136491927Y-92888427D01*
X136492373Y-92888600D01*
X136619236Y-92935179D01*
X136619654Y-92935324D01*
X136738516Y-92974325D01*
X136738819Y-92974420D01*
X136856030Y-93009657D01*
X136856155Y-93009694D01*
X136978004Y-93044964D01*
X137110900Y-93084099D01*
X137260967Y-93130842D01*
X137426426Y-93186274D01*
X137447564Y-94267564D01*
X136366750Y-94246435D01*
X136323911Y-94094059D01*
X136298176Y-93942773D01*
X136283956Y-93800139D01*
X136273328Y-93665720D01*
X136273280Y-93665224D01*
X136258273Y-93538769D01*
X136258037Y-93537416D01*
X136230654Y-93418524D01*
X136229958Y-93416387D01*
X136182193Y-93304516D01*
X136180807Y-93302065D01*
X136104653Y-93196678D01*
X136102768Y-93194599D01*
X135990218Y-93095154D01*
X135988336Y-93093777D01*
X135841507Y-93005801D01*
X136010402Y-92670255D01*
X136188071Y-92756947D01*
%TA.AperFunction,Conductor*%
D17*
G36*
X136188071Y-92756947D02*
G01*
X136188409Y-92757106D01*
X136350311Y-92830281D01*
X136350719Y-92830457D01*
X136491927Y-92888427D01*
X136492373Y-92888600D01*
X136619236Y-92935179D01*
X136619654Y-92935324D01*
X136738516Y-92974325D01*
X136738819Y-92974420D01*
X136856030Y-93009657D01*
X136856155Y-93009694D01*
X136978004Y-93044964D01*
X137110900Y-93084099D01*
X137260967Y-93130842D01*
X137426426Y-93186274D01*
X137447564Y-94267564D01*
X136366750Y-94246435D01*
X136323911Y-94094059D01*
X136298176Y-93942773D01*
X136283956Y-93800139D01*
X136273328Y-93665720D01*
X136273280Y-93665224D01*
X136258273Y-93538769D01*
X136258037Y-93537416D01*
X136230654Y-93418524D01*
X136229958Y-93416387D01*
X136182193Y-93304516D01*
X136180807Y-93302065D01*
X136104653Y-93196678D01*
X136102768Y-93194599D01*
X135990218Y-93095154D01*
X135988336Y-93093777D01*
X135841507Y-93005801D01*
X136010402Y-92670255D01*
X136188071Y-92756947D01*
G37*
%TD.AperFunction*%
%TD*%
D18*
%TO.N,Net-(J1-Pad1)*%
X128238730Y-93049044D02*
X128103165Y-93138818D01*
X128101451Y-93140179D01*
X127996973Y-93238971D01*
X127995264Y-93240960D01*
X127924342Y-93343187D01*
X127923068Y-93345509D01*
X127878295Y-93452126D01*
X127877634Y-93454167D01*
X127851602Y-93566132D01*
X127851369Y-93567442D01*
X127836672Y-93685712D01*
X127836621Y-93686192D01*
X127825863Y-93811598D01*
X127811673Y-93944790D01*
X127786727Y-94086639D01*
X127746042Y-94230026D01*
X126730114Y-94249886D01*
X126749983Y-93233503D01*
X126902854Y-93182251D01*
X127042432Y-93138507D01*
X127165964Y-93101412D01*
X127165978Y-93101408D01*
X127279273Y-93067238D01*
X127279490Y-93067170D01*
X127388159Y-93032261D01*
X127388561Y-93032125D01*
X127498325Y-92992777D01*
X127498830Y-92992584D01*
X127615409Y-92945098D01*
X127615920Y-92944876D01*
X127745035Y-92885553D01*
X127745485Y-92885336D01*
X127892858Y-92810477D01*
X127893219Y-92810286D01*
X128053584Y-92722225D01*
X128238730Y-93049044D01*
%TA.AperFunction,Conductor*%
D17*
G36*
X128238730Y-93049044D02*
G01*
X128103165Y-93138818D01*
X128101451Y-93140179D01*
X127996973Y-93238971D01*
X127995264Y-93240960D01*
X127924342Y-93343187D01*
X127923068Y-93345509D01*
X127878295Y-93452126D01*
X127877634Y-93454167D01*
X127851602Y-93566132D01*
X127851369Y-93567442D01*
X127836672Y-93685712D01*
X127836621Y-93686192D01*
X127825863Y-93811598D01*
X127811673Y-93944790D01*
X127786727Y-94086639D01*
X127746042Y-94230026D01*
X126730114Y-94249886D01*
X126749983Y-93233503D01*
X126902854Y-93182251D01*
X127042432Y-93138507D01*
X127165964Y-93101412D01*
X127165978Y-93101408D01*
X127279273Y-93067238D01*
X127279490Y-93067170D01*
X127388159Y-93032261D01*
X127388561Y-93032125D01*
X127498325Y-92992777D01*
X127498830Y-92992584D01*
X127615409Y-92945098D01*
X127615920Y-92944876D01*
X127745035Y-92885553D01*
X127745485Y-92885336D01*
X127892858Y-92810477D01*
X127893219Y-92810286D01*
X128053584Y-92722225D01*
X128238730Y-93049044D01*
G37*
%TD.AperFunction*%
%TD*%
D18*
%TO.N,Net-(J1-Pad2)*%
X136188071Y-95296947D02*
X136188409Y-95297106D01*
X136350311Y-95370281D01*
X136350719Y-95370457D01*
X136491927Y-95428427D01*
X136492373Y-95428600D01*
X136619236Y-95475179D01*
X136619654Y-95475324D01*
X136738516Y-95514325D01*
X136738819Y-95514420D01*
X136856030Y-95549657D01*
X136856155Y-95549694D01*
X136978004Y-95584964D01*
X137110900Y-95624099D01*
X137260967Y-95670842D01*
X137426426Y-95726274D01*
X137447564Y-96807564D01*
X136366750Y-96786435D01*
X136323911Y-96634059D01*
X136298176Y-96482773D01*
X136283956Y-96340139D01*
X136273328Y-96205720D01*
X136273280Y-96205224D01*
X136258273Y-96078769D01*
X136258037Y-96077416D01*
X136230654Y-95958524D01*
X136229958Y-95956387D01*
X136182193Y-95844516D01*
X136180807Y-95842065D01*
X136104653Y-95736678D01*
X136102768Y-95734599D01*
X135990218Y-95635154D01*
X135988336Y-95633777D01*
X135841507Y-95545801D01*
X136010402Y-95210255D01*
X136188071Y-95296947D01*
%TA.AperFunction,Conductor*%
D17*
G36*
X136188071Y-95296947D02*
G01*
X136188409Y-95297106D01*
X136350311Y-95370281D01*
X136350719Y-95370457D01*
X136491927Y-95428427D01*
X136492373Y-95428600D01*
X136619236Y-95475179D01*
X136619654Y-95475324D01*
X136738516Y-95514325D01*
X136738819Y-95514420D01*
X136856030Y-95549657D01*
X136856155Y-95549694D01*
X136978004Y-95584964D01*
X137110900Y-95624099D01*
X137260967Y-95670842D01*
X137426426Y-95726274D01*
X137447564Y-96807564D01*
X136366750Y-96786435D01*
X136323911Y-96634059D01*
X136298176Y-96482773D01*
X136283956Y-96340139D01*
X136273328Y-96205720D01*
X136273280Y-96205224D01*
X136258273Y-96078769D01*
X136258037Y-96077416D01*
X136230654Y-95958524D01*
X136229958Y-95956387D01*
X136182193Y-95844516D01*
X136180807Y-95842065D01*
X136104653Y-95736678D01*
X136102768Y-95734599D01*
X135990218Y-95635154D01*
X135988336Y-95633777D01*
X135841507Y-95545801D01*
X136010402Y-95210255D01*
X136188071Y-95296947D01*
G37*
%TD.AperFunction*%
%TD*%
D18*
%TO.N,Net-(J1-Pad2)*%
X128248128Y-98077490D02*
X128131636Y-98204145D01*
X128130817Y-98205130D01*
X128038171Y-98328861D01*
X128037332Y-98330135D01*
X127970887Y-98445511D01*
X127970172Y-98446958D01*
X127924037Y-98557515D01*
X127923560Y-98558866D01*
X127891848Y-98668139D01*
X127891611Y-98669095D01*
X127868432Y-98780621D01*
X127868356Y-98781015D01*
X127847834Y-98898256D01*
X127824122Y-99024516D01*
X127791367Y-99163329D01*
X127746256Y-99310022D01*
X126730114Y-99329886D01*
X126749978Y-98313744D01*
X126896670Y-98268632D01*
X127035483Y-98235877D01*
X127161742Y-98212165D01*
X127278984Y-98191643D01*
X127279378Y-98191567D01*
X127390903Y-98168388D01*
X127391859Y-98168151D01*
X127501133Y-98136439D01*
X127502484Y-98135962D01*
X127613040Y-98089827D01*
X127614487Y-98089112D01*
X127729863Y-98022667D01*
X127731137Y-98021828D01*
X127854868Y-97929182D01*
X127855853Y-97928364D01*
X127982510Y-97811873D01*
X128248128Y-98077490D01*
%TA.AperFunction,Conductor*%
D17*
G36*
X128248128Y-98077490D02*
G01*
X128131636Y-98204145D01*
X128130817Y-98205130D01*
X128038171Y-98328861D01*
X128037332Y-98330135D01*
X127970887Y-98445511D01*
X127970172Y-98446958D01*
X127924037Y-98557515D01*
X127923560Y-98558866D01*
X127891848Y-98668139D01*
X127891611Y-98669095D01*
X127868432Y-98780621D01*
X127868356Y-98781015D01*
X127847834Y-98898256D01*
X127824122Y-99024516D01*
X127791367Y-99163329D01*
X127746256Y-99310022D01*
X126730114Y-99329886D01*
X126749978Y-98313744D01*
X126896670Y-98268632D01*
X127035483Y-98235877D01*
X127161742Y-98212165D01*
X127278984Y-98191643D01*
X127279378Y-98191567D01*
X127390903Y-98168388D01*
X127391859Y-98168151D01*
X127501133Y-98136439D01*
X127502484Y-98135962D01*
X127613040Y-98089827D01*
X127614487Y-98089112D01*
X127729863Y-98022667D01*
X127731137Y-98021828D01*
X127854868Y-97929182D01*
X127855853Y-97928364D01*
X127982510Y-97811873D01*
X128248128Y-98077490D01*
G37*
%TD.AperFunction*%
%TD*%
D18*
%TO.N,Net-(J1-Pad3)*%
X137426425Y-99853726D02*
X137260966Y-99909157D01*
X137110899Y-99955899D01*
X136978003Y-99995034D01*
X136856154Y-100030305D01*
X136856029Y-100030342D01*
X136738818Y-100065579D01*
X136738515Y-100065674D01*
X136619653Y-100104674D01*
X136619235Y-100104819D01*
X136492372Y-100151398D01*
X136491926Y-100151571D01*
X136350718Y-100209541D01*
X136350310Y-100209717D01*
X136188408Y-100282892D01*
X136188070Y-100283051D01*
X136010401Y-100369744D01*
X135841505Y-100034198D01*
X135988335Y-99946220D01*
X135990216Y-99944843D01*
X136102766Y-99845399D01*
X136104651Y-99843320D01*
X136180805Y-99737932D01*
X136182191Y-99735481D01*
X136229956Y-99623611D01*
X136230652Y-99621475D01*
X136258036Y-99502583D01*
X136258272Y-99501229D01*
X136273279Y-99374774D01*
X136273327Y-99374278D01*
X136283955Y-99239860D01*
X136298176Y-99097225D01*
X136323911Y-98945940D01*
X136366750Y-98793565D01*
X137447564Y-98772436D01*
X137426425Y-99853726D01*
%TA.AperFunction,Conductor*%
D17*
G36*
X137426425Y-99853726D02*
G01*
X137260966Y-99909157D01*
X137110899Y-99955899D01*
X136978003Y-99995034D01*
X136856154Y-100030305D01*
X136856029Y-100030342D01*
X136738818Y-100065579D01*
X136738515Y-100065674D01*
X136619653Y-100104674D01*
X136619235Y-100104819D01*
X136492372Y-100151398D01*
X136491926Y-100151571D01*
X136350718Y-100209541D01*
X136350310Y-100209717D01*
X136188408Y-100282892D01*
X136188070Y-100283051D01*
X136010401Y-100369744D01*
X135841505Y-100034198D01*
X135988335Y-99946220D01*
X135990216Y-99944843D01*
X136102766Y-99845399D01*
X136104651Y-99843320D01*
X136180805Y-99737932D01*
X136182191Y-99735481D01*
X136229956Y-99623611D01*
X136230652Y-99621475D01*
X136258036Y-99502583D01*
X136258272Y-99501229D01*
X136273279Y-99374774D01*
X136273327Y-99374278D01*
X136283955Y-99239860D01*
X136298176Y-99097225D01*
X136323911Y-98945940D01*
X136366750Y-98793565D01*
X137447564Y-98772436D01*
X137426425Y-99853726D01*
G37*
%TD.AperFunction*%
%TD*%
D18*
%TO.N,Net-(J1-Pad3)*%
X128248128Y-103157490D02*
X128131636Y-103284145D01*
X128130817Y-103285130D01*
X128038171Y-103408861D01*
X128037332Y-103410135D01*
X127970887Y-103525511D01*
X127970172Y-103526958D01*
X127924037Y-103637515D01*
X127923560Y-103638866D01*
X127891848Y-103748139D01*
X127891611Y-103749095D01*
X127868432Y-103860621D01*
X127868356Y-103861015D01*
X127847834Y-103978256D01*
X127824122Y-104104516D01*
X127791367Y-104243329D01*
X127746256Y-104390022D01*
X126730114Y-104409886D01*
X126749978Y-103393744D01*
X126896670Y-103348632D01*
X127035483Y-103315877D01*
X127161742Y-103292165D01*
X127278984Y-103271643D01*
X127279378Y-103271567D01*
X127390903Y-103248388D01*
X127391859Y-103248151D01*
X127501133Y-103216439D01*
X127502484Y-103215962D01*
X127613040Y-103169827D01*
X127614487Y-103169112D01*
X127729863Y-103102667D01*
X127731137Y-103101828D01*
X127854868Y-103009182D01*
X127855853Y-103008364D01*
X127982510Y-102891873D01*
X128248128Y-103157490D01*
%TA.AperFunction,Conductor*%
D17*
G36*
X128248128Y-103157490D02*
G01*
X128131636Y-103284145D01*
X128130817Y-103285130D01*
X128038171Y-103408861D01*
X128037332Y-103410135D01*
X127970887Y-103525511D01*
X127970172Y-103526958D01*
X127924037Y-103637515D01*
X127923560Y-103638866D01*
X127891848Y-103748139D01*
X127891611Y-103749095D01*
X127868432Y-103860621D01*
X127868356Y-103861015D01*
X127847834Y-103978256D01*
X127824122Y-104104516D01*
X127791367Y-104243329D01*
X127746256Y-104390022D01*
X126730114Y-104409886D01*
X126749978Y-103393744D01*
X126896670Y-103348632D01*
X127035483Y-103315877D01*
X127161742Y-103292165D01*
X127278984Y-103271643D01*
X127279378Y-103271567D01*
X127390903Y-103248388D01*
X127391859Y-103248151D01*
X127501133Y-103216439D01*
X127502484Y-103215962D01*
X127613040Y-103169827D01*
X127614487Y-103169112D01*
X127729863Y-103102667D01*
X127731137Y-103101828D01*
X127854868Y-103009182D01*
X127855853Y-103008364D01*
X127982510Y-102891873D01*
X128248128Y-103157490D01*
G37*
%TD.AperFunction*%
%TD*%
D18*
%TO.N,Net-(J1-Pad5)*%
X136242545Y-102945657D02*
X136243566Y-102946499D01*
X136375733Y-103044474D01*
X136377053Y-103045332D01*
X136500420Y-103114971D01*
X136501913Y-103115689D01*
X136620232Y-103163411D01*
X136621611Y-103163877D01*
X136738633Y-103196098D01*
X136739589Y-103196322D01*
X136859064Y-103219461D01*
X136859437Y-103219528D01*
X136985047Y-103239990D01*
X137120253Y-103264140D01*
X137268863Y-103298368D01*
X137426431Y-103346529D01*
X137447564Y-104427564D01*
X136366529Y-104406431D01*
X136318368Y-104248863D01*
X136284140Y-104100253D01*
X136259990Y-103965047D01*
X136239528Y-103839437D01*
X136239461Y-103839064D01*
X136216322Y-103719589D01*
X136216098Y-103718633D01*
X136183877Y-103601611D01*
X136183411Y-103600232D01*
X136135689Y-103481913D01*
X136134971Y-103480420D01*
X136065332Y-103357053D01*
X136064474Y-103355733D01*
X135966499Y-103223566D01*
X135965657Y-103222545D01*
X135841150Y-103086791D01*
X136106791Y-102821150D01*
X136242545Y-102945657D01*
%TA.AperFunction,Conductor*%
D17*
G36*
X136242545Y-102945657D02*
G01*
X136243566Y-102946499D01*
X136375733Y-103044474D01*
X136377053Y-103045332D01*
X136500420Y-103114971D01*
X136501913Y-103115689D01*
X136620232Y-103163411D01*
X136621611Y-103163877D01*
X136738633Y-103196098D01*
X136739589Y-103196322D01*
X136859064Y-103219461D01*
X136859437Y-103219528D01*
X136985047Y-103239990D01*
X137120253Y-103264140D01*
X137268863Y-103298368D01*
X137426431Y-103346529D01*
X137447564Y-104427564D01*
X136366529Y-104406431D01*
X136318368Y-104248863D01*
X136284140Y-104100253D01*
X136259990Y-103965047D01*
X136239528Y-103839437D01*
X136239461Y-103839064D01*
X136216322Y-103719589D01*
X136216098Y-103718633D01*
X136183877Y-103601611D01*
X136183411Y-103600232D01*
X136135689Y-103481913D01*
X136134971Y-103480420D01*
X136065332Y-103357053D01*
X136064474Y-103355733D01*
X135966499Y-103223566D01*
X135965657Y-103222545D01*
X135841150Y-103086791D01*
X136106791Y-102821150D01*
X136242545Y-102945657D01*
G37*
%TD.AperFunction*%
%TD*%
D18*
%TO.N,Net-(J1-Pad5)*%
X135366256Y-101349978D02*
X135411367Y-101496670D01*
X135444122Y-101635483D01*
X135467834Y-101761743D01*
X135488356Y-101878984D01*
X135488432Y-101879378D01*
X135511611Y-101990904D01*
X135511848Y-101991860D01*
X135543560Y-102101133D01*
X135544037Y-102102484D01*
X135590172Y-102213041D01*
X135590887Y-102214488D01*
X135657332Y-102329864D01*
X135658171Y-102331138D01*
X135750817Y-102454869D01*
X135751635Y-102455854D01*
X135868127Y-102582511D01*
X135602511Y-102848127D01*
X135475854Y-102731635D01*
X135474869Y-102730817D01*
X135351138Y-102638171D01*
X135349864Y-102637332D01*
X135234488Y-102570887D01*
X135233041Y-102570172D01*
X135122484Y-102524037D01*
X135121133Y-102523560D01*
X135011860Y-102491848D01*
X135010904Y-102491611D01*
X134899378Y-102468432D01*
X134898984Y-102468356D01*
X134781743Y-102447834D01*
X134655483Y-102424122D01*
X134516670Y-102391367D01*
X134369978Y-102346256D01*
X134350114Y-101330114D01*
X135366256Y-101349978D01*
%TA.AperFunction,Conductor*%
D17*
G36*
X135366256Y-101349978D02*
G01*
X135411367Y-101496670D01*
X135444122Y-101635483D01*
X135467834Y-101761743D01*
X135488356Y-101878984D01*
X135488432Y-101879378D01*
X135511611Y-101990904D01*
X135511848Y-101991860D01*
X135543560Y-102101133D01*
X135544037Y-102102484D01*
X135590172Y-102213041D01*
X135590887Y-102214488D01*
X135657332Y-102329864D01*
X135658171Y-102331138D01*
X135750817Y-102454869D01*
X135751635Y-102455854D01*
X135868127Y-102582511D01*
X135602511Y-102848127D01*
X135475854Y-102731635D01*
X135474869Y-102730817D01*
X135351138Y-102638171D01*
X135349864Y-102637332D01*
X135234488Y-102570887D01*
X135233041Y-102570172D01*
X135122484Y-102524037D01*
X135121133Y-102523560D01*
X135011860Y-102491848D01*
X135010904Y-102491611D01*
X134899378Y-102468432D01*
X134898984Y-102468356D01*
X134781743Y-102447834D01*
X134655483Y-102424122D01*
X134516670Y-102391367D01*
X134369978Y-102346256D01*
X134350114Y-101330114D01*
X135366256Y-101349978D01*
G37*
%TD.AperFunction*%
%TD*%
D18*
%TO.N,Net-(J1-Pad6)*%
X135366042Y-96269974D02*
X135406726Y-96413360D01*
X135431673Y-96555210D01*
X135445862Y-96688402D01*
X135456620Y-96813808D01*
X135456671Y-96814288D01*
X135471367Y-96932559D01*
X135471600Y-96933869D01*
X135497632Y-97045834D01*
X135498293Y-97047875D01*
X135543066Y-97154492D01*
X135544340Y-97156814D01*
X135615262Y-97259040D01*
X135616971Y-97261029D01*
X135721450Y-97359820D01*
X135723164Y-97361181D01*
X135858729Y-97450954D01*
X135673587Y-97777776D01*
X135513220Y-97689716D01*
X135512859Y-97689525D01*
X135365486Y-97614667D01*
X135365036Y-97614450D01*
X135235920Y-97555127D01*
X135235409Y-97554905D01*
X135118829Y-97507419D01*
X135118324Y-97507226D01*
X135008561Y-97467877D01*
X135008159Y-97467741D01*
X134899490Y-97432831D01*
X134899273Y-97432763D01*
X134785978Y-97398593D01*
X134785964Y-97398589D01*
X134662432Y-97361493D01*
X134522854Y-97317748D01*
X134369983Y-97266497D01*
X134350114Y-96250114D01*
X135366042Y-96269974D01*
%TA.AperFunction,Conductor*%
D17*
G36*
X135366042Y-96269974D02*
G01*
X135406726Y-96413360D01*
X135431673Y-96555210D01*
X135445862Y-96688402D01*
X135456620Y-96813808D01*
X135456671Y-96814288D01*
X135471367Y-96932559D01*
X135471600Y-96933869D01*
X135497632Y-97045834D01*
X135498293Y-97047875D01*
X135543066Y-97154492D01*
X135544340Y-97156814D01*
X135615262Y-97259040D01*
X135616971Y-97261029D01*
X135721450Y-97359820D01*
X135723164Y-97361181D01*
X135858729Y-97450954D01*
X135673587Y-97777776D01*
X135513220Y-97689716D01*
X135512859Y-97689525D01*
X135365486Y-97614667D01*
X135365036Y-97614450D01*
X135235920Y-97555127D01*
X135235409Y-97554905D01*
X135118829Y-97507419D01*
X135118324Y-97507226D01*
X135008561Y-97467877D01*
X135008159Y-97467741D01*
X134899490Y-97432831D01*
X134899273Y-97432763D01*
X134785978Y-97398593D01*
X134785964Y-97398589D01*
X134662432Y-97361493D01*
X134522854Y-97317748D01*
X134369983Y-97266497D01*
X134350114Y-96250114D01*
X135366042Y-96269974D01*
G37*
%TD.AperFunction*%
%TD*%
D18*
%TO.N,Net-(J1-Pad6)*%
X138469743Y-105530402D02*
X138383049Y-105708070D01*
X138382890Y-105708408D01*
X138309714Y-105870310D01*
X138309538Y-105870718D01*
X138251568Y-106011926D01*
X138251395Y-106012372D01*
X138204817Y-106139234D01*
X138204672Y-106139652D01*
X138165671Y-106258515D01*
X138165576Y-106258818D01*
X138130340Y-106376029D01*
X138130303Y-106376154D01*
X138095033Y-106498004D01*
X138055904Y-106630882D01*
X138009156Y-106780966D01*
X137953726Y-106946425D01*
X136872436Y-106967564D01*
X136893565Y-105886750D01*
X137045940Y-105843910D01*
X137197225Y-105818175D01*
X137339859Y-105803955D01*
X137474278Y-105793326D01*
X137474774Y-105793277D01*
X137601227Y-105778270D01*
X137602580Y-105778035D01*
X137721473Y-105750651D01*
X137723610Y-105749955D01*
X137835480Y-105702190D01*
X137837931Y-105700804D01*
X137943319Y-105624649D01*
X137945398Y-105622764D01*
X138044843Y-105510215D01*
X138046220Y-105508334D01*
X138134199Y-105361504D01*
X138469743Y-105530402D01*
%TA.AperFunction,Conductor*%
D17*
G36*
X138469743Y-105530402D02*
G01*
X138383049Y-105708070D01*
X138382890Y-105708408D01*
X138309714Y-105870310D01*
X138309538Y-105870718D01*
X138251568Y-106011926D01*
X138251395Y-106012372D01*
X138204817Y-106139234D01*
X138204672Y-106139652D01*
X138165671Y-106258515D01*
X138165576Y-106258818D01*
X138130340Y-106376029D01*
X138130303Y-106376154D01*
X138095033Y-106498004D01*
X138055904Y-106630882D01*
X138009156Y-106780966D01*
X137953726Y-106946425D01*
X136872436Y-106967564D01*
X136893565Y-105886750D01*
X137045940Y-105843910D01*
X137197225Y-105818175D01*
X137339859Y-105803955D01*
X137474278Y-105793326D01*
X137474774Y-105793277D01*
X137601227Y-105778270D01*
X137602580Y-105778035D01*
X137721473Y-105750651D01*
X137723610Y-105749955D01*
X137835480Y-105702190D01*
X137837931Y-105700804D01*
X137943319Y-105624649D01*
X137945398Y-105622764D01*
X138044843Y-105510215D01*
X138046220Y-105508334D01*
X138134199Y-105361504D01*
X138469743Y-105530402D01*
G37*
%TD.AperFunction*%
%TD*%
D18*
%TO.N,E2*%
X133764145Y-90308364D02*
X133765130Y-90309182D01*
X133888861Y-90401828D01*
X133890135Y-90402667D01*
X134005511Y-90469112D01*
X134006958Y-90469827D01*
X134117515Y-90515962D01*
X134118866Y-90516439D01*
X134228139Y-90548151D01*
X134229095Y-90548388D01*
X134340621Y-90571567D01*
X134341015Y-90571643D01*
X134458256Y-90592165D01*
X134584516Y-90615877D01*
X134723329Y-90648632D01*
X134870022Y-90693744D01*
X134889886Y-91709886D01*
X133873744Y-91690022D01*
X133828632Y-91543329D01*
X133795877Y-91404516D01*
X133772165Y-91278256D01*
X133751643Y-91161015D01*
X133751567Y-91160621D01*
X133728388Y-91049095D01*
X133728151Y-91048139D01*
X133696439Y-90938866D01*
X133695962Y-90937515D01*
X133649827Y-90826958D01*
X133649112Y-90825511D01*
X133582667Y-90710135D01*
X133581828Y-90708861D01*
X133489182Y-90585130D01*
X133488364Y-90584145D01*
X133371873Y-90457489D01*
X133637489Y-90191873D01*
X133764145Y-90308364D01*
%TA.AperFunction,Conductor*%
D17*
G36*
X133764145Y-90308364D02*
G01*
X133765130Y-90309182D01*
X133888861Y-90401828D01*
X133890135Y-90402667D01*
X134005511Y-90469112D01*
X134006958Y-90469827D01*
X134117515Y-90515962D01*
X134118866Y-90516439D01*
X134228139Y-90548151D01*
X134229095Y-90548388D01*
X134340621Y-90571567D01*
X134341015Y-90571643D01*
X134458256Y-90592165D01*
X134584516Y-90615877D01*
X134723329Y-90648632D01*
X134870022Y-90693744D01*
X134889886Y-91709886D01*
X133873744Y-91690022D01*
X133828632Y-91543329D01*
X133795877Y-91404516D01*
X133772165Y-91278256D01*
X133751643Y-91161015D01*
X133751567Y-91160621D01*
X133728388Y-91049095D01*
X133728151Y-91048139D01*
X133696439Y-90938866D01*
X133695962Y-90937515D01*
X133649827Y-90826958D01*
X133649112Y-90825511D01*
X133582667Y-90710135D01*
X133581828Y-90708861D01*
X133489182Y-90585130D01*
X133488364Y-90584145D01*
X133371873Y-90457489D01*
X133637489Y-90191873D01*
X133764145Y-90308364D01*
G37*
%TD.AperFunction*%
%TD*%
D18*
%TO.N,E2*%
X132829464Y-86732672D02*
X132752102Y-86878142D01*
X132671211Y-87007445D01*
X132592698Y-87120105D01*
X132518342Y-87223401D01*
X132518125Y-87223712D01*
X132450004Y-87324556D01*
X132449486Y-87325391D01*
X132389524Y-87430921D01*
X132388879Y-87432226D01*
X132338959Y-87549635D01*
X132338411Y-87551198D01*
X132300420Y-87687674D01*
X132300093Y-87689214D01*
X132275916Y-87851949D01*
X132275790Y-87853267D01*
X132267837Y-88037300D01*
X131892163Y-88037300D01*
X131884209Y-87853267D01*
X131884083Y-87851949D01*
X131859906Y-87689214D01*
X131859579Y-87687674D01*
X131821588Y-87551198D01*
X131821040Y-87549635D01*
X131771120Y-87432226D01*
X131770475Y-87430921D01*
X131710513Y-87325391D01*
X131709995Y-87324556D01*
X131641874Y-87223712D01*
X131641657Y-87223401D01*
X131567301Y-87120105D01*
X131488788Y-87007445D01*
X131407897Y-86878142D01*
X131330536Y-86732672D01*
X132080000Y-85953322D01*
X132829464Y-86732672D01*
%TA.AperFunction,Conductor*%
D17*
G36*
X132829464Y-86732672D02*
G01*
X132752102Y-86878142D01*
X132671211Y-87007445D01*
X132592698Y-87120105D01*
X132518342Y-87223401D01*
X132518125Y-87223712D01*
X132450004Y-87324556D01*
X132449486Y-87325391D01*
X132389524Y-87430921D01*
X132388879Y-87432226D01*
X132338959Y-87549635D01*
X132338411Y-87551198D01*
X132300420Y-87687674D01*
X132300093Y-87689214D01*
X132275916Y-87851949D01*
X132275790Y-87853267D01*
X132267837Y-88037300D01*
X131892163Y-88037300D01*
X131884209Y-87853267D01*
X131884083Y-87851949D01*
X131859906Y-87689214D01*
X131859579Y-87687674D01*
X131821588Y-87551198D01*
X131821040Y-87549635D01*
X131771120Y-87432226D01*
X131770475Y-87430921D01*
X131710513Y-87325391D01*
X131709995Y-87324556D01*
X131641874Y-87223712D01*
X131641657Y-87223401D01*
X131567301Y-87120105D01*
X131488788Y-87007445D01*
X131407897Y-86878142D01*
X131330536Y-86732672D01*
X132080000Y-85953322D01*
X132829464Y-86732672D01*
G37*
%TD.AperFunction*%
%TD*%
D18*
%TO.N,INPUT*%
X130289464Y-86732672D02*
X130212102Y-86878142D01*
X130131211Y-87007445D01*
X130052698Y-87120105D01*
X129978342Y-87223401D01*
X129978125Y-87223712D01*
X129910004Y-87324556D01*
X129909486Y-87325391D01*
X129849524Y-87430921D01*
X129848879Y-87432226D01*
X129798959Y-87549635D01*
X129798411Y-87551198D01*
X129760420Y-87687674D01*
X129760093Y-87689214D01*
X129735916Y-87851949D01*
X129735790Y-87853267D01*
X129727837Y-88037300D01*
X129352163Y-88037300D01*
X129344209Y-87853267D01*
X129344083Y-87851949D01*
X129319906Y-87689214D01*
X129319579Y-87687674D01*
X129281588Y-87551198D01*
X129281040Y-87549635D01*
X129231120Y-87432226D01*
X129230475Y-87430921D01*
X129170513Y-87325391D01*
X129169995Y-87324556D01*
X129101874Y-87223712D01*
X129101657Y-87223401D01*
X129027301Y-87120105D01*
X128948788Y-87007445D01*
X128867897Y-86878142D01*
X128790536Y-86732672D01*
X129540000Y-85953322D01*
X130289464Y-86732672D01*
%TA.AperFunction,Conductor*%
D17*
G36*
X130289464Y-86732672D02*
G01*
X130212102Y-86878142D01*
X130131211Y-87007445D01*
X130052698Y-87120105D01*
X129978342Y-87223401D01*
X129978125Y-87223712D01*
X129910004Y-87324556D01*
X129909486Y-87325391D01*
X129849524Y-87430921D01*
X129848879Y-87432226D01*
X129798959Y-87549635D01*
X129798411Y-87551198D01*
X129760420Y-87687674D01*
X129760093Y-87689214D01*
X129735916Y-87851949D01*
X129735790Y-87853267D01*
X129727837Y-88037300D01*
X129352163Y-88037300D01*
X129344209Y-87853267D01*
X129344083Y-87851949D01*
X129319906Y-87689214D01*
X129319579Y-87687674D01*
X129281588Y-87551198D01*
X129281040Y-87549635D01*
X129231120Y-87432226D01*
X129230475Y-87430921D01*
X129170513Y-87325391D01*
X129169995Y-87324556D01*
X129101874Y-87223712D01*
X129101657Y-87223401D01*
X129027301Y-87120105D01*
X128948788Y-87007445D01*
X128867897Y-86878142D01*
X128790536Y-86732672D01*
X129540000Y-85953322D01*
X130289464Y-86732672D01*
G37*
%TD.AperFunction*%
%TD*%
D18*
%TO.N,INPUT*%
X128248128Y-95537490D02*
X128131636Y-95664145D01*
X128130817Y-95665130D01*
X128038171Y-95788861D01*
X128037332Y-95790135D01*
X127970887Y-95905511D01*
X127970172Y-95906958D01*
X127924037Y-96017515D01*
X127923560Y-96018866D01*
X127891848Y-96128139D01*
X127891611Y-96129095D01*
X127868432Y-96240621D01*
X127868356Y-96241015D01*
X127847834Y-96358256D01*
X127824122Y-96484516D01*
X127791367Y-96623329D01*
X127746256Y-96770022D01*
X126730114Y-96789886D01*
X126749978Y-95773744D01*
X126896670Y-95728632D01*
X127035483Y-95695877D01*
X127161742Y-95672165D01*
X127278984Y-95651643D01*
X127279378Y-95651567D01*
X127390903Y-95628388D01*
X127391859Y-95628151D01*
X127501133Y-95596439D01*
X127502484Y-95595962D01*
X127613041Y-95549827D01*
X127614488Y-95549112D01*
X127729863Y-95482667D01*
X127731137Y-95481828D01*
X127854868Y-95389182D01*
X127855853Y-95388364D01*
X127982510Y-95271873D01*
X128248128Y-95537490D01*
%TA.AperFunction,Conductor*%
D17*
G36*
X128248128Y-95537490D02*
G01*
X128131636Y-95664145D01*
X128130817Y-95665130D01*
X128038171Y-95788861D01*
X128037332Y-95790135D01*
X127970887Y-95905511D01*
X127970172Y-95906958D01*
X127924037Y-96017515D01*
X127923560Y-96018866D01*
X127891848Y-96128139D01*
X127891611Y-96129095D01*
X127868432Y-96240621D01*
X127868356Y-96241015D01*
X127847834Y-96358256D01*
X127824122Y-96484516D01*
X127791367Y-96623329D01*
X127746256Y-96770022D01*
X126730114Y-96789886D01*
X126749978Y-95773744D01*
X126896670Y-95728632D01*
X127035483Y-95695877D01*
X127161742Y-95672165D01*
X127278984Y-95651643D01*
X127279378Y-95651567D01*
X127390903Y-95628388D01*
X127391859Y-95628151D01*
X127501133Y-95596439D01*
X127502484Y-95595962D01*
X127613041Y-95549827D01*
X127614488Y-95549112D01*
X127729863Y-95482667D01*
X127731137Y-95481828D01*
X127854868Y-95389182D01*
X127855853Y-95388364D01*
X127982510Y-95271873D01*
X128248128Y-95537490D01*
G37*
%TD.AperFunction*%
%TD*%
D18*
%TO.N,INPUT*%
X135001678Y-93980000D02*
X134269111Y-94684475D01*
X134133484Y-94612647D01*
X134012163Y-94537651D01*
X133906099Y-94465125D01*
X133808706Y-94396750D01*
X133808374Y-94396524D01*
X133713124Y-94334053D01*
X133712281Y-94333546D01*
X133612589Y-94278702D01*
X133611296Y-94278083D01*
X133500498Y-94232529D01*
X133498969Y-94232011D01*
X133370402Y-94197412D01*
X133368908Y-94197105D01*
X133215906Y-94175125D01*
X133214630Y-94175007D01*
X133042700Y-94167820D01*
X133042700Y-93792180D01*
X133214631Y-93784992D01*
X133215906Y-93784874D01*
X133368908Y-93762894D01*
X133370402Y-93762587D01*
X133498969Y-93727988D01*
X133500498Y-93727470D01*
X133611296Y-93681916D01*
X133612589Y-93681297D01*
X133712281Y-93626453D01*
X133713124Y-93625946D01*
X133808374Y-93563475D01*
X133808706Y-93563249D01*
X133906099Y-93494874D01*
X134012163Y-93422348D01*
X134133484Y-93347352D01*
X134269111Y-93275525D01*
X135001678Y-93980000D01*
%TA.AperFunction,Conductor*%
D17*
G36*
X135001678Y-93980000D02*
G01*
X134269111Y-94684475D01*
X134133484Y-94612647D01*
X134012163Y-94537651D01*
X133906099Y-94465125D01*
X133808706Y-94396750D01*
X133808374Y-94396524D01*
X133713124Y-94334053D01*
X133712281Y-94333546D01*
X133612589Y-94278702D01*
X133611296Y-94278083D01*
X133500498Y-94232529D01*
X133498969Y-94232011D01*
X133370402Y-94197412D01*
X133368908Y-94197105D01*
X133215906Y-94175125D01*
X133214630Y-94175007D01*
X133042700Y-94167820D01*
X133042700Y-93792180D01*
X133214631Y-93784992D01*
X133215906Y-93784874D01*
X133368908Y-93762894D01*
X133370402Y-93762587D01*
X133498969Y-93727988D01*
X133500498Y-93727470D01*
X133611296Y-93681916D01*
X133612589Y-93681297D01*
X133712281Y-93626453D01*
X133713124Y-93625946D01*
X133808374Y-93563475D01*
X133808706Y-93563249D01*
X133906099Y-93494874D01*
X134012163Y-93422348D01*
X134133484Y-93347352D01*
X134269111Y-93275525D01*
X135001678Y-93980000D01*
G37*
%TD.AperFunction*%
%TD*%
D18*
%TO.N,+5V*%
X137541678Y-88900000D02*
X136809169Y-89604420D01*
X136712662Y-89552275D01*
X136624351Y-89494702D01*
X136546850Y-89437404D01*
X136475224Y-89382035D01*
X136474958Y-89381835D01*
X136404467Y-89330240D01*
X136403661Y-89329696D01*
X136329464Y-89283663D01*
X136328152Y-89282952D01*
X136245303Y-89244183D01*
X136243669Y-89243552D01*
X136147222Y-89213751D01*
X136145557Y-89213357D01*
X136030566Y-89194227D01*
X136029101Y-89194070D01*
X135902700Y-89187904D01*
X135902700Y-88612096D01*
X136029101Y-88605929D01*
X136030566Y-88605772D01*
X136145557Y-88586642D01*
X136147222Y-88586248D01*
X136243669Y-88556447D01*
X136245303Y-88555816D01*
X136328152Y-88517047D01*
X136329464Y-88516336D01*
X136403661Y-88470303D01*
X136404467Y-88469759D01*
X136474958Y-88418164D01*
X136475224Y-88417964D01*
X136546850Y-88362595D01*
X136624351Y-88305297D01*
X136712662Y-88247724D01*
X136809169Y-88195580D01*
X137541678Y-88900000D01*
%TA.AperFunction,Conductor*%
D17*
G36*
X137541678Y-88900000D02*
G01*
X136809169Y-89604420D01*
X136712662Y-89552275D01*
X136624351Y-89494702D01*
X136546850Y-89437404D01*
X136475224Y-89382035D01*
X136474958Y-89381835D01*
X136404467Y-89330240D01*
X136403661Y-89329696D01*
X136329464Y-89283663D01*
X136328152Y-89282952D01*
X136245303Y-89244183D01*
X136243669Y-89243552D01*
X136147222Y-89213751D01*
X136145557Y-89213357D01*
X136030566Y-89194227D01*
X136029101Y-89194070D01*
X135902700Y-89187904D01*
X135902700Y-88612096D01*
X136029101Y-88605929D01*
X136030566Y-88605772D01*
X136145557Y-88586642D01*
X136147222Y-88586248D01*
X136243669Y-88556447D01*
X136245303Y-88555816D01*
X136328152Y-88517047D01*
X136329464Y-88516336D01*
X136403661Y-88470303D01*
X136404467Y-88469759D01*
X136474958Y-88418164D01*
X136475224Y-88417964D01*
X136546850Y-88362595D01*
X136624351Y-88305297D01*
X136712662Y-88247724D01*
X136809169Y-88195580D01*
X137541678Y-88900000D01*
G37*
%TD.AperFunction*%
%TD*%
D18*
%TO.N,+5V*%
X135067337Y-88247724D02*
X135155648Y-88305297D01*
X135233149Y-88362595D01*
X135304775Y-88417964D01*
X135305041Y-88418164D01*
X135375532Y-88469759D01*
X135376338Y-88470303D01*
X135450535Y-88516336D01*
X135451847Y-88517047D01*
X135534696Y-88555816D01*
X135536330Y-88556447D01*
X135632777Y-88586248D01*
X135634442Y-88586642D01*
X135749433Y-88605772D01*
X135750898Y-88605929D01*
X135877300Y-88612096D01*
X135877300Y-89187904D01*
X135750898Y-89194070D01*
X135749433Y-89194227D01*
X135634442Y-89213357D01*
X135632777Y-89213751D01*
X135536330Y-89243552D01*
X135534696Y-89244183D01*
X135451847Y-89282952D01*
X135450535Y-89283663D01*
X135376338Y-89329696D01*
X135375532Y-89330240D01*
X135305041Y-89381835D01*
X135304775Y-89382035D01*
X135233149Y-89437404D01*
X135155648Y-89494702D01*
X135067337Y-89552275D01*
X134970831Y-89604419D01*
X134238322Y-88900000D01*
X134970831Y-88195580D01*
X135067337Y-88247724D01*
%TA.AperFunction,Conductor*%
D17*
G36*
X135067337Y-88247724D02*
G01*
X135155648Y-88305297D01*
X135233149Y-88362595D01*
X135304775Y-88417964D01*
X135305041Y-88418164D01*
X135375532Y-88469759D01*
X135376338Y-88470303D01*
X135450535Y-88516336D01*
X135451847Y-88517047D01*
X135534696Y-88555816D01*
X135536330Y-88556447D01*
X135632777Y-88586248D01*
X135634442Y-88586642D01*
X135749433Y-88605772D01*
X135750898Y-88605929D01*
X135877300Y-88612096D01*
X135877300Y-89187904D01*
X135750898Y-89194070D01*
X135749433Y-89194227D01*
X135634442Y-89213357D01*
X135632777Y-89213751D01*
X135536330Y-89243552D01*
X135534696Y-89244183D01*
X135451847Y-89282952D01*
X135450535Y-89283663D01*
X135376338Y-89329696D01*
X135375532Y-89330240D01*
X135305041Y-89381835D01*
X135304775Y-89382035D01*
X135233149Y-89437404D01*
X135155648Y-89494702D01*
X135067337Y-89552275D01*
X134970831Y-89604419D01*
X134238322Y-88900000D01*
X134970831Y-88195580D01*
X135067337Y-88247724D01*
G37*
%TD.AperFunction*%
%TD*%
D18*
%TO.N,+5V*%
X137909396Y-86732602D02*
X137852550Y-86836961D01*
X137789581Y-86931346D01*
X137726478Y-87013670D01*
X137665143Y-87089364D01*
X137664963Y-87089591D01*
X137607531Y-87163877D01*
X137606969Y-87164664D01*
X137555531Y-87242839D01*
X137554766Y-87244170D01*
X137511305Y-87331663D01*
X137510610Y-87333359D01*
X137477111Y-87435600D01*
X137476672Y-87437352D01*
X137455117Y-87559771D01*
X137454942Y-87561320D01*
X137447938Y-87697300D01*
X136872062Y-87697300D01*
X136865057Y-87561320D01*
X136864882Y-87559771D01*
X136843327Y-87437352D01*
X136842888Y-87435600D01*
X136809389Y-87333359D01*
X136808694Y-87331663D01*
X136765233Y-87244170D01*
X136764468Y-87242839D01*
X136713030Y-87164664D01*
X136712468Y-87163877D01*
X136655036Y-87089591D01*
X136654856Y-87089364D01*
X136593521Y-87013670D01*
X136530418Y-86931346D01*
X136467449Y-86836961D01*
X136410604Y-86732602D01*
X137160000Y-85953322D01*
X137909396Y-86732602D01*
%TA.AperFunction,Conductor*%
D17*
G36*
X137909396Y-86732602D02*
G01*
X137852550Y-86836961D01*
X137789581Y-86931346D01*
X137726478Y-87013670D01*
X137665143Y-87089364D01*
X137664963Y-87089591D01*
X137607531Y-87163877D01*
X137606969Y-87164664D01*
X137555531Y-87242839D01*
X137554766Y-87244170D01*
X137511305Y-87331663D01*
X137510610Y-87333359D01*
X137477111Y-87435600D01*
X137476672Y-87437352D01*
X137455117Y-87559771D01*
X137454942Y-87561320D01*
X137447938Y-87697300D01*
X136872062Y-87697300D01*
X136865057Y-87561320D01*
X136864882Y-87559771D01*
X136843327Y-87437352D01*
X136842888Y-87435600D01*
X136809389Y-87333359D01*
X136808694Y-87331663D01*
X136765233Y-87244170D01*
X136764468Y-87242839D01*
X136713030Y-87164664D01*
X136712468Y-87163877D01*
X136655036Y-87089591D01*
X136654856Y-87089364D01*
X136593521Y-87013670D01*
X136530418Y-86931346D01*
X136467449Y-86836961D01*
X136410604Y-86732602D01*
X137160000Y-85953322D01*
X137909396Y-86732602D01*
G37*
%TD.AperFunction*%
%TD*%
D18*
%TO.N,+5V*%
X137454070Y-87769101D02*
X137454227Y-87770566D01*
X137473357Y-87885557D01*
X137473751Y-87887222D01*
X137503552Y-87983669D01*
X137504183Y-87985303D01*
X137542952Y-88068152D01*
X137543663Y-88069464D01*
X137589696Y-88143661D01*
X137590240Y-88144467D01*
X137641835Y-88214958D01*
X137642035Y-88215224D01*
X137697404Y-88286850D01*
X137754702Y-88364351D01*
X137812275Y-88452662D01*
X137864420Y-88549169D01*
X137160000Y-89281678D01*
X136455580Y-88549169D01*
X136507724Y-88452662D01*
X136565297Y-88364351D01*
X136622595Y-88286850D01*
X136677964Y-88215224D01*
X136678164Y-88214958D01*
X136729759Y-88144467D01*
X136730303Y-88143661D01*
X136776336Y-88069464D01*
X136777047Y-88068152D01*
X136815816Y-87985303D01*
X136816447Y-87983669D01*
X136846248Y-87887222D01*
X136846642Y-87885557D01*
X136865772Y-87770566D01*
X136865929Y-87769101D01*
X136872096Y-87642700D01*
X137447904Y-87642700D01*
X137454070Y-87769101D01*
%TA.AperFunction,Conductor*%
D17*
G36*
X137454070Y-87769101D02*
G01*
X137454227Y-87770566D01*
X137473357Y-87885557D01*
X137473751Y-87887222D01*
X137503552Y-87983669D01*
X137504183Y-87985303D01*
X137542952Y-88068152D01*
X137543663Y-88069464D01*
X137589696Y-88143661D01*
X137590240Y-88144467D01*
X137641835Y-88214958D01*
X137642035Y-88215224D01*
X137697404Y-88286850D01*
X137754702Y-88364351D01*
X137812275Y-88452662D01*
X137864420Y-88549169D01*
X137160000Y-89281678D01*
X136455580Y-88549169D01*
X136507724Y-88452662D01*
X136565297Y-88364351D01*
X136622595Y-88286850D01*
X136677964Y-88215224D01*
X136678164Y-88214958D01*
X136729759Y-88144467D01*
X136730303Y-88143661D01*
X136776336Y-88069464D01*
X136777047Y-88068152D01*
X136815816Y-87985303D01*
X136816447Y-87983669D01*
X136846248Y-87887222D01*
X136846642Y-87885557D01*
X136865772Y-87770566D01*
X136865929Y-87769101D01*
X136872096Y-87642700D01*
X137447904Y-87642700D01*
X137454070Y-87769101D01*
G37*
%TD.AperFunction*%
%TD*%
M02*
